<svg xmlns="http://www.w3.org/2000/svg" width="200mm" height="200mm" viewBox="0 0 708.66142 708.66141"><g stroke-width="8.4"><path d="M41.966 51.757c3.835 45.44 1.565 90.88-2.466 136.203-4.564 83.267 14.248 166.047 5.566 249.32C45.688 513.145 49.094 589 51.3 664.78c11.517 22.2-2.668 13.97-19.96 32.448-8.633-9.972-8.073-43.59-7.936-63.792-.51-82.216-6.655-164.474-1.703-246.68-.974-79.328-16.25-158.586-5.86-237.958 2.52-29.858 3.41-59.913 5.847-89.784 6.283-3.362 13.29-5.868 20.28-7.255z" fill="#6d0300" stroke="#6d0300"/><path d="M19.432 128.8c-3.856-28.1-5.616-59.418 9.393-84.895C47.27 15.71 84.838 13.375 114.41 3.767 162.004-5.43 210.764-8.28 258.684.283c27.67-4.342 57.215 3.24 85.605 2.337 72.523 7.986 145.708-8.756 217.936 4.642 35.92 5.127 72.69-7.365 108.258 5.09 30.472 15.158 33.113 58.532 40.19 88.997 3.317 46.226-5.998 92.412-10.46 138.34-14.767 67.11-22.987 135.755-20.332 204.59-3.8 68.783-4.343 137.645-1.91 206.495 6.716 30.365-4.102 72.348-35.837 78.05-12.283-16.78 21.543-52.132-3.74-24.21 20.77-29.403 3.577-73.586 7.823-108.64-1.666-64.996 6.38-129.673 4.7-194.675 1.323-52.41 7.594-104.543 20.917-155.284 4.702-42.716 12.376-85.498 13.047-128.447-5.556-25.405-5.33-68.34-31.086-78.957-38.443-10.123-77.8 6.686-116.234-4.998-47.183-5.148-94.713.717-141.902 2.38-49.328-1.852-99.634-7.095-148.342-5.72-50.845-11.19-104.262-6.99-154.192 6.144-16.67-1.427-61.228 31.064-35.437 8.423-17.22 21.59-14.717 50.83-19.158 76.732-5.898 3.295-12.5 5.79-19.1 7.224z" fill="#6d0300" stroke="#6d0300"/><path d="M21.854 677.203c52.96-2.167 106.1-2.745 158.966 2.543 50.03.726 100.17-6.73 149.96 1.893 50.464 3.71 101.234 2.847 151.77 2.365 56.94-3.074 114.98-18.974 171.617-6.208-1.953.11.69 43.293-21.147 27.51-71.41-8.855-142.467 14.35-214.107 7.402-47.757 1.18-95.197-3.58-142.607-8.418-51.74.516-103.736 4.4-155.12-4.214-35.042-4.406-70.506.456-105.584-2.43 1.05-6.996 3.215-14.057 6.252-20.445zM43 163.398c30.796-13.178 66.293-7.8 99.056-9.443 75.114 7.96 150.926.668 226.196 7.244 41.038.486 82.022-2.892 122.893 2.005 45.61-2.517 90.39 7.44 135.617 9.934 16.73-2.932 72.084-17.23 44.192 14.506-8.818 15.58-36.695 13.834-59.33 15.14-43.518-3.306-86.764-11.954-130.734-9.104-58.09-5.852-116.617.686-174.776-5.49-61.568-1.676-123.483.892-184.664-6.71-23.918-4.415-68.95 10.003-79.223-1.116.062-5.648-.393-11.396.773-16.968z" fill="#6d0300" stroke="#6d0300"/><path d="M52.844 50.987c10.968-32.045 31.918-5.7 12.24 11.966-6.58 17.83-11.335 32.544-23.556 25.072 3.94-1.803 39.91-56.2 57.59-47.26 2.924 16.214-29.614 46.56-35.243 60.013-17.997-3.882-9.904 4.944-1.748-12.736C78.39 73.686 103.995 25.94 125.08 40.568c-18.63 21.986-18.446 20.21-38.81 46.334-7.288 18.76-27.66 43.843-31.997 32.505C85.323 88.56 119.86 60.75 154.728 34.715c19.762 18.845-34.29 39.79-42.677 60.605-6.22 14.66-38.283 40.054-17.686 15.58 35.925-26.746 69.91-57.77 111.438-75.575 18.1 19.202-27.804 30.938-36.597 47.68-6.893-1.935-22.624 43.357-34.852 25.69 22.884-22.054 47.76-45.213 78.414-55.42 35.1-4.328-7.793 33.3-9.293 34.804-9.063 15.627-52.025 51.432-20.102 22.422 33.79-23.236 67.504-47.97 105.217-64.33 18.8 21.495-37.128 39.483-49.295 59.08-9.92 4.088-10.672 21.047-20.538 17.53 39.552-25.285 79.723-52.093 124.307-67.717 18.65 21.888-37.978 39.743-49.702 59.807.183 4.946-38.74 36.337-11.036 12.26 40.578-25.575 82.302-51.475 127.855-66.655 10.12 23.022-38.746 37.255-50.825 57.69-7.3 16.15-31.427 27.046-8.22 9.513 44.385-31.84 92.207-61.884 144.894-77.174 10.184 24.983-43.452 43.223-59.373 64.636-9.153 11.25-45.042 40.316-17.983 18.81 46.06-25.557 90.418-56.825 140.75-72.883 35.217 7.76-34.012 44.32-31.898 52.414-7.54 16.232-40.345 35.97-10.04 16.92 40.298-15.36 76.654-39.573 117.28-53.955 12.975 23.13-44.66 43.667-47.8 59.63-11.17 19.683-32.645 25.294-2.576 10.194 30.328-12.416 56.512-44.257 87.92-47.706-.856 18.447-18.88 56.186-37.49 59.816-12.447-15.875 31.277-58.125 24.096-48.065-35.003 14.11-62.928 40.608-96.115 57.735-21.3-19.44 29.123-49.407 42.98-67.18 16.38-8.423 18.767-25.84 24.25-11.932-31.394 7.173-69.807 28.295-100.24 47.63-12.158 17.832-59.552 20.605-32.997-7.18 18.917-18.877 44.332-54.76 64.724-56.886-32.79 8.634-67.09 29.173-97.78 47.57-18.474 6.038-59.784 50.876-68.63 23.464 25.1-33.773 62.083-55.894 92.048-84.895 16.16-2.372-30.273 9.257-43.787 20.728-38.584 18.453-71.83 46.32-107.66 68.64-17.498-20.368 28.368-45.887 43.072-62.318 12.956-13.928 31.754-22.892 22.28-14.194-48.302 17.996-88.566 51.387-132.633 77.152-24.584-16.63 25.855-46.86 39.455-62.633 15.994-8.748 24.63-30.74 28.03-19.488-7.713 7.535-52.102 23.978-70.474 38.8-14.235 10.513-73.336 53.27-50.535 8.712 15.63-22.382 61.95-52.366 64.68-55.593 11.935 7.524-30.373 13.52-38.91 26.773-25.668 15.59-48.146 36.346-74.354 50.795-27.662-17.053 45.606-66.773 38.466-66.404 30.818-17.16-25.894 14.734-32.86 22.63-10.256 12.287-58.627 45.808-37.377 10.815 17.592-26.166 43.374-45.18 66.674-65.807-14.043 12.55 13.065 17.455-14.053 24.04-36.574 22.755-67.476 54.136-105.374 74.663-18.53-25.37 35.972-55.177 50.253-77.756 13.357-13.98 11.013-13.89 18.242-8.924-30.182 20.787-54.608 49.16-82.798 72.55 5.634 1.022-26.902 18.11-14.75-6.806 14.628-29.438 35.108-56.195 60.83-76.772-.535 5.412 9.755 12.095-9.77 21.595-18.35 7.15-30.7 51.08-54.114 47.935.32-19.43 31.114-76.96 43.772-52.942-9.353 8.634-20.215 19.972-19.198 19.03-7.963 13.737-46.2 48.426-37.916 11.336C43.685 72.28 51.233 34.5 64.96 48.222c12.235-14.205-5.206 11.724-12.116 2.765z" fill="#6d0300" stroke="#6d0300"/><path d="M175.535 380.628c33.41-37.676 55.936-84.452 95.474-116.71 22.238-20.626 54.852-54.383 86.856-32.717 24.21 27.836 1.577 67.526-1.938 99.04-16.694 57.386-13.946 118.042-27.992 176.035-1.088 32.34-3.14 65.124-4.8 97.123 17.47-6.495-6.642 39.112-17.493 9.086-18.82-29.39-6.362-66.017-8.44-98.774 12.12-51.877 16.65-105.083 23.166-157.832 5.278-32.84 19.714-67.722 16.425-100.098-29.853 2.21-50.553 32.552-73.037 50.323 24.28-26.31-14.022 17.637-21.104 29.918-18.198 20.44-33.36 61.37-67.12 44.608zM254.398 636.2c-31.264 5.296 7.018-11.183 0 0z" stroke="#000"/><path d="M242.897 623.388c36.713-26.215 83.832-24.89 125.193-39.487 21.968-7.618 49.167-23.108 36.374 12.618-10.613 28.14-58.622 18.466-84.64 30.663-26.97-.805-63.98 29.324-83.077 18.703 1.68-7.56 2.97-15.385 6.15-22.495z" stroke="#000"/></g></svg>