<svg xmlns="http://www.w3.org/2000/svg" width="200mm" height="200mm" viewBox="0 0 708.66142 707.66141"><path d="M345.148 14.926c-37.387-.14-74.995 7.75-110.95 17.16-37.442 4.13-76.477 17.904-101.58 47.65-27.48 25.602-50.287 55.623-64.58 90.62C54.016 210.435 50 253.103 43.52 294.903c-13.734 64.543-1.4 131.633 19.953 193.2 13.14 34.44 20.69 75.796 52.496 98.43 6.86-5.355 13.1-11.853 18.17-18.93-21.387-24.87-37.04-55.017-48.292-85.73-24.555-61.584-30.95-128.757-30.346-194.237C65.37 228.28 75.865 165.09 114.17 116.604c23.126-28.316 28.462-34.565 59.467-55.184 27.505-9.83 52.864-28.754 82.896-28.434 35.316-3.047 70.61-7.508 106.15-3.578 58.675 7.927 123.66 16.633 167.594 60.4 25.107 29.208 43.87 64.83 56.756 100.516 14.69 67.577 18.696 139.167-1.18 206.264 25.264 16.053 26.612-47.02 28.86-64.19-1.94-74.006-4.552-153.452-47.06-216.84-32.683-58.985-102.074-80.914-164.206-92.872-19.193-5.412-38.715-7.688-58.3-7.76zM202.082 86.68c-13.95-.36-38.927 21.243-46.143 32.914-25.693 39.908-31.803 90.562-24.217 136.695 9.686 34.925 19.815 74.165 47.318 99.464 34.752 25.205 72.12-13.165 97.692-34.93 20.62-30.6 24.18-70.898 24.446-107.222-3.89-40.99-9.342-87.47-43.532-115.383-12.61-25.994-73.965 1.07-34.76 11.555 37.27 14.05 46.32 58.12 51.864 92.993 3.012 35.112 1.555 77.005-19.674 106.316-9.554 7.836-28.785 23.298-36.404 23.89-35.554 11.85-42.746-40.282-54.54-62.85-15.978-34.982-15.31-75.637-6.76-112.362 11.337-24.348 11.45-30.04 28.337-43.578-1.748 1.808-2.835 2.89-3.636 3.675 3.897-3.58 16.42-14.032 22.848-9.897 2.744-4.263 4.195-9.188 6.045-13.865-1.378-5.14-4.615-7.31-8.885-7.418zm-20.008 31.18c-1.432 1.315-1.69 1.66 0 0zM439.44 86.702c-2.525-.05-5.694.344-9.534 1.248-26.824 17.764-51.017 42.74-60.597 74.21-12.96 53.1-8.658 111.338 13.928 161.313 17.17 24.186 46.416 49.42 77.838 48.34 29.97-10.672 51.51-38.57 66.297-65.815 29.376-54.82 33.207-126.11-2.877-178.912-13.016-27.077-47.442-47.663-75.476-28.697-1.78.444-3.338.842-4.702 1.202 4.81-7.632 3.514-12.718-4.877-12.89zm1.847 17.024c5.116.79 13.173 1.98 18.9 5.668 26.87 6.474 46.948 28.11 54.75 54.345 18.175 38.497 15.085 83.473-1.873 121.735.088 15.072-50.18 68.053-22.603 38.785-21.162 35.515-54.47 15.64-77.19-5.74-22.132-31.386-25.964-71.84-27.67-109.256-2.52-34.31 6.64-70.14 33.86-93.037-15.415 18.418 10.428-14.58 18.784-9.01 1.133-1.203 2.122-2.36 3.043-3.49zm8.705 28.445c-3.918-.032-7.398.892-10.467 2.533-3.25-.364-8.23 1.702-14.28 6.46-23.54 27.73-16.627 66.86-19.64 100.407-2.843 32.922 26.096 79.315 63.622 64.397 37.754-18.256 44.09-67.316 40.595-104.736-5.824-27.644-21.446-62.117-52.394-67.953-2.634-.734-5.112-1.09-7.436-1.108zm-238.414 7.016c-6.593.077-12.357 3.49-16.668 8.685-23.906 6.092-33.198 35.076-28.244 57.45 1.435 33.223 6.808 77.692 41.377 92.445 30.708 4.143 56.73-30.543 57.432-59.82-.274-33.813-9.62-72.58-38.782-93.302-5.297-3.88-10.414-5.514-15.115-5.458zm3.29 17.498c1.417 2.363 2.122 4.23 2.325 5.71-1.086-.148-2.223-.21-3.42-.166.26-1.866.617-3.716 1.096-5.544zm-9.977 10.263c-.062-.02.412.1.585.14-.303-.066-.515-.12-.584-.14zm256.942 95.632c-.052.105-.098.214-.15.318-1.767 2.076-2.96 3.53-3.813 4.618-.508.098-.995.163-1.468.205 1.997-1.55 3.8-3.273 5.43-5.14zm-139.525 148.38c-4.885 4.315-8.076 7.915-9.928 11.022-22.42 16.744 7.528 28.22 24.39 46.092 42.11 36.75 72.003 84.267 107.734 126.692 26.472 37.47 63.394 66.493 85.96 106.78 30.296-.634 9.24-26.29-4.792-39.556-36.03-39.644-69.283-81.74-100.18-125.53-17.476-28.697-39.91-53.423-62.633-77.874 39.083 14.718 74.888 36.91 110.7 58.385 57.438 29.93 113.59 62.453 171.58 91.343 2.125 3.895 4.718.66 11.897-.462 17.65-3.502.774-20.57 5.758-18.352-30.07-15.68-68.147-35.207-100.484-53.508-42.5-22.676-85.54-44.266-125.93-70.703-35.28-24.038-79.35-29.54-114.073-54.33z" stroke="#000" stroke-width="9.697"/></svg>
