<svg xmlns="http://www.w3.org/2000/svg" width="200mm" height="200mm" viewBox="0 0 708.66142 708.66141"><g stroke="#000" stroke-width="8.4"><path d="M11.67 415.48c-10.486-30.568-1.48-64.57-5.138-96.597.14-27.583 7.28-51.83 20.245-74.917 19.845-45.655 51.465-82.818 77.925-124.576 3.49-8.73 38.86-41.144 31.876-34.44-32.322 33.086 31.318-32.16-.49.237-11.973 12.087 28.836-28.66 1.812-1.692-5.908 5.372 27.942-26.14 39.932-31.88 23.153-21.603 52.376-32.442 82.042-42.073 30.47-6.17 62.356-3.146 93.123.722 42.42 4.795 83.928 19.946 118.215 45.65 28.32 17.91 56.24 36.332 86.07 51.605 25.195 24.842 46.984 53.457 67.51 82.31 28.226 46.026 50.285 95.905 63.947 148.193 5.452 49.35 3.376 102.09-21.977 146.214-21.086 39.574-34.062 83.758-64.038 118.113-22.68 30.913-50.753 59.88-87.968 72.198-29.137 17.07-61.63 19.63-93.905 26.626-37.536 5.27-75.45-3.592-112.56-8.446-63.73-21.876-125.035-53.314-175.105-98.91-32.653-20.697-57.48-50.86-72.13-86.587-20.583-39.108-50.612-76.854-47.713-123.642-5.78-26.99 51.824-35.8 36.472.6-.27 42.845 31.698 75.862 48.3 113.176 12.97 39.45 50.764 59.092 79.774 85.05 34.716 28.326 74.775 49.245 116.078 66.26 39.057 16.654 82.292 21.654 124.442 21.71 30.923-7.562 63.06-8.193 91.003-25.18 13.42-3.006 44.9-23.42 47.535-29.078-17.62 17.42 28.32-27.607 32.513-39.62 21.732-29.43 32.23-64.843 50.246-96.386 23.19-39.25 25.722-85.766 22.816-130.118-13.58-53.386-37.16-104.014-66.116-150.758-20.85-25.768-38.88-56.138-66.97-74.387-40.25-20.09-75.104-49.546-115.495-69.472-42.79-16.478-88.945-22.2-134.545-19.296-26.457 4.02-54.376 14.307-75.7 30.915-12.193 7.264-43.3 29.234-46.617 34.38 22.453-22.42-24.967 25.192 5.836-5.737-2.32 2.67-24.43 24.408-5.93 6.096 10.803-12.48-21.407 15.824-16.446 16.03-17.972 18.726 21.43-23.158.34.007-25.52 33.886-48.71 68.837-71.14 104.744-14.908 28.677-30.363 57.244-30.102 90.848-1.978 28.376 6.125 63.784-3.152 88.057-8.005 5.058-15.906 10.683-24.815 14.05z"/><path d="M292.99 383.725c-9.46-43.45-27.302-84.66-34.318-128.728-1.128-27.78-10.283-54.18-13.43-82.14-3.398-16.437-10.532-34.03-7.287-50.228 3.267-7.383-4.27-20.123-2.83-29.482-.405-7.27-6.286-21.654 3.32-25.503 6.563-.818 10.938 7.822 13.327 13.255 10.583 7.318 3.378 24.494 15.873 30.548 9.78 17.044 15.075 37.243 20.584 56.033 13.415 25.65 25.02 52.317 28.226 81.668 10.343 35.513 17.89 72.017 26.863 107.794-15.143 11.11-32.662 20.43-50.33 26.783z"/><path d="M345.47 347.162c12.18 16.955 11.708 34.238 27.103 49.395 19.275 30.99 38.693 63.27 48.238 98.718 2.645 13.043 5.138 25.764 11.818 38.02 7.943 11.005 10.002 24.415 14.182 36.933-.516 12.25 13.016 21.677 13.702 33.576-9.91 14.82-22.026-7.043-26.81-16.128-7.54-6.98-11.616-18.682-22.583-20.988-12.243-11.924-16.61-26.202-30.17-35.482-18.976-14.21-29.29-43.527-42.217-65.493-9.894-27.405-34.064-45.477-40.625-72.44-4.372-19.397 31.856-33.952 47.36-46.11zM63.155 445.31c2.92-7.115 23.394-11.91 17.668-14.606-7.43 7.02-16.176 16.096-24.112 23.91 9.418 3.75-1.77 4.443 6.543-6.522 13.275-2.99 25.483-24.836 28.26-11.2 4.262 6.724 2.015 19.917 1.303 5.586-29.374 29.66 28.72-27.692-3.803 3.593 5.18-4.355 23.783-25.395 24.365-14.2 4.913 12.24 3.06 24.975-9.822 28.653 16.453-15.262 7.163-3.94-5.42 3.786 6.244-9.72 10.563-8.012-3.062 1.046-3.942-14.102-8.15 7.55-5.42 11.568 9.945 2.706-16.677 12.905 5.557-.152 15.105-3.52 25.963-29.508 16.645-10.23-9.855 8.348-17.807 22.063-30.215 24.512-10.986 17.754-17.72-3.562-17.257-22.49-.485-7.633-2.536-15.65-1.228-23.253zM600.238 213.492c-8.904 4.888-15.198 12.762-23.5 14.448 1.688 2.95-9.514 7.13-14.637 9.15-4.01-8.723-1.154-6.483-7.865-10.313-4.89-8.03 1.026-23.516 5.374-30.6 1.92-1.573 3.526-8.967 5.79-13.965 3.27-4.14 13.26-8.393 16.772-10.393 20.85-13.298 22.186 12.158 19.242 34.108l-1.175 7.563-.002.002zM475.32 680.806c-8.092-8.162-23.52-18.713-25.466-25.68 6.517-8.553.463-22.527 20.16-23.59 15.376-2.196 13.363-7.93 22.62-11.232 5.82 11.33 25.453 36.17 3.692 45.318-6.79 5.317-13.237 11.287-21.007 15.184zM242.14 38.262c25.946 5.58-24.045 37.09-23.5 28.254-6.193-11.756 16.253-20.768 23.5-28.254z"/></g></svg>