<svg xmlns="http://www.w3.org/2000/svg" width="200" height="41.687" viewBox="0 0 199.99996 41.686682"><path d="M.974 13.63c2.918-.82 5.972-.59 9.03-.607-.445-.985-1.416-4.672-3.82-5.534C5.253 5.756 3.91 4.194 2.94 2.75c-1.576-.993-3.693-3.78-.62-1.72 2.046.88 2.973 3.155 5.026 3.863 3.184.704 6.01 2.545 9.278 3.012 2.29 1.264 4.9 1.592 7.41 2.21 3.29.367 6.58.856 9.853 1.166 3.157.634 6.377.594 9.704.886 3.374.246 6.778-.02 10.14.412 3.452.008 5.664 0 8.638 0 7.498.012 14.998-.035 22.494.032 3.432.987 7.035.584 10.532 1.154 1.582-.318 6.772.694 2.764.84-3.407-.06-6.872-.716-9.38-.58-4.048-.91-8.21-.786-12.353-.745-3.415 0-7.427 0-9.99.005-3.823-.005-6.406-.005-10.614-.005-2.496.16-6.705-.455-8.05-.296-4.427.107-8.836-.477-13.173-.79-2.455-.59-5.848-.646-9.232-1.17-3.2-.444-6.41-1.122-9.35-2.492-3.474-.578-6.487-2.5-9.918-3.214C4.572 3.283 1.692 2.2.498.077c2.83.694 4.695 4.537 6.46 7.013 2.393.96 6.01 7.15 1.367 6.64-1.783.064-3.614-.23-5.785.325-.704.227-1.193.36-1.566-.427z" stroke-width=".157" stroke-linecap="round" stroke-linejoin="bevel" fill="#646464" stroke="#646464"/><path d="M177.283 14.48c-1.813 6.406-7.294 7.913-13.333 6.73-24.08.08-48.163-.037-72.245-.012 3.423.06 10.504-4.46 3.825-4.245-5.19 2.284-11.357 3.815-15.793 4.227-7.373.04-17.425-.018-23.123.01-18.23.024-35.912 0-54.248-.013-6.135 3.123 1.844 6.7.992 2.345 2.4.282 11.72.043 17.318.11 6.817 0 13.635.01 20.452-.03 4.3.892 11.53 9.406 13.173 4.59-1.49-1.78-11.6-5.545-3.996-4.56 31.986.02 63.972-.012 95.958-.042-3.818 4.094 9.267 1.28 12.304 3.49 3.68 3.607 7.13-.806 1.375-2.312-3.577-1.397-13.53-1.1-4.786-1.186 6.367-.12 12.785.18 17.873.39 6.745-1.37 14.404 1.448 20.606-2.723 2.76-1.21 10.31-5.243 3.695-5.183-5.54 4.035-12.222 5.93-19.05 5.155-5.06.74 6.393-6.608-.995-6.743zM33.237 21.196h-.784.784z" stroke-width=".057" stroke-linecap="round" stroke-linejoin="bevel" fill="#3f3f3f" stroke="#000"/><path d="M13.134 30.094c-1.573.026-3.365-.198-4.668.883-1.17-.048-2.42-.04-3.39.718-1.135.41-2.725.627-3.036 2.03-.01 1.18-1.47 1.45-2.038 1.967.315.203 2.013.542.807.482.382.53 1.563.526 1.165 1.48.536 1.242 1.95 1.76 3.016 2.46 1.076.755 2.377.476 3.478 1.092 1.173.514 2.44.473 3.694.478 1.1-.326 2.172-.737 3.353-.458 1.352-.042 2.74.054 4.033-.414 1.253-.03 2.765.397 3.682-.742 1.15-.578.302-1.953 1.06-2.78.766-.843.362-2.777-.696-3.376-.61.103-1.75-.354-2.043.22 1.226-.228 2.925.064 2.792 1.672.29.966-.415 1.937-1.448 1.582.674.56-1.502.406-.725.8.647-.22 1.905-.787 1.496.45-.298.413-.524.795-.49 1.103-.702 1.077-2.016.904-3.11.864-.547-.198.843-.803-.262-.925-.274-.305 1.088-.567.76-1.324.13-1.215-.482-2.688-1.955-2.018-.414.51 1.41-.308 1.44.594.443 1.024.3 2.623-1.146 2.513-.595-.177-1.672.392-.484.277.773-.268 2 .453.74.87-1.224.596-2.6.228-3.897.41-.97.027.147-2.08-1.168-1.656-.942-.2-.407.614.204.175.61.512.117 1.446-.688 1.387-.787.588-1.746.553-2.675.517-.918.006-2.453-.16-2.817-.9.636-.557.527-1.972-.712-1.838-.902-.022-.603.374.088.308 1.665.063.022 2.158-1.027 1.434-1.475-.414-2.8-1.31-3.9-2.36-.833-.596.187-1.39-.34-1.888.24-1.23-.4-2.954 1.078-3.594 1.143-.218 2.066-.862 3.144-1.245.947-.464 2.324.468 2.775-.536 1.168-.538 2.508-.508 3.763-.453 1.24.01 1.134 2.117-.156 1.903-.553.18-1.712-.158-1.92.257 1.028.49 2.463-.64 3.23.196.99 1.1.262 2.947-1.314 2.628-1.044.495 1.425.265 1.748-.322.905-.912-.194-2.265-.46-3.067-.16-.73.657-.778-.087-1.246-.15-.71 1.394-.136 1.92-.304 1.094.11 2.405.665 2.863 1.71-.08.46-1.89.513-.658.728 1.298-.766 2.248 1.382 1.625 2.335-.26.66-1.51.723-1.6 1.09.94.067 2.114-.77 2.126-1.78.044-.864-.967-2.193-1.246-2.133.51-.53-.93-1.226.274-.845 1.273.222 2.918.27 3.63 1.537.564.802-1.745.52-.438.8.708.06 1.104-.385.815-.955 1.22.088 2.724.215 3.496 1.326.37.392.9 2.228.827.84-.452-1.247-1.59-2.16-2.926-2.252-1.45.102-2.375-.983-3.71-1.27-1.377-.174-2.756-.352-3.96-1.122-1.223-.566-2.644-.064-3.933-.312zm-4.19 1.246v-.002.002zm0-.002zm10.72 5.188h-.08.08zm2.35 1.417h-.153.153zM.83 36.176l.15.002-.15-.002zM.443 35.8h.045-.045zm12.12-5.704h-.022.022zm.645.246h-.018.017zm-4.423 1.1c-.188.73-.11 1.642-1.193 1.294-.47-.114-2.345.38-1.124.375.473-.088 2.217-.338 1.893-.006-.564-.03-1.544.42-.4.38.486-.04 1.628-.71.775.09-.657.345.12 1.617.1.414.51-.865.572 1.41.095 1.623-.763.258-2.48.01-2.19.465.65.366 2.077-.43 1.623.954.363 1.28-1.027 1.505-1.94 1.433-.996.372 1.103.254 1.44.104 1.575-.25.105-2.2 1.143-2.818.787-.44.745-2.29.096-2.985-.376-.277.042-1.305-.318-1.323zm-.54 4.668zm0 0h-.076.075zm-.83-2.896H7.29h.124zM1.93 34.707c-.118.238-.56.49-.162.127l.163-.127zm.053.67c.045.167-.327.002 0 0zm-.894.026c-.02.31-.43.04 0 0zm-.04.148c-.126.002-.1.002 0 0zm12.76.048c-.727.166-1.97-.163-2.373.256 1.075.055 2.347-.34 2.8.955.553 1.025.127 2.394-1.227 2.085-.667-.012-.943.496-.088.29.912-.03 2.216-.16 1.797-1.45.07-.963-.556-1.38-.91-2.137zm-1.223 3.383h-.12.12zM1.934 35.688c-.09.62-.708-.252 0 0zM.89 35.8c.23-.056-.016.165 0 0zm28.814.056c-.515.128-2.068-.244-1.94.266.483.142 1.976.12 1.81.222-.465-.152-1.835.153-.616.264 1.402.08-.612.13-.46.45 1.533.18-.787.19-1.22.156-.858.218 1.037.368 1.274.263.89.343 1.896-1.095 1.152-1.62zm-.716 1.242h-.045.045zm-.297-.52h-.02.02zm.393-.245h.056-.057zm-22.237-.325h.022-.022zm-5.176.1c.685-.09-.08.832 0 0zm27.95.325h.16-.16zm-1.088.417c-.05.132-.393-.17 0 0zm-1.256.843c-.354 1.068-1.465 1.526-2.325 2.085-.372.075-2.312.252-1.155.455 1.28-.112 2.527-.778 3.382-1.728.155-.193.58-.745.1-.812zm-3.87 2.276v-.002zm0-.002zm.23-.73l-.134.12.133-.12zm-10.932.007c-.532.3-1.83-.13-1.92.254.397.067 2.217.36 1.92-.255z" fill="#2d2d2d" stroke="#eaffc1" stroke-width=".006" stroke-linecap="round" stroke-linejoin="bevel"/><path d="M5.38 39.89c-.964-.472-1.864-1.07-2.685-1.762-.092-.1-.27-.16-.303-.29 0-1.22-.048-2.443.01-3.664.008-.674.423-1.396 1.113-1.552 1.017-.327 1.958-.855 2.98-1.17.732-.192 1.494-.096 2.24-.095-.108.42-.118.895-.416 1.234-.35.273-.806-.024-1.203.094-.334.077-.892.076-1.023.416.518.157 1.065-.063 1.594-.024.075.144-.616.478-.112.434.326.02.783-.17 1.026.024-.234.25-.322.863.036 1.02.232-.047.232-.823.483-.426.08.376.093.796-.057 1.156-.248.374-.758.33-1.152.38-.38.038-.782.047-1.133.21-.2.378.515.405.766.432.287.012.575.005.862.008-.072.593.002 1.285-.47 1.733-.49.474-1.247.117-1.785.474-.19.45.69.152.882.476.324.19.84.037 1.022.442.094.434-.335.744-.665.932-.528.256-1.09-.075-1.578-.277-.144-.066-.288-.135-.43-.204z" fill="#2d2d2d" stroke="#eaffc1" stroke-width=".049" stroke-linecap="round" stroke-linejoin="bevel"/><path d="M10 41.285c-.548-.085-1.154-.172-1.58-.56-.282-.388.237-.83.1-1.275 0-.456-.757-.86-.048-1.134.318-.324.208-.83.24-1.24.048-.393-.115-.977.3-1.2.516-.35.6-1.047.612-1.625.01-.528-.164-1.036-.412-1.496-.19-.507-.356-1.094-.158-1.622.29-.42.86-.492 1.324-.592.902-.13 1.823-.143 2.73-.072.445.063.735.588.67 1.007-.056.52-.6.716-1.053.74-.603.1-1.25-.034-1.826.193.07.4.72.277 1.045.262.618-.074 1.305-.408 1.89-.043.42.268.652.758.61 1.253.03.584-.32 1.233-.94 1.326-.486-.047-.863.208-1.3.346-.187.08-.83.05-.73.293.454.09.926-.026 1.38.088.484.065 1.035.233 1.21.744.257.534.528 1.235.14 1.77-.372.464-1.01.27-1.508.426-.37.265-.8.44-1.273.388-.204-.035-.9.13-.423.312.495.113 1.067.265 1.54.002.252-.298.86-.495 1.057-.037.27.3 1.053.036.804.68-.07.508-.635.584-1.017.765-1.073.425-2.25.455-3.383.302z" fill="#2d2d2d" stroke="#eaffc1" stroke-width=".049" stroke-linecap="round" stroke-linejoin="bevel"/><path d="M14.993 40.84c-.195-.457.058-1.032-.273-1.442-.327-.23-.752-.132-1.128-.168.438-.134.986-.213 1.198-.676.167-.692-.074-1.416-.363-2.042-.113-.342-.683-.86-.26-1.158.654-.212.89-1.015.75-1.634-.107-.64-.47-1.19-.695-1.787-.174-.378.336-.748.074-1.095-.475-.447.435-.425.705-.395 1.072.037 2.242.15 3.065.916.276.214.847.756.28.984-.236.038-.888.39-.343.49.404.056.878-.206 1.216.124.587.51.8 1.44.46 2.145-.327.525-.96.675-1.468.96-.057.432.66.552 1.03.562.476-.106.85.25.877.715.103.59.106 1.316-.362 1.757-.49.412-1.204.205-1.734.514.224.337.875-.02 1.24.2.628.222-.022.802-.42.8-1.173.197-2.368.284-3.558.278-.096-.01-.2-.002-.29-.048z" fill="#2d2d2d" stroke="#eaffc1" stroke-width=".049" stroke-linecap="round" stroke-linejoin="bevel"/><path d="M20.188 40.165c.374-.323-.42-.53-.115-.778.4-.256.666-.653.55-1.144-.014-.667-.164-1.376-.628-1.88-.233-.127-.8-.226-.383-.535.297-.32.738-.623.71-1.114.01-.677-.182-1.372-.642-1.883-.256-.353-.52-.743-.533-1.195.43-.173.883.102 1.32.136.823.19 1.714.427 2.277 1.105.382.277.082.65-.283.68-.303.11-.616.22-.87.428.29.3.765.084 1.13.187.552.08 1.143.364 1.384.89.157.427.213.89.21 1.34-.074.564-.62.993-1.18.99-.3.16-.5.477-.888.462-.2.025-.447.335-.092.316.463.063.982-.392 1.39-.09.15.386-.152.773-.284 1.128-.193.4-.426.795-.777 1.075-.725.26-1.513.224-2.268.192-.156-.044-.11-.218-.027-.307z" fill="#2d2d2d" stroke="#eaffc1" stroke-width=".049" stroke-linecap="round" stroke-linejoin="bevel"/><path d="M27.88 36.977c-.004.28-.003.563 0 .844 0 .04-.918.04-.918 0 .002-.28.003-.562-.002-.843 0-.04.92-.04.92 0zM27.726 34.808c-.002.26-.028.518.04.77.007.027.015.054.024.08.053.16.013-.005.047-.018.023-.008.045.02.068.028.027.01.054.013.082.02.21.062.428.037.64.095.24.053.467.17.628.36.02.033-.792.47-.81.436-.06 0-.355-.164-.433-.12-.25-.015-.496-.067-.724-.178-.26-.14-.38-.283-.432-.578-.063-.296-.045-.595-.05-.896 0-.04.92-.04.92 0z" fill="#2d2d2d" stroke="#eaffc1" stroke-width=".314" stroke-linecap="round" stroke-linejoin="bevel"/><path d="M23.786 39.67c.053-.14.143-.62.2-1.068.056-.448.244-1.052.418-1.34.355-.59.405-1.782.1-2.374-.256-.494-.784-1.052-.997-1.052-.108 0-.153-.173-.115-.437l.064-.438.92.125c.504.07 1.185.262 1.51.43.646.328 1.203 1.016.95 1.172-.084.05-.153.364-.153.693 0 .463.093.673.408.92.225.177.567.322.76.322.19 0 .39.104.438.232.104.27-.074.307-.316.065-.092-.09-.367-.144-.612-.116-.42.048-.445.092-.45.8-.006.608-.08.807-.388 1.05-.74.585-1.628 1.045-2.227 1.155-.52.097-.592.077-.51-.14z" fill="#2d2d2d" stroke="#eaffc1" stroke-width=".049" stroke-linecap="round" stroke-linejoin="bevel"/></svg>