<svg xmlns="http://www.w3.org/2000/svg" viewBox="0 0 1322.7061 733.84283"><path d="M933.806 241.943h161.8v291.4h-162z" fill="#d45500"/><path d="M484.206 729.943c-24-1.7-45.4-3.6-47.6-4-9-1.7 47.4-1 77 1.2 17.6 1.2 32.2 1.6 32.6 1 .4-.7 2.5-.8 4.7-.3 3.4 1 3.5 1.2.8 2.7-5 3-22.2 2.8-67.4-.6zm214 2c.6-1 1.5-1.8 2-1.8.4 0 .7.8.7 2s-.8 1.7-2 1.7c-1 0-1.3-.8-.7-1.8zm5.5 0c-.5-1-.2-1.8 1-1.8 1 0 1.8.8 1.8 2s-.3 1.7-.8 1.7-1.3-.8-2-1.8zm-30-.7c0-3.6 4-10.3 5.4-9.4 1 .6 1.4 2 1 2.7-.7 1-.3 2 .8 2.8 3.4 2.2 2 4.7-2.8 4.7-2.5 0-4.5-.4-4.5-.8zm45.3-.6c1.4-.5 3-.5 3.5 0 .7.8-.4 1.2-2.4 1-2 0-2.5-.4-1-1zm-304-6.2c-2.2-1.5-2-2.4 1.8-5.4 3-2.6 5-3 6.7-2 1.2 1.2 3 1.4 3.8.6 1-.7.5 0-1 2-2 2.7-2 3 1 3 5 0 1.7 2.3-4.2 3-2.8.3-6.4-.2-8-1.2zm-23.7-2.4c0-.4 1.3-1.2 2.8-1.8 1.5-.6 2.7-.3 2.7.7s-1 1.8-2.6 1.8-2.8-.3-2.8-.7zm9.2-1c0-.8 1.2-2.6 2.7-3.8 2.3-2 2.8-1.8 2.8.5 0 1.6 1.4 3.3 3.2 3.7 1.8.5.5 1-2.8 1-3.2.2-6-.4-6-1.3zm-33-3.2c-2.3-1.7-3.7-2-3-1 1 1.6-.5 2.2-4.7 2.2-5.8 0-37-3.6-62.3-7.3-7-1-16.2-1.8-20.8-1.8-5.7 0-8-.7-7-2 .7-1.5-.5-1.7-4-1-3.3.8-12.7-.6-23.7-3.3-10-2.4-22-5-26.6-5.6-4.5-.6-17-2.7-27.5-4.7-10.6-2-32.4-5-48.6-7.2-146.4-30-181.5-27.3-41.6-25.6 2.6 0 4.8 1.5 5.8 4 1.2 3 1.7 3.3 1.8 1.2.2-4.2 7-5.7 9-2 1 1.8 1.2 4.2.8 5.5-.5 1 0 2.2 1.2 2.2s2-1.7 2-3.7c0-2.6 1.2-3.7 4-3.6 4.4 0 11.6 3.4 7.4 3.5-1.3 0-2.3 1-2.3 2 0 1.4 1.5 1 3.5-1 2.6-2.3 5-2.8 10-1.8 5.7 1 6.3 1.6 4 3.4-3.4 2.4-2 8.5 1.8 8.5 3 0 4.8-4.6 3.4-8.2-.6-1.6-.2-2.8 1-2.8 4.7 0 20.3 4 20.3 5.4 0 .7 5.7 1 12.6.4 9.2-.6 14.2 0 18.3 2 3.2 1.5 6 2.2 6.6 1.4 1-2 12.3-.2 15.5 2.4 1.4 1 6 2 10 2.2 18.4.4 41.6 4.7 50.6 9.3 2.7 1.4 5 1.6 5.5.6.6-1 2.3 0 3.7 2 2.5 3.4 7.5 5 7 2.2-.4-3.4.5-6 2-6 1.2 0 2 1.3 2 3 0 2.3.5 2.5 2.6.8 1.7-1.3 5.3-1.8 8.8-1.2 3.4.7 9.8 1.7 14.3 2.2 4.7.6 9.6 1.6 11 2 1.7.7 4.3 1 6 .8 1.6-.2 3.5.5 4.2 1.6.6 1 3 2 5.3 2s5 .7 5.8 1.7c1 1 4 2 6.4 2.4 3.6.6 4.6 2 5 6.7 1 8-1.4 10-6.8 6.2zm-211.9-45.9c.6-1 .2-2-.8-2s-2 1-2 2 .4 1.7.8 1.7 1.4-.8 2-1.8zm222.7 45.7c-2.4-1.5-2.3-1.8.4-1.8 2 0 3.3.8 3.3 1.8 0 2.2-.2 2.2-3.6 0zm694.6-28.3c-1.3-1.7-1.5-3-.5-3s3 1.4 4 3c1.4 1.4 1.6 2.6.6 2.6s-3-1.2-4-2.7zm123.7-14c.6-1 1.5-1.7 2-1.7.4 0 .7.8.7 1.8s-.8 2-2 2-1.3-1-.7-2zm13.7-1.7c-2.2-1.4-2-1.8 1.4-1.8 2.4 0 4.2.8 4.2 1.8 0 2.3-2 2.3-5.5 0zm30.4-3.7c5.2-1.6 5.6-2.3 5-8.6l-.4-7 2 6.2c1.5 5 2.5 6 5.8 5 2.3-.5 6-1 8.2-1 2.4 0 4-1.2 4-2.8 0-1.5 1.4-2.8 3-2.8 3.5 0 3.4-3-.4-4.4-4.7-1.8-1.4-3.5 8-4.2 5-.4 15.4-2 23.6-3.3 22.7-4.2 22.7-4.2 22.7 5.4 0 8 0 8.2-7 9.4-4 .6-7.8 2.4-8.4 4-.7 2-1.6 2.3-3.4 1-1.6-1.5-9-1.3-25 .6-34.5 4-44.4 4.7-37.5 2.6zm-637.3-7c-2-.3-3.2-2.3-3.2-5 0-2.3-1-4.8-2.2-5.6-3.5-2.2 4-4 14-3.4 10.2.7 9.5.3 11.2 7 1.2 5 1 5.3-2.6 4.4-2.7-.7-4-.2-4 1.4 0 2.4-6 3-13.3 1.3zm626.4-.2c-.5-1 0-2.2 1-2.8 1-.7 1.7 0 1.7 1.7 0 3.2-1 3.7-2.6 1zm24.7-5.8c0-1-1.2-1.5-2.8-1-1.7.7-2.5.4-1.8-.6 1.7-3 8.2-2.2 8.2 1 0 1.4-.8 2.6-1.8 2.6s-2-1-2-2zm-721-9.2c1.8-6.4 4.5-8.5 4.5-3.8v5.4c0 .8-1.2 1.7-2.8 2-2.4.5-2.8-.2-1.8-3.6zm-36-2.7c-1.3-1.5.5-2 6.5-2 4.6.2 8.3 1 8.3 1.6 0 .7 1.5 1.6 3.2 2 1.8.6-1 .8-6.5.7-5.3 0-10.5-1-11.5-2.3zm107.8 0c-9.6-1.7-5-4.4 7.3-4.4 8 0 11.6.6 10.4 1.8-2.3 2.4-11.2 3.6-17.7 2.6zm-174-5.7c3.2-.4 8.2-.4 11 0 2.7.4 0 .8-6 .7-6 0-8.4-.3-5-.7zm174-6c-1.6-2-3.2-5.3-3.6-7.7-.5-2.8-2-4.4-4.8-4.8-9-1.3-1.3-4 11.6-4 13 0 17.7 2.2 10.7 5-2 .7-2.5 2.3-1.7 5.5 2 8.6-6 12.7-12.2 6zm-288.3-3.8c-.6-1 .6-1.7 2.7-1.7 4.3 0 4.8 1 1 2.5-1.5.5-3.2.2-3.8-.8zm-17.4-1.8c-2-1.2-2-1.7-.4-1.7 1.5 0 2-1.7 1.5-4.6-.5-2.5-.2-4.5.6-4.5 1.8 0 3.6 10.8 2 12-.7.2-2.4-.2-3.8-1zm454.5.7c-.4-6.4-2-25.8-3.4-37.2-1.2-10-1.7-11.6-2-6-.2 7.7-3.8 11.5-3.8 4.2 0-4.4-4-4-6 .4-1 2.6-2 3-6 1.4-2.6-1-4.3-1-3.7 0 .6.8-3.2 1.4-8.4 1.2-8-.3-9.6-1-11-4.7-1.3-3.5-2-4-3.8-2.2-1.8 2-1.6 3 .7 4.6 3 2.2 6.4 10.4 4.3 10.4-.6 0-3-2.3-5.6-5l-4.4-5-.2 4.5c0 4.2-.2 4.3-1.6 1-1-2-1.7-2.7-1.8-1.5 0 1.3-2.3 2.3-5 2.2-5 0-5-.2-1-1.8 2.2-1 4.2-2.3 4.2-3 0-.8.4-3 .8-4.7.5-2.6 0-2.8-3-1.2-2 1-3 2.6-2.5 3.5 1.4 2-5.3 5.8-7.2 4-.8-.7-.8.7 0 3 1 3.4.4 4.5-2.5 5.2-2 .6-4 2.4-4.6 4-.6 2.4-1 2-2-1.2-1.3-3.6-2.3-4-6.3-3-2.6.7-10 1.5-16.3 1.6-11 .3-11.5.2-10.5-3.6.8-3.4.2-4-3.8-4-2.6 0-5.4-1-6.2-2.4-1-1.7-1.6-1-2 2-.4 2.3-1.7 4.5-3 5-1.7.5-2.3-2.6-2.3-11.7 0-15.6-3-13.7-4.2 2.4-.5 6.4-2 12.7-3 14-1 1.4-1.8 3.7-1.6 5 .3 1.4-.5 2.4-1.7 2.3l-7-.4c-4-.3-4.5-.8-2.8-3 1.5-1.8 1.5-2.8 0-3.8-1.2-.7-1.7-2.8-1.2-4.7.5-2 0-3.5-1.3-3.5s-2.3 2.8-2.4 6.6c-.2 8.8-2.3 10.6-10.8 9-4-1-6-2-4.8-2.3 2.7-1 3.2-6 .6-6-1 0-2.8-.5-4-1-1.5-.5-4.2.4-6.2 2-3.5 2.7-3.3 2.8 2.8 2 3.5-.5 5.3-.5 4 0-1.2.5-1.7 1.8-1 2.8.6 1-3 1.5-10 1-12.2-1-17.5-4.2-14.8-9.2 1.5-2.7 1-3-4.3-2-3.3.7-6.5 2-7.2 3-.6 1-1.6 1-2.4-.3-.8-1-2-1.6-3-1-1 .6-1.8-.7-1.8-2.7s-.7-3.8-1.6-3.8c-1 0-3-.5-4.6-1-2-1-3 0-3 2.8 0 3.2.8 3.7 4 2.7 2.6-.8 3.5-.6 2.6.8-.7 1-3.3 2-5.7 2-3.3 0-4.6-1-4.6-3.5 0-4.4-3.3-6.8-4.6-3.4-1.4 3.4-7.7 3.5-9 0-1.5-3.8 0-5.2 3-2.7 2 1.6 3 1 4.4-3 2-5 1.8-5-7-5.5-6.6-.4-9 .2-10 2.4-.5 1.5-2.4 2.8-4 2.8-2.4 0-2.5-.4-.6-1.6 1.8-1 1-1.8-3-2.4-3-.5-5.2-.2-4.7.7.4.8-.8 1.5-3 1.5s-4-.8-4.6-1.8c-1.4-2.3-10.5 1.7-9.6 4.3.3 1-.6 3.3-2.2 5-2 2.5-3 2.8-4 1.2-1-1.3-.2-3.7 1.3-5.4 1.7-2 2-3.5.7-4.3-1-.6-2 0-2 1.7 0 1.5-1 2.8-2.5 2.8s-3 1-3.4 2.3c-.4 1.3-1.5 2-2.2 1.2-.7-.7-.4-3 .8-5 1.3-2.6 1.4-4 0-4-1 0-1.8 1-1.8 2.2 0 1.2-1.2 1.5-2.7 1-1.7-.6-3-.4-3 .5 0 1.4-7.4 4-12.7 4.4-1.5 0-2.6 1.2-2.3 2.4.2 1.3-1.4 2.8-3.7 3.3-3.7 1-4 2-3.5 11.2.4 6.3 0 10-1.4 10-1 0-2-3.3-2-7.3 0-5-1-8-3.2-9.2-2.3-1.4-2.6-2.3-1-3.4 1.3-.8 2-4 1.6-7-1-7.5-1-7.7-3-3-1.5 4-2.2 4.2-15 3-11.8-1-13.7-.7-17.7 2.7-2.3 2.3-5 4-5.7 4-.8 0-1.7 1.8-2 4-.5 4-1.4 4.2-13.4 4-9.6 0-11.4.2-7 1.2 12.2 2.8 8.3 4-8.5 3-9.5-.7-20-1.2-23.4-1.2-3.3 0-6-1-6-2s.8-1.4 1.8-.8c1 .7 2-1 2-3.7 0-4.2-.6-4.6-3-2.6-2.2 1.7-3.3 1.6-6-.8-4.3-4-5.2-3.8-6.3.3-1.2 4.6-17.8 5.2-18 .6 0-2.7 0-2.7-2.2 0-1.6 2-4.6 3-9.6 2.6-4-.3-7.7-.7-8.2-1-.5-.2-1.6-.2-2.5 0-1 0-2.8-1.3-4.3-3-1.5-2-2-2.2-1.4-.6.7 1.5-1 .3-3.7-2.8-3.3-3.5-5.4-4.6-6-3.2-.4 1.3-1.5 2-2.4 1.3-1-.6-1.7 0-1.7 1s.8 2 1.8 2 1.4 1 1 2.2c-.7 1.5-4.2 2-11 1.6-9.3-.5-10-1-10-5 0-3-1-4.3-3.8-4.3-2 0-3.6-1-3.6-2s1-1.6 2.6-1c3 1 7.5-5.3 4.8-7-1-.6-9-1.5-18-2-8.6-.7-18.3-1.7-21.3-2.7-3-1-10-1.6-15.2-1.8-9-.5-10 0-16 6.3-5.5 6-6.4 6.5-7.5 3.6-1-2.8-1.5-3-3.2-.8-3.3 4.2-8 4-9.2-.6-.8-2.6-1.7-3.3-2.2-2-.7 1.7-2 1.8-4.8.3-3-1.7-4.3-1.4-6.8 2-2.7 3.5-4 3.8-12.5 2.7l-9.6-1.3.7 6.2 1 7.6c0 .8 1 1 1.8.4 1-.5 2 .7 2.6 2.7.8 3.3 0 3.6-10.4 3.6-100.8-115.7-157-421.4-8.7-460.8 16.5-103.1 25.7-26.6 6.7-20.1l-.5 11.6-.5 11.7 5-1 12-3c4-1 7-1 7-.2 0 2-25 8-27.3 6.7-1-.7-3.6.5-5.6 2.5-13.3 23.1 11.6 18.3 19.2 16.1 18.6-5.5 21.4-7 19-10-1.6-1.8-1.3-2.7 1-3.5 3-1.3 4-6.4 1.2-6.4-1 0-1.7-2.4-1.6-5.3 0-3.5 1-5 2.4-4.4 3.5 1.2 5-8.6 2.8-18-16.3-34 86.6-37.8 59.4.3-2.2 2.4-2.6 5.3-1.6 12.5 1.4 10.8 1.4 10.7 18.2 5.8 4-1.2 9-2.4 11-2.6 10.8-1.4 18.4-4.7 18.7-8.3 0-2-.5-3.7-1.4-3.7-1 0-1.7 1.4-1.7 3 0 2.4-.5 2.7-2 1.2-1.2-1-3.2-1.6-4.6-1-1.4.4-2.5 0-2.5-1s2.8-2.5 6.2-3.2c-351.5-148.8 365.3-72.6 955.9 1.8 3.5.4 12.2 2 19.2 3.5 17.4 4 35.7 5.4 35.7 3 0-1-2.3-1.7-5-1.7s-9.6-1.3-15-2.8c-65.4-44-46-268.4 76.8-1 3 5.3 4.4 10.2 4 13.5-.2 1.7.7 3.2 2 3.2 1.5 0 2.5-2.6 2.8-6.7.3-7.5 2.7-9.8 10-9.8h5l.2 222.7c0 148.3-.6 222.7-1.8 222.7-1 0-1.8-.6-1.7-1.3.7-4.5-.7-5.7-6.7-5.4-5.6.3-6.3 1-5.5 4.3 1 3.4.2 4-6 4-3.7 0-9 1-11.7 2-3.2 1-5.4 1.2-6 0-.7-1-2.7-1-5.2.5-5 2.8-52.3 4-56.2 1.6-2.3-1.5-2.4-2.4-.3-5.7 1.2-2.2 1.8-4.4 1.2-5-1.7-1.7-6.5 5.7-5.5 8.5.6 1.8-.2 2.2-2.8 1.5-2-.5-4.3 0-5 .8-.5 1-2 1-3.6-.4-3.5-3-3.2-5.3.6-5.3 2.4 0 2.6-.4 1-2-3.6-3.6-12 1-10.5 5.7.8 2.6.3 3.7-1.8 3.7-1.6 0-2.8-1.5-2.8-3.5s-1.8-4-3.8-4.5c-4-1-6.7 1.4-3.7 3.3 2.3 1.4 2.5 4.6.3 4.6-.8 0-3.4-1.7-5.8-3.7-5.5-4.8-10-4.8-8.6 0 1 4.4-2 7-4.3 3.6-.7-1.4-1-3-.6-3.8.5-.7 0-2-1.2-2.6-1-.8-2.7-.4-3.5 1-1.6 2.5-7.3 1-7.3-2 0-1.7 1.6-2 26.5-2.8 7-.2 14-1 15.5-1.5 1.5-.6 7.7-1.3 13.6-1.6 16.8-.8 14.8-4.2-2-3.8-25.3.8-63.6 2.8-67.4 3.6-10.4 2.2-13.7 2.2-13.7.2-.2-1.4-.8-1.3-1.8.4-1.2 2-3.8 2.2-10 1.4-5.6-.8-8.3-.5-7.5.6.6 1-.4 1.8-2.2 1.8-6.7 0-11.3-2.2-12.2-5.8-.8-3-2-3.5-6.6-2.4-4.4 1-5.6.6-5.6-1.7 0-1.6-.7-3-1.6-3-1 0-3-.4-4.6-1-1.6-.6-3-.2-3 1s1.7 2 3.6 2c1.9 0 4 1.2 4.6 2.8 1.6 4.5 1.3 5.2-1.2 3-1.3-1-4.4-2-6.8-2.4-3.5-.5-5.2.6-7 4.3-1.7 3.4-3.3 4.5-6 3.8-2-.6-3.6-2-3.6-3 0-1.3-.7-1-1.6.3-1.2 2-2.4 1.3-5-3-1.8-3.2-4.8-5.8-6.5-5.8-1.8 0-4-1.4-5-3.2-2-3-2-3-2 0 0 1.8.8 3.2 1.8 3.2s2 1.2 2 2.6c0 1.3 1.2 3.5 2.7 4.8 1.5 1.3 2.7 3.2 2.7 4.3 0 1-.8.8-1.8-.7-1.4-2.3-1.8-2.3-3 .4-.5 1.8-2.4 3-4 3-1.7 0-2.2-.5-1-1 3.2-1.3-1.3-12-4.5-10.8-1.2.5-3.6-.4-5.2-2-3.5-3.4-10.6-2.7-10.6 1 0 3.8-4.8 9.2-8 9.2-2 0-2-.5-.3-2.7 1.7-2 1.7-2.8 0-2.8-1.2 0-3.8 2-5.7 4.2-3.5 4-4.3 3-3.7-5.2.3-3 0-3.2-1.6-1-1.2 2-2 2-2 .6 0-1.3-.8-2.3-2-2.3s-1.7 2-1.5 4.2c.6 7 0 7.6-3.7 4-3.6-3-3.7-3-3.7.8 0 4.4-2.7 5.2-4.8 1.3-1-1.7-6.5-3-15.2-4l-13.7-1.3 3.3 5c1.8 2.8 3 5.5 2.4 6-.5.5-1.8-.7-2.8-2.6-1-2-4.4-6.3-7.5-9.6l-5.6-6v17.5c0 15 .6 17.6 3.3 18.3 3 .8 3 1 0 1-2 .2-3.2 2-3.4 5.3-.6 13-.2 12.4-9 11.7-4.6-.4-8.8-1.5-9.4-2.4-.6-1-8.4-1.3-19.2-.5-27.6 1.8-28.8 1.8-29.4-.2-.4-1 6.6-2 18-2.3 28-.7 43.2-4.4 36.3-8.7-1-.6-1.5-1.8-1-2.5s-2.6-2.4-7-3.7c-4-1.2-9.6-3-12-4-3.2-1.3-5-1.2-5.3 0-1.2 3.8-5.8 2-7-2.5-.6-2.5-1.8-4-2.6-3.6-1 .6-2.8-1.3-4.4-4l-2.8-5.2 1 5.7c.7 3.4.3 6.3-1 7-2.4 1.6-7.3-3-7.7-7.5-.2-2-.8 1.2-1.4 6.7-.5 5.5-1.7 9.7-2.7 9.4-1-.3-2.4 1-3 2.7-1 2.2-1.5 0-1.6-5.7-.2-14.2-3-15.8-4.4-2.5-1.2 11.4-2.8 15.6-4.3 11.2-.5-1.2-2-2.3-3.5-2.3s-3-1.2-3.7-2.7c-.7-1.5-1.7-2.3-2.5-1.8-1 .5-2 0-2.8-1-.8-1.4-2-1.3-4 .3-2.2 2-3.3 1.5-6-2.2-2-2.5-3.6-3.4-3.6-2.2-.2 4.6-6 2.3-8-3-2-5.2-6.8-7.8-6.8-3.8 0 1 .8 2 1.8 2s1.8 2.4 1.8 5.4c0 3-.8 5.5-1.8 5.5s-1.8-2-1.8-4.3-1.2-4.8-2.6-5.4c-1.5-.5-3-5-3.8-10.3-.7-5-2-9.3-2.5-9.3-.7 0-1.4 4.8-1.6 10.6-.6 22.3-1 27-2 23.4-.4-2-1.7-4.3-3-5-1.3-1-1.2-2 .8-3.4 2-1.5 2.2-2.2.5-3-1.3-.4-2.4-2.6-2.4-4.8 0-3.2-.4-3.4-1.6-1.3-1 1.6-1.5 7.3-1.4 13 .3 9 .7 10 4.4 9.7 2.3-.2 4.2.4 4.2 1.3 0 1-1.5 1.6-3.3 1.6-5 0-7.8 3.6-7.8 10.2 0 5.8 0 5.8-11.5 7l-20 2.2c-5 .5-9 .3-9-.5zm-383.5-32.6c-.6-3.8-1.8-4.4-9.8-5-10.7-.6-23.5 2.7-22.4 5.8.8 2.5 29 6.8 31.3 4.8 1-.7 1.3-3.2 1-5.6zm282.5 2c0-1-2-1.6-4.2-1.5-3 0-3.3.3-1 1 2 .4 2.8 1.7 2.2 2.8-.8 1-.4 1.4.8.6 1.2-.7 2.2-2 2.2-3zm-109 0c.6-1-.2-2.2-1.8-3-3.6-1.2-5.5.3-3.8 3 1.4 2.5 4 2.5 5.5 0zm50.4.3c0-1-1.8-1.2-3.8-.7-2 .5-3.7 1.3-3.7 1.7 0 .3 1.7.7 3.7.7s3.7-.8 3.7-1.7zm-274.9-6.8c0-2.3-4.8-3.2-16.5-3l-31.7-2.2c-17-1.2-31.7-1.6-32.8-1-1.2.8 4 1.8 11.5 2.4 14.6 1 65.8 6 68 6.4.8 0 1.5-1 1.5-2.5zm232.8 1c0-2-3.6-4.3-5-3-1.4 1.3 1 5 3.2 5 1 0 1.8-1 1.8-2zm101.3-4c.5-2.4 1.6-5.8 2.4-7.7 1-2.5.8-3.2-1-2.6-1.6.5-2.7 2-2.7 3.5s-1.2 3.5-2.6 4.6c-1.4 1.1-2 3-1.2 4 2 3.4 4.3 2.6 5.3-2zm9 0c-1.8-2-2-1.7-1 1 .6 1.7 1.7 2.7 2.2 2.2.6-.6 0-2-1.2-3.3zm16.2 1.3c0-1.5-.8-2.8-1.8-2.8s-1.8 1.3-1.8 2.8c0 1.5.8 2.7 1.8 2.7s1.8-1.2 1.8-2.7zm234.6 0c0-.4-.8-1.2-1.8-2s-1.8 0-1.8 1 .8 2 1.8 2 1.8-.5 1.8-1zm-812-2.8c0-1-.8-2-1.8-2s-1.8 1-1.8 2 .8 1.8 1.8 1.8 1.8-.8 1.8-1.8zm564.4-5.6c0-1-.8-1.8-1.8-1.8s-1.8 1.2-1.8 2.8c0 1.6.8 2.4 1.8 1.7s1.8-2 1.8-2.8zm241.3-2.3c-.5-1.3-1-.2-1 2.3s.5 3.5 1 2.3c.6-1.3.6-3.3 0-4.6zm-176.4-1.6c-1.2-2-10-2-10 0 0 2.7 2 3.5 6.5 2.6 2.5-.5 4-1.6 3.5-2.5zm171.5.2c0-1-.8-1.7-1.8-1.7s-2 1.3-2 2.8c0 1.5 1 2.4 2 1.8 1-.6 1.7-2 1.7-2.8zm-187 0c0-1-.7-1.7-1.8-1.7s-1.5.8-1 1.8c.7 1 1.6 1.8 2 1.8.5 0 .8-.7.8-1.7zm-599.6-4c.7-3-.5-3.4-10.8-3-14.6.5-16.8 1.7-8.8 4.7 9 3.2 19 2.3 19.8-2zm42.2 2c-.8-2.4-18-3.6-18-1.3 0 .7 4 1.6 8.8 2 4.8.4 9 1 9.3 1 .3.2.3-.6 0-1.8zm643.7-1.4c0-1-1-2.2-2-2.8-1-.6-1.8 0-1.8 1.7 0 1.5.8 2.8 2 2.8s1.7-.7 1.7-1.7zm-666.7-1.3c-1.3-.5-3.7-.5-5.5 0-1.8.4-.8.8 2.2.8s4.5-.3 3.3-.8zm605.7-3.5c-.7-.7-2.3-.7-3.6-.2-1.5.6-1 1 1 1 2 .2 3-.3 2.5-1zm-586-2.7c0-1-1-1.8-2-1.8s-1.5.8-1 1.8c.8 1 1.6 2 2 2 .5 0 1-1 1-2zm967.6 0c0-2.2-5.2-4.6-6.7-3-1.7 1.5 1 5 4 5 1.4 0 2.6-1 2.6-2zm-176-6.5c0-2.5-.7-4.5-1.7-4.5s-2 2.6-2 5.6c0 3.2.8 5 2 4.4 1-.6 1.7-3 1.7-5.6zm107.5 3.5c-.5-1.6 0-4 1-5.4 1.6-2 1.5-2.7-.4-2.7-3.4 0-7.5 8.7-4.6 10 4 1.5 5.2 1 4-2zm-431.1-2.3c-1-3 .3-3.6 10.6-4.6 16.8-1.7 75.6-4.6 117-6 41.3-1.2 52.5-4 18.3-4.4l-23-.4 22-1.6c20.7-1.6 24.6-2.3 22.7-4-1.8-2-54.2-1.5-87.8.6-19.7 1.2-43.8 2-53.7 1.6-9.8-.3-17.8 0-17.8.8 0 3-9 1.2-9.8-2-.4-1.6-1 3-1 10.2 0 7.3.5 13.3 1.4 13.3 1 0 1.4-1.6 1-3.5zm-.7-8.6c0-2.6 6.4-5.2 9-3.6.8.5 17.5.2 37-.8 63.8-3 78-3.4 72.2-1.8-3 .8-26.2 2.4-51.6 3.6-25.4 1.2-50.8 2.8-56.4 3.5-7.8 1-10.3 1-10.3-1zm681 8.4c-.7-1-2-1.8-3-1.8s-1.4.8-.8 1.8c.7 1 2 2 3 2s1.3-1 .7-2zm-494-3.7c0-2-.8-3.2-1.7-2.6-1 .6-1.3 2.3-.8 3.7 1.5 4 2.5 3.5 2.5-1zm181.7-.1c-1-1.2-2.6-1.5-3.4-.8-.7.8 0 2 1.3 3 1.4 1 3 1.2 3.4.8.5-.5 0-1.8-1.3-3zm54.7-.6c0-1.5-.8-2.7-1.8-2.7s-2 1.2-2 2.7c0 1.5 1 2.8 2 2.8s1.7-1.2 1.7-2.8zm47.7 2c0-.5-.8-1.3-1.8-2-1-.6-2-.2-2 1s1 1.8 2 1.8 1.8-.4 1.8-.8zm58.6-3c0-1-.8-1.7-2-1.7s-1.3.8-.7 1.8c.6 1 1.5 2 2 2 .4 0 .7-1 .7-2zm-551-1.5c.7-1-10.6-2.2-25.4-3-16-.8-26.6-2-26.6-3.2 0-1.3 9-1.5 27.5-.6 23.8 1 27.3.8 26.4-1.5-1-2.2-6-2.7-26-3-13.7 0-25.8-.8-27-1.7-3.4-2.8-119.2-6.7-121-4-1.4 2.4 13 3.6 69.3 5.6 43 1.6 51 2.3 48.7 4.5-.4.2-14.8 0-32-1-78-3.5-87.8-3.8-85.4-2 1.4 1 10.5 2 20.2 2 9.7.2 21.8.7 26.8 1 5 .6 24.4 1.8 43 3l52.3 3.4c27.5 2 28 2 29 .3zm481.3-2c0-1-.8-2-1.8-2s-1.8 1-1.8 2 .8 1.8 1.8 1.8 1.8-.8 1.8-1.8zm-119-3.7c0-1-3.8-1.8-8.3-1.8-4.5 0-8.3.8-8.3 1.8s3.7 1.8 8.3 1.8c4.6 0 8.2-.8 8.2-1.8zm78.7 0c0-1-.3-1.8-.8-1.8-.4 0-1.3.8-2 1.8s-.2 1.8 1 1.8c1 0 1.8-.8 1.8-1.8zm-204.4-6.4c12.2-.5 22.8-2 24-3 1.8-2-42.5-1-58.3 1.4-9.7 1.4-6.7 4.2 3.7 3.4 4.8-.4 18.6-1.2 30.6-1.8zm165-2l48.6-1.7c36-1.3 47.5-2.5 44-4.7-1.4-.8-3.5-1-5-.5-1.2.5-2.3 0-2.3-1 0-1.2 2.7-2 6.3-2 3.6 0 6.4-1 6.4-2 0-1.7-12-2.5-31.2-2-6.8 0-7.4-.2-3.6-1.5 2.4-1 8.4-1.7 13.2-1.8 15-.3 9.7-3.8-5.8-3.8-10.5 0-2-238.8-7.7-241.5-1.8 40.3-119.6-48-121-7.5-.2 15-2 264.3.7 265 4.6 1.2 4 4-1 4-3.3 0-3.6.5-1.3 2 1.8 1.2 10.5 1.5 23 .8l36.7-1.8zm-47.6-3.8c8.5-1.4 43-1.7 43-.4 0 .8-10.5 1.3-23.3 1.2-13-.2-21.7-.6-19.7-1zm45-.5c0-1.8 70.8-5.2 72.5-3.5.5.5-13 1.5-30 2-16.8.8-33.4 1.7-36.6 2.2-3.4.5-6 .2-6-.7zm79-3.5c1.8-.4 4.2-.4 5.5 0 1.2.6-.2 1-3.3 1-3 0-4-.5-2.2-1zm-25.7-7.3c1.8-.4 4.3-.4 5.5 0 1.3.6-.2 1-3.2 1s-4-.5-2.3-1zm-733.3 15.3c-1.5-1.4-20.7-2.8-52.3-3.8-16-.5-27.2-.2-24.7.6s12.4 1.6 22 1.8c9.5.3 17.5.7 17.8 1 .3.2 9 .6 19.3 1 10.4 0 18.4 0 18-.6zm597-2.3c2.3-.6 4.2-2 4.2-2.8 0-1.7-7.7-1.5-40 1-4.3.3-8.4 1-9 1.7-1.5 1.5 39.4 1.4 44.8 0zm-686.8-2c-2-2-55.4-6-75-5.5l-14.7.2 18.5 1.6c15.2 1.3 51.2 4 68.5 5 2.6 0 3.8-.4 2.7-1.3zm183.8.4c-.6-.5-2.2-.5-3.5 0-1.4.6-1 1 1 1 2 .2 3-.3 2.5-1zm136.3-18c-.3-10-.7-20.4-1-23l-.7-11.8c-.2-5-.8-6.5-2-4.8-1 1.7-1.7 0-2.2-5-.4-4.3 0-7.2 1.2-7 2.7.4 3.5-46 .7-49.4-3-3.6-5.3-3-5.3 1 0 2 .6 3.8 1.4 3.8.7 0 1.5 2 1.6 4.6.2 2.5-.4 4.5-1.3 4.5-1 0-1.7-1.8-1.7-3.8 0-2-.7-3.4-1.5-3-.8.7-1.4-1.8-1.3-5.3 0-3.5-.7-6.4-1.7-6.4s-1.8 3.2-1.8 7c.2 6.5-.2 7-4.5 7-4.4-.2-4.8.4-5.3 9-.4 5-1.5 10-2.4 10.8-3 3-2 5.3 1.2 2.7 2.5-2 2.8-1.8 2.3 1-.4 2.6.7 3.6 4 4 2.5 0 5.3-.7 6-1.8 1-1.2 1.3 0 .7 2.5-.6 2.4-.2 5.4.7 6.6 1 1 2.2 8.6 2.7 16.5s1.6 16.8 2 19.5c.8 3.7.2 5.4-2.7 7-3.7 1.8-3.8 1.5-4-11.4 0-10-.4-12.4-1.7-9.4-3 8-5.2 4.2-4.8-8.7.2-7 0-13-.6-13l-4-.8c-3-.5-3.4 1-3.6 13.4 0 7.8-.3 16-.4 18 0 3-1.5 4.3-5 5-3 .6-5.6 2.6-6.2 4.7-.7 2.3-2.8 3.8-5 3.8-3.3 0-2.3-1.6 5.8-9.3l9.7-9.4-1-12c-.7-6.6-2.3-12.7-3.6-13.6-2.5-1.6-21-.7-23 1-.6.7.3 2.7 2 4.5 2 2.5 2.4 4 1 5.4-1 1-1.7 6-1.4 11.3.7 10 .5 10.3-12.2 9.4-6.5-.4-14.3 6.6-13.4 12 .4 2-.3 3.3-1.5 3-1-.2-2 .7-2 2 .4 11-.5 13.6-5 13.6-5.2 0-6.4-5-2-8.6 3-2.6 5-9 2.8-10.3-2-1-7 4-11.4 11.6-4.3 7.4-4.2 10.2.3 8.7 2-.6 5-.3 7 .8 2.4 1.5.4 2-8.4 2-14.6 0-13.5 2.8 1.8 4.7 9.4 1.2 74 3.6 95.7 3.6h5.4zm-52-19c1-3.6 5.7-6.7 7.5-5 1 1.2-5 8.4-7 8.4-.8 0-1-1.6-.5-3.5zm28.5 1.3c1-3 5-3.4 5-.6.2 1-1 2-2.8 2.4-2 .5-2.8-.2-2.2-1.7zm7.7-57.7c0-2.7 1-5.3 2.4-5.7 2.4-1 2.7.3 1 6.3-1.5 5.7-3.6 5.2-3.5-.7zm223 92.6c13.5-1 24.8-2.2 25-2.5.3-.2-1.4-4.8-3.8-10.3-2.3-5.4-5.4-13.8-6.7-18.6-1.3-4.8-3-8.7-4-8.7s-1.3-1.5-.6-3.4c.6-2-1.4-10-4.6-18.4-5.3-13.5-6.2-14.8-10.8-14.8-5.6 0-12.8-4.4-10.7-6.5.7-1 1.4-.7 1.4.4s2 1.5 4.6 1c6-1.2 5.4-6.8-.5-7-2.3-.2-4 .4-4 1.2 0 .8-2.8.7-6-.3-7-2-7-1.8-7.6 5-.3 3-1.5 5-2.7 4.8-1.3-.2-2.2 2-2.2 5.8 0 5.5.5 6 4.4 5.3 3.4-.6 4.7.2 5.8 3.5.7 2.4 2.2 5 3.4 5.7 1 .7-1.4 1.3-5.4 1.2-6-.2-6.6-.4-2.8-1.5l4.6-1.4-4.4-1.2c-2.5-.6-5-.8-5.8-.3-1.8 1.2 0 14.5 2.2 15.3 1 .3.7 2-.6 3.5-1.5 1.8-2.6 10.2-3 23.6l-.7 20.8h5.5c3 0 16.5-1 30-2zm1.2-41.3c1.3-.6 3.3-.6 4.6 0 1.3.6.2.8-2.3.8s-3.6-.4-2.3-1zm-22.5-22.7c-.6-1-.2-2 1-2 1 0 1.8 1 1.8 2s-.4 1.8-.8 1.8-1.3-.7-2-1.7zm-1-8.3c-1.8-2.4-1.7-2.6.8-1.7 1.6.7 3 2 3 2.8 0 2.5-1 2.2-3.7-1zm-416 70.6c0-1-1.4-2-3-2l-10.7-.8c-28.7-2-68.6-2.5-69.6-1-.8 1.2 2 2 6.7 2.2 4.3 0 17.3.8 29 1.5 33.8 2 47.6 2 47.6 0zm538.8-1c7.5-2.6-3.7-4.5-27.8-5-26.6-.4-31.7.6-26.7 5.6 1.8 1.8 48.6 1.2 54.5-.7zm334.6-2.6l62.3-4c3 0 4.2-.5 2.8-1-1.7-.7-.8-1.8 2.8-3.3l5.3-2.2-7.6-1.3c-6.7-1.2-83.6 1.5-102.4 3.6l-29 3c-23.8 2.3-29.6 6-7.2 4.4l33.4-1.8c17-.8 17.8-.7 6.4.7-7 1-21.7 2.5-32.6 3.5-11 1-20.4 2.3-21 3-.8.8 5.7 1 14.2.3 8.6-.7 41.2-2.8 72.4-4.8zm-1.4-5c1.3-.5 3.3-.5 4.6 0 1.3.5.2 1-2.3 1s-3.5-.5-2.3-1zm-589.7 7c0-1-1.8-2.2-4-2.8-6.7-1.7-38-1.3-38 .6 0 2.3 6.6 3.2 26 3.5 8.8.2 16-.4 16-1.3zm106-1.3c2.4-.5 3.6-1.7 3-3-1-1.3-7.5-1.6-20.8-.8-10.7.5-26 1-33.7 1-11.5 0-14.2.6-14.2 3s3.8 2.6 30.7 1.6c17-.6 32.6-1.5 35-2zm210.5-1.7c10.3-2.4.5-4-21-3.2-12.8.3-22.7 0-22-.8 1-.8 2.5-1.5 3.7-1.6 1 0 6-.7 10.8-1.6 7-1.2 8.3-2 6.7-4-1-1.2-3.2-2-4.6-1.3-1.5.5-2.7 0-2.7-1 0-3.5-5.7-2.3-9.4 2-2.4 2.8-3.2 3-2.5 1 .8-2.3.2-2.8-2.5-2-2.5.6-4 3-4.7 7.4-.6 3.5-.7 7-.3 7.6.7 1.2 41-1 48.2-2.7zm-688.7 1c0-1-2.7-2-6-2-6.5 0-21.8-1.3-34-2.7-10.2-1-13.6-3-7.6-4.6 4.3-1 4.4-1.5 4.2-14.7-.2-7.5-.4-36.6-.5-64.5l-.2-51-6.8 1c-3.8.5-15 1.4-24.8 2-12.8.8-19 2-21 4-2.4 2.5-2.7 7.7-2 36 .4 23.6 1.2 33 2.8 33.7 1.2.4 2.2 1.4 2.2 2.3 0 1-1.3 1-3 .5-2.3-1-2.6 0-1.6 5 .7 3.5 1.2 14.3 1.3 24v17.7l7.6 1.2c4.5.6 7.8.3 8.2-.7.4-1 3.5-.8 8 .8 4 1.6 10.3 2.7 13.7 2.7 3.4 0 6.2 1 6.2 2 0 1.6-6.6 1.8-24 1-14.4-1-23.7-.8-23.7.3 0 1 12.2 2.3 27 3 15 1 35.3 2.2 45.4 3l23.5 1.4c2.7.2 5-.5 5-1.5zm-80.3-19.6c.6-1.3 2.2-2 3.7-1.4 3.4 1.4 3.2 2-1 3-2.4.7-3.2.2-2.6-1.5zm-5.7-8c-.6-1-.3-2 .7-2s2.4 1 3 2c.6 1 .3 1.7-.7 1.7s-2.3-.8-3-1.8zm6.5-5.2c0-.8 1.8-1.6 4-1.8 3.3-.2 3.6 0 1.4 1.4-3.3 2-5.4 2.2-5.4.3zm-1-6c-2-1-2.6-1.6-1.4-1.6 2.5-.2 1-5.8-2-8-1.4-.8-1.3-1.3.2-1.3 1.3 0 3.3 1.6 4.6 3.6 1.3 2 3 3.7 3.8 3.7.8 0 2.8 1.2 4.3 2.7 2.4 2.5 2.4 2.8-.2 2.8-1.4 0-2.8-1-2.8-2.3 0-1.7-.4-1.8-1.3-.3-1 1.2-3 1.4-5.2.5zm5-14c-.3-4.4.5-8 1.5-8s1.7 1.8 1.7 3.8c0 2 .7 3.7 1.5 4.2.7.4.4.5-.8.2-1.2-.3-2.6 1.3-3 3.5-.4 2-1 .4-1-3.8zm-15.5 51.4c-.6-.6-2.2-.6-3.5 0-1.5.5-1 1 1 1s3-.3 2.5-1zm278-.5c1.2-1.8-26.6-3.6-32.8-2-3 .6-2.7 1 1.8 2 8.5 2 30 2 31 0zm-98-28.5c0-27 0-28.4-4-31-5.4-4-6.7-3.7-8.7 1l-1.6 4.4v-4.2c-.2-4-1-4.2-8.5-3.7-4.5.4-8.2 1.3-8.2 2 0 1-1.4 1.3-3 1-2.2-.4-3 1-3.3 4.4-.2 2.7.5 4.7 1.4 4.5 1-.2 2 2 2.4 4.7.5 3.2 0 5-1.6 5-1.7 0-1.6.6.4 1.8 3.8 2.4.5 5-7.3 6-5 .3-6.5 1.3-6.5 4-.2 5-6 14-9.2 14-3.5 0-5.4 3.7-2.7 5.3 1.3 1-.5 2-4.7 2.7-3.7.7-6.2 1.8-5.5 2.5 1.2 1.3 28.3 3 56.4 3.7l14.2.3v-28.3zm-29.8-6c-.4-.8 0-3 .7-5 1.2-3.2 1.5-3.3 1.6-.5 0 1.7 1 3.2 2 3.2s1.8-1.5 1.8-3.2c0-3 .2-3 2 0 1 2 1.7 3.7 1.4 4-2 1.7-8.7 2.8-9.5 1.5zm82 32.5c-.5-1-6.8-1.8-13.8-1.8-8 0-12.4.6-11.7 1.8.6 1 7 1.8 14 1.8 8 0 12.3-.7 11.6-1.8zm931.4-1.7s.6-1.7 1-3.7c1.4-4.7-1.3-5.4-14.2-4-10 1.3-10.4 2-2.7 4.5 1.6.5-.6 1-5 1-4.3.2-7.7 1-7.7 2.2 0 1.4 4.5 1.7 14.2 1l14.4-1zm-682-10.7c-.5-1.8-1-.4-1 3.2s.5 5 1 3.2c.5-1.8.4-4.7 0-6.4zm504.6 5c4 0 7.2-.8 7.2-1.8s-5-2-11-2c-10.2 0-12.8 1.3-9.7 4.5.8.7 2.5.8 4 .3 1.3-.6 5.7-1 9.6-1zm-922.2-1.7c0-1-2.4-1.8-5.5-1.8s-5.5.8-5.5 1.8 2.5 1.8 5.5 1.8 5.5-.8 5.5-1.8zm21 0c-.5-1-3-1.8-5.4-1.8-2.4 0-5 .8-5.6 1.8-.7 1 1.6 1.8 5.5 1.8s6-.7 5.4-1.8zm681 1c0-.4-.8-1.3-1.8-2s-1.8-.2-1.8 1 .8 1.8 1.8 1.8 1.8-.3 1.8-.8zm303.3-2l46.4-2.6c2 0 2-12.6 1-65.6-.7-42-1.8-66-3-66.7-1-.6-15.6-1.2-32.3-1.4-28.5 0-30.6-.4-33.3-4-2.7-3.5-3-3.5-6-.7-2.4 2.3-5.7 2.7-18 2-22.8-1-23-1-22.6 17.5.2 8.4.5 39.8.7 69.8l.2 54.5h11.5c6.3 0 31.2-1.2 55.4-2.7zm-946.6-7.5c6-7.6.6-8-5.7-.4-3 3.5-5.2 7-5.2 7.7 0 2.5 7-2.2 11-7.3zm-148.5-13.5c0-17.8-.4-20.6-3.6-24-2.2-2-3.7-5-3.7-6.8 0-2 1-1.4 2.5 2 2 4.4 2.5 4.8 3.5 2.2 2-5.2 1.4-11.5-1.5-14.4-1.5-1.5-2.7-4.3-2.6-6 0-2 .5-2.5 1-1.2s1.9 2.2 2.9 2.2 1.4-10.5 1-26l-.4-26-7.7-.7c-4.4-.3-9.6.4-11.7 1.5-3.7 2-3.8 3-3.4 50 .2 26.5.7 52.4 1 57.7l1 9.6h21.6zm1182 14.7c0-1-3.2-2-7.2-2s-7.7 1-8.4 2c-.8 1 2 1.8 7.2 1.8 4.6 0 8.3-.8 8.3-1.8zm-691-7.3c0-1-.7-2.2-1.7-2.8-1-.6-1.8 0-1.8 1.7 0 1.6.8 3 1.8 3s1.8-1 1.8-2zm18.4-4.2c0-3.3-.7-6.8-1.5-7.8-1.8-2.4-9.5-3.2-9.5-1 0 1-1.7 2-3.7 2s-3.7-1-3.7-2.4c0-1.5-.6-1.3-1.8.5-3 4.6-2.2 5.3 7.3 5.8 5.2.4 9 1.4 8.8 2.4-.2 1-1.3 2-2.3 2-1 .3-2.6.5-3.6.6-3 .4 3 3.8 6.7 3.8 2.4 0 3.2-1.3 3.2-5.8zm-260.3-4.8c0-1-2-1.2-4.6-.7-2.4.5-4.4 1.2-4.4 1.6 0 .4 2 .7 4.5.7s4.7-.7 4.7-1.6zm-6.4-15c.6-1 0-1.7-1.7-1.7-1.6 0-3 .8-3 1.8s1 1.8 1.8 1.8c1 0 2.3-.8 3-1.8zm266.3-2.3c-.5-3-1.6-3.8-6-3.5-3 .2-5.8 1.3-6.2 2.3-.4 1.4-1.4 1.3-3.2 0-2-1.8-3.2-1.7-5.3 0-4.4 3.5-2.3 4.6 10 5 10.6.4 11.2.2 10.6-3.7zm-88.2-1.5c-.6-1.5-1-1-1 1-.2 2 .2 3 1 2.5.5-.6.5-2.2 0-3.5zm86.2-13.5c-1-3.5-2.4-5.7-3-5-.6 1-2.6 2.2-4.4 3-1.8.6-2.8 2-2.2 3 .7 1 0 1.8-1.5 1.8s-3-.8-3.4-1.8c-.2-1-1.5-.2-2.8 1.8-2.2 3.5-1.8 3.7 8.6 3.7h10.8zm-302-16.6c0-5.5-.7-10-1.7-10s-2 5-2 11.2c0 7 .7 10.6 2 10 1-.7 1.7-5.7 1.7-11.2zm565.5 10.2c3.4-1.4 3.3-1.6-1-1.7-3-.2-5.6.6-6.2 1.6-1.4 2.2 2.2 2.2 7.3 0zm-572.7-10c0-8-.6-10-3-10-1.7 0-2.6 1.4-2.4 4v7c-.2 2.4-.4 2.4-2 0-1-1.6-1.3-4.3-.8-6 .6-2 0-3.3-1.4-3.3-1.7 0-2.2 2.5-1.8 8.8.6 8.4 1 9 6 9.3 5.3.4 5.3.4 5.3-9.7zm205.3-5.8v-15.5l-10.5.6c-7.7.3-10.3 1-10 3 .4 1.5-.4 2-2 1.5-2-.8-3 1-3.6 6.5-1.2 9 1.2 15.4 3.2 9 .7-2.2 2-3.6 2.8-3 2.3 1.3-2.3 10-5.4 10.2-5.7.5 8.6 3 17 3h8.6zm-224 4.4c-.5-2.2-1-.8-1 3.2s.4 6 1 4.2c.6-1.8.4-5 0-7.4zm59-3.2c0-1-.3-1.8-.7-1.8-.4 0-1.4.8-2 1.8-.6 1-.3 1.8.8 1.8 1 0 2-.8 2-1.8zm383-2.6c0-1.4-1.5-3-3.6-3.4-4-1-4.8 1.3-1.3 5 2.6 2.8 5 2 5-1.6zm-11.5-9.7c-.3-1.8-.7-.8-.8 2.2-.1 3 .4 4.4 1 3.2.6-1.2.4-3.7 0-5.5zm-371.4-.6c0-1-.3-1.8-.8-1.8s-1.3 1-2 2-.2 1.7 1 1.7c1 0 1.8-1 1.8-2zm196-26c0-1.8-1-3-2.2-2.8-1.2.3-2-1-1.7-2.7.3-1.8-.3-3.3-1.4-3.3-1 0-.2-1.7 2-3.8 2.5-2.5 3.4-5.2 2.7-7.8-.6-2.2-1-5-1-6.3 0-1.3-1-2-2-1.2-1.2.8-1.8 0-1.4-2 .4-2.4-.5-3.4-2.7-3.2-1.8 0-3.3-.5-3.3-1.4 0-1-1-1.6-2-1.6-1.4 0-1.3 1 .3 2.8 1.4 1.8 1.7 3.4.7 4.2-1 .6-1.7 9-1.7 18.6v17.4l5-.3c3.6-.3 5 .5 5.2 2.7.3 3.6 3-4.3 3.3-9.2zm-7.5-22.8c1.4-.6 3-.5 3.6 0 .6.7-.5 1-2.4 1-2.2 0-2.6-.5-1-1zm223 32.4c-.6-1-4-2-7.5-2-3.8 0-6 1-5.3 2 .6 1 4 1.8 7.6 1.8 3.8 0 6-.7 5.3-1.8zm152.5-8.3c-.7-1.6-2-2.4-3-1.8-2.2 1.3-2.5 8.8-.5 10.8s4.8-5.5 3.5-9zm-152.4 1c-.4-.8-3.5-1.2-6.8-1-8 .7-8.2.8-5.5 2.5 2.8 1.8 13.6.4 12.3-1.5zm-1.8-5.5c-.6-1-3-2-5.6-2-2.5 0-4.5 1-4.5 2s2.7 1.8 5.7 1.8c3.3 0 5.2-.8 4.5-1.8zm1-6c0-.8-2.6-1.4-5.7-1.4s-5 .8-4.6 1.7c1 2 10 1.8 10-.2zm-413.4-5c.7-1 .3-2-.8-2-1 0-2 1-2 2s.4 1.8 1 1.8 1.2-.8 1.8-1.8zm412.9-2c0-.7-2-1.2-5-1l-9 .6s-4.2 1-4.2 1.7c0 .8 4 1 9.2.7 5-.3 9-1.2 9-2zm-2.8-5c4-1.4 3.7-4-.3-3.3l-5.6.8c-1.2 0-2.3 1-2.3 2 0 2 4 2.3 8.2.6zm373 .5c-1.7-1.7-23.7-2.5-23.7-1 0 1 5.5 1.8 12.2 1.8 6.7 0 12-.4 11.4-.8zm-386-7c1.4-.8 1-1.4-1-1.4-2.2 0-3.2 1.4-3 4.2 0 2.8.4 3.2 1 1.4.6-1.5 2-3.4 3-4zm-129.7-22c-.4-4.2-.7-.2-.7 8.8s.4 12.6.7 7.8c.4-4.7.4-12.2 0-16.4zm145.3 20.8c0-1-2.4-2-5.4-2-3 0-6 1-6.5 2-.8 1 1.4 1.8 5.3 1.8 3.6 0 6.5-.7 6.5-1.7zm0-7.6c0-1-2.4-1.6-5.5-1.6-3.3 0-5.5 1-5.5 2.5 0 1.7 1.8 2.2 5.5 1.6 3-.3 5.5-1.4 5.5-2.3zm364.3 2.6c-2.6-.4-7.6-.4-11 0-3.2.4-1 .7 5 .7 6.2 0 9-.3 6-.7zm-532.1-3.3c9.3-1 11-2.7 2.6-2.7-14.5 0-40 2.4-40 4 0 1.3 21 .6 37.4-1.3zm114.7-.5c0-1.7-35-4-59.4-4-14 0-15 3-1 4 21.2 1.5 60.4 1.5 60.4 0zm-174.7-6.2c-.6-1.5-1-1-1 1-.2 2 .3 3 1 2.5.5-.6.6-2.2 0-3.6zm227.8 2c0-1.7-2.5-2.4-7-1.8-1.4.2-2-.5-1.3-1.6.7-1.2 3.2-2 5.7-2 4.5 0 6-2.6 2.7-4.6-1-.6-1.4-2.2-1-3.6.8-2-.5-2-6-1-4 .6-8.7.6-10.6 0-3-1-3-1.4 1-2.5 2.5-.6 7.2-1.2 10.5-1.2 3 0 5.8-.8 5.8-2s-2.5-1.7-6.4-1.2c-3.5.4-6.4 0-6.4-.7s2.4-1.4 5.4-1.4c3 0 6-1 6.6-2 1.4-2.2-10-1.4-13.6 1-1.2.7-2 0-2-1.5 0-1.4-1-3-2.2-3.3-1.5-.5-2-8-1.7-26l.4-25-10.7.4-10.7.7.5 38.4c.4 25 1.3 39 2.5 39.7 1 .7 5.4 1 9.6.4 4.2-.6 9.8 0 12.3 1.2 6 2.4 16.5 2.6 16.5.2zm-16-3c-2.3-.4-4-1.6-4-2.5 0-2.5 2.3-2 6.4 1 2 1.5 3 2.6 2.6 2.5l-5-1zm-210-6.4c-.6-1.5-1-1-1 1-.2 2 .2 3 .8 2.4.7-.6.7-2.2.2-3.5zm40-1.4c-.5-1-2.6-1.2-4.6-.7-5 1.2-4.6 2.3 1 2.3 2.6 0 4.2-.8 3.7-1.7zm25.6-1c1-.4-3-.8-8.7-1-5.8 0-10.5.7-10.5 1.6 0 1.4 14.5 1 19.2-.7zm104 .6c-1.7-1.8-64-5.6-66.2-4-.4.3 0 1.2.6 2 1.2 1 15 2 58.7 3.7 6.7.2 8.6-.3 7-1.8zm-161.6-8.1c0-2.4 1-4.4 2-4.4s1.3-1 .7-2c-1-1.4-1.7-1.3-2.8.4-.8 1.3-2 1.8-2.8 1-.7-.6-.3-2.2.8-3.6 1-1.3 1.5-4.2 1-6.4-.7-2.4-.3-4 1-4 1 0 2-1.3 2-2.8 0-1.5-1-2.8-2-2.8s-1.7-3.7-1.7-8.2c0-5.6.6-8 2.2-7.8 1.7.4 2.4-5.7 2.8-24.3.3-13.5 0-28-.5-32.4-1.2-8.2-4.3-10.3-6-4-.4 2-2.4 3.5-4.3 3.5-3.2 0-3.5 2-3.6 21.7v28.1c.4 7 3.4 19 3.6 14.6 0-1.3 1-2 2-1.3 1 .6.8 3.7-.3 7.8-1.5 5-1.4 7 0 7.6 1.2.3 2 2.7 2 5.3 0 3.6-.4 4-2.4 2.5-3.3-2.8-5-.8-5 6.3 0 9 1.6 11.4 6.6 10.4 3.3-.6 4.5-2 4.5-5.2zm217.2-11.7c.6-1-1.2-2-4.4-2-3 0-6 1-6.7 2-.7 1 1 1.8 4.3 1.8 3 0 6-.7 6.6-1.7zm.3-6.2c2.2-2-.6-2.8-7.3-1.7-3.7.6-6.3 1.8-5.8 2.7 1 1.6 11.2 1 13-1zm427.4-8.8c0-.8-1-1.4-2.6-1.4-2.7 0-3.7 5.6-1.3 8 1 1.2 3.7-3 4-6.6zm-434.2 2.3c0-1-1.2-1.3-2.7-.7-1.6.6-2.8 1.4-2.8 1.8 0 .3 1.2.7 2.8.7 1.6 0 2.7-.8 2.7-1.8zm1-5.6c.5-1-.2-2-1.7-2s-3.2 1-4 2c-.8 1 .2 1.8 1.7 1.8s3.3-.8 4-2zm-210.5-6c-.6-1.4-1-1-1 1.2-.2 2 .3 3 1 2.4.7-.6.6-2.2 0-3.5zm212.5-3c-4.4-.8-9 1.2-7.6 3.4.6 1 2.8 1 6-.5 3.7-1.8 4-2.4 1.5-3zm-469-4.7c5.6-1.4 5.8-1.8 6.8-13.6.7-6.7 2.4-17 3.8-22.7 1.6-5.8 2.8-11 2.8-11.6 0-1.6-19 1-21 3-1 1-1.5 4.6-1.3 8 .4 5.8-.2 6.7-5.7 9s-6.4 3.6-7.4 11.3c-2 15.2-1.7 18 2.4 17 2-.7 4-.4 4.7.5 1 1.6 5.4 1.3 15-1zm465 1.5c4-1.6 3.5-4.2-.8-3-2 .5-3.7 1.6-3.7 2.5 0 2 .6 2 4.4.5zm6.5-8c2-1.3 1-1.8-4-1.8-4 0-7 .8-7 1.8 0 2.3 7.4 2.3 11 0zm-366-4.5l12.3-.7c4-.2 7.3-1 7.3-1.8s-5.6-1.2-12.4-1c-13.6.7-11.4-1.6 4-3.8 4.7-.7 8.3-1.7 7.8-2.2-1.2-1.2-45.5 4.5-47 6-.5.6 4.2.5 10.5-.2 14-1.6 15.4 1.4 1.8 4l-9.6 2 10-1 15.2-1.3zm-35-2.2c-1.2-.4-3.3-.4-4.5 0-1.2.4-.2 1 2.3 1s3.5-.4 2.3-1zm381.7-15c-1.8-9-1-23 1-23.8 1.3-.4 1-1.6-.2-3.2-1.6-2-1.6-3.2 0-5 1.5-2 1.6-3 .3-4-1-.5-2-5.2-2-10.2 0-6.4-.7-9-2.3-8.6-1.2.3-2.3-.3-2.3-1.3s1.2-1.7 2.6-1.3c1.8.4 2.2-.6 1.4-3.7-.6-2.4-1.2-6.6-1.2-9.4 0-7.8-12.6-11-13-3.4 0 2.4-.4 2.2-1.7-.6-1.5-3.7-1.5-3.7-1.8 0-.5 5.4-.5 13-.2 29.7.2 15.2.2 15.2 4 11.5 4.2-4.4 4.8-9.5.8-8-1.4.6-2.7 0-2.7-1s2-2 4.4-2c4.7 0 8.2 7 4.6 9.3-1 .8-2 1.8-1.8 2.5.6 4.3 0 6.7-1.7 5.7-3.4-2-7.3 4.2-7.3 12 0 4 .7 7 1.5 6.6.8-.5 2.6-.2 4 .8 2.2 1.4 2 2-1.4 2.8-4 1-4.4 1.8-4.8 6.7-.2 2.2 6 3.8 17 4.5 4 .2 4-.2 3-6.4zm-10-8.5c0-2.5.8-4.5 1.8-4.5s1.8 2 1.8 4.5-.8 4.6-1.8 4.6-1.8-2-1.8-4.5zm-7.4-8c0-3.8 1-5.3 2.8-5 3.3.5 3.6 1.5 2.3 6.7-1.5 5.5-5 4.3-5-1.7zm3.7-41.6c0-.3 2-1.7 4-3 4-2 4-1.8 1.7 1s-5.7 4-5.7 2zm4.2-9.6c-1.4-1-1.6-2.3-.4-4 1.5-2.5 2-2.5 3.5 0 3.3 5 1.7 7-3 4zm175.3 72c-3-2.8-22.7-5.2-67.7-8.3-35.6-2.3-38.5-2.2-38.5.8 0 4 4.4 5 28.3 6 12 .6 27.5 1.7 34 2.4 6.6.8 19.7 1.6 29.3 1.7 15 0 17-.2 14.5-2.5zm-632-14c.7-1 .3-2-.7-2.8-1-.6-1.8.2-1.8 1.7 0 3.2 1 3.7 2.6 1.2zm-185-5.2c4.8 4.5 11.3 3.8 10.5-1.2-.4-2-1.4-4.5-2.4-5.5-1.2-1.2-1.4 0-.6 3.2 1.6 6.4-.4 6.3-7.8-.5-40.8-25.6-1.7 2.2.2 4zm665 4c-1.3-.5-3.4-.5-4.7 0-1.3.5-.2 1 2.3 1s3.7-.5 2.4-1zm-645-8.4l-9.5-10.6c-3-3.5-5.8-7-5.8-7.8 0-.7-.8-1.3-1.8-1.3-3 0-2 3.3 2.3 8 2.3 2.5 6.2 7 8.7 10.2 2.5 3 5.7 5.6 7.2 5.6 2 0 1.6-1-1-4zm9.7-4c-3-3.5-6-6-6.4-5.6-.5.5.5 2.4 2.2 4.2 1.7 1.8 3 4.3 3 5.5 0 1 1.6 2 3.5 2 3 0 2.5-1-2.3-6.3zm496.4-.2c-.5-9.3-2.7-10.2-2.7-1.2 0 4.2.6 7.7 1.5 7.7.8 0 1.3-3 1-6.4zm-483.8-.4c-2.6-2.8-6.4-8.6-8.5-12.8-2-4.3-4.5-7.8-5.4-7.8-2.5 0-2.4.3 4.6 12 3.5 5.7 6 11.2 5.4 12-.6 1 1 1.6 3.8 1.6h4.7zm10-3c-2.5-2.5-6.6-5-9-5.7-4-1-3.8-.7 1.3 2.6 3.4 2 6 4.7 6 5.7s1.5 2 3.2 2c2.6 0 2.4-1-1.4-4.5zm10.3-2.8c-2.4-4-5.6-10-7.2-13.7-2-4.8-3.5-6.3-5.7-5.5-2.5 1-2.5 1.6.6 5 2 2.2 6 8 8.8 12.6 3 4.8 6 8.7 6.8 8.7.8 0-.6-3-3-7zm13.7-2c-2-2.8-3.7-6-3.7-7.2 0-1.2-.6-2-1.5-2-.8 0-2.7-2.6-4.2-5.8-1.5-3.2-3.3-5-4-4-1.4 2.4 13.3 26.6 15.6 25.2 1-.5 0-3.3-2-6.2zm-54.6-3.7c-1-3.7-3.7-6.5-5-5-1 .7 4.2 8.7 5.4 8.7.3 0 .2-1.7-.4-3.7zm22.8-6.4c-.7-1.5-2.6-2.7-4.4-2.7-3 0-3 .2 0 2 1.7 1 3.2 3.2 3.3 5 0 2 .3 2.2 1 .7.5-1.3.4-3.6 0-5zm80-.3c-2-3-5-8.3-7-12-3.6-7-6.5-9-6.4-4.6 0 2.8 3.5 8.5 3.6 6 0-1 2.6 2.5 5.7 7.8s6 9.3 6.5 8.8-.6-3.2-2.6-6zm-48-1c-1.3-1.5-2.2-1.6-2.2-.4 0 1 .6 2.4 1.3 3 .7.8 1.7 1 2.2.4.6-.5 0-2-1.2-3zm59 .3c-.7-2-1.8-3.2-2.6-2.7-1.8 1-.2 6.3 2 6.3.8 0 1-1.7.5-3.7zm8.6-3.6c-4-8-7.4-11-7.4-6.7 0 1.5.8 3.2 2 4 1 .6 2.6 3 3.5 5.5 1 2.4 2.6 4.4 3.6 4.4s.3-3.3-1.7-7.3zm1064-4.7c8.3-16 6.6-16.6-2-.7-4 7-6.4 12.7-5.6 12.7.7 0 4.2-5.4 7.6-12zm-1054 3c-2.2-4-4.4-6.8-4.8-6.4-1.2 1.2 5.5 13.6 7.3 13.6 1 0-.3-3.3-2.4-7.2zm373.7-.4c-1.7-2.4-3-6.7-3.2-9.8 0-5.3 0-5.2-2 1.6-1.7 6.5-1.4 7.4 2.5 10.4 5.5 4 6.6 3.2 2.8-2.3zm626-.7c-.5-3.6-1-6.5-1.5-6.5-.4 0-.7 3-.7 6.4 0 3.5.7 6.3 1.5 6.3s1.2-2.8.8-6.4zm12.4 4.4c0-1 1.6-5.4 3.5-9.6 3.7-8.4 6.7-17.4 5.2-16-.5.5-3.8 7-7.4 14.2-4.8 9.8-6 13.3-4 13.3 1.5 0 2.7-.8 2.7-2zm-1052-1.8c0-1-1-1.8-2.3-1.8-1.2 0-4-2.5-6-5.5s-4.7-5.5-6-5.5c-2 0-2 1 .8 4 7.6 9 13.5 12.7 13.5 8.8zm1026-.7c0-1.5 2-7.3 4.7-13 7.2-16.4 4.2-16.6-3.4-.4-7.8 16.5-7.6 15.8-4 15.8 1.5 0 2.7-1 2.7-2.5zm-965.7-.1c0-2-8-14-8.7-13.2-1.3 1.3 5 14 7 14 1 0 1.6-.4 1.6-.8zm339-3.3c0-3.4-.4-3.6-2-1.4-2.2 3.7-2.2 5.6 0 5.6 1 0 2-2 2-4zm606.7-11.8c3.7-7.7 6.3-14.4 5.8-15-1.4-1.3-1.5-1.2-9 14-7.3 14.5-7.4 15-5 15 .8 0 4.5-6.3 8.2-14zm-930 3.7c-2.4-5-3.5-6-3.5-3.4 0 3.7 5 12.7 6.5 11.3.4-.3-1-4-3-8zm914.3-3.3c8.3-17 7.2-19.3-1.6-3-8 15.3-7.8 14.8-5.8 14.8.8 0 4-5.3 7.3-12zm-974.7 7c0-1.4-.8-2.2-1.8-1.6-1 .7-1.4 2-.8 3 1.5 2.4 2.6 2 2.6-1.3zm84.3-4.3c-4.8-9.5-6-9.5-2 0 1.6 4 3.6 7.3 4.4 7.3.8 0-.3-3.3-2.4-7.3zm853.6-8.3c3.2-7.5 5-13.7 4.3-13.7-1 0-6 10.3-12.6 26-.5.8 0 1.5 1 1.5.8 0 4-6.2 7.2-13.8zm15.7-.4c.4-6.3.2-12-.7-12.4-2-1.3-3 3.5-3.4 16.4-.5 14.3 2.6 11.2 4-4zm-706.7 11.2c-.6-.6-2.2-.7-3.5 0-1.5.5-1 1 1 1s3-.4 2.5-1zm665-20.2c1.7-3.5 2.5-6.8 2-7.4-1.6-1.5-1.3-2-8 13-3.3 7-5.4 13.6-4.7 14.6.6 1 2.6-1.7 4.5-6l6.4-14.2zm8.5 15.8c-.5-3-1-5.5-1.5-5.5-.4 0-.7 2.5-.7 5.5s.6 5.5 1.5 5.5c1 0 1.2-2.4.8-5.5zm-654.7 2c0-.7-2-1-4.5-.6-2.5.5-4.6 1.2-4.6 1.6 0 .4 2 .7 4.5.7s4.6-.7 4.6-1.6zm-148-11.8c-4.2-6.4-7.6-13.5-7.8-15.6 0-2-.4-3.8-.6-3.8l-3 1c-2 .8-1 4.2 5.5 15.6 4.7 8 9.5 14.6 10.8 14.6 1.5 0-.3-4.5-5-11.8zm914 5c1.6-6.8-.3-6.7-3.6.3-2.6 5.4-2.6 6.2-.3 5.4 1.5-.6 3.3-3 4-5.5zm-964.2 0c-3.2-3.2-3.2-3-1 .7 1.4 2.2 3 3.7 3.4 3.2.5-.5-.6-2.3-2.4-4zm816.2-21.5c0-.7-.6-1.4-1.4-1.4-1.5 0-11.5 24-11.2 27 .2 1.5 12.4-23.2 12.6-25.6zm-28.8 15.6c1-1.3 1.4-3 .7-3.7-2-2-5 3.5-4.6 8.7 0 3.8.3 4 1 1 .5-2 1.8-4.8 2.8-6zm-722 1.6c-5-4.7-5.7-6.2-4.8-12 1-5.8.5-6.7-4-8.4-6.3-2.4-8.2-1-2.7 2 3.2 1.6 3.8 3.2 3 7.8-.6 4.5.2 7 4 10.8 2.5 2.8 6 5 7.4 5 2 0 1-1.8-3-5.3zm13.8-10.7c-4-7.6-7.5-14.8-8-16-.2-1-1.2-1.2-2-.5-2 1.7 12.2 30.5 15 30.6 1 .2-1.2-6-5-14zm670 7c.6-3.2 2.4-7 4-8.4 2-2.2 2-2.7 0-2.7-2.5 0-10.8 15.5-9 17.2 1.7 1.8 3.7-1 5-6.3zm18-1l3-7.3-3.7 4.3c-2 2.4-3.6 6-3.6 8 0 5 .6 4 4.2-5zm-759.6-1c-2-4.2-4.2-7.2-4.6-6.8-1 1 6.3 14.2 7.7 14.2.4 0-1-3.4-3-7.5zm720.8 2.8c1-5-1.2-6.3-3-1.6-1 2.5 0 6.2 1.6 6.2.3 0 1-2 1.4-4.6zm10.8-2.8c1.3-4 2-7.7 1.4-8.3-.6-.6-2 2-3.3 6-1.2 3.8-3 7.6-4.2 8.3-1.3 1-1 1.4 1 1.4 1.6 0 3.7-2.8 5.2-7.3zm-18-9c2.6-8.2 4-15.2 3.2-15.7-2-1.3-6 6-6.3 12-.3 2.6-2 7.3-3.5 10.5-3.6 7-3.7 7.8-.7 7.7 1.3 0 4.5-6.6 7-14.7zm-626-4.2c-5.5-5.8-11-10.6-12.2-10.6-1.2 0 3 5.4 9 12s11.4 13 11.5 14.2c.2 1.2.6.6 1-1.4.5-2.5-2.4-7-9.3-14.2zm601.8 11.8c0-2.7-.2-2.7-1.8-.4-2.3 3.6-2.3 6 0 4.6 1-.6 1.8-2.5 1.8-4.2zm102.7 3.4c0-1-.8-2-1.8-2s-1.8 1-1.8 2 .7 1.7 1.7 1.7 1.8-.8 1.8-1.8zm62.3-4c0-1-.8-1.3-1.8-.7-1 .6-1.8 2-1.8 3s.8 1.3 1.8.7c1-.6 1.8-2 1.8-3zm-736.2-11.2c-3.6-7.3-6.6-14.3-6.6-15.6 0-1.3-1.4-2.3-3-2.3-2.8 0-2 2.5 4.3 15.4 4 8.5 8.5 15.5 9.7 15.6 1.3 0-.5-5.5-4.4-13.2zm536 9.7c.6-1.4 0-2-1.5-1.6-1.2.3-2.6 1.8-3 3-.5 1.5.2 2.2 1.5 1.7 1.4-.4 2.8-2 3.2-3.2zm-25-26.3c1.2-2.8 1.6-5.7 1-6.3-1.7-1.7-2-1-9 16-4.6 10.8-6 15.8-4.5 16.7 1.5 1 3.7-2.7 6.5-10l6.2-16.5zm7.2 27.5c0-.3 2.8-7.5 6.4-16 7.4-17.8 7-16.5 4-16.4-1.2 0-5 6.8-8.2 15.2-6.5 16.6-6.8 17.7-4 17.7 1 0 1.8-.2 1.8-.5zm116.7-3.5c-.6-1.4-1-1-1.2 1 0 2 .4 3 1 2.5.6-.6.7-2.2.2-3.5zm-617.3-12.7c-8-16.8-8.2-17-9.8-15.5-1.6 1.6 12.6 30.6 15 30.6 1 0-1.3-6.8-5.2-15zm467.8 7.5c-1-4.4-1.7-9-1.7-10.2 0-1.2-1.3-2.3-2.7-2.3-2 0-2.2 1.5-.8 7.8 2.2 10.5 3 12.3 5 12.3 1 0 1-3.2 0-7.7zm-445.3 2c0-2-1-3.5-2-3.5s-1.7 1.5-1.7 3.5.8 3.8 1.8 3.8 2-1.6 2-3.7zm431.3-12.2l6.2-18.3c.5-1.2-.3-2.2-1.6-2.2-1.5 0-4.7 6.6-8 16.6-3 9-6.6 17.3-8.2 18.2-2.2 1.4-2 1.7 1.8 1.7 4 0 5-1.5 10-16zm116.6 7.2c-1-.4-1.7-3-1.7-6 0-5.8-3-8.6-6-5.6-1.6 1.5-1.5 2 0 2s2.3 3.4 2.3 9.5v9.1l3.6-4.3c2-2.5 2.8-4.7 2-5zm21.7 3.7c.4-1.4-.4-1.8-2.2-1-1.6.5-3 1.8-3 2.8 0 2.4 4.2 1 5.2-1.8zm-553-.2c0-1.5-12.8-31-14.3-33-.4-.5-1.6 0-2.7 1.2-1.5 1.5-1 3.4 1.5 7.2 2 2.7 5.6 9.8 8 15.6 4 9.4 7.3 13.4 7.3 9zm395.7-12.5l6.2-17.5c.8-2 .4-3.2-1.3-3.2-1.3 0-4.4 5.6-7.2 13.3-7.2 19.8-7.6 21.5-5 21.5 1.5 0 4.7-6 7.5-14zm-20.6-1c0-7.3-.7-15.2-1.4-17.7-1.2-4.3-1.4-4.2-6.6 2.8-3.4 4.6-4 6-1.6 4 3.8-3.3 3.8-3.3 5 10.5.8 7.6 2.2 13.8 3 13.8.8 0 1.7-6 1.6-13.3zm-355.2 10c0-.8-2.8-4.2-6.3-7.5-5.3-5-6.2-7-5.4-12 1-6.2-1-8.8-8.5-11-4.3-1.5-4.3-1.4.8 3 4 3.4 5 5.4 4 8.5-.8 2.2-2 4-2.7 4-.7 0 2 3.7 6 8.2 7 7.6 12.2 10.5 12.2 6.8zm321-11.5c-1-4.4-1.8-8-1.6-8 3.3-.5 11.5-6.5 12-8.6.6-3.8-4.4-9-8.5-9-2.7 0-2.7.3.2 2 7 4 .6 14.5-9 14.5-6 0-6.7-2.7-2.7-11l3.6-7.3h-4c-2.5 0-4 1.2-4.2 3.2 0 1.8-2.8 9.7-6 17.5-3 7.7-5.5 14.5-5.5 15 0 .4 2 .8 4.5.8 3.3 0 4.2-.7 3.4-2.8-1.8-5 3-13.7 7.7-13.7 4.2 0 6.2 3 6.2 9.5 0 2 1 5.4 2.3 7.6 3 5.6 4 .5 1.6-10zm13.3 6.6c1.5-3.5 3.5-6.3 4.5-6.3s2.2-1.5 2.8-3.3c.6-1.7-2.2.5-6.2 5-7.5 8.5-8.8 11-5.5 11 1 0 3-2.8 4.5-6.3zm-316 3c0-1-2.8-8.4-6.4-16.4-3.4-8-6.3-15.5-6.3-16.6 0-1-1.2-2-2.7-2-3.7 0-3.5 2.4 1 11 2 4 3.5 10.5 3.5 14.6 0 5.3.8 7.4 2.8 7.4 1.5 0 2.7.8 2.7 1.8s1.3 2 2.8 2c1.5 0 2.7-1 2.7-2zm442.2-2c1-3.2.6-3.5-1.6-1.7-2.8 2.4-3.3 5.3-1 5.3 1 0 2.2-1.6 2.7-3.7zm-342.2-13.1c-1-8.7-1.7-9.6-8.8-12.7-4-2-8-3-8.4-2.6-1.3 1.4 6 6.3 8.3 5.5 3.7-1.3 7 2 5 4.8-1.6 1.8-1.6 5-.3 11.5 1.6 7.2 2.3 8.3 3.7 5.8 1-1.8 1.3-7.3.5-12.4zm-81.5 9.7c0-1.8-.8-4.5-1.8-6-1.5-2.3-1.8-2.3-1.8.3 0 1.8-.5 4.5-1 6-1 2-.2 3 1.7 3 1.7 0 3-1.4 3-3.2zm780.8 2.5c0-.4-1.2-1.2-2.7-1.8-1.5-.6-2.7-.3-2.7.7s1.2 1.8 2.8 1.8c1.6 0 2.8-.3 2.8-.7zm-867.2-3c-.4-1.2-1.4-2-2.4-2s-2 .8-2.4 2c-.4 1 .7 2 2.4 2s2.8-1 2.4-2zm330.7-.4c1.6-1.4 3-3.7 3.3-5.2 1-9-2.2-10-4.7-1.4-1.3 4-3.4 6.3-6.5 7.2l-4.5 1.2 4.6.2c2.6 0 6-1 7.7-2zm-17-8c1.3-4.4 3-8.2 4-8.2s1.6-2 1.6-4.6c0-2.6 1-7 2.7-10 2.6-5.2 2.6-5.5-1-5.5-2 0-3.7 1-3.7 2.3 0 1.2-2.8 9.5-6.2 18.3-5.3 14-5.7 16-3 16 2.3 0 4-2.5 5.6-8.2zm-361 3.6c0-1.5-.8-2.3-1.8-1.7-1 .6-1.4 2-.8 2.8 1.6 2.5 2.7 2 2.7-1.2zm342.4-15c6.8-20.4 6.8-20.4 3.3-20.4-1.6 0-3 1-3 2.4s-2.8 9.8-6.3 18.8l-6.4 16.8c0 .3 1.4.5 3.2.5 2.4 0 4.7-4.4 9.2-18zm533.8 16.6c0-1-4.4-2-9.7-2.7-27.8-3.2-41.3-5.4-46.2-8-3-1.4-5.7-2-6-1-.3 1-4.5 1.5-9.2 1.2-11-.8-6.3 2 6 3.4 5 .5 15.7 2 23.7 3l25.7 3c6 .4 11.5 1.3 12 1.7 1.3 1.4 3.8 1 3.8-.8zm-553.8-5c.5-3 .2-3-1.8-1.3-2 2-16.4 3.5-16.3 1.8l6.4-17.5c5-14 5.6-17.3 3.5-18-1.5-.7-3-.8-3-.4-1.2 1.8-11.4 34-11.4 35.5 0 2 11.7 4.4 18.4 4 2-.2 4-1.8 4.3-4zm188.7 2.5c2.5-2.5 3-8.2.7-9.5-.6-.5-2.2 2-3.2 5.4-2 6.5-1.2 8 2.6 4zm54.6-4.7c-2-1.8-3.4 1-2 3.4 1.3 2 1.7 2 2.3 0 .5-1.2.3-2.8-.3-3.4zm-826.4 1.2c0-1-.8-1.8-1.7-1.8-1 0-2.4.8-3 1.8-.6 1 .2 2 1.7 2 1.6 0 3-1 3-2zm412.4 0c0-2-3.6-4.3-5-3-1.4 1.3 1 5 3.3 5 1 0 1.7-1 1.7-2zm11-5c0-6.2-3-9.7-8.2-9.5-3.5 0-3.5.2.4 1.8 3 1.2 4 3 4 7.2 0 3 1 5.5 2 5.5s1.8-2.3 1.8-5zm12.8 1.8c0-.7-1.4-7-3-13.7-2-7.7-4.2-12.3-5.8-12.3-1.8 0-2 1-1.2 3.2.8 1.7 2.7 8 4.3 13.7 1.7 5.8 3.6 10.5 4.4 10.5.8 0 1.4-.6 1.4-1.4zm-128.3-2.3c0-1-.8-1.8-2-1.8-1 0-1.3.8-.7 1.8.6 1 1.5 2 2 2 .4 0 .7-1 .7-2zm73 0c-.4-1.2-1.4-2-2.4-2s-2 .8-2.3 2c-.4 1 .7 2 2.4 2s3-1 2.5-2zm266-11.7c0-4.3-3-8.5-6-8.5-1.2 0-1 1 .2 2.2 3.3 3.3 2.7 8.4-1.4 12-5.8 5-4.3 6.7 1.8 2.3 3.4-2.3 5.6-5.6 5.6-8zm392.3 9.6c-4.5-1-11-2-14.7-2.6-3.4-.5-7.3-1.3-8.6-1.7-1.2-.4-2.3 0-2.3.8 0 2 17 5.2 26.7 5.2h7.3l-8.2-1.6zm-522-12c2-7 4.2-13.5 4.7-14.8.5-1.2-.3-2.3-2-2.3-1.5 0-3 1.5-3 3.2 0 1.7-1.5 7.8-3.4 13.3-3 8.8-3.3 13-1 13 .5 0 2.6-5.7 4.7-12.5zm493 8c0-.5-1.8-1.2-3.8-1.8-2-.5-3.2-.2-2.6.7 1 1.6 6.3 2.4 6.3 1zm-980.1-16.1c.5-8.7.3-9.4-2-6.3-1.3 2-2.4 5-2.4 6.8 0 1.8-.7 3.4-1.6 3.4-.8 0-1.2-2.7-1-6 .6-4.8.4-5.3-1-2.3-2.3 5.1-2.2 13.4.3 16.1 3.8 4 7-1 7.7-12zm455.6 13.7c0-2.6-6-10-7.6-9-1 .6-1.2 1.7-.7 2.6.6.8-.3 2-2 2.6-2.2 1-2.7.3-2-2.6 1-3 .6-3.4-1.5-1.7-4 3.4-11.5.6-13-4.6-1-4.2-4.3-6.5-4.3-3 0 5.3 5.2 10.8 12.7 13.4 8.4 3 18.4 4.2 18.4 2.4zm501.2-.6c-2.4-2.2-17.7-5.8-24.4-5.8-3 0-6.7-1-8-2.5-2-2-5-2.3-12.6-1.3l-10 1.4 9.3 1.4c8.3 1.3 44.6 7.7 46.5 8.2.5 0 0-.5-1-1.4zm-605.5-5.6c0-2.5-1.2-3.6-4-3.6-3.8 0-3.8 0-.6 3.6 1.8 2 3.6 3.7 4 3.7.3 0 .6-1.6.6-3.7zm784.4 2c0-1-1.2-2-2.8-2-1.6 0-2.7 1-2.7 2s1 1.7 2.6 1.7 2.8-.8 2.8-1.8zm-1148-5.8c0-3-1-5-1.7-4.5-2 1.3-2 10 0 10 1 0 1.8-2.5 1.7-5.5zm528.2 4.6c0-2-3.5-2.7-4.6-1-.6 1 .2 1.8 1.7 1.8 1.6 0 3-.4 3-.8zm606.6-1c2-1.2 2.2-2.2.7-3.7-1.6-1.4-1.6-4-.3-9.4-.2-10.3-20 7.2-30 6.3-5-1-6 3-1.2 4 5 1.3 21.3 4 25.2 4.4 1.5 0 4-.6 5.5-1.6zm-735-5c1.6-1.4-1.3-2-6.8-1-3.3.5-6 1.6-6 2.5 0 1.4 10.8.2 12.7-1.4zm508.2 0c-1.2-.4-3.7-.4-5.5 0-2 .5-1 1 2 1s4.6-.4 3.4-1zm-13.4-3.9c-5-4.3-4-4.2-10-1l-5 2.6 6 .7c14 1.6 13.7 1.7 9-2.4zm-25.6-1.8c-1.5-1-4.8-1.7-7.3-1.6h-4.5l4.4 1.7c2.6.8 6 1.5 7.4 1.6 2.5 0 2.5 0 0-1.6zm-873.7-4.7c.6-1.5.3-2.8-.7-2.8s-1.8 1.3-1.8 2.8c0 1.5.3 2.7.7 2.7.3 0 1-1.3 1.7-2.8zm4-.2zm699-1.6c-.7-9-10.3-3.2-5 2.3 3.4 3.5 5 2.7 5-2.3zm128.8-.3c-1.2-.5-3.3-.5-4.6 0-1.3.5-.3 1 2.2 1s3.6-.4 2.3-1zm-819.5-1.1c-3.5-5.4-5 .7-2 .8 1 0 2-.4 2-.8zm257.2.6zm-6.2 502.1c0-2.3 3.7-2.3 7.3 0 2 1.4 1.6 1.8-2.3 1.8-2.8 0-5-.8-5-1.8zm-91-2.3c.3-1.2-.6-3.7-2-5.5-3.2-3.6-1.4-4.2 6.4-2 4.7 1 5.5 4.2 1 4.2-1.7 0-2.4 1-1.7 2.8.6 1.7 0 2.7-1.8 2.7-1.7 0-2.6-1-2-2.3zm307.3-.4c0-1.5.8-2.8 1.8-2.8s2 1.3 2 2.8c0 1.5-1 2.7-2 2.7s-1.7-1.2-1.7-2.7zm-69-2.4c-.6-2-2.4-4.3-4-4.8-3.2-1 26.5.6 32.2 1.7l4 .8c.6 0-.2 1-1.7 2-2.5 1.6-12.5 1-20.4-1.2-1.7-.4-4.4.6-6 2.3-3 3-3.2 2.8-4.2-.7zm247.7-2c-1.4-2.4 6-3.5 31-4.7 13.5-.8 19.3-.6 17.4.6-1.6 1-11 2.3-21 3-10 .4-20 1.3-22.3 1.8-2 .4-4.4 0-5-1zm-612.6-2.6c.5-1.2 2.8-2 5.2-1.6 2.4.4 7.5.8 11.3 1 11.7.4 7.4 3-5.3 3-9 0-11.8-.6-11.3-2.3zm201.5.8c-1.4-.8 2.3-1.2 8.2-.7 14.5 1 16.4 2 4.2 2.2-5.6 0-11.2-.6-12.5-1.4zm-22-3.4c1.8-.4 4.7-.4 6.4 0 1.7.4.4 1-3.2 1s-5-.5-3.2-1zm18-2c0-1-2.3-2.2-5-2.5-2.7-.4-5.2-1.8-5.7-3-.6-1.8 1.8-2 10-1.3 22.7 2.2 26.5 3 25.8 5-.7 2.5-9 2.7-15.6.6-2.5-.8-5.2-.5-6.8.8-1.7 1.5-2.7 1.6-2.7.4zm-276.3-7c-.7-3-2.6-6-4.2-7.3-3.4-2.4-1.5-5 2.5-3.5 3 1 8.4 12 7 14.5-1.5 3-4 1-5.3-3.7zm9.4 3c-.5-1 .2-1.7 1.7-1.7s3.3.8 4 1.8c.7 1-.2 1.8-1.7 1.8s-3.3-.8-4-1.8zm603.2-1.6c-1.4-2.2.8-7.5 3-7.5 1.2 0 1 1-.3 2.7-1.3 1.5-1.7 3.5-1 4.6.6 1 .7 2 .2 2-.5 0-1.4-1-2-1.8zm-524.7-5c-5-.7-6-1.7-6-5.3 0-2.5-.6-4.5-1.4-4.5-.8 0-1.3-1.6-1.3-3.5 0-3 1-3.4 9.2-2.7 12.2 1 13.6 1.7 13.2 6-.2 3.3-1.2 3.6-9 2.7-7.5-.8-8.6-.5-7.7 2 .7 1.7 3.4 2.8 7 3 3 0 7 .7 8.4 1.7 2.8 2-.2 2-12.5.5zm264.8 0c1.3-.5 3.3-.5 4.6 0 1.2.5 0 1-2.4 1s-3.5-.5-2.3-1zm246-2.5c0-1 1-1.8 2-1.8s1.4.8.8 1.8c-.5 1-1.4 2-2 2-.3 0-.7-1-.7-2zm99-4.7c.2-2 .7-2.6 1.2-1 .6 1.2.5 2.8 0 3.4-.7.6-1-.5-1-2.4zm-654.3-2.6c0-1 1-1.7 2-1.7s1.4.8.8 1.8c-.6 1-1.5 2-2 2-.4 0-.8-1-.8-2zm24 .4c0-.8 1-1.5 2.6-1.5s2.8.6 2.8 1.4c0 .8-1.3 1.5-2.8 1.5-1.5 0-2.7-.8-2.7-1.6zm916.6-.6c-4.7-4.7-2-14.3 4.2-14.3 3.6 0 4 .8 3.5 6l-.7 8.2c0 3-4.2 3-7 0zm-916.7-5c0-1-1.7-1.2-3.6-.7-2 .6-4 0-4.7-1-1.5-2.4 8-2.7 11.5-.4 2 1.3 2 1.8-.4 2.7-1.6.6-3 .4-3-.5zm954.4-6.2c-1.4-1.4-3.7-3-5.2-3.6-1.7-.6-1-1 2-1.3 2.4-.2 6.4-.6 8.7-1 2.3-.5 5.6 0 7.2 1 2.8 1.6 3 1.7 0 1.8-1.6 0-3.4 1.3-4 2.8-1.3 3.4-5.6 3.5-8.8.3zm12.8-.7c1.3-.6 3-.5 3.5 0 .6.7-.4 1-2.4 1s-2.5-.5-1-1zm-191.6-3.7c-4.4-1.8-2.2-3.6 3.2-2.8 3 .4 5 1.5 4.5 2.4-1 1.6-4 1.8-7.7.3zm64-2c1-4.7 7-5.3 6.5-.6 0 2.4-1.4 3.8-3.6 3.8s-3.2-1-2.8-3.2z" fill="#d45500"/><path d="M329.806 604.343l11.7-10.8 12.4-17.5 2.7-33.5 6.7-20 3.5-1.5-7-16.3 7.8-34 13.6-13.2 20.7-7 30.4 5 19.5 15.3 6.2 27-2.7 21-9.4 10.4 12 27.6 13 42.4 10-11.3 13 19-22.3 23.5-12-16.4 7.7-11.3-14-12-4-9.8v16.8l-24.4 24-43.6 6-38.2-7.4-13.3-16" fill="#f9f9f9" stroke="#000"/><g font-size="61.3" font-style="italic" letter-spacing="0" word-spacing="0" font-family="Crayon Social Art" fill="#fff"><path d="M902.106 308.343c7.6-.5 3.4 8.6 5 12.8-.7 10 4-6.4 5.3-9.3 1.3-5.4 12-2.4 7 3.4-1 6.8-2 13.4-3.4 20.3 2.3 7.7-9.7 8.6-5.4.6.4-3.3 3.3-16.4-.2-7-2 3-2.6 13-7 11.8-1.7-4-.2-14.7-1.7-15-2.3 4.3.2 18.7-8 13.6 1.7-10.4 3.7-20.6 5.7-31 .6-1 2 .3 2.8-.4m9.2 34zm2 .6c1.4-1.8 1.3 2 0 0m-8.8-1zm-7.5-.4c3.3-.5 2 2.3 0 0m-2-.3zm11 0c2.5 0 0 3 0 0m10 .4zm-1 0c2 .3.7 3.3 0 .3v-.2zm-15.7-1.2c3 2.5-1.3 2.2 0 0m16.4-.3c2.5-.4 0 3 0 0m-9-.2c1.2-1.7 1.5 2.6 0 0m-6.8-2.3c1.5 4.6.3-.4 0 0m17.2.5c.5 0-.4.5 0 0m-1.2-1c2.6 2.4.2 3.6 0 0m-15.7-1.2c2 .8.2 3.5 0 0m8 0c3.3 0-1.2 5.6-.4 1.3 1.2 2.4 1.2-.7.3-1.3m-7.5-2c2.2 2.2-.6 2.8 0 0m16 .5c2.4 4-1 3 0 0m-15.6-.2zm-.5-.8c.8 0-.3 1 0 0m17.5-.2zm-1 .3c2.5 0 0 3.3 0 0m-7-1.3c0 1.6 0 3-.4 3.2-1.6.5 0-2 .4-3.2m-9-1c2.4 1.6-.6 3.2 0 0m16.6-.2c2.3 2.7-1 2.4 0 0m-7-.6zm-9-1.3c1.3 2-1.7 2.6 0 0m9.6-.3c.3.5-1 0 0 0m-9.4-.6c0-1.7 0-.6 0 0m16.2-1.5c1.7.3.8 3.7 0 3.6-.3-.2 1-2.2 0-3.5m.4-2.2c2.5-.3 0 5.2 0 0m.6-2.2c2.6 2.8-.8 2.4 0 0m-11.6-1.3c2 .7-.5 2.6 0 0m12.2-1.2c2 2.3-1 3.2 0 0m-12.4-1.5c2 1.2.2 3 0 0m0-.6c.5.3-.5.4 0 0m12.3.8c1.7-1.6 1.3 4.7 0 0m-12.2-2.8c2 2-.4 2.3 0 0m.3-.3c.6.3-.4.4 0 0m12.3.5c2.6.2.8 4.6 0 0m.6-2.4c2.3 1.8-1 4.2 0 0m-13 0c.6-1.7.2 2.5 0 0m13-1.2c2.7-1.4.5 3.7 0 0m-13.5-2zm6.5-.2zm5.7.2c-.5.5.6.3 0 0zm-4.2.3zm5 .7zm-18.7-1.2zm2.2.4c-.6.3.5 0 0 0m.8 0c-.6.4.6 0 0 0m9 1h.3zm-11-.5c-.7.4.6 0 0 0m-2 0c-.4.7.8.3 0 0m17.5 1.2c-.3.7.6 0 0 0m-13-.2zm-3.4 0c-.8.3.4 0 0 0m1.5 0c-.2.6.7-.2 0 0m14.7 1c0 .5.4-.5 0 0m-17-1c-.5.5.4.2 0 0m18 1.6zm-13.5 0c0 .7.6-.3 0 0m10 1c-.4.8 1 0 0 0zm-3-.2c-.5.6.7.2 0 0m1.5.6c-.5.4.5 0 0 0zm-11-.6c-.6.4.6 0 0 0m15 1.3c-.3.7 1 .2 0 0m-3.7 0c-.3.6.5 0 0 0m-1.8.3c0 .5.4-.3 0 0m4.5.4c0 .5.4-.3 0 0m-16.2-1c0 .8.6-.3 0 0m12 1.7c-.7.8.8.2 0 0m-10.2-.3zm9.2.6c-.2.5.5 0 0 0m3.6.8c-.6.5.5.2 0 0zm-14.4-1c-.4.8 1 0 0 0m1.8.6c.7 1 .4-1 0 0m15 .8c-.2.5.4-.3 0 0m-18-.7c-.4.5.6.2 0 0m2.4.7c-1.3 1 1 .3 0 0m15.6 1c-.4.7.7-.2 0 0m-1.6 0c-.4.7.8 0 0 0zm-12.3-1.2c-1 1 1 0 0 0m1 .2c.3 1 1-.7 0 0m-6-.3c0 .4.5-.5 0 0m13.6.7c0 .7 1-.3 0 0m2 .2c0 .4.4-.5 0 0m-8.8-.5zm-7.6-.4c-.7.5.5.2 0 0m12.6 1.2zm.6.2c-.7.4.5 0 0 0m5.8.2zm-7 0c-.6.2.6.3 0 0m-6.3 0c-.6.2.5.3 0 0m1.7 0c-.4.8 1 0 0 0m-4.2 0c-.3 1 1-.5 0 0zm-3.4 0c0 .5.5-.3 0 0m4 .6zm10.4.4c.4.6 1.6 0 0 0m4.2 1zm-16.2-1c-.5.5.6.5 0 0m1 .5c-.5.6.7.3 0 0m-2 0c-.4.5.5.2 0 0m3 .4c-.5.4.4 0 0 0m8.7 1zm-11-.6c.4 1 .7-.3 0 0m3.8.7c-.2.8.6-.3 0 0m-5.6-.3c-.4.7 1 0 0 0zm16.5 1.2c-.2.5.7-.2 0 0m-14-.6c-.8.3.6.6 0 0m9.8 1zm-11.7-.6c0 .8.6-.4 0 0m2 .3c0 .5.6-.3 0 0m5.5.3c-.5.4.4 0 0 0m-1 .3zm9 .8c0 .5.6-.4 0 0m-6 .2c-.6.5.4.2 0 0m-8.3.3zm3.5-.5c-.2 1 .7 0 0 0m-5 0c-.8.5.7.5 0 0m12.3 1.3c-.6.6.5.2 0 0zm4.7.4c0 1 1-.4 0 0m-16.6-.7c-.7.4.4 0 0 0m11 .7c-.6.2.5.4 0 0m-5.7.2c-.5.6.8 0 0 0m3.8.4c0 .5.6-.3 0 0m-10.2-.5c-.7.4.5 0 0 0m2 0c-.7.5.5.2 0 0m-2.7 0c-.6.8 1 .2 0 0m13 1c-.7.6.8 0 0 0m-7-.4c0 .8.7-.3 0 0m1.2.3c-.6.4.6 0 0 0m4.8.3c-.7.4.7.4 0 0zm5.5.4zm-.8.3zm2.2.4c0 .8.7-.4 0 0m-15.4-1c-.4.6.6 0 0 0m14.4 1c-.6.6 1 0 0 0m-15.5.3c-.5.4.5 0 0 0m1.3 0c-.5.5.5.2 0 0m7 .4zm6.5.6c0 .5.5-.4 0 0m-10.2-.7zm1.4.4zm-7 0c0 .4.4-.4 0 0m11.2 1.2zm6.5.4zm-12.6.5c0 .7.6-.6 0 0m2.6.7c-1 0 0 .8 0 0zm1.8 0c-.2.6.7 0 0 0m-3.7.5c-.8 1 1-2 0 0m-8.4-.5c-.7.4.5 0 0 0m3.6.5c-.8.8.7 0 0 0m13.5 1zm-4.7 0c-.7.3.5 0 0 0m-8.2-.5zm15.5 1.3c-.8.6 1 .3 0 0m-2.3 0c-.5.6.5 0 0 0m.8.5c-.6.3.4 0 0 0m-17.5-1c-.6.4.6 0 0 0m2 0zm5.5.7c0 .7.7-.2 0 0m8 .5zm-13.5.2c-.4.8 1-.4 0 0m14 2.4zm-6.5-.3c-.4.8.8.2 0 0m-11-.4c-.6.5.7.2 0 0m12 1zm-10.4-.5c-.6.8 1 .2 0 0m8 1zm-9-.2zm3 .6c-1 .3.6.4 0 0m16.7 1c-.5.5.6.4 0 0" style="text-align:center"/><path d="M931.606 310.343c2-.4 4.4.7 3.8 3.2v6c0 1.8-.3 3.4 0 5.3-.3 1.6.2 3.4 0 5.3-.3 2.2 0 4.5-.3 6.7 1 1.5-1 1.4 0 2.2.6 1.3.3 3.2-.3 4-1.8.4-5.8 1.2-5.4-2v-4.7c-2-.4-5.3-1.2-4.8 1-1.3 2-.8 5.8-3.6 5.6-1.4-.5-4.8-.3-3.3-2.8 1.6-1.8 1-4.5 2.6-6.3.5-2.2 1.4-4.3 2-6.5 1-2 1.4-4.2 2.3-6.2 0-1.8 1.7-3.5 1.8-5.7 1-1.5.7-4.3 2.7-5 1-.2 1.7.4 2.6 0m3.6 34.3c.6 0-.3.5 0 0m-11.7-1.4c1 1 0 1 0 0m7.6.5c1 .2 1.8 0 1.3.6 3 0-1 1-1.4-.5m-10-.8c2 .8-.6 1.7-.8 0 .5 0 1 1 .7 0m12.7.7c.5.8 1.4 0 1 1.2-.4 0-1.8-1-1-1.2m-10.7-1c1 .8 0 2-.3 1.2 0-.3-1.2-.3 0-1l.3-.2m12.2.8c1-1.3 2.4 2.4.5 1.2 0-.5-.2-1-.5-1.2zm-11.6-2.5c1 .3 1 1.4 1.3 1.5 0 1.8-2 0-1.2-1.2v-.3zm.3.6c-.2.5.4 0 0 0m.3 1c-.5.6.6.2 0 0m11.6-2c1 0 1.5 2 .4 2-.7-.6-.6-1 .2-.8-.8-.2-.7-.7-.6-1.2zm.6-.5c.6 0-.3.7 0 0m-12-1.4c1.5.4-.6 2 1 1 .2 1-.3 2.3-.6 1-1.3.3 0-.8-.5-1.3 1 .3 0 0 0-.6zm1.6-.6c.5 0-.2.5 0 0m10.3-.3l.4 1.8c-.7.7-1.6-1.3-.3-1.8m-11.3-.3c1 0 1.4-.4.3.4 1 .7 1 3 0 1-.4-.3-.6-1-.3-1.4m3-1.2c1 0 .3.8 1 .7.3 1-2.5-.4-1-.4v-.3m-2.7 0c.8.2 2-.4 1.2.7 1.8-.7-.6 1.5-.5-.2-.6.4-.7-.2-.8-.6m10.7-4.2c2-.3-1 1.2.8 1-.2 1-.2 1.3-1 2 1.4.5 0 1 1 1.4 0 1.5-1.3.4-.5-.2-2 .3 1.2-3-.6-2.6-.3-.6.5-1 .4-1.6m-8.2-2.6c.8 1-1.2 1 0 0zm8 .2c1 .2 1 3.3.4 1.2-1.2.4-.2-.5-.5-1.2m-7.5-2c1.6-1-1 .7.6 1.2 1.4 1-.5 2 0 .6-.7-.5-.7-1-.5-1.7m.5-1.4c2 0-.7 3.6.5 1.2 0-.6-1-.6-.5-1zm8 0c-.3 1 .4 2.5-.4 3 0-.6-1-1 0-.8-1-.3 0-2.3 0-.8.5-.2.2-1 .4-1.4m-7.4-1.3zm7-.7c-.5 1 .8 0 .5 1.5-.2 1.3-1.4-1-.5-1.5m.3-5.2c1 1.2-.2 2.2-.3 3 1.3.5.5 3.4.2 1.4.4-1-1 .7-.4-.6-.4-1.3 1-2-.3-2.6 1.6.6-.7-1.7.7-.6v-.6m-.4-.3c.8-.2-.2.6 0 0m0-2.2c1 0 1.2 3 .3 1.2.4 2-.7-.7-.4-1.2m0-1c1 .8-.3.8 0 0m.3-1.5c1.5 0 .6 3.8.4 1.2.2-.6-1.2-.4-.5-1.2m-.2-1.3zm-1.7-2c0 .6.5-.3 0 0m-5-.2c-.5 1 .8-.3 0 0m1 .4zm2 2.2c0 .5.6-.3 0 0zm-2.2 1.2c-.5.4.5 0 0 0m-2.2.6c0 .5.6-.2 0 0m.5.4c0 .5.6-.3 0 0m4 1c0 .4.7-.3 0 0m-4.3.3c.2.6.6-.5 0 0m1 .7zm.6 1zm1.6.8c-.6.5.7.3 0 0zm3 1zm-8 0c-.3.5.6 0 0 0m2.7.2zm-.8.6c-.4.7.6.2 0 0m2.6.4c.2.8 1-.4 0 0m-5.8-.3c-.5.4.5 0 0 0m5 .2c-.5.4.6.5 0 0m-3 0c-.2.7.8 0 0 0m3 .5c-.4 2.4-2 4-2 6.5-1 1.2-.6 2.4 1 2.2 2 .3.3-3.3 1-4.4-.3-1.5.7-3 0-4.3m1.3 1c-.4.7.6.2 0 0zm-2.2.2c0 .6.6-.3 0 0m2.8 0c-.3 1 1-.2 0 0m-6.8 0zm5.6.3c-.4.4.4.2 0 0zm.8.6zm-4.5.4c-.2.7 1 0 0 0m1 .5c0 .6.5-.5 0 0m5.7.4c-.5.4.5 0 0 0m-2.5 0c0 .6.4-.2 0 0m2 .8c-.5.5.5 0 0 0m-6.8-.4c-.4.6 1 .2 0 0m1 .2c-.6.3.5.4 0 0m7.4 1c.6 0 .3-1 0 0m-10.5-1c-.2.6.7 0 0 0m6.2 1c-.2.7.8 0 0 0m-7 0zm3.8.2c0 1 .8-.3 0 0zm5.5 1c1.3-1.3 0-1 0 0m2.2-.6c.2.6.5-.2 0 0zm-9.5.3c-.3.6.8 0 0 0m5.5.2c-.2.6.6 0 0 0m2.6.2c-.7 1 1-.2 0 0m1.4.3c0 .7.8 0 0 0zm-12.5 0c-.4.7.8 0 0 0m4.5.3c0 .5.5-.3 0 0m5.2.3c0 .5.5-.3 0 0m-8.8 0c0 .6.4-.3 0 0zm.6.4c-.6.4.4 0 0 0m6 .7zm4.2.2c-.5.7.8.2 0 0m-3 0zm3.7.7zm-6.7-.5c-.8 1 1.6.2 0 0m-5.3 0c0 1 .8 0 0 0zm-1.4.4c0 .6.5-.3 0 0m6.3.4c-.2.7.5-.2 0 0zm5 .4c-.2.5.4-.4 0 0m-8.2-.3c-.5.7.7.2 0 0m5 1c-.8.5.5 0 0 0m-4.4-.2c-.7 0 .2.6 0 0zm2.8.6c-.2.7.7 0 0 0zm-5.7 0c0 .4.5-.4 0 0m9.6.5c0 .7.8-.4 0 0zm-6.7 0c0 .5.5-.3 0 0m4.2.4c-.5.8.7 0 0 0zm-1 0c-.7.4.3 0 0 0m5.6.4c-1.5 1.8 1.3-.3 0 0m-3.5 0c0 .4.4-.4 0 0m2 .4c-.8.2 0 1 0 0zm-10.5-.5c-.5.4.5 0 0 0m11 1c0 .6.7.2 0 0m1.5.3c-.2.5.7-.3 0 0m-3 .2c-.3.5.6 0 0 0zm-1 0c0 .6.5-.2 0 0m-10 0c-.5.4.5 0 0 0m4 .7c-.7.6.8 0 0 0m6 .5zm-8.6 0zm10.8.8c-.2.7.8 0 0 0m-12.4-.2c1 0 .4-1 0 0m3.2 0c-.5.3.5 0 0 0m8 .2c-1 .5.5.7 0 0m-8.8.2c-.6.6.7 0 0 0m12.2.6zm-15.2-.5c0 .7.6 0 0 0zm12.4 1zm-1.8 0c0 .6.6 0 0 0m-7-.2c.2.4.7-.3 0 0zm10.6.6zm-13.6-.4zm10.3.6c0 .6.4-.2 0 0m-7.6 0c-.3.4.8 0 0 0m9.5.6c-.3.5.6 0 0 0m-13.4-.6c0 .8 1-.2 0 0m12.3.8c0 .6 1 .2 0 0m.8.8c-.4.5.6 0 0 0m-1.2.3c0 .6.4-.2 0 0zm-12.4-.3c-.5.4.5 0 0 0m13 .8c-.3.3.4 0 0 0m12.5-30.9c2 .3 4.3 0 6.4.5 2.2 0 4.3.5 6.4.3 2.4.3.7 4 .3 5.4-1.6 1-6-2-5.3 1.4-.5 2.3-.7 4.8-1.3 7-.4 2.5-.8 5-1 7.4-1 2-1 4.4-1.4 6.7-.4 2-.3 5.3-3.4 4.3-1.7.2-4-.5-2.6-2.6l1-6.5c.5-2 1-4 1.2-6 0-2 .4-3.6.8-5.5.4-1.8 1-3.7 1-5.7 1-2.5-4 0-4.7-2.2.8-2-.6-5 2.7-4.6m-.7 33.5zm.7 1c.7-1 4.5-1 1.7-.4 2.4 1-1.4-.2-1.7.3m2.8-1c.8-.2 1.4-.2 1 1 .2.3.8-1.3.8 0 .2 1.3-2-.4-1.8-1m1-1c.6-1.7 2 1.6 1 .7 0 1.4-.5-.5-1-.6m.5-1.4c1 1.3-.8 1 0 0m0-1.6c1.3-1.2 1 4.3.6 1.2-.2-.5-.7-.7-.7-1.2zm0-.7zm.4-1.7c1.4-.2 1.2 3.4.4 1.4.2-.3-1.4 0-.4-1.4m.5-2.7c.3.8 1.6 3.2 0 1.4-.4-.5-.4-1 0-1.5zm0-1.3c2-1.6.7 4 .8 1.5-.2-.4-.5-.5-.7-1.5m1-2.6c1 .5 0 1 .7 2-1.2.2-.6 0-.6-.6-.8.2 0-1 0-1.3zm0-2c1.3 0 .3 1.2 1 1 .3 1.3-1 1.5-1 .2-.8-.3 0-.7 0-1.2m.5 1.5c-.5.5.5-.2 0 0m0-4.2c0 1.2 1.4 1 1 2.3-1.6 1 0-1.2-1.2-.4.3-.8-.5-.7 0-2m.4-.6c-.3-1.3.4-1.8.6-.5 2 .6-1.5 3.2 0 1.6-.3-.2-.6-.6-.6-1m.5-3c1-.4 1.5 3 0 1.3-.5-.7 1 0 0-.8v-.6m.7-3c0 1.3 1.3.6.2 1.6 1.3.8-.8 1-.4.3-1.3.2.7-1 0-1.8zm-.3-.3c0-.6.7-2.5.3-1 2-.3.4 3 .3.8l-.3.2h-.3m3.7-1.7c1 .4 2 1.2.4 1-.7-.4-.8-.2-.4-1m-2.4-.3c1.5-.3 1.4 2 .2.4l-.2-.4m-.5 0c.5 0 1 2 0 .4v-.3zm-8.5-.3c1.6-.5 1.7 1.6.6.3.2-.5-1 .5-.6-.4zm13.3-.5c1.5 0-.7 1.6 1 .8.2 1 0 1.7-1.2.8 1.3-.6-.6-.2 0-1l.3-.5m1-3.6c.6.4 1.3 2.5.5 1-1.6 0-.4 2-.4.7.6 1 1 2.5-.6 1.5 1-1-.8 0 0-1.4.8-1.2.4-.6.5-2m-9-1.2c-.6.5.6 0 0 0m5 .8zm-6.5.3c-.4.5.6 0 0 0m1 0c0 .6.5-.2 0 0m4.6 1.2c-.4.4.4 0 0 0m-9.2.2c-.3.5.6 0 0 0m-.8 0c0 .6.4 0 0 0m10.7.8c0 .8 1 0 0 0m-5 0c-.4.4.4.3 0 0m-6.8-.2c-.3.6.7-.2 0 0m10.2.6c-.2.8.7 0 0 0m-7.5 0c-1 .6.5.8 0 0m3.5.5c-.2.5.4-.3 0 0zm1 2.4c-.2.5.3-.3 0 0zm-1 1c.4 1 .6-.4 0 0m0 2c0 .7.7-.3 0 0m-1.2.5c-.2.6.6-.3 0 0m2.4 1.8c-.4.3.3.3 0 0m-4.6 0c0 1 .8-.2 0 0m1.4.4c-.5.4.5 0 0 0m.4.4c0 1 .8 0 0 0m.3 1c0 .4.5-.2 0 0zm-.3 1.8c-.3.6.8 0 0 0m1 .6c0 .5.4-.3 0 0m-2 .2c0 .5.5-.3 0 0m-1 .2c-.2.5.6-.2 0 0zm.2.4c-.2.6.3-.3 0 0m2.4.5c0 1 1-.2 0 0zm-3.5.6c0 .5.4-.2 0 0m-.2 1c-.5.4.7-.2 0 0zm.4 1.5c0 .6.5-.3 0 0m3 1.3c0 .5.7 0 0 0m-3.6 0c-.2.7.8-.4 0 0m1.4 0c-.8.8.8 0 0 0m-2 2.3c-.7.8.8 0 0 0m4.4 1c-.4.6.5 0 0 0m-2 0c-.8 0 .2.5 0 0m-1.8 0zm-1 .2c-.5.5.5 0 0 0m1 .2c-1.3.4 0 .7 0 0m-.4 1c-.8 0 .4.6 0 0m.2 1.2c0 .5.4-.3 0 0m3.2.3c0 .5.6-.2 0 0m-4.5.2c-.3.8 1-.3 0 0m.6 1.5c-.2.5.4-.2 0 0zm.7.6c0 .5.5-.3 0 0m2 0c0 .8.5-.3 0 0m1 .4c0 .5.5-.3 0 0zm-2.3.7c-.2.6.5-.2 0 0z" style="text-align:center"/><path d="M960.206 313.143c1.6-2.2 4.3-.5 6.7-.5 2.3.2 5-.5 7 .5.6 2.2 0 6.2-3 5-2 .3-6.8-1.7-5.7 1.3-.3 2.3-1 4-1.3 6 1 1.2 5.8-1 5.5 2 .2 1.7-.4 4.6-2.8 3.7-1.3.5-4-1.3-3.8 1.2l-1 5c-.4 1-1 3 1 2.3 2 0 4 .5 6 .4 1.6 1 .2 3.8-.4 5-2.2.4-5 .2-7 0-2.3 0-3.7-.5-6.3-.4-.8-2 .8-3.8.6-5.7.7-1.7.7-4 1-5.5.8-1.8.4-3.7 1.3-5.5-.2-2.2.4-4.3 1.2-6.2-.3-2.2.8-4.8.7-7 .8-.3.2-1 .4-1.5m1.5 32.5c1.4-.2 2.3 1.3.4.8v-.4l-.3-.3m-2.4-.2c1.3.3 1.7 0 1.7 1-.2.3-1.4-.5-1.7-1zm6.4.5c1-.8 3.8 1.4 1.6 1-1 .2-1-.8-1.6-1m-8.2-.6c1.4-.8 2 2 .5.6-.4-.6-1.4.4-.5-.7zm6 .4c1-.8 1.3.4 2 0-.2 2.2-1-.2-2 0zm4.4 0c1.4-1 1 .2 2 1.2-1.2 0-1.5-.5-1.2-.7l-.3-.3-.5-.2m2.2-4c1.3 1 .8 2-.3 2.7.6-.7 1.5.5.5.2 1 1.7-.6.7-.4.5-.6 0-.5-2.7.8-1.5 0-1-1.2-.6-.4-2m-6.6-4.4c.5.2-.4.6 0 0m-.8 0c.5-.3 0 .5 0 0m-.4-.5c0 1 2 2.8.6 2.2-1 0-1-.6 0-.3-.7-.3-.8-1-.6-2m.6-2.3c.7 1-.4 1.6 1 2-.2 1-1.3 1.2-.5.3-1.5 0-.5-1.5-.5-2.2m.2-1c1.2 0 .7.4 1.2 1-.6 2.2-1-.4-1.2-1m1.3-.4c.3.6-.6 0 0 0m-1-1.5c1.4-.3.6 1.3 1.6.3 0 1.4-2.8 1.7-.8.5-.4 0-.6-.4-.8-.7zm4.4.2c1.2-.7 1 1.5 2 .4-.3 1.2-1.7.5-2-.4m-1.3.4c1-1.2.4 1.6-.6 0-1-.5.3-.6.7 0m3-1.4c1.6-1.4 1.2 4.2.5 1-1 1.2 0-.6-.6-1m.7-2.3c1 0-.3 1 1 .5.2 1.3-.2 2.7-.7 1-1 0 .2-1-.3-1.6m-5-3.7c1-.6 1.5.8 0 0m-.3-.5c.6.7 1.3 1.6 0 .8v-.8m.8-2.6c.3 1-.7 1.5.8 1-1 .2.7 2.2-1 1.2-.6-.7 0-1.5.2-2.2zm0-1.5c.4-.7 0 1 1-.2-1 .8 1 1.5-.5 2.2.3-.8-.8-1-.5-2m4.4-1c0-1.3 3 .2 1.8.5-.5-1.6-.2 1-1-.5h-.8m-2.3-.4c1-1.4 2.2 1.8.2.3l-.3-.3m-2.2-.4c.8 0 2-.3 1 .5 1.4-1 .5 1.8-.3.4-.4-.3 0-1-.7-1m8.8-1c.6.7 1.2 1 .8 1.4.8.6-.8 1-1.3 0-1 .4 1.2 1.2-.7.8-1.3 0 .3-.8-1-.7 1-.3 3.4.6 2-1l.3-.4m0-1.4c.8-1.7.2 0 1.4.2.4 0-.4 2.5-.6.7-.4 0-.4-.7-.8-1m1-1c1.6.5 0 1.3 0 0m-10.2-2c-.6.3.4 0 0 0m5.7 1.3c-.2.6 1.3 0 0 0m-8-.4c-.2.8 1-.3 0 0m2 1zm-1.8.7c0 .8.7-.3 0 0m2 .5c0 1.4.6-1 0 0m6 0c-.4 1 .4 0 0 0m-9 0c-.4.6.5.2 0 0m9.4.7c-.6.5.4 0 0 0m-2 0zm-5 0c-1 1.4.4.6 0 0m2.7.5c-1 .5 1 .4 0 0m-6.2-.2c0 .5.5-.4 0 0m5 0c-1 1.3 1.2 0 0 0m2 .5c-.2.5.3 0 0 0zm-4.4 1c0 1 .7 0 0 0m.6.8c1.5 0 .4-1 0 0m-1 .2c0 .5.5-.3 0 0m-.7.3c-.7.5.6.3 0 0m-1 .4c-.4.4.5 0 0 0m2 0c-.3.6.5 0 0 0zm.8.3c0 1.3.8-.2 0 0zm-2.3.4c.7.8.8-.2 0 0m-1.7.5c0 .6.7-.4 0 0zm2.4.5c-.7.4.6.2 0 0m-1.8.3c-.3.6.6-.2 0 0zm2 0c-.2.8 1 .3 0 0m-.6 1.4c-.4.4.4 0 0 0m-1.8.3zm1.7 0c-.5.8 1 .3 0 0m-2.5 1.5c-.5.5.5 0 0 0m-.6.3c-.2.6.6 0 0 0m7 .6c-.2.4.5-.3 0 0m-3.5.4c0 .6.6-.2 0 0m.2 1.3c-.6.4.4 0 0 0m3.2.4c-.5.8.7 0 0 0zm1.3.3c-.3.5.5-.2 0 0zm-3 0c-.5.5 1 .2 0 0m-4-.2c0 .6.5-.2 0 0m-2 .6c0 .5.4-.3 0 0zm5.2.3c-.4.4.7 0 0 0m-.7 0c0 .5.4-.3 0 0m-5.2 2.3c-.4.5.5 0 0 0m3.6.5c-.7.2.3.8 0 0zm.5.6c-1.4 1.8 1-.4 0 0m-3.6.7c-.5.5.5 0 0 0m2 .3c-.4 1 .6 0 0 0m0 1.2c-.5.6 1 0 0 0m1.3 1.8c-.6.4.5 0 0 0m-5 0c.2.4.7 0 0 0m1.8.4c-.5.6 1 0 0 0zm-.8.6c-.3.7.8.2 0 0m2.8.6c-1 .4.6.2 0 0m-.5 1.7c-.4.4 1.8.3 0 0m-3.2 0c0 .6.4-.2 0 0m2.2.8c-.4.4.6 0 0 0m4.2.2c-.3 1 1 0 0 0m-5.4-.2c-.4.6.6.4 0 0m2.5.8c0 .6.5-.3 0 0m8.6.5c0 .7.6-.3 0 0m-2 .5zm-5-.2c.4.8 1-.3 0 0m5.6.5c-.5.4.5 0 0 0m-7.4-.4c-.2.6.4 0 0 0zm2.7.5c-.6.4.4 0 0 0m3.3 0c-.3.8.8 0 0 0m-2.6.3c-.6.8 1-.4 0 0m1.3 0c0 .5.5-.2 0 0zm3.7 1c-.3.6 1-.2 0 0m-7.6.4c0 .5.6-.3 0 0m32-30.5c3.4.2 6 2.8 6.6 6.6-.6 5.2-2 10.4-2.7 15.5-.2 5-3 10-8.4 10.8-4-1.3-11 1.3-8.8-3.6.6-4 1.6-8.2 2-12.4 1-4 1.4-8.3 2-11.5.4-7.2 3.3-5.2 9.2-5.2m-6 33.3zm-1.8-.4c2.5.3 1.7 2.2 0 0m-2.4-.2c2.7.2 1.3 2.4 0 0m-1.7 0c.6-1.3 2.2 3 0 0m8.4.2c2.5 2 1 .7 0 0m7.2-3.4c.8.2-.5.5 0 0m0-1zm-1.2-.3c1.8-1.7 2 2.2.4.7 1 2-1.2 4-3 3.8 1.2 2.2-4-1-1 0 .2-1 2.6-.5 2.3-1.3-1.4-1 3.5-3.4 1.3-3.2m-1 1.7c-.2 3 3.4 0 0 0m-8-3.5zm10-.7c2-1.5 1 4.6 0 0m-9.8-.8c0-2 1.7-1.3 1.2.6-1.5.6-.3-.5-1.2-.6m10.6-1.8c1.8 1.2 0 4 0 0m-10.2-.4c-.3-3.6 2.3.8.3 0h-.4zm.5-3.5c2.7 1.3-.3 3.6 0 0m10.3-.7c1 .6 1.3 2.8 0 3.2 1.2 3.6-1-.7 0-3.2m-9.7-1.6c2 2 0 3.3-.2.6l.2-.6m10 .5c0-5 2.7 4.8 0 0m-10-2c2.4-1.4.4 3 .3.5l-.3-.4m.8 1c-.8.4.8.4 0 0zm9.5-2c1.6.2 1 4 0 0m1-2c0-1 1 3.4-.5 1 .2-.2 0-1.3.5-1m-10.4-2.4c1.8 1.6.5 4.4.2 4.5-2-2 2.2-1.6-.4-3.2v-.6l.2-.8m10.5.2c2 .8-.2 3.5 0 0m.6-.3zm-10.5-2zm.7-.3c.8.2-.5.5 0 0m9.5.2c2 1.2.2 2.5 0 .6v-.7m.3 0c.5-1.3 1.3-.6 0 0zm-10-1.6c1.3 0 1 3.7 0 .5v-.6zm1.8-.3c2.2 1.5-2.7 1 0 0m7.8-.7c1.8 1.8.2 2.8 0 0zm-5.7-3.6c0 .5.4-.2 0 0m3 .2c-.2.4.4-.3 0 0m-6.8-.2c0 .4.5-.4 0 0m-1 0c0 .6.5-.2 0 0m3.5.6c-.3.6.8-.3 0 0m-4 .4c0 .5.6 0 0 0m.7.8c0 .5.5-.3 0 0m3.8.2c0 .5.5-.3 0 0m-6 .2c.4.5.4-.5 0 0m6.7.5c0 .5.5-.3 0 0m2 0c0 .7.6-.2 0 0zm2 .7c.3.5.5-.3 0 0m-1.7 0c-.4.5.5 0 0 0zm-1.6.3c-.4.5.5 0 0 0zm-5-.2c-1.3 6-1.6 11.6-3.2 17.5-2.3 8.5 6.5 2.5 5.2-3-1-4.3 6-14-2-14.4m5.8 2c1 0 1-.8 0 0zm-9-.7zm8.2 1.7c1 .3.7-1 0 0m1.8 0c-.5.3.5.2 0 0m2 .4c-.3.6.7 0 0 0zm-14-.3c-.2.5.4-.3 0 0m11.4.7c0 .5.5-.3 0 0m-.8.3c-.2.6.8-.4 0 0zm-7.6-.2c-.4.4.5 0 0 0m8.6 1c-.3.6.8 0 0 0m-.8.2c0 .5.7-.2 0 0zm1.8.2c-.4 1 1 0 0 0m-2.8.7c-.3.5.6 0 0 0m1 .2c-.3.6.6 0 0 0zm2.7.4c.3.6.5-.4 0 0m-4.5 0c-.7.5.8.2 0 0zm-10-.4c-.5.3.4.2 0 0m1 .2c-.8.3.5.3 0 0m12.4.8c-.2 1 1 0 0 0m-.6.7c-1 .5.4.7 0 0m-12.7-.8c-1 1 .7 0 0 0m1 1.4c.5.4 1.3 0 0 0m10 .8c0 1 .7-.6 0 0m.3 1.7c-.5.8.7.5 0 0m2.4.6c-.5.5.5.3 0 0m-3.3 0c-.5.6.7 0 0 0zm.5.8c0 .5.4-.3 0 0m2 0c0 .6.5-.2 0 0m-13.5 0zm1-.2c-.6.5.7.3 0 0m11 .8c0 .5.6-.3 0 0m-10 0c-.2.5.4-.3 0 0zm7.6.6c-.2.8 1 0 0 0m-8.2 0v.2-.3zm-1.7 0c-.2 1 1-.2 0 0m9.3 1.2zm3.6-.4c-.5.6.6 0 0 0m.6 0c-.5.5.5.2 0 0m-9.6-.2v.3-.4zm-1.8 0c0 .6.5-.2 0 0m11.6.8c0 .5.5-.3 0 0m-11 .7zm7.8 0c0 1 1 0 0 0m-9.2 0c-.5.6.8 0 0 0m12 1c0 .8 1-.3 0 0m-1.4.2c-.4.5.6.2 0 0m-2 1zm-11-.6c-.3.6.6 0 0 0zm2 .4c-.4.7.5.3 0 0m.7.5c-.6.4.4.2 0 0m9.6 1c-.6.4.8 0 0 0m-1.3.4c-.5 0 .2.5 0 0m-1 0c-.6.5.4 0 0 0m3.3.4c-.4.4.5 0 0 0m-12.6-.7zm2.4.3zm8.3 1c-.7.6 1 .4 0 0zm-1.6 0zm-6.8.3c.2 1 1-.6 0 0m7.3 1.2c0 .5.5-.3 0 0m1.5 1c1.2.2.4-.7 0 0zm-12-.8c.3.8 1-.4 0 0zm5 1c-.5 1 1 0 0 0m5.2.2c-.3.8.8 0 0 0m1.2 0c0 .6.4 0 0 0m-5.4 0c-.2.5.6-.3 0 0m-3.7 0c0 1 .8-.3 0 0m2.4.3c-.7.4.8.2 0 0m-5.5 0c-.8.4.5.3 0 0m6 .3zm-5.7.4c-.6.3.7.2 0 0m11.2.5c-.5.7.6.6 0 0m-5.5 0c-.2.5.4-.3 0 0m-6.5-.3zm9.4.7c-.4.6.6 0 0 0zm-4.3.7c-.6.7.8 0 0 0m1.4 0c-.4.7 1 .2 0 0" style="text-align:center"/><path d="M1002.306 315.843c3.4-.5 16-3.5 13.7 4-3 3-10.7-2-9 5.2-4.2 5.4 7.4 1.3 4.2 6.8-1.8 3.3-8.7.2-7 7.4-4 6 7.8.8 7.4 5 .5 6-7.6 3-10.4 3-7.8 1.7-1.7-6.8-2.6-10.8 1-1.7.6-4 1.4-6.2.2-4.5 2-8.4 2-13 .8-.2.3-1 .3-1.5m1.6 32.5c2.7 0 .7 2 0 0m-2.5-.2zm6.4.4c2.8-.8 3.4 2.7 0 0m-8.2-.6c4 .6-1.3 1.3 0 0zm6 .5zm4.4.2c2.4-1.4 1.5 2.7.5.2l-.6-.2m2.2-4.2c1 3 .5 4-.6 3.7.3-3 .8-.6.6-3.7m-6.6-4.2c.5 0-.4.4 0 0m-.8 0c.5-.4-.2.3 0 0m-.4-.6c2 3.2-.5 2.8 0 0m.6-2.4c1.5 2.3-.4 4 0 .3v-.2m.2-1.2c2-.2.7 4 0 0m1.2-.3c.3.4-.4 0 0 0zm-1-1.5c3.3 0-.4 2.6.4.4l-.3-.4zm4.5 0c2.2-.2 1.7 2.5 0 0m-1.4.5c2 .6-3-.5 0 0m2.8-1.5c2.4-.4 1 4.5 0 0m.7-2.2c1.5 0 .4 5 0 0m-5-3.7c1-.8 1.5 1 0 0m-.3-.5c2.2 2-.8 1.2 0 0m.8-2.6c1 1.4-.6 4.4 0 0m0-1.7c1-1 1.3 4 0 .4v-.4m4.4-1c2.4-1.3 3 1.4 0 0m-2.3-.3c1.6-1.4 2 2 0 0m-2-.4c2.6 0 1.3 2-.2 0h.2m8.8-.8c2.8 2.5-1.2 1-.8 2.3-4.5-1.3 2.4.2.8-2.2m0-1.5c.8-3 2.7 4.6 0 0m1-1c1.7.4-.2 1.2 0 0m-10.3-2.2c-.5.5.5.2 0 0m5.8 1.5c-.2.7 1 0 0 0m-8-.4c-.4.8.8-.2 0 0m2 1.2zm-2 .6c0 .8.8-.4 0 0m2 .4c.2 1.3.7-1 0 0m6 0c-.4.7.5 0 0 0m-9 0c-.3.5.5.2 0 0m9.4.7c-.5.3.5 0 0 0m-1.8 0zm-5.2 0c-.8.8.3 1 0 0m2.7.4c-1 .6 1 .2 0 0m-6.3-.3c0 .6.6-.2 0 0m5 .3c-1 1.2 1.3-.2 0 0m1.8.4c0 .5.4-.2 0 0zm-4.2 1c0 1 .7 0 0 0m.6.8c1.5 0 .5-1 0 0m-1 .2c0 .5.5-.3 0 0m-.7.3c-.7.4.6.4 0 0m-1 .4c-.4.4.4 0 0 0m2 0c-.3.6.6 0 0 0m.7.3zm-2.3.4c.7.8 1 0 0 0m-1.5.5c0 .7.6-.2 0 0zm2.4.7c-.8.3.5.3 0 0m-2 .3c-.2.6.8 0 0 0zm2.2 0c-.2.8.8.3 0 0m-.7 1.4c-.4.3.5 0 0 0m-1.8.2zm1.8 0c-.5.7 1 .2 0 0m-2.5 1.5c-.5.4.5 0 0 0m-.6.3c-.3.5.7 0 0 0m7 .6c-.3.5.6 0 0 0zm-3.6.5c-.2.6.8 0 0 0m.3 1.4c-.5.4.5 0 0 0m3.4.3c-.5.8.8 0 0 0zm1.3.3c-.4.4.5 0 0 0zm-3 0c-.5.5 1 0 0 0m-4-.2c0 .5.4-.3 0 0m-2 .5c-.2.4.4-.3 0 0m5.2.3c-.5.5.6 0 0 0m-1 0c0 .6.6 0 0 0m-5 2.4c-.4.4.5 0 0 0m3.6.5c-.7.3.3.8 0 0m.5.6c-.6 1.4 1 0 0 0m-3.4.7c-.6.4.4.2 0 0m2 .3c-.4.8.7 0 0 0m0 1.2c-.6.4.8.2 0 0m1.2 1.8c-.5.4.5 0 0 0m-4.8 0c0 .4.5 0 0 0m1.7.4c-.5.6.8 0 0 0zm-1 .6c0 .7 1 .2 0 0m3 .6c-1 .4.6.4 0 0m-.5 1.8c-.4.5 1.7.3 0 0m-3.2 0c-.2.5.4-.2 0 0m2.2.7c-.4.6.5.2 0 0m4.2.4c-.3 1 1 0 0 0m-5.5-.2c-.5.5.6.3 0 0m2.5.8c0 .5.6-.2 0 0m8.6.5c.4.8 1-.3 0 0m-2 .5zm-4.8-.2c.5.8.7-.5 0 0m5.6.4c-.6.4.4 0 0 0m-7.5-.4c0 .5.4-.2 0 0zm2.8.4c-.4.4.6 0 0 0m3.5 0c-.3.8.7 0 0 0m-2.6.3c-.8.7 1-.3 0 0m1.2 0c0 .5.5-.2 0 0zm3.7 1c-.4.5.6-.2 0 0m-7.7.4c-.2.4.5-.4 0 0m22.9-31.4c6-2.2 11.7 10.4 3.8 9-2.4.7-3.3-7.2-6-2-1.4 4 2.6 7 4.6 9.7 3.3 4 3.5 9.2.8 13-2.7 3.7-7.7 5-12.2 2.3-7-3.8 1.4-13.7 3.2-6.5 3 7.7 9-4.7 1.6-7.4-3.3-2.2-4.7-7-4-10.2.7-4.2 3.8-7.5 8.2-8m-3.3 34c2.8-.7 1.8 2.8 0 0zm-1.5 0zm.5.4c0 .4.5-.4 0 0m2.6-.6c3.2-1 2 2.7 0 0m3.8-2.2c2.2 1.4-.6 3-1.3 2.5-2.6-1.2 3 0 1.4-2.6m.8 0c.7 0-.4.5 0 0m-.2-.4c2-2.6 2.2 3.8 0 0m2.5-2c.3-.3.7.5 0 0m-1 .5zm1-2.4c2.6 2-.3 3.8 0 0m-10-.7c1.7 1.2-.8.7 0 0m-.7-2c1.3.2 1.2 3.6 0 .6v-.6m11.2.5c1.3 0 .2 5-.2.7v-.5l.2-.3m.2-2c1.5.8.6 3.2 0 0m-7.7-13c.7-.2 0 .6 0 0m10.7 0c1 0-.4 1 0 0m-10.6-.7zm5.4.2zm2.4-.2c2 1-1.4 3.6 0 0m3.2 0c.4.7-.6.3 0 0m-1.6 0c3.3 2.4-2 .8 0 0m-9.2-1.5c3 1.5-1 2.5 0 0m10-.6c1.2-.6.3 4 0 0m-9.5-1.2c2.5.8.5 3.2-.2.4v-.2l.2-.2m1.4-.2c1.7-.2 1.7 2.8 0 0m-1.4-4.7c-.4.8.6 0 0 0zm1 0c0 .6.3-.2 0 0m1.5.2c-.6.6.8 0 0 0zm2.5.7c-.6.5.7 0 0 0m-4.7 0c-.4.4.7 0 0 0m.4.5c0 .5.4-.2 0 0zm5.4.6c0 .7.6-.2 0 0zm-7.3 0c0 .3.5-.4 0 0m2.2 0c-.6.5.7.3 0 0m1.4.7c-.5 1.3 1.2 0 0 0m-5.4 0c-.3.7.8.2 0 0m-1.3.3c-.2.4.4-.3 0 0m.4.6c-.5.4.4 0 0 0m7.5.5c-.3.8.7 0 0 0zm-4.5 0c0 .4.6-.4 0 0m8.3.5c0 .6.7-.3 0 0zm-11.7.6c.2-1.3-.5-.8 0 0zm9.6 0c-.3.6.5-.3 0 0m1.8.5zm-12.7-.3c0 .8.8-.4 0 0zm2.7.3zm1.7.4c-.8.3.4 1 0 0m9.4.7c-.4.5.6 0 0 0m-12-.6c-.3.6.5-.2 0 0m10.3.8c0 1 .8-.3 0 0m-2.4.2zm-9.4-.6c-.6.6 1 .3 0 0m-.2 1.7c0 .6.5 0 0 0m2 .5zm-2 1.5c-.6.4.5 0 0 0m1.3.2c0 .5.5-.3 0 0m4 1.4c-.6.4.4 0 0 0m-5 .4c-.5.4.5.2 0 0m1.7.3c-.4.4.5 0 0 0m4.4 1.4c-.4.7.8 0 0 0m0 .7c0 1 .7-.4 0 0m-5.2.4c-.4.5.5 0 0 0zm4.4.3c0 .6.5-.2 0 0m-1.5.8c-.5.3.6 0 0 0m1.5 1.2c-.3.4.5-.2 0 0m-.3 1.3c-.3.3.6 0 0 0m1 .6zm3.2.2c-.2.7.6-.2 0 0m-2.5.6c-.7.4.2.7 0 0m1.2.2c-.5.5.4 0 0 0m2.5.6c-.2.6.7 0 0 0zm-2 .7zm0 .7c0 .5.6-.3 0 0m-9.8.7c0 .5.5-.3 0 0zm1 0c0 .6.7-.2 0 0zm11.6 1c-.5.5.5.2 0 0m-15.1-.9c0 .6.5-.5 0 0zm3 .3c-.3.7.8 0 0 0m-1.2.7c-.5.3.5 0 0 0m-.8 0c0 .7.7 0 0 0m9.2.8zm-8.5 0c-.6.4.4 0 0 0m.6.6c-.6.4.4 0 0 0m9.8 1c0 .7.8 0 0 0zm-9.3-.2c-.5 1 1.4.5 0 0m1 .3c-.8.6 1.5 1 0 0m-2.8 0c-.7 1 .8.2 0 0m10.8.8c.5.8 1-.2 0 0m-2.7 0c-.2.5.7 0 0 0m-1.5 0c-.2.7.7 0 0 0zm-5.4-.2c0 .6.6-.2 0 0m-1.4.3c-.6.3.3.5 0 0m7.8.7c-.5.4.5 0 0 0m.7.5c-.5.3.5 0 0 0m1.2.2c0 .6.7-.2 0 0m-8-.3c-.4.2.4.6 0 0m7.2 1c0 .6.6-.4 0 0zm-8.6-.5c-.2.4.5-.4 0 0m4 .2c-1 .4 1 .3 0 0m-2.7.4c-.3.8.8.2 0 0m1 .4zm3.8 0c-.6 1 .7.4 0 0m-2 1zm1 0zm1.2.4c0 .5.6-.3 0 0m-3 0zm28.4-31.1c6.7-1.4 3.6 7 5 9.4-1 3.8 0 11.5 1.8 3.4 1.8-4 2.7-8 4.8-12 6.2-.6 8 2.2 6 7.8-1.4 4.7-1.8 8.8-2.6 13.8-1.4 3.3 0 10.7-4 11.5-6.5.5-1.3-7.6-1.5-11 .7-4.5 1-7.3-.7-2.7-1.4 2.5-2.5 7-4 10.6-1.3 4.8-5.3 1.6-4.4-2.6 0-4.3 0-16.6-1.8-6.3-1.5 3.8.5 13-6.2 10.7-1.6-2.3.3-6.7.5-8.6.6-5 2-10.2 2.6-15 1.3-2.5-.2-8 3.3-8.5l1.2-.2m9.2 34zm2 .6c1.8-.7.5-.4 0 0m-8.8-1zm-7.4-.4c3-.4 2.6 2.4 0 0m-2-.3zm11 0c2.2 0 .7 3.6 0 0m10 .5zm-1 0c1.6 0 1.3 3.2 0 .5v-.5m-15.7-1.3c3.2 2.6-1.5 2 0 0m16.5-.2c2.5 0 0 2.6 0 0m-9 0c1-2 2.8 3.2 0 0m-6.8-2.5c1.7 1.6-.6 3.6 0 0m17.2.5c.4 0-.5.6 0 0m-1.3-1c2.2 1.4.8 4.7 0 0m-15.8-1.2c1.4-.2.8 4.7 0 0zm8 0c2.4.2.6 3.7-.4 3-1.2-2 2.4-.7.3-1.8v-1.5m-7.6-2c2.4 2.6-1 2.7 0 0m16 .6c2 3.5-.8 3.5 0 0m-15.7-.3c1-1.2 1.3 0 0 0m-.5-.8c.8 0 0 1 0 0m17.6 0zm-1 0c2.3 0 0 3.3 0 0m-7-1c.2 2-.7 1.2-.2 3.6-.7-1-1.6-.2 0-3.6m-9-1c2 1.3.5 3 0 .8v-.8m16.7-.3c2.4 2.8-1 2.6 0 0m-7-.4zm-9-1.4c1.5 2-2 3.2 0 0m9.6-.2c.2.5-1.2.3 0 0m-9.5-.6c-.3-1.5.2-1.6 0 0m16.2-1.6c2.5.3-.6 3 1 2.8-1.6 3.4-.3-1-1-2.8zm.4-2c2.5-.6 0 4.8 0 0m.7-2.4c2.4 2.6-.5 2.6 0 0m-11.5-1.6c2.2.5-.4 3 0 0m12.3-1.2c2 2-.7 4 0 0m-12.4-1.5c2 1.2 0 3.5 0 0m0-.6c.3.2-.3.6 0 0m12.2.8c2-1.3.7 4.3.3.4l-.3-.5m-12-2.8c2 2.2-.4 2.5 0 0m.2-.2c.5 0-.5.3 0 0m12.2.3c2.5 0 1 5.2 0 0m.5-2.4c2.7 1.7-.5 3.4.2 1.2v-1.3m-13 0c1.6-.4-1 2-.2-.4l.2.4m13.2-1.3c1.5-1.5 1.7 3.5 0 1-.2-.2 1-.7 0-1m-13.6-2zm6.5 0c-.6 0 .3.6 0 0zm5.7 0c-.4.6.5.5 0 0m-4.2.5c-.3.5.6-.2 0 0m5 .5zm-18.7-1.2zm2.3.5c-.6.4.5 0 0 0m.8 0c-.4.4.6 0 0 0m9.2 1zm-11-.5c-.6.4.4 0 0 0m-2 .2c-.4.6.7.2 0 0zm17.4 1c-.3.7.6 0 0 0m-13-.2c0 .5.5-.2 0 0zm-3.4 0c-.5.3.5 0 0 0m1.6 0c-.3.6.8 0 0 0zm14.7 1c-.2.5.5-.3 0 0m-17-.8c-.5.4.4 0 0 0m18 1.4c-.2.7.6-.3 0 0m-13.5 0c0 .7.7-.3 0 0m10 .8c0 1 .7 0 0 0m-3 0c-.4.6.7 0 0 0m1.5.5c-.5.5.5 0 0 0m-11-.6c-.5.5.5.3 0 0m15 1.4c-.2.6 1 .2 0 0m-3.8 0c-.2.5.7 0 0 0m-1.7.2c-.2.5.4-.2 0 0zm4.5.4c0 .5.5-.3 0 0m-16.2-.8c0 .6.7-.4 0 0zm12 1.6c-.7.7 1 .2 0 0m-10.2-.4c0 .7 1-.2 0 0zm9.3.5c-.2.4.5 0 0 0m3.6.7c-.7.5.5.3 0 0m-14.5-1c-.4.8.8.2 0 0m1.8.6c1 1.3.3-1 0 0m15 .8c-.2.6.4 0 0 0zm-18-.6c-.3.4.6 0 0 0m2.4.6c-1 1.6 1 0 0 0m15.5 1c-.3.7.8 0 0 0m-1.5 0c-.4.7.7.2 0 0m-12.5-.6c-.8 1 1.2 0 0 0m1 .2c.5 1 1-.6 0 0m-6-.4c0 .5.6-.3 0 0m13.7 1c0 .5.7-.3 0 0m1.8 0c0 .5.5-.3 0 0m-8.7-.4c-.3.5.7 0 0 0zm-7.5-.4c-.5.4.5.2 0 0m12.6 1c0 .6.5 0 0 0m.7.3c-.6.4.4.2 0 0m5.8.3c0 1.2 1.2 0 0 0zm-7 0c-.6.2.6.3 0 0m-6.3-.2c-.4.4.5.4 0 0m1.8 0c-.3.8 1 .3 0 0m-4.2 0c-.3 1 1-.2 0 0m-3.4 0c0 .5.4-.2 0 0m4 .8zm10.3.4c.6.4 1.3 0 0 0m4.2.8zm-16.3-.7c-.4.5.5.4 0 0m1 .4c-.4.5.7.3 0 0m-2 0c-.4.4.5 0 0 0m3 .4c-.5.4.3 0 0 0m8.7 1zm-11.2-.6c0 .6 1.4 0 0 0m4 .7c-.3.5.5-.4 0 0m-5.7-.5c-.3.7.8.2 0 0m16.5 1.2c-.2.6.7 0 0 0m-14-.6c-.8.4.6 1 0 0m9.7 1c0 .6.5 0 0 0m-11.6-.4c0 .7.8-.3 0 0m2.2.2c0 .5.5-.3 0 0m5.4.4c-.4.4.4 0 0 0m-1 .2zm9 .7c0 .6.6-.2 0 0m-6 .3c-.6.5.4.3 0 0m-8.3.4zm3.5-.5c-.2.6.6 0 0 0m-5 0c-.7.4.7.5 0 0m12.3 1.3c-.5.4.6 0 0 0m4.8.3c0 1 1-.3 0 0m-16.6-.8c-.5.4.5 0 0 0m11.2.7c-.6.2.4.6 0 0m-5.8.3c-.5.5.8 0 0 0m3.8.3c-.2.5.4-.2 0 0zm-10.4-.5c-.5.4.5 0 0 0m2 .2c-.5.3.5 0 0 0m-2.6 0c-.6.6 1 0 0 0m12.8.7c-.6.7 1 .2 0 0m-6.8-.2c0 .6.6-.4 0 0m1 .2c-.4.3.5.2 0 0m5 .3c-.7.3.6.4 0 0m5.4.3c-.4.6.7.2 0 0m-.8.4c-.2.6.8 0 0 0zm2.2.3c0 .6.7-.2 0 0m-15.3-1c-.5.6.5 0 0 0m14.3 1c-.4.7.7 0 0 0m-15.5.4c-.4.4.4 0 0 0m1.3 0c-.3.5.5.2 0 0m7 .4c-.2.8 1 0 0 0m6.6.5c0 .5.5-.3 0 0m-10.2-.6zm1.3.3c-.4.6.6 0 0 0zm-7 0c0 .4.5-.3 0 0zm10.9.8zm6.4.5zm-12.7.5c0 .8.7-.4 0 0m2.6.8c-1 0 0 .8 0 0m1.8 0c0 .6 1 0 0 0m-3.6.6c-1.8 2.3 1-2.3 0 0m-8.5-.6c-.6.4.4 0 0 0m3.5.6c-.6.7.7 0 0 0m13.5.8c0 1 1-.5 0 0zm-4.7 0c-.6.4.5 0 0 0m-8.2-.4zm15.6 1.3c-.7.7.8.2 0 0m-2.3.2c-.4.5.6 0 0 0m.8.3c-.5.4.5 0 0 0m-17.4-1c-.5.4.5 0 0 0m2 0zm5.5.8c0 .6.8-.2 0 0m8 .5zm-13.4.2c-.4 1 1-.2 0 0zm14 2.5c-.2.5.4-.2 0 0m-6.5-.2c-.2.6.8 0 0 0m-11-.6c-.4.4.7.2 0 0m12 .8c0 .5.5-.2 0 0zm-10.3-.4c-.6.7 1 .2 0 0m8 1c-.2.7 1 0 0 0m-9-.3c-.3 1 1.2.2 0 0m3 .7c-1 .4.7.4 0 0m16.7 1c-.6.7.6.3 0 0m16.6-30.2c4.7-1 3.5 4.3 3.7 7 0 3.7-.2 6.8.3 10.5-1 3 0 8.8-.6 10.7 3.4 6.8-9 6-5.6-1-2.4-5.3-6.6 1-6.7 5-5 1.5-6-2.7-3.4-6.6l5.4-15.8c2.5-3 1-11.2 7-9.8m3.5 34.3zm-11.6-1.2c1 1.2 0 1 0 0m7.5.3c1.5 0 3.8 2.4 0 0zm-10.2-.7c2.5 2-2.2.5 0 0m12.6.7c2.5 1 0 2 0 0m-10.6-1c1.7 2.8-2.2 1 0 0m12.2.8zm-11.6-2.5zm.2.6c-.2.7.4 0 0 0m.2 1c-.5.6.7.2 0 0m11.7-2c2 1.7-.4 2.5 0 .3v-.4zm.5-.5c.6.2-.2.7 0 0m-12-1.3c2.6 2.4-1.2 3 .5.8l-.3-.3v-.5m1.4-.6c.5 0-.2.6 0 0m10.4-.2c1.5 2.3-2 2.7 0 0zm-11.4-.3c1.4-1.6 1.2 5.7 0 0m3-1.2c3 1-1.3 1.5 0 0m-2.6 0c2.7-.8 1.7 3 0 0m10.7-4.2c1 .5 0 2.7.3 4.3.4 3.5-1-1.6-.3-4.2m-8.2-2.5c.8 1.2-1.3 1 0 0m8 .2c2.5 2-.6 2.6 0 0m-7.7-2c1-1.2.8 6 0 0m.5-1.3zm8 0c.5 4.6-1.8 1.4 0 .7v-.7m-7.2-1.9zm6.8-.7c.4.6.2 3.5 0 0m.3-5.2c.3 3 .5 7.3-.6 3.3 1-2-.7-2.4.7-3.2m-.5-.2c.7-.2 0 .6 0 0m0-2.2c2.5 1.7-.6 2.7 0 0m-.2-1c1 1-.3 1 0 0m.3-1.3c2 1.7.5 3.6 0 0m-.2-1.3zm-1.7-2c0 .5.5-.3 0 0m-5-.2c-.5.8 1-.3 0 0zm1 .4zm2 2c0 .7.7 0 0 0zm-2.2 1.4c-.5.4.5.2 0 0m-2 .6c-.3.6.6 0 0 0m.4.5c0 .5.3-.4 0 0m3.8 1c0 .3.7-.3 0 0zm-4.3.3c.2.7.6-.6 0 0m1.2.6zm.4 1zm1.7 1c-.5.3.7.3 0 0m3 1zm-8 0c-.2.3.6-.2 0 0m2.8 0c-1 .4.4.8 0 0zm-1 .7c-.3.6.7 0 0 0m2.7.3c.2.8 1-.3 0 0m-5.8-.2c-.6.4.4 0 0 0m5 .3c-.6.3.5.8 0 0m-3 0c-.4.6.8 0 0 0m2.8.4c-.5 2.6-4.5 11 0 8.2-.2-2.7.7-5.4 0-8zm1.4 1.2c-.4.6.7.2 0 0m-2.2.2c0 .5.6 0 0 0m2.8 0c-.4 1 .8-.2 0 0m-7 0c.2 1 1-.4 0 0zm5.8.4c-.5.2.3.3 0 0m.7.6zm-4.5.4c-.3.6 1 .3 0 0m.8.5c0 .8.7-.4 0 0zm5.8.5c-.5.4.5 0 0 0m-2.5.2c0 .5.5-.3 0 0m2 .7c-.5.5.5 0 0 0m-6.8-.4c-.3.6.8 0 0 0m1 0c-.6.3.5.7 0 0m7.4 1c.5.5.3-1.3 0 0m-10.5-1c-.3.8.6 0 0 0zm6 1c0 .7 1 .2 0 0m-6.8 0zm3.8.3c0 1 .7-.2 0 0zm5.4 1c1-1 0-1 0 0m2.2-.5c.2.7.6 0 0 0zm-9.6.3c-.4.6 1 .4 0 0m5.5.4c-.2.6.8 0 0 0m2.7.2c-.6.7 1 0 0 0m1.4 0c0 1 1 .2 0 0zm-12.4.2c-.3.6.8 0 0 0m4.5.2c0 .6.7-.2 0 0m5.4.4c0 .5.5-.3 0 0m-8.8 0c-.2.5.4-.2 0 0zm.5.3c-.4.5.5.3 0 0m6.2.8zm4 .3c-.5.7 1 .3 0 0m-2.8.2zm3.6.5zm-6.5-.4c-1 1 1.5 0 0 0m-5.4 0c0 1 1 0 0 0zm-1.2.4c-.2.5.5-.3 0 0m6.2.4c0 .7.7 0 0 0zm5 .4c0 .5.6-.3 0 0m-8-.2c-.6.5.5.2 0 0m5 1c-.8.3.4.3 0 0m-4.5-.2c-.7 0 .2.5 0 0zm2.8.6c-.2.5.8-.2 0 0zm-5.7-.2c0 .5.6-.3 0 0m9.6.6c0 .7.8-.4 0 0zm-6.8 0c0 .5.5-.3 0 0m4.3.4c-.6.7.7 0 0 0zm-1.2 0c-.6.4.5.2 0 0m5.8.4c-.7 1.3 1 0 0 0m-3.7 0c0 .5.5-.3 0 0m2 .5c-1 .3.2.8 0 0zm-10.5-.5c-.4.3.6 0 0 0m11.2 1c0 .7.7 0 0 0m1.4.2c0 .6.8-.2 0 0m-3 .2c-.2.6.7 0 0 0m-.8.2c-.2.4.4-.3 0 0zm-10 0c-.7.3.3 0 0 0m3.8.6c-.7.5 1 .2 0 0m6 .5zm-8.6 0zm11 .7c-.3.7.7.2 0 0m-12.5-.2c1.2 0 .5-1 0 0m3.2 0c-.5.3.5 0 0 0m8 .3c-1 .4.6.8 0 0m-8.8 0c-.7.7.6.3 0 0m12 .8zm-15-.5c-.2.6.7 0 0 0zm12.3.8zm-1.8.2c0 .5.6 0 0 0m-6.8-.3c0 .6.6-.2 0 0zm10.4.7zm-13.5-.6zm10.4.7c-.3.6.3 0 0 0zm-7.8 0c-.3.5.6 0 0 0m9.4.6c-.4.5.7 0 0 0m-13.4-.5c-.2.8 1 0 0 0m12.2 1c0 .5 1 0 0 0m.8.6c-.4.5.5 0 0 0m-1.2.4c-.2.5.4-.2 0 0m-12.4-.4c-.6.4.4 0 0 0m13 1c0 .2.2-.3 0 0m12.9-32.4c4.5.3 9.3.6 13.8 1.2 2.6 7.2-5.5 3.4-6 6.6-1.4 7.7-3 15.5-4.3 23.3-2 5-8.5 1-5.2-3.3 1-5 1.8-9.4 2.4-14.2 1.4-4.8 2.5-8.7-3.5-9 1-1.8-.7-5 2.8-4.5m-.7 33.5zm.7 1c2.7-2 3.8.5 0 0m2.8-1c1-.7 3.3 2.4 0 0m1-1c1.7-1.7 1.5 2.7 0 0m.5-1.5c1 1.5-.8.8 0 0m0-1.6c1.8-.7 1 4.8 0 0m0-.7zm.4-1.7c2.7 1.7 0 3.2 0 0m.5-2.8c1.7 2.4 0 3.3 0 0m.2-1c1.6-1.8 1.4 5.5 0 0m.8-2.8c2 1.6-.6 3.7 0 0zm0-2zm.5 1.5c-.5.3.7-.3 0 0m0-4.4c1.7 2 .4 3 0 1.6 0-.5-.6-.5 0-1.6m.3-.6c.5-5 1.6 6 0 0m.5-3c2.3 1-.3 3.6 0 0m.7-3c2 2.2-1.4 3.7 0 0zm-.2-.3c0-4.2 2.4 2.2 0 0m3.7-2c4.5 1-1.8 1.4 0 0m-2.5 0c2.5-.2 1 2.2 0 0m-.4 0c.8 0 .8 2 0 0zm-8.5-.4c3 .6 0 1 0 0zm13.3-.5c2.3 1.6-.6 3.3 0 0m1-3.5c1.8 2.8-1 1.2.2 3.4-1.4.5-.2-2-.2-3.4m-9-1.3c-.7.4.6 0 0 0zm5 .7zm-6.6.3c-.3.6.8 0 0 0m1.2 0c0 .6.5 0 0 0m4.5 1.3c-.5.4.4 0 0 0m-9.2.2c-.4.4.6.2 0 0m-.8 0c0 .6.5 0 0 0m10.7.8c-.2.8.7 0 0 0m-5 0c-.5.4.3.5 0 0m-7-.2c-.2.7 1 0 0 0m10.3.8c-.2.8.8 0 0 0m-7.5 0c-.7.5.6 1 0 0m3.6.5c-.2.5.5-.2 0 0zm1 2.5c-.3.4.3-.3 0 0zm-1 1c.2.8.7-.3 0 0m0 2c0 .7.6-.4 0 0m-1.2.4c-.3.6.7 0 0 0m2.4 2c-.4 0 .2.4 0 0m-4.6 0c0 1 .8-.2 0 0m1.3.3c-.5.4.5 0 0 0m.4.5c.2 1 1 0 0 0m.3.8c0 .6.4-.2 0 0zm-.3 2c-.3.6 1 0 0 0m1 .6c-.2.4.4-.3 0 0zm-2 0c0 .6.5-.2 0 0m-1 .4zm.2.4c-.2.5.4-.2 0 0m2.5.4c0 1 .7-.2 0 0zm-3.5.7c0 .5.6 0 0 0m0 1c-.6.5.6-.2 0 0zm.3 1.6c-.2.4.5-.4 0 0m3 1c0 .7.7.2 0 0m-3.7.2c-.2.7 1-.4 0 0m1.5 0c-.7.5.6.3 0 0m-2 2.2c-.7.6.6.2 0 0m4.4 1c-.4.4.5.2 0 0m-2 0c-.7 0 0 .5 0 0m-1.8 0zm-1 .2c-.6.4.4 0 0 0m.8.2c-1.3.3.2.6 0 0m-.4 1c-.7 0 .5.6 0 0m.2 1c0 .7.5 0 0 0m3.3.5c-.2.5.4 0 0 0m-4.6.3c-.4.7.8-.3 0 0m.4 1.4c0 .5.5-.2 0 0zm.8.7c0 .5.5-.3 0 0m2 0c0 .8.5-.3 0 0m1 .3zm-2.3.7c-.3.6.6 0 0 0zm16.8-31.5c5-.7 5 2.6 4 6.5-.7 3.7-2.5 9.5 3.3 6.7 1-4 1-7.4 2.3-12 3.7-2.4 8.3 2.2 4 6 1.2 1-1 3.5-.3 5.5-1.6 6.2-2.2 12.7-3.6 19-1.6 4.5-8.3.3-5-3.7-.3-3.2 4-11-2-9-2.6 2.4-2 8.7-3.2 12.7-2.4 3.4-7.5-.6-5-3.3.2-2.7.3-5.3 1.3-7.6.5-4 1-8.7 2.2-12.2 1-2.8-.2-6.4 2-8.6m9.7 34.4zm-3.3-.5c2.8.2-.6 2.3 0 0m-.6.2c.7-.4 0 .8 0 0zm-9.2-.2c6.3 0-3.2.2 0 0m11.8.3zm-9.2-1c2-.3 0 2.5 0 .4v-.3m10.8-.6c3.3 2.4-1 3 0 0m-9.7-1.4c1.3 2.5-.3 2.5 0 0m11-.2c.4.5-.5.2 0 0m-.7-1c2 3.6-1 3 0 0m-9.7-1.4c1.2-.3-.2 4.8 0 0m10.5-.5c1 .2.6 1 0 0zm-.5-.3c2 2.6-.2 3.2-.2 1l.2-1m-10.2-1.5c2.2 1 .3 3.4-.2 1v-.4l.2-.5m10.5.2c2.4.3-.6 3.3 0 0m-10-1c.7.2-.4.7 0 0m1-1.3c.7-.4-.2.8 0 0m-1.2.6zm10.8-1c2 2 0 4 0 0m-10-2c0 1.2 2.3 1.6 0 2.2.3-.8-.5-1.5 0-2.3m1.3-1c.6.2-.4.5 0 0m-.8-.5c3 3-1.4 1 0 0m.5 0zm2.3-1c1.7-.5 0 2.2 0 0zm-2 0c1.5-1 1.5 2.8 0 0m9.4 0c2 2.2 0 1.7.3 4.4-1.8-1.2.4-1.5-.5-3.8l.2-.7m.2-1c1-3 1.6 3 0 0m.6-2.7c1.6-.4.8 3.4 0 .4v-.4m.4-2c2.8.3-.5 2.6 0 0m0-2c.6-3 2.2 3.8 0 0m-9.4-2.5c1.4 2.4 0 4.3-.7 3.2.5-2.2 1.5-.8.6-2.7l.2-.5m10.4-.6c.7-1.7 1.3-1.6 1 0-.5 0-.6 4.7-1 .4v-.2m-9.8-1.7c2 2-1.2 4 0 0m10.6-1c.7.3-.7.5 0 0m.5-.3c.7 1-1 1.6 0 0m-11.4-1c3 4.2 0 .5 0 0m11-.6c1 1-1 3.3 0 0m-10.4-1.8c1.4.4 1.2 4 0 1.2-.5-.3 0-1 0-1.2m10.4.3c1.5 2.6.5 2.3 0 .6v-.5m-14.3-1.5c-.5.4.5 0 0 0m.5.4c-.5.5.8.2 0 0m11.5 1.3c-.2.5.8-.2 0 0m-12.5-.5c-.5.8 1 0 0 0m9.4.6c-.5.6.7.2 0 0m-8.7.3c-.7.5.7.2 0 0m2.3.2c-.3.8.7 0 0 0m-3.8.2c-.7.4.5.3 0 0m13.5 1c-.3.6.8 0 0 0m-10-.3c-.6.5.4.5 0 0zm9 1zm-12.8-.8c.7 1.2 1-.6 0 0m1.6 0c0 .6.4 0 0 0m.8.4c0 .5.6-.3 0 0m9.3 1c0 .7.5 0 0 0m-10-.4c0 1 1.3 0 0 0m9 .7c-.3.5.7-.2 0 0m-10.5-.4c-.3.5.6 0 0 0m9.3.7c0 .5.6-.2 0 0zm4 .6c-.2.4.6-.3 0 0m-12-.6c0 .8 1.2 0 0 0zm2.5.4c-.5.6.8.3 0 0m6.8.6c-.2 1 .8 0 0 0m-.8 0zm-7.8.3c-.2.7.8-.3 0 0zm11 1zm-10-.3c-.5.6 1 0 0 0m9 .5c-.5.3.5 0 0 0m-11-.6c0 1 1.2-.5 0 0m11.5 1.3c.6 1 .8 0 0 0m-1.6.3c-.3.7.7 0 0 0m2.3.8v.2-.2zm-2 .3c-.2 1 1-.2 0 0m-11.5-.4c0 .5.5-.3 0 0m9.2.7c0 .7.7 0 0 0m-8.6-.3c-.2.4.6-.2 0 0zm12.6 1.5c-.5.4.5 0 0 0m-4.3 0c0 .6.7-.3 0 0zm2.5.3c-.7.3.7.4 0 0m1.5.4c1.2.7 0-1.2 0 0m-12.4-1c-.4.5.4 0 0 0zm11.2 1.3c-.4.4.5 0 0 0m-10.2-.5c0 .5.6-.3 0 0m9 1.3c-.4.4.5 0 0 0m-8.7-.2c-.3.6.7 0 0 0m1.5.2c-.5.4.4 0 0 0m6.7.4c-.5.4.5 0 0 0m-4.2 0zm2.8.6c-.7.4 1 .4 0 0m-4.6.7c-.2.5.6-.2 0 0m-6 0c-.5.4.3 0 0 0m14.4 1c-.4.3.4 0 0 0m-12.8-.8zm1.2 0zm10.5 1.2c0 .5.5-.2 0 0m-14 .3zm2.6-.4c-.5.5.6.2 0 0zm6.8.5c.2.5.7-.4 0 0m-8.2.4c-.7.3.6.3 0 0m1.4.4c0 .4.5-.3 0 0m2.5.2c-.3.4.4 0 0 0m5.5 1.7c-.4.5.6 0 0 0m.7 0c-.6.4.4.2 0 0m-9.5 0c-.6.5.5 0 0 0m.8 1.3c.3-1.8-.8-1 0 0m1.4-.5c-.5.4.7.2 0 0m5.6.7c-.2.6.6 0 0 0m4.2.6c-.4.7.8 0 0 0m-10.5-.5c-.4.5.4.2 0 0m-2.4.5c0 .5.5-.3 0 0m13 1.3c-.6.4 1 .2 0 0m-14.3-.5c0 .6.7-.3 0 0m10.5 1c0 .6.7-.3 0 0zm-8.7 0c.5 1.3.8-1 0 0m8.2.2c-.2.8.8 0 0 0zm-10 .7zm10.8.4c-.3.5.6-.2 0 0zm-9.7-.4c0 .6.5-.2 0 0m1.4 0c-.4.6.7.2 0 0zm10 .8zm-13-.6c-.5.7.7.2 0 0m12.2 1.2c-.4.7.7.3 0 0m-1.8.8c-.5 0 .2.5 0 0zm-6.7.3c-.2.5.7-.2 0 0m-2.5-.2c-.4.6 1 .4 0 0m-1.5.2c-.2.7.8-.3 0 0m10.7 1zm-7-.2c-.7.4.5.2 0 0m-3 0c-.3.7.7 0 0 0m13 1.3c-.4.4.4 0 0 0m-11-.8c0 1 1 .3 0 0m10 .8c-.7.5.4.3 0 0m-13.3-.5c-.5.4.4 0 0 0m10.7 1c-.3.8.8 0 0 0m-9-.3c-.4.5.6 0 0 0m-1.3.2c.2.8 1.2 0 0 0zm.7.7c0 .7 1-.5 0 0zm-.5.8c0 .5.5-.3 0 0z" style="text-align:center"/><path d="M1131.606 322.943c5.8-2 11.6 10.6 3.7 9.2-2.4.6-3.3-7.2-6-2-1.4 4 2.6 6.8 4.6 9.7 3.3 4 3.5 9.2.8 13-2.5 3.7-7.6 5-12 2.2-7-3.8 1.3-13.6 3-6.4 3 7.6 9-4.7 1.7-7.4-3.3-2.4-4.7-7.2-4-10.4.7-4.3 3.8-7.5 8.2-8m-3.4 34c2.8-.7 1.8 2.7 0 0m-1.5 0zm.6.3c0 .4.5-.5 0 0m2.6-.6c3.2-1 2 2.7 0 0m3.8-2.3c2 1.6-.7 3.3-1.4 2.7-2.6-1.2 3 0 1.4-2.6m.7.2c.7 0-.4.5 0 0m-.2-.5c2.2-2.6 2.2 3.8 0 0m2.5-1.8c.2-.6.6.3 0 0m-1.2.2zm1-2.3c2.7 1.7-.2 3.6 0 0m-9.8-1c1.6 1.3-1 .8 0 0m-.8-2c1.3.3 1.2 3.6 0 .7v-.6m11.2.7c1.3 0 .2 5 0 .7v-.8m.2-2zm-7.7-13c.6 0 0 .6 0 0m10.6.2c1 0-.4.7 0 0m-10.6-1zm5.3.2zm2.4 0c2 .8-1.4 3.5 0 0m3.2-.2c.3.7-.7.4 0 0m-1.7 0c3.3 2.5-2 1 0 0m-9.2-1.4c3 1.5-.8 2.5 0 0m10-.7c1.3-.6.4 4 0 0m-9.4-1.2c2.6.7.5 3.2-.2.4v-.2l.2-.2m1.4-.2c1.7-.2 1.6 2.8 0 0m-1.5-4.8c-.4.8.6 0 0 0zm1 0c0 .6.3-.2 0 0m1.5.2c-.7.5.7 0 0 0zm2.4.7c-.6.5.7.2 0 0m-4.7 0c-.4.5.7 0 0 0m.4.6c0 .5.6-.2 0 0m5.5.5c0 .6.7-.2 0 0zm-7.2-.2c-.2.5.4-.2 0 0m2 .2c-.5.4.8.2 0 0m1.5.6c-.4 1.3 1.3 0 0 0m-5.3.2c-.3.6.8 0 0 0m-1.3 0c-.2.6.4 0 0 0m.4.7c-.4.4.4 0 0 0m7.6.5c-.4.8.6 0 0 0zm-4.6 0c0 .4.6-.4 0 0m8.3.4c0 .6.6-.2 0 0zm-11.8.7c.3-1.5-.5-1 0 0m9.6-.2c-.2.6.6-.3 0 0m2 .4zm-12.8-.2c0 .8.8-.4 0 0m2.6.3zm1.7.4c-.8.4.5 1 0 0m9.4.7c-.4.5.6 0 0 0m-12-.6c-.2.5.5-.3 0 0m10.3.8c0 .8.7-.4 0 0m-2.5 0c0 1 .8-.2 0 0m-9.4-.5c-.5.7 1 .5 0 0m0 2c-.2.3.4-.4 0 0m2 .3zm-2 1.4c-.6.4.4.2 0 0m1.2.3c0 .5.5-.3 0 0m4 1.4c-.6.4.4 0 0 0m-5 .4c-.5.4.5 0 0 0m1.7.3c-.5.5.4.2 0 0m4.3 1.5c-.4.6.8 0 0 0m0 .7c0 .8.7-.4 0 0m-5.2.4c-.3.5.6 0 0 0m4.5.3c0 .4.5-.4 0 0m-1.5.5c-.5.4.5 0 0 0m1.4 1.2c-.3.5.5 0 0 0m-.2 1.3c-.4.4.5 0 0 0m1 .7zm3 .3c0 .7.7-.3 0 0m-2.4.6c-.6.4.3.7 0 0m1.3.2c-.4.4.5 0 0 0m2.6.6c-.2.6.7 0 0 0m-2 .6zm0 .8c0 .5.6-.3 0 0m-9.8.6c.2.6.6-.2 0 0m1.2 0c0 .7.6 0 0 0m11.5 1c-.5.5.5.2 0 0m-14.7-.7c0 .7.6-.4 0 0m3 .3c-.2.7 1 .2 0 0m-1 .7c-.6.4.4 0 0 0m-1 0c0 .7.8 0 0 0m9.3.8zm-8.4 0c-.6.4.4.2 0 0m.6.7c-.6.4.4 0 0 0m9.8 1c0 .6.7 0 0 0zm-9.3-.3c-.6 1 1.3.4 0 0m1 .3c-1 .5 1.4 1 0 0m-3 0c-.5 1 1 0 0 0m11 .8c.6 1 1-.2 0 0m-2.7 0c-.2.6.6 0 0 0m-1.5 0c-.3.8.7.2 0 0m-5.5 0c-.2.4.6-.4 0 0m-1.5 0c-.6.3.3.6 0 0m8 .8c-.7.3.3 0 0 0m.5.4c-.6.4.5 0 0 0m1 .2c0 .6.8 0 0 0m-7.7-.2c-.5.2.2.6 0 0m7 1c0 .5.6-.4 0 0zm-8.6-.5c-.2.5.5-.3 0 0m4 .3c-1 .4 1 .2 0 0m-2.7.4c-.4.7.7.2 0 0m.8.3zm4 0c-.7 1 .6.5 0 0m-2 1zm.8.2zm1.4 0c0 .6.5-.2 0 0m-3 .2z" style="text-align:center"/></g><path d="M977.906 419.743c2 .3 4.3.4 6.4.6 1.3 0 2.5.3 3.8.4l3.6.3 3 .3c1 0 1.7 0 2.5.2 1 0 2 .2 2.8.3 1 0 2 0 2.8.2 1.2 0 2.3.2 3.4.3l5 .5 5.3.5c1.5 0 3 .2 4.3.4 1 .2 2.4 0 3.3.6 1 .6 2.2.7 3.2 1 1.7.2 3.4 0 5 .6.7.4 1.5.6 2.3.8l-11.8 2.4-2.3-.7-5-.6-3.2-1c-1 0-2.2-.3-3.3-.4-1.4 0-2.8-.2-4.2-.4-1.8 0-3.6-.3-5.4-.5l-5-.3-3.3-.3c-1 0-1.8-.2-2.8-.3h-2.8l-2.4-.4c-1 0-2 0-3-.2-1.2 0-2.4-.3-3.6-.4l-3.7-.3-6.5-.6 11.8-2.6zm48.9 8.8c-1.2-1.7-3-2.5-4.8-3.5-1.4-.7-2.8-1.2-4.2-2-1.7-.6-3.4-1.2-5-2.2l-3-3c-.3-1-1.2-1-2-1.6-.6-1-1.7-1.7-2.7-2.2-1.2-.8-2-2-3-2.7-.3 0-.6-.2-.8-.4l11.7-3 .6.6c1 .8 2 1.8 3 2.5l3 2c1 .5 1.5 1.3 2 2 1 1 1.8 2 3 2.7 1.5 1 3 1.5 4.8 2.2 1.4.6 2.8 1.2 4.2 2 2 1 3.5 2.2 5 3.8l-11.8 2.8z" fill="#fff"/><path d="M1035.606 423.943c-1 2.3-2.6 4.2-4.4 6-1.5 1-3.2 2-5 2.7-1.3.4-2.5 1-3.7 1.3-.2.2-32 5.3-1.8.2.3 0-.5 0-.7.2-1 .3-1.3 1-2 1.5-.6.6-1.5 1-2.3 1.3-.7.4-1.4.6-2 .7-1 .2-1.5.8-2.3.7-.5 0-.6.4-1 .6l-12 .6c.3 0 .6-.2.8-.5.5-.8 1.5-.4 2.2-1 .7-.5 1.4-.4 2-.7 1-.4 1.6-.8 2.5-1 1-.4 1-1.3 2-1.7l.6-.5 12.3-2 .8-.2-11.2 2c1.3-.2 2.6-.6 3.8-1.2 1.8-.4 3.5-1.2 5-2.3 1.8-1.5 3.5-3 4.6-5.3l12-1.4z" fill="#fff"/><path d="M389.406 652.343c-.7-1-1.5-3.5-1.4-4.8 0-1.4-1.4-4-3-5.3-2.3-2-3.4-5.3-2-5.6.5 0 1.5.6 2.5 1.5 2 1.8 2.5 1.7 2.2-.4 0-.8-.3-3-.3-5.2l-.2-4h-1c-.6-.3-5-.6-12.4-1-5.5-.2-8.8-.7-11-1.4-1.3-.4-3-.8-4-.8-7 0-15.4-2.8-21-7-1-.8-2.6-1.8-3.2-2-.6-.5-2.2-2-3.5-3.5l-3-3.6c-3.5-3.7-3.6-5-.7-6 3-1 12-9.8 15.3-15.2 1.2-2 2.8-4.4 3.6-5.4 4.6-6 6-9.8 6.3-17.8 0-2 .2-4.7.3-5.7.2-1.2.4-5.2.6-9 0-4 .4-7.6.7-8.4.3-1.6 1.5-5 2-5.8.2-.4 1-2.7 1.7-5.2 1.4-4.6 3.8-9.3 5-10l.7-.4-1-2.2c-1.3-2.4-3-8.4-3.8-13.4l-.6-3 .4-3.4c.4-4 1-7 1.4-9.3 0-1 .6-3.4 1-5.3.3-2.4 1-4.3 1.7-6l2.5-5.5c1.3-2.7 6.7-10.7 7.3-10.7 4.8-5 20.4-14.7 38.5-13.8 18 1 27.2 9.7 28.5 10.4l3.2 2 1.6 1.6c2 1.5 8 9 8 9.6 0 .2.3.8.7 1.3 2 2.6 3.8 8.3 5.4 17.5.8 3.7 1 15.3.2 16.4l-.3.8 1.3.2c1.5 0 7-.5 8-1 0 0 .8 0 1.4.5.7.3 1.5.6 2 .6 1.4 0 .8 1-1 1.5-1 .5-3 1-4.5 1-3.6.5-8.5 1.4-8.7 1.6 0 0 0 .6.2 1 1 2 .2 4.7-2.2 8-2 2.6-2 2.7 3.2 4 2.3.4 5.3 1 6.8 1.5 1.4.5 3.2.8 4 1 .6 0 2 .4 2.8.8l1.7.7-1 1c-.4.5-1 .8-1.8.8-2 0-14.4-2-19.2-3-1.4-.3-2.7-.5-3-.3 0 0-.5 0-.7-.2-.5-.4-4.5-1.2-8.4-1.7-1.7 0-5.2-1-8-1.5l-8-2-5-1c-1.2 0-2-.3-2.2-.5-.2-.2-.2-.8-.3-1.2 0-.5-.6-1-1-1.3-1.3-.5-1.2-1.7.3-3.3l1.3-1.3 3-.3 4.8-.2c1 0 3-.2 4.4-.5l2.3-.6-1-3.7c-1.6-4.6-2.2-8.4-2.6-14-.4-5.4-.4-6 .7-9.3 1.6-5 2.2-7.8 2.4-10.6.3-2.4 1.3-3.2 4.6-3.5 1-.2 2 0 2 0l2 1c2.7 1.4 3.4 2 5.6 6.2 2.8 5.5 4 10.8 3.2 16.8-.8 6.8-2 11-3.8 14-.5.8-.8 1.5-.7 1.5.2.3 6-.5 7.6-1 .8-.3 2.2-.6 3.2-.7 2 0 2.2-.2 1.5-1.2-.7-1-.8-3-.2-5.6.5-2.2 0-10-.6-12.3l-1-4s-1-3.6-1.3-4.6l-1.3-3.7c-.4-1-1-2-1.2-2.2-.3-.3-1.3-1.8-2-3.2-3-5-8.5-10-11-10-.3 0-.6-.3-.6-.5 0-.7-10.5-5-13.2-5.4l-1.6-.3-5.6-1.2-6.7-1h-2.6c-5.5-.3-2-.4-5.5-.3-3 .2-5.3.5-6.7 1l-2.3.6-1.7.7c-1.2-.5-10.7 5-11.2 6.4 0 .5-.6 1-1 1.2-.5.2-1 .6-1 1l-1 .8c-2 .7-8 9.3-8 11.4 0 .2-.4 1.3-1 2.3-1.8 3-3 6.8-3.3 11l-.7 4c-2 8.3.2 22.2 3.8 25.7 1.7 1.6 2 2.3 1.6 3.2l-.4.7 1 2.8 2.2 5c1.3 2.6 3 6.8 3 7.2 0 .7 2.2 6 3 7.8.6 1 1 2 1 2.2 0 1 1.5 4.2 5.2 10.8 2.5 4.5 3.2 5.4 5.7 7l1.2 1 4.8-.3c2.6 0 6.6-.3 9-.5h4.5c.2.2 1 .2 1.5 0 1.2-.2 1.7-1 2-4l.3-1.8 1-.4c.5-.3 1.6-.3 3.6 0l4.8.2h2.2l1-2c.6-1.2 1.7-2.8 2.4-3.6l3.6-4.5 3.7-4.6c.8-1 2-3 2.7-4.4 1.7-3.4 5-9.5 6-10.3.2-.4.5-1 .5-1.3 0-.7 1-1.3 2-1.3h1l1.4 2.7c.7 1.3 1.7 3.5 2 4.7l1.8 4.3c1 2 2.7 6 4 9.2l1 3c0 .7.8 2.8 1.4 4.6l1.5 5 1 3c1 3 2.5 8 3.3 11.2 2 8.3 3 11.8 5 16.2l1.5 3.6c0 1.6 3-1 6-5 2.3-3.4 3-4 4.3-2.5l7 8.8c3 4.8 5 8 5.8 8.6 1.5 1.4.8 2.6-4.8 8.6-1.2 1.3-2.2 2.5-2.2 2.7 0 .2-.5.6-1 1-.6.2-2.3 2-4 3.8-1.5 2-4 4.8-5.7 6.5-1.5 1.7-2.8 3.2-2.8 3.4 0 .2-.8.8-2 1.2-3.8-3.8-1.5-1.3-3.8-3.8-1-1.2-1.8-1.8-1.7-1.5l.4 1.6.3.8-.5-.7c-.4-.2-.6-.7-.6-1 0-.2-.4-.8-1-1.4l-.8-1.5c0-.4-1-2-4.3-6.8-2-2.8-2-3.2 0-5.8 1-1.2 2.2-3 3-4.4.6-1.2 1.6-2.7 2-3.3.5-.7.8-1.3.8-1.5 0-.4-2.3-2.5-2.8-2.5-.8 0-7.3-4.6-8.4-6-1.4-1.5-1.7-1.6-1.7-.7 0 1.7-2.4 7.2-4 9-5.6 7-7.8 9.4-10 10.7-2.7 1.6-7 4.6-8.2 6-3 2.7-9.7 6-15.4 7.2-1.5.2-2.8.7-3 .8-.6.6-.8 7-.2 8.2.4 1 .5 2 .4 3.4-.2 2.5-.3 2.5 3.3 2.2 3.3-.4 4.3 0 4.6 1.2.3 1-.6 2.2-1.7 2.2-1.3 0-1.4.5-.7 1.7l.6 1-.6.6c-.3.3-1 .6-1.7.6h-1.2v1.2l.2 1.3h-1l-.8.2-1.2-1.7c-.7-1-1-2.2-1-3 0-1-.2-1.3-.5-1.3s-.7-.2-1-.5c-.7-1-2.2-1.5-4-1.7-1 0-2-.5-2.4-1l-1.2-.6c-.8 0-1-.8-.2-2.2 1-1.7 2-2 3-1 .8.7 2.6 1.4 2.8 1 0 0 .2-2.7.2-5.8l.2-5.6h-2.2l-7.5.8-6 .6h-1.5v4.3c.2 2.5.4 5.3.7 6.4l.5 2.5c0 .5 1 1 2.3 1 .8 0 2.6 1.6 2.6 2.3 0 .8-1 1.6-2 1.3l-1-.2-.2 1.3c0 .7-.2 1.4 0 1.5.3.6-.3 1.5-1 1.5s-1 .2-1.3.8c-.4 1-1 1.2-1.7.4zm84-27.4c1.4-1 1.4-1.2-.2-2l-1.8-1c-.3 0-.6-.5-.7-1-.3-1.6-1.6-3.6-4-6.2l-2.3-2.5-.8.7c-1.2 1-1.2 2-.2 3 .4.3 2 2.4 3.7 4.7 1.7 2.3 3.2 4.2 3.6 4.3.5 0 .8.3.8.5 0 .6.7.4 2-.6zm-78-.2c1 0 9-.7 12.6-1.2.8 0 1.8-.2 2.3-.3.5 0 2-.5 3.3-1l4.2-1c2-.5 6.3-2.6 6.6-3 0-.3.5-.5 1-.5.4 0 5-3.6 8-6.6.7-.6 1.6-1.2 2.2-1.5 1.8-.7 9-8.2 10.4-11 2.2-4.4 3.7-10.2 3-12.2-.6-2-1-5.4-.7-6.3.8-2 3.3-.4 3.2 2 0 .8.2 1.6.8 2.4l.8 1.5c0 1 5.5 7.8 6.5 7.8l1.4.8c.6.5 1.8 1.2 2.7 1.6l3 1.8c1 1 2.2 1.3 2 .6l-1-3-2-6c-1.5-4-3-9.4-4.2-14.4l-2.2-7.7c-.8-2-1.5-4.7-1.7-5.6l-2-6-1.7-5c-1-3.5-3-8-4-9-.5-.4-1-1-1-1.5 0-.4-.2-1.4-.5-2l-1.5-3.8c-.8-2.4-1.2-2.8-1.6-1.7 0 .3-.7 1.4-1.3 2.4-.7 1-1.8 3-2.5 4.3-2.4 4.6-3 5.6-4 7-.8.7-2 2.2-2.8 3.3-.8 1.2-2.4 3.2-3.6 4.5-1.2 1.4-2.6 3.5-3.2 4.7-.5 1.3-1.2 2.6-1.5 3-.4.2-.7 1.3-.8 2.3 0 1-.3 2-.4 2.4l-.3 7c0 3.7-.3 7.6-.4 8.6l-.2 2-2.5.2c-1.4 0-3.8.6-5.4 1-8.3 2-20.5 2.5-28.8 1l-1.4-.2v-9.8c0-10.5-.2-10.7-1.8-11.3-.5-.2-.8-.6-.8-1 0-.7-3.8-7.7-5-9.2-.8-1-2-3.6-4.4-10.5-1-2.7-3.2-8-5.2-12.2-1-2.2-2-4.7-2.3-5.8l-1-2.4-.7-.6-.5.7c-.8 1.2-2.5 5-3.5 8.4-.5 1.6-1.4 4-2 5.3-1.5 4-2 6.2-2 11.7 0 3-.3 6.8-.5 8.7-.2 2-.4 8-.4 13.3 0 8.3-.7 22-1.2 24.4v1.7l.4 1.2.7-1.3c.5-.8 1.3-2 2-2.6 1.7-2.3 6-11.3 6.6-14.2.6-2 2.2-3 3.3-1.7l.6.7-.4 1.8c-.7 3.4-4.8 12-7.3 15.2-1.8 2.4-1.4 2.5 2.4 1 .8-.5 2-1 3-1.4 1.5-.7 2-.5 2 .6 0 2.2-1.3 3.2-7.5 5.3-1.7.5-3.2 1-3.4 1.2-.4.3-7.2 2.3-9 2.7l-9.3 1.8c-.2 0-.6-.4-1-1-1-1.6.4-2.8 4-3 2-.2 8.5-1.8 9-2.3l.4-4c0-2 .2-4.7.4-6 .5-4.2.8-12.2.5-11.8-.3.2-1.3 1.5-2.4 3-1 1.4-2.3 3-2.7 3.2-.5.4-1.4 1.7-2 3-2.7 4.7-9 11.7-13.4 14.8-2 1.4-2 1.5 1 4.6 8.8 9.4 12.5 11.3 24 12.5 2.6.3 6.3 1 8 1.3 2.3.4 6 .8 10.6 1l10.8.7c2 0 4.5.2 5.6 0h3zm84-6.4l3.2-3.7c.3-.4.6-.6.8-.6.2 0 .8-.5 1.4-1l1-1-1-1.2-1.7-3c-.6-1.2-1.8-3.3-2.8-4.8l-2.5-4c-1-2-1.2-2.2-2-1.6-1 1-.8 1.5.7 2.2 1.3.6 2.4 2.3 3.5 5.3.2.6 1 2 2 3 1.5 2 1.8 3.3 1 4-.3.3-.6.8-.6 1 0 .4-.6 0-1.6-1-1.5-1.3-2-1.4-2-.3 0 .3-.3 1.2-.7 2-.4.7-.6 1.6-.5 2 .3.7-.5.8-1.3 0-.7-.4-2.3-3-2.6-4 0-.3-.5-.7-1-.8-.3-.2-1.6-1-3-2.2-2.2-2-2.6-2-3.2-.8l-.3.7.8.6c.6.2 1.2 1 1.4 1.4.3.7.7 1 1.5 1 1 0 1.8.7 1.8 2 0 .5.2 1 .5 1.4.3.2.5.8.5 1.2 0 .4.3 1.2.7 1.7.4.4.7 1 .7 1.2 0 .5 1.7 3 2 2.8l3-3.3zm-1.8-10.2c0-.2-.3-.6-.7-1-.3-.3-.7-1-.7-1.4 0-1.5-3-4.7-3.8-4-.6.3.5 2.3 2.6 4.5 2 2 2.6 2.4 2.6 1.8zm-69.4-23.8c.4-.2 1.3-.3 2-.3 2.8 0 10-2 11-3 .4-.6 1-10 .7-11.6l-.2-1h-4.6l-11.6.5c-9 .2-15.4.5-15.7.7v4c.2 4.6.2 7.3 0 9v1.3l3.6.6c4 .7 13.8.6 15 0zm-7.3-1.3c-2-1-2.5-2.2-2.4-5.5v-3l1-1.2c1.5-1.8 3.7-3 6.7-3.2l2.4-.4 1.5 1c3.8 2.7 4.4 3.8 3.5 7-.5 1.4-1 2.3-2.5 3.7l-1.8 2h-2.4c-3.6.4-4.7.3-6-.3zm8.3-9.4c-.6-.7-1.7-.6-1.7.2 0 1 .2 1 1.2.7.6-.3.7-.5.4-1zm13-10c0-.3-.3-.4-1.4-.5-1.5 0-2.2.7-.8 1 1 .4 2.3.2 2.3-.4zm27.8-43c.3-.8 1-2 1.5-2.6l1.3-2.4c.2-.6 1-1.6 1.6-2.2 1.3-1 1.2-1.5-.5-1-.6.3-1.5.5-2 .5-.3 0-2 .4-3.7 1-3.5 1.2-9 2.5-13.4 3.2-5 .7-5 1-.3 1.7 2 .2 4 .6 4.6 1l3.5 1c1.4.2 3.2.7 4.2 1 2.3.6 2.6.5 3.2-1zm-11.6-10c1.6 0 2.3-.3 2.3-1.2 0-.4.4-1.4.7-2 1.2-2.4 2.8-7.5 3-9.5 0-1 .4-3 .6-4.5l.4-2.5-1-3.7c-1-4.4-3.2-9-4.7-10.6l-1-1h-3l-.8 1.3c-.4.7-1.2 2.5-1.7 4l-1.6 4.7-1 1.6.2 5.4c0 7.4 1 12 3 14.8.5.7.7 1.6.7 2.4v1.4l1.5-.2c1-.2 2-.3 2.3-.2zm-3.3-17.6c-2.8-1.5-2.4-6.4 1-10.4l1-1.5h1.4c2.5 0 4.6 2.4 4.6 5.8v1.5l-1.6 1.7c-1.6 1.8-4 3.6-4.8 3.6l-1.7-.6zm-34.5 22.6c-1.3-.4-5-3.4-5.5-4.6-.8-1.6-1.6-5.2-1.8-8.2 0-1.5-.3-3.4-.4-4.2-.5-2-.6-9.2 0-10.3l.6-4.2c1-7.7 3-12.3 5.6-13.2 3-1 7.6 0 8 1.7.2.4 1 1.2 1.5 1.7.8.6 1.3 1.3 1.3 1.4l1 2c1.7 3 2 4 2.2 11.3l.3 7.2-.7 3.7c-1.3 7.6-2.4 10-5.8 12.8-3.2 2.7-4.5 3.3-6.3 2.8zm2.3-4.2c2-1 4.2-3.5 4.4-4.6 0-.6.5-1.6.7-2 1-2.5 2-8.4 1.8-11.5l-.2-5.7c0-4-1.2-8.3-2.3-8.3-.2 0-.5-.5-.7-1-.4-2-4-4.4-4.8-3.3 0 .2-.7.4-1.3.5-1.7.4-2.5 2.4-3.6 8.8l-1 5.6.2 6.3c.2 10 1 13 3.4 14.6 2 1.4 1.8 1.3 3.3.5zm-3-18.4l-1-1v-2.8l-.2-2.7 1.3-2c.8-1.8 1.5-2.6 2.4-3l1.3-.8 1.7.5 1.8.5c.4.5 1.2 4.6 1.2 6.3v2l-1 1.3c-2.4 3-5.5 3.6-7.3 1.8z"/><path d="M483.406 643.343c0-.6.5-1 1-.5 1.5 1 1.5 1.7 0 1.7-.5 0-1-.6-1-1.2z" fill="#fff"/><path d="M483.406 643.343c0-.6.5-1 1-.5 1.5 1 1.5 1.7 0 1.7-.5 0-1-.6-1-1.2z" fill="#fff"/><text style="line-height:125%" x="242.339" y="353.304" font-size="40" letter-spacing="0" word-spacing="0" font-family="sans-serif"><tspan x="242.339" y="353.304" style="-inkscape-font-specification:'Headline One'" font-size="70" font-family="Headline One">dlldsjfkjsdlkjsdfkjsdfsdfs</tspan></text></svg>