<svg xmlns="http://www.w3.org/2000/svg" width="430.584" height="99.348" viewBox="0 0 430.58433 99.347646"><path d="M101.166 48.336c-.07-26.547 111.275-30.284 131.432-29.67 22.317.68 130.218-.926 130.64 29.93.427 31.15-86.296 32.39-132.95 32.353-37.972-.032-129.053-6.44-129.122-32.614z" fill="none"/><path d="M188.842 20.404c-38.817 2.94-87.53 10.515-87.483 28.078v.074c.046-.023.087-.046.132-.07 22.605 1.235 46.244 2.058 69.365 2.348.028-.047 9.303-15.704 17.985-30.43zm-87.45 28.856c1.204 16.615 39.61 25.074 76.643 28.964l-6.982-26.504c-22.703-.11-46.85-1.178-69.662-2.46zM225.12 18.994c-1.77.015-3.65.043-5.776.092L199.07 51.39c1.8.025 3.657.04 5.473.06l20.576-32.456zm-10.235.215c-1.748.054-3.585.127-5.487.206l-18.693 31.842c1.523.023 3.002.052 4.54.074l19.64-32.123zm-9.186.366c-1.646.078-3.322.17-5.048.266l-18.43 31.28c1.45.025 2.946.045 4.413.07L205.7 19.575zm-8.66.48c-1.648.102-3.242.188-4.94.307l-17.678 30.61c1.245.026 2.394.058 3.654.08l18.963-30.997zM174.003 52.03l7.142 26.74c1.293.128 2.58.25 3.864.367l-7.176-27.024c-1.32-.025-2.525-.058-3.83-.084zm8.16.153l7.21 27.332c1.338.11 2.67.213 3.993.31l-7.123-27.575c-1.355-.023-2.74-.043-4.08-.067zm8.076.13l7.59 27.808c1.66.11 3.328.224 4.947.317l-7.74-28.045c-1.623-.023-3.19-.052-4.797-.078zm8.795.142c.333 1.34 6.418 25.832 6.92 28.154 1.93.1 3.81.184 5.656.26l-7.23-28.355c-1.772-.02-3.586-.036-5.345-.06zM236.727 18.83c11.837 9.295 10.666 22.95 10.658 22.99.53-.14 1.395-13.362 1.73-22.78-4.815-.09-9.06-.153-12.388-.21zm35.794.94c8.66 8.176 10.042 22.642 10.046 22.812.527-.244 1.29-12.827 1.63-22.15-3.963-.265-7.876-.483-11.675-.66zm41.01 3.648c9.552 9.408 9.876 20.927 9.855 21.228.135.195.722-10.267 1.166-19.363-3.56-.697-7.244-1.317-11.02-1.865zm12.075 34.402c-.014.13-1.616 9.917-6.167 17.826 2.52-.448 4.956-.94 7.337-1.467-.496-8.115-1.11-16.342-1.17-16.36zm-79.87.092c.008.006-5.094 19.316-14.76 23.103 5.077.002 10.607-.018 16.43-.086-.406-9.532-1.398-23.16-1.67-23.018zm35.42 2.94c0 .003 1.71 8.41-8.946 19.427 3.496-.153 7.013-.336 10.532-.556-.56-8.84-1.473-18.85-1.588-18.87z" fill-rule="evenodd"/><path d="M48.443 19.33c40.707 3.74 49.688 6.65 49.743 6.49.055-.162-8.953-3.412-49.648-7.486z" transform="matrix(-.9982 0 0 -1.11715 147.98 69.722)" fill="none" stroke="#000" stroke-width="1.284" stroke-linecap="round" stroke-linejoin="bevel"/><path d="M216.65 81.226c3.116.068 10.99-.28 13.637-.277 46.655.037 132.7-.62 132.59-31.2l-.135-2.26c-.67-30.206-107.827-28.145-130.144-28.824" fill="none" stroke="#000" stroke-linecap="round"/><path d="M229.247 50.885l-.226 1.325c54.418-.918 109.16-1.654 131.6-2.894z" fill="#003" fill-rule="evenodd"/></svg>