<svg xmlns="http://www.w3.org/2000/svg" width="430.584" height="99.348" viewBox="0 0 430.58433 99.347646"><g fill="#3f3f3f" stroke="#eaffc1" stroke-width=".125" stroke-linecap="round" stroke-linejoin="bevel"><path d="M6.787.277C8.874 11.607 29.99 10.784 38.804 18.76c13.403 5.396 27.85 10.734 41.965 15.253 20.5 6.28 41.434 11.124 62.957 12.123 17.76 4.68 36.398 4.412 54.522 7.235 16.718.845 26.39.246 42.7.405 15.272.06 31.42-.07 44.34-.01 29.932-.637 59.98 1.337 89.83-1.053 13.45.125 27.58-8.25 40.187-4.63 2.523 6.758-19.92 4.73-27.528 8.454-26.74 4.394-63.914 1.76-84.104 2.537-37.327-.626-74.732 1.122-112.01-1.004-18.458-2.77-37.277-2.775-55.396-7.44-19.343-.994-38.167-5.242-56.535-11.085-14.697-3.6-28.077-11.004-42.82-14.4C26.81 14.216.452 17.854.062.274L3.425.063l3.362.214z"/><path d="M102.67 40.104c26.182.043 51.287-8.415 76.415-14.753 9.838 8.202-15.093 6.85-21.023 10.867-19.366 5.082-39.208 9.247-59.313 9.282l1.787-2.823 2.132-2.573zM173.503 41.683c7.158-2.31 21.063-16.766 22.588-6.654-7.017 3.105-15.38 14.824-22.587 6.653z"/><path d="M171.413 40.082c-6.455-.046 14.892-4.296 18.578-5.683 6.338-.79 22.465-9.173 20.686.116-14.43 3.5-28.674 8.417-43.216 11.006l1.803-2.846 2.15-2.595v.002z"/><path d="M204.484 36.866c6.184-1.818 21.05-11.855 19.18-2.078-6.947.88-14.054 12.754-19.18 2.078zM108.322 43.937c15.233 3.253 31.256 3.698 44.946 12.01 15.298 4.18 32.358 9.978 38.114 26.34-11.27 5.505-12.952-17.283-26.733-16.628-14.532-3.828-27.464-12.567-42.612-13.915-4.235-2.247-27.315.293-13.716-7.808z"/><path d="M163.087 52.13c13.598 6.118 19.8 22.995 35.84 24.928-.422 10.874-22.385-1.95-27.01-10.345-1.568-7.338-21.366-8.19-8.83-14.582z"/><path d="M182.28 58.003c9.517.49 24.5 23.64 9.946 16.882.087-9.24-23.785-11.022-9.945-16.882z"/><path d="M201.762 64.35c2.378 10.17 28.372 3.416 14.976 12.694-6.35 1.147-30.038-8.323-14.976-12.694z"/><path d="M215.315 60.48c-.127 15.887 27.983 10.588 27.75 17.582-9.614 7.645-40.96-7.937-31.103-17.795l3.353.213z"/><path d="M227.79 59.21c.828 13.49 25.585 12.293 24.047 18.553-9.552 8.063-35.224-12.307-27.41-18.766l3.364.214z"/><path d="M243.658 58.078c-2.105 14.776 34.66 3.1 23.088 15.407-10.315-2.923-30.32.184-29.813-15.407l3.362-.214 3.363.214z"/><path d="M273.125 61.478c-8.11 18.358 27.948 4.994 15.897 17.233-11.045 3.91-31-9.863-19.26-17.446l3.363.214z"/><path d="M295.792 63.744c-8.26 17.118 28.767 12.547 16.905 22.506-11.18.26-37.617-19.192-16.905-22.506zM322.993 59.21c-6.437 17.99 35.216 6.973 22.646 19.51-10.776-3.71-32.652-2.28-29.373-19.51l3.363-.213 3.363.214z"/><path d="M353.593 62.61c-4.806 14.387 33.6 6.89 13.487 15.486-9.853 2.924-32.244-14.725-13.487-15.485z"/><path d="M372.86 61.478c-3 15.99 19.284 17.482 29.926 22.304 4.855 7.87-13.05 3.045-18.308-.556-9.754-.66-30.396-21.364-11.618-21.748z"/><path d="M387.584 59.347c-1.495 10.35 27.826 23.403 9.242 21.85-4.724-3.075-27.012-24.768-9.242-21.85z"/><path d="M401.194 66.01c9.042 8.08-8.55 11.325-6.725 0l3.36-.213 3.364.214z"/><path d="M405.825 60.985c.463 6.078 10.393 6.443.85 10.876-4.955-2.293-13.13-12.878-.85-10.875z"/><path d="M414.785 54.813c-5.012 13.457 28.59 13.433 10.168 18.36-8.856 1.47-27.355-20.55-10.168-18.36zM197.74 48.03c7.34 6.99 17.868-30.183 25.34-16.445-9.34 8.493-12.86 26.59-29.27 21.856l1.793-2.83 2.137-2.58zM219.014 48.015c.606 4.775 9.545-16.383 17.144-8.365-1.63 7-20.166 20.012-19.294 10.96l2.15-2.595zM235.085 47.066c11.918-3.306 20.506-19.24 31.744-16.974-5.24 9.665-20.83 20.24-29.545 19.524l-2.2-2.55zM259.6 53.593c3.76-9.74 16.443-13.59 18.044-25.9 14.515 3.42-9.3 29.24-18.044 25.9zM286.272 48.038c-1.274.566 21.252-4.18 16.59-15.795 18.242 3.897-8.483 26.292-20.51 21.19l1.788-2.822 2.132-2.572z"/><path d="M303.8 50.193c2.59-13.01 21.23-20.83 31.26-21.11 2.782 8.473-23.463 8.576-24.534 21.11l-3.363.214-3.362-.214z"/><path d="M326.468 50.193c-.823-7.897 9.22-31.008 12.82-18.54-6.023 5.627-2.366 22.242-12.82 18.54zM337.928 46.127C346.483 44.443 354.145 22.7 357.544 35c-3.01 5.638-13.424 21.137-19.616 11.127zM360.64 46.3c2.8-5.72 8.342-21.643 13.928-12.093-5.023 4.466-4.602 17.202-13.927 12.094zM384.268 49.06c-2.324-7.445 3.056-26.1 8.622-14.92-6.146 4.872 4.385 19.04-8.622 14.92zM401.743 46.9c2.935-6.4 13.65-24.36 17.316-12.755-8.112 2.453-7.397 20.902-17.317 12.754z"/><path d="M392.21 47.79c-.52-7.62-.545-30.783 7.81-20.082-4.282 6.553 4.837 23.862-7.81 20.083zM104.062 35.586c20.942.758 41.13-7.828 58.74-18.41 9.405-11.887 12.372 3.974.156 6.8-19.35 10.113-40.56 18.402-62.794 16.975l1.78-2.806 2.118-2.558zM103.122 55.81c-3.67 15.532 17.974 31.978 14.356 42.042-11.436-5.67-20.236-27.302-21.08-42.04l3.362-.215 3.362.214zM112.87 52.57c14.837 3.483 32.57 1.174 44.796 11.656-.555 8.798 6.706 30.75-5.63 29.422 3.088-16.792.658-34.855-20.532-33.127-4.817-3.028-30.855 1.474-18.635-7.95zM127.06 75.29c1.47 7.34 23.89 24.908 8.26 23.958-1.145-6.43-22.863-23.79-8.26-23.96z"/><path d="M100.95 37.455c4.785-18.11 25.405-23.092 41.414-26.597 7.554-2.926 10.66 7.835.275 5.534-13.064 3.3-30.22 6.478-35.003 21.063l-3.344.213-3.344-.213z"/><path d="M119.987 30.54c10.773-3.944 22.107-19.568 32.548-13.27-9.252 5.066-22.388 19.923-32.548 13.27z"/></g></svg>