<svg xmlns="http://www.w3.org/2000/svg" width="842465.65" height="732391.521" viewBox="0 0 789.81155 686.61707"><g stroke-width="8" stroke-linecap="round" stroke-linejoin="bevel"><path d="M3.467 343.934L198.645 4.626 590.083 4l196.26 338.683L591.168 681.99l-391.44.627z" fill="none" stroke="#970a07"/><path d="M242.873 646.242c-43.92-52.4-90.8-103.842-123.12-164.695C89.302 421.61 85.2 351.85 92.522 286.105c16.72-70.368 56.194-137.067 116.642-178.356 40.577-32.8 92.78-42.88 140.71-60.036 42.1-.886 84.337-1.182 126.475-1.36 50.946 6.012 84.61 50.153 116.942 85.33 36.488 41.364 34.303 99.628 44.42 150.7 6.788 56.265 10.368 113.2 6.182 169.763-9.877 45.822-39.05 85.183-68.675 120.453-5.493 9.382-46.104 40.748-28.55 18.936 38.726-30.416 66.566-73.41 86.08-118.137 13.112-36.636 5.792-76.405 6.777-114.412-5.055-61.106-11.104-122.67-26.546-182.138-13.823-39.58-46.98-68.25-76.658-96.263-23.85-23.594-57.813-33.712-90.83-29.843-31.753 1.263-63.664-.358-95.324 1.836-49.268 16.754-102.192 28.173-143.218 62.3-59.035 41.94-96.698 109.308-110.533 179.532-7.107 72.868.78 150.83 42.836 212.91 31.138 47.135 66.704 91.326 105.758 132.11l3.63 5.38-5.767 1.43z" stroke="#000"/><path d="M395.1 437.548c1.646 28.48 26.3 49.893 40.432 73.38 35.565 44.3 61.338 95.91 101.806 136.31 29.183 34.89-13.883-17.328-25.796-27.22-31.44-37.043-54.182-80.446-77.437-122.834-3.75-17.093-32.257-54.706-18.717-59.164 17.113 53.246 47.326 100.716 76.587 147.906 15.35 28.47 45.753 45.58 60.22 73.733-14.095 10.79-31.252-31.057-46.56-40.088-29.682-43.605-59.156-87.36-91.258-129.238-5.334-12.843-38.865-45.917-19.277-52.786zM280.624 133.186c-33.12 3.23-66.433 20.99-72.846 56.555-9.534 32.243-20.84 64.584-17.624 98.85 1.3 37.125-6.92 80.474 22.36 109.582 22.292 21.843 54.59 32.386 85.047 24.474 21.42-20.627 44.653-42.557 55.64-70.596 7.677-50.16 5.166-101.383 3.992-151.912 1.08-38.026-30.445-60.41-65.807-60.423-14.395 2.423-41.538-13.07-13.893-7.1 28.143 6.2 69.057 4.414 78.333 38.838 13.715 41.563 5.757 86.064 7.36 128.985.627 33.914-3.714 69.568-30.723 93.274-16.267 21.79-36.652 43.655-66.54 35.03-32.292-1.736-63.27-25.072-74.737-55.286-11.537-33.273-3.73-69.338-6.028-103.8-.185-34.332 13.737-67.178 23.84-99.234 12.447-26.832 45.898-44.2 71.627-37.236z" stroke="#000"/><path d="M344.757 223.09c-4.816 23.383-45.517-13.415-50.11 21.38-6.12 30.736-19.982 70.35 24.673 74.252 17.214 5.254 45.448 18.504 42.61-8.9 16.83 3.708-4.667 32.042-20.434 20.278-21.626-8.828-67.45-10.122-60.413-42.763 6.576-27.322 5.135-75.14 47.182-63.005 25.985 6.302-3.002 4.682 16.492-1.243z" stroke="#000"/><path d="M325.682 241.008c-30.115 1.77-23.63 43.033-25.842 64.283-8.488 31.32-9.705-29.5.564-39.792 4.934-25.88 29.31-26.027 21.715 2.17 1.066 11.764-4.04 60.48-8.845 28.093-.9-24.357 16.487-24.863 11.263-.267-3.082 29.576-5.137-14.862 11.484-8.195-3.18 11.217-21.012 35.445-17.222 8.193-2.743-21.915 8.87-21.538.087.32-10.303 30.744 2.204-34.8-3.52-47.98-3.307 8.156-23.95 42.59-16.612 64.135-10.124 7.265-1.55-38.31-.6-51.2 1.012-10.974 17.194-35.14 27.527-19.757zM485.165 166.364c-35.555 10.34-62.128 39.67-72.21 74.834-12.873 29.086-23.873 59.95-20.02 92.27 4.072 31.426 33.35 54.09 62.623 61.87 20.955 2.647 39.017 11.88 37.555-15.9 13.795-30.528 38.422-54.993 50.052-86.86 15.127-32.56 16.91-69.577 15.854-104.88-14.095-29.4-58.1-35.72-81.968-24.203-5.58-14.855 40.91-10.9 55.2-4.475 36.727 5.848 35.745 44.94 31.047 73.134-1.937 51.247-30.715 95.575-59.11 136.257-7.6 20.285-10.45 45.53-39.797 33.087-33.467-3.343-63.658-26.233-75.99-57.554-5.568-32.477 1.895-64.69 15.617-94.22 10.29-31.792 26.247-64.565 58.504-79.122 6.617-.947 17.674-13.483 22.64-4.236z" stroke="#000"/><path d="M554.105 246.288c-29.89-15.524-68.47-1.682-64.2 36.473-3.034 22.23-7.632 55.997 25.02 47.324 13.568 9.375-49.04 8.243-32.078-19.093 1.504-26.733-2.113-76.57 36.455-74.765 6.06-.315 50.79 2.068 34.803 10.063z" stroke="#000"/><path d="M498.318 247.184c-9.18 11.842-.345 60.342-7.515 50.976 10.12-12.392 7.122-59.838 22.066-48.68-1.97 23.645-4.384 47.293-4.976 71.036-6.974-13.254 12.735-45.504 16.562-63.7 10.33 13.878 2.865 62.17-11.262 68.502 5.145-25.716 7.958-54.508 18.605-78.173 5.597 16.51-10.803 49.26-12.788 72.176-11.848 19.044 5.54-29.168 4.166-39.236-6.372-14.53 10.334-33.35 1.468-9.89-3.117 11.277-13.822 58.67-22.245 44.728 2.61-17.207 1.99-64.7 7.3-64.15-5.586 13.857-6.538 55.5-21.81 50.24 3.415-14.222-7.183-53.345 10.428-53.828zM382.56 450.515c.064.693.077 1.393.195 2.078.614 3.57 1.915 7.058 3.03 10.486 1.518 4.67 1.758 5.377 3.338 10.164 3.813 10.85 8.286 21.45 12.602 32.107 3.468 8.185 6.408 16.577 8.606 25.188 1.89 10.477 3.516 20.996 5.54 31.452 1.774 11.6 4.31 23.026 7.62 34.276 2.99 9.27 6.146 18.486 9.052 27.783 1.59 4.382 3.155 8.827 5.272 12.99 2.59 4.69 3.2 10.163 4.203 15.358.52 2.61 1.174 5.19 1.802 7.774.298 1.23.458 2.32 1.19 3.357 1.232 1.025 1.566 2.6 1.84 4.1.174.988.18 1.992.2 2.99.088 9.846-6.808-1.934-7.06-2.316-.427-.645-.87-1.28-1.303-1.92l-1.68-2.542c-4.904-6.842-7.663-14.697-10.012-22.69-1.57-5.914-2.914-11.887-4.124-17.885-.803-3.783-2.513-6.82-4.613-9.996-2.418-3.86-5.124-7.51-7.388-11.47-2.255-4.013-3.38-8.517-5.22-12.716-.312-.695-.638-1.384-.934-2.086-.886-2.106-.646-1.853-1.58-3.757-.766-1.564-1.652-3.042-2.397-4.622-1.143-3.012-2.62-5.917-3.62-8.984-.59-1.815-1.047-3.672-1.592-5.502-2.376-7.904-5.028-15.72-8.023-23.41-2.377-5.58-5.18-10.965-8.26-16.185-.256-.415-.543-.814-.77-1.247-1.043-1.974-1.165-2.69-2.132-4.87-1.42-3.202-2.892-6.372-4.27-9.594-1.656-3.73-3.618-7.296-4.922-11.17-.885-4.48-2.236-8.835-3.772-13.132-1.494-4.128-2.927-8.278-4.15-12.495-.04-.25 5.802-1.217 5.843-.97 1.127 4.156 2.495 8.24 3.965 12.285 1.536 4.32 2.976 8.684 3.958 13.166 1.25 3.78 3.21 7.253 4.71 10.933 2.183 5.18 4.424 10.368 7.16 15.28 3.035 5.427 5.82 10.997 8.216 16.74 3.008 7.782 5.693 15.677 8.172 23.645 1.47 4.74 2.988 9.45 5.17 13.926 1.76 3.494 3.537 6.962 4.916 10.635 1.73 4.096 2.91 8.438 5.133 12.31 2.264 3.882 4.938 7.48 7.32 11.287 2.277 3.518 4.096 7.166 4.92 11.317 1.127 5.902 2.424 11.774 3.94 17.59 2.257 7.674 4.99 15.156 9.812 21.647 1.403 2.06 3.182 4.18 4.127 6.515.212.525.966 1.434.44 1.643-1.87.742-6.287-1.434-6 .644.018-.776-.012-1.557-.137-2.325-.237-1.203-.91-2.035-1.594-3.045-1.713-3.832-1.938-8.17-3.032-12.19-.958-4.908-1.67-10.002-4.125-14.432-2.073-4.385-3.83-8.938-5.283-13.563-2.768-9.348-5.965-18.557-8.948-27.837-3.316-11.357-5.71-22.914-7.557-34.6-2.036-10.39-3.79-20.826-5.73-31.23-2.155-8.46-5.006-16.715-8.4-24.76-4.308-10.733-8.775-21.407-12.63-32.315-1.14-3.388-2.29-6.775-3.424-10.165-1.228-3.672-2.583-7.37-3.278-11.193-.147-.81-.19-1.635-.286-2.452 0-.252 5.953-.252 5.953 0z" stroke="#000"/></g></svg>