<svg xmlns="http://www.w3.org/2000/svg" height="70mm" width="110mm" viewBox="0 0 389.76378 248.03148"><g transform="translate(32.22 -833.3)"><path stroke-linejoin="bevel" d="M27.93 1047.1c-.653-.787-1.768-1.492-2.606-1.65-1.22-.228-1.696-.042-2.852 1.114l-1.387 1.387v-1.333c0-.85.236-1.334.65-1.334 1.008 0 2.544-2.255 2.544-3.733 0-1.308-1.722-3.57-2.72-3.57-.267 0-.476-.998-.476-2.28s.21-2.283.477-2.283c1.086 0 2.718-2.262 2.704-3.745-.016-1.685-.635-2.69-2.153-3.5-.803-.428-1.026-.944-1.026-2.386 0-1.512.285-2.11 1.597-3.347 1.983-1.87 2.154-3.853.48-5.528-.618-.616-1.336-1.12-1.598-1.12-.27 0-.478-1-.478-2.282 0-1.673.174-2.282.652-2.282.983 0 2.543-2.24 2.543-3.65s-1.56-3.652-2.544-3.652c-.478 0-.652-.61-.652-2.282 0-1.283.21-2.282.478-2.282 1.085 0 2.717-2.262 2.703-3.745-.017-1.685-.636-2.69-2.153-3.5-.805-.428-1.027-.944-1.027-2.386 0-1.51.285-2.108 1.597-3.346 1.982-1.87 2.153-3.852.477-5.527-.617-.616-1.336-1.12-1.598-1.12-.27 0-.477-1-.477-2.282 0-1.673.174-2.282.65-2.282.984 0 2.544-2.24 2.544-3.65s-1.56-3.652-2.544-3.652c-.477 0-.65-.608-.65-2.28 0-1.287.207-2.283.477-2.283.927 0 2.717-2.424 2.717-3.68 0-1.892-.428-2.67-1.88-3.422-1.12-.578-1.315-.953-1.315-2.524 0-1.516.284-2.11 1.597-3.35 1.982-1.87 2.153-3.852.477-5.527-.617-.616-1.336-1.12-1.598-1.12-.268 0-.477-1-.477-2.282s.21-2.28.477-2.28c.996 0 2.718-2.26 2.718-3.57 0-1.48-1.536-3.733-2.543-3.733-.478 0-.652-.61-.652-2.282 0-1.255.178-2.282.395-2.282.915 0 2.8-2.474 2.8-3.676 0-1.897-.427-2.675-1.88-3.427-1.12-.58-1.314-.953-1.314-2.524 0-1.517.283-2.112 1.597-3.35 1.982-1.87 2.153-3.853.477-5.528-.616-.616-1.335-1.12-1.597-1.12-.27 0-.477-1-.477-2.282s.208-2.282.477-2.282c.996 0 2.718-2.26 2.718-3.57 0-1.478-1.535-3.732-2.542-3.732-.478 0-.652-.61-.652-2.282 0-1.255.178-2.282.394-2.282.916 0 2.8-2.474 2.8-3.676 0-1.897-.426-2.675-1.88-3.427-1.12-.58-1.314-.953-1.314-2.524 0-1.516.284-2.11 1.597-3.35 1.982-1.87 2.153-3.852.478-5.527-.616-.616-1.334-1.12-1.596-1.12-.263 0-.478-.628-.478-1.395 0-1.35.033-1.372 1.014-.685 1.716 1.202 4.193.915 5.677-.658 1.084-1.148 1.643-1.37 3.462-1.37 1.192 0 2.168.206 2.168.457 0 1.047 1.877 2.282 3.468 2.282 1.236 0 1.96-.338 2.92-1.37 1.026-1.096 1.657-1.368 3.18-1.368 1.55 0 2.112.252 3.052 1.37 1.63 1.935 4.164 1.935 5.793 0 .942-1.12 1.502-1.37 3.053-1.37 1.523 0 2.154.272 3.18 1.37 1.786 1.912 4.168 1.912 5.847 0 1.02-1.164 1.53-1.37 3.382-1.37 1.2 0 2.18.205 2.18.456 0 1.047 1.877 2.282 3.468 2.282 1.236 0 1.96-.338 2.922-1.37 1.822-1.95 4.59-1.95 6.23 0 1.63 1.937 4.165 1.937 5.794 0 1.642-1.95 4.41-1.95 6.23 0 1.784 1.91 4.152 1.91 5.934 0 1.063-1.136 1.634-1.368 3.378-1.368 1.154 0 2.1.206 2.1.457 0 1.047 1.876 2.282 3.467 2.282 1.236 0 1.96-.34 2.922-1.37 1.025-1.096 1.656-1.368 3.18-1.368 1.55 0 2.11.25 3.05 1.37.912 1.08 1.52 1.368 2.898 1.368s1.986-.288 2.897-1.37c.94-1.117 1.5-1.368 3.052-1.368 1.523 0 2.154.272 3.18 1.37.975 1.043 1.68 1.368 2.966 1.368s1.99-.325 2.967-1.37c1.063-1.136 1.634-1.368 3.378-1.368 1.154 0 2.1.205 2.1.456 0 1.047 1.876 2.282 3.467 2.282 1.236 0 1.96-.338 2.922-1.37 1.047-1.12 1.644-1.368 3.292-1.368 1.708 0 2.167.208 3.025 1.37 1.443 1.95 4.067 1.95 5.708 0 .94-1.12 1.5-1.37 3.052-1.37 1.523 0 2.154.272 3.18 1.37 1.782 1.907 4.15 1.907 5.932 0 1.063-1.138 1.634-1.37 3.378-1.37 1.154 0 2.1.206 2.1.457 0 1.043 1.876 2.282 3.457 2.282 1.205 0 1.99-.36 3.002-1.37 1.09-1.09 1.762-1.368 3.3-1.368 1.62 0 2.1.222 2.946 1.37 1.442 1.95 4.066 1.95 5.707 0 .94-1.12 1.5-1.37 3.052-1.37 1.523 0 2.154.272 3.18 1.37.974 1.043 1.68 1.368 2.966 1.368s1.992-.326 2.968-1.37c1.063-1.136 1.634-1.368 3.378-1.368 1.154 0 2.1.205 2.1.456 0 1.043 1.876 2.282 3.457 2.282 1.205 0 1.99-.358 3.002-1.37 1.09-1.09 1.763-1.368 3.302-1.368 1.618 0 2.098.223 2.945 1.37 1.442 1.95 4.066 1.95 5.707 0 .94-1.12 1.5-1.37 3.05-1.37 1.524 0 2.155.272 3.18 1.37 1.783 1.907 4.15 1.907 5.933 0 1.063-1.138 1.634-1.37 3.378-1.37 1.155 0 2.1.205 2.1.456 0 1.043 1.877 2.282 3.458 2.282 1.205 0 1.99-.358 3.002-1.37 1.09-1.09 1.763-1.368 3.302-1.368 1.618 0 2.098.223 2.945 1.37.815 1.1 1.35 1.368 2.738 1.368 1.668 0 3.724-1.27 3.724-2.3 0-.24 1.13-.438 2.51-.438 1.882 0 2.51.164 2.51.66 0 1.003 1.845 2.08 3.57 2.08 1.123 0 1.886-.372 2.82-1.37 1.062-1.137 1.633-1.37 3.377-1.37 1.154 0 2.1.206 2.1.457 0 1.043 1.876 2.282 3.457 2.282 1.205 0 1.99-.358 3.002-1.37 1.09-1.09 1.763-1.368 3.302-1.368 1.635 0 2.095.22 2.985 1.422.962 1.3 1.224 1.403 3.052 1.197 1.637-.186 2-.09 1.998.516 0 .408-.617 1.092-1.37 1.52-1.196.68-1.365 1.03-1.365 2.812 0 1.7.225 2.224 1.37 3.187 1.152.97 1.368 1.48 1.368 3.235 0 1.146-.166 2.083-.37 2.083-1.098 0-2.368 1.968-2.368 3.67 0 1.754 1.18 3.632 2.282 3.632.25 0 .456.988.456 2.196 0 1.912-.177 2.33-1.37 3.21-1.13.835-1.368 1.334-1.368 2.868 0 1.475.282 2.12 1.37 3.136 1.116 1.043 1.368 1.645 1.365 3.264-.002 1.726-.18 2.086-1.37 2.762-1.196.68-1.365 1.03-1.365 2.812 0 1.7.225 2.224 1.37 3.187 1.152.97 1.368 1.48 1.368 3.234 0 1.146-.166 2.083-.37 2.083-1.098 0-2.368 1.968-2.368 3.67 0 1.754 1.18 3.632 2.282 3.632.25 0 .457.987.457 2.195 0 1.91-.178 2.328-1.37 3.208-1.13.836-1.368 1.335-1.368 2.87 0 1.474.28 2.12 1.368 3.135 1.117 1.043 1.37 1.645 1.366 3.264-.002 1.726-.182 2.086-1.37 2.762-1.196.68-1.365 1.03-1.365 2.812 0 1.7.224 2.224 1.368 3.187 1.153.97 1.37 1.48 1.37 3.235 0 1.146-.168 2.083-.372 2.083-1.098 0-2.368 1.97-2.368 3.67 0 1.755 1.18 3.633 2.282 3.633.25 0 .457.988.457 2.196 0 1.91-.178 2.327-1.37 3.207-1.13.836-1.368 1.335-1.368 2.87 0 1.474.28 2.12 1.368 3.135 1.137 1.063 1.37 1.634 1.37 3.378 0 1.154-.207 2.1-.458 2.1-1.095 0-2.282 1.878-2.282 3.61 0 1.423.278 2.02 1.37 2.937 1.113.938 1.368 1.503 1.368 3.037s-.255 2.1-1.37 3.037c-1.09.92-1.368 1.515-1.368 2.938 0 1.732 1.187 3.61 2.282 3.61.25 0 .457.99.457 2.197 0 1.91-.178 2.328-1.37 3.208-1.163.86-1.368 1.316-1.368 3.04 0 1.72.204 2.177 1.368 3.038 1.19.882 1.37 1.298 1.37 3.21 0 1.207-.207 2.195-.458 2.195-1.095 0-2.282 1.88-2.282 3.61 0 1.424.278 2.02 1.37 2.938 1.113.938 1.368 1.503 1.368 3.037s-.255 2.1-1.37 3.037c-1.09.92-1.368 1.514-1.368 2.937 0 1.732 1.187 3.61 2.282 3.61.25 0 .457.99.457 2.197 0 1.912-.178 2.33-1.37 3.21-1.163.86-1.368 1.315-1.368 3.038 0 1.722.204 2.178 1.368 3.04 1.737 1.283 1.743 1.804.016 1.46-1.965-.394-3.414.107-4.118 1.42-.516.966-.944 1.154-2.623 1.154-1.652 0-2.202-.233-3.116-1.32-1.94-2.305-5.124-2.218-6.212.17-.447.983-.825 1.15-2.585 1.15s-2.24-.213-3.28-1.46c-.98-1.173-1.562-1.46-2.956-1.46s-1.975.288-2.955 1.46c-1.006 1.203-1.547 1.46-3.074 1.46-1.442 0-2.01-.238-2.556-1.07-.386-.59-1.334-1.334-2.106-1.654-1.752-.725-3.735-.033-4.615 1.613-.492.92-.943 1.112-2.602 1.112-1.652 0-2.202-.233-3.116-1.32-1.94-2.305-5.124-2.218-6.212.17-.447.983-.825 1.15-2.585 1.15s-2.24-.212-3.28-1.46c-1.73-2.07-4.182-2.07-5.91 0-1.046 1.252-1.518 1.46-3.302 1.46-1.686 0-2.126-.17-2.316-.897-.13-.494-.96-1.244-1.846-1.666-1.34-.642-1.834-.677-2.95-.214-.738.305-1.61 1.055-1.936 1.666-.49.918-.942 1.11-2.6 1.11-1.653 0-2.203-.232-3.117-1.318-1.94-2.306-5.124-2.22-6.212.17-.447.98-.825 1.15-2.585 1.15s-2.24-.214-3.28-1.46c-.98-1.174-1.562-1.46-2.956-1.46s-1.975.286-2.955 1.46c-1.05 1.254-1.516 1.46-3.324 1.46-1.722 0-2.158-.17-2.402-.94-.163-.516-1-1.273-1.856-1.682-1.44-.687-1.677-.687-3.117 0-.856.41-1.69 1.166-1.855 1.682-.242.764-.68.94-2.35.94-1.703 0-2.242-.226-3.163-1.32-1.94-2.306-5.124-2.22-6.212.17-.447.98-.825 1.15-2.585 1.15s-2.24-.214-3.28-1.46c-.98-1.174-1.562-1.46-2.956-1.46s-1.976.286-2.956 1.46c-1.048 1.254-1.515 1.46-3.323 1.46-1.72 0-2.157-.17-2.4-.94-.164-.516-1-1.273-1.857-1.682-1.44-.686-1.677-.686-3.117 0-.857.41-1.692 1.166-1.856 1.682-.24.762-.68.94-2.327.94-1.707 0-2.237-.233-3.334-1.46-1.01-1.13-1.678-1.46-2.938-1.46-1.688 0-3.504 1.195-3.504 2.306 0 .427-.65.614-2.135.614-1.808 0-2.314-.21-3.31-1.372-.662-.776-1.82-1.495-2.662-1.656-1.295-.246-1.69-.07-3.05 1.372-1.344 1.426-1.844 1.656-3.614 1.656-1.672 0-2.11-.175-2.352-.94-.163-.515-1-1.272-1.856-1.68-1.44-.687-1.677-.687-3.117 0-.856.408-1.69 1.165-1.855 1.68-.24.763-.68.94-2.327.94-1.707 0-2.237-.232-3.334-1.46-1.008-1.128-1.677-1.46-2.937-1.46-1.688 0-3.504 1.196-3.504 2.307 0 .428-.65.615-2.135.615-1.808 0-2.314-.21-3.31-1.372-.662-.776-1.82-1.495-2.662-1.656-1.296-.247-1.69-.07-3.05 1.372-1.345 1.425-1.845 1.655-3.615 1.655-1.67 0-2.108-.175-2.35-.94-.164-.515-1-1.272-1.857-1.68-1.44-.688-1.677-.688-3.117 0-.857.408-1.692 1.165-1.856 1.68-.24.763-.68.94-2.327.94-1.707 0-2.237-.232-3.334-1.46-1.01-1.128-1.678-1.46-2.938-1.46-1.688 0-3.504 1.196-3.504 2.307 0 .427-.65.614-2.135.614-1.808 0-2.314-.21-3.31-1.372-.662-.776-1.82-1.495-2.662-1.656-1.295-.247-1.69-.07-3.05 1.372-1.344 1.426-1.844 1.656-3.614 1.656-1.672 0-2.11-.175-2.352-.94-.163-.515-1-1.272-1.856-1.68-1.44-.688-1.677-.688-3.117 0-.856.408-1.69 1.165-1.855 1.68-.24.763-.68.94-2.327.94-1.707 0-2.237-.232-3.334-1.46-1.008-1.128-1.677-1.46-2.937-1.46-1.688 0-3.504 1.196-3.504 2.307 0 .428-.655.613-2.168.612-1.853 0-2.333-.2-3.31-1.376z" stroke="#eaffc1" stroke-linecap="round" stroke-width=".5" fill="#f6ffe5"/><path stroke="#f36b67" stroke-linecap="round" stroke-width=".743" fill="none" d="M38.82 879.3h247.3v155.2H38.82z"/><circle stroke-linejoin="bevel" cx="263.1" stroke-linecap="round" stroke="#003f42" cy="985.3" r="91.71" stroke-width="1.7" fill="none"/><circle cx="263.1" cy="985.3" r="75.8" fill="none"/><g fill="#003f42"><path d="M345.3 987.1c-3.417-.302-6.44 2.295-6.765 5.78-.132 1.5.27 2.905.993 4.076.078.112.214.16.31.08.11-.078.124-.217.063-.328-.694-1.08-1.035-2.393-.912-3.788.285-3.225 3.08-5.648 6.27-5.367 3.156.28 5.485 3.155 5.2 6.38-.124 1.412-.69 2.645-1.564 3.586-.095.078-.09.22.006.333.08.078.224.055.32-.042.913-.99 1.56-2.338 1.692-3.838.308-3.486-2.23-6.574-5.612-6.873zM336.1 1007c-.12-.03-.242.03-.276.165-.026.1.05.23.17.26l4.715 1.194c1.865.472 3.753-.638 4.226-2.504.322-1.272-.11-2.556-1-3.394l5.09 1.29c.118.03.24-.03.27-.148s-.045-.246-.163-.276l-6.582-1.668-.135-.034-4.716-1.195-.035-.01c-.05-.012-.11.01-.153.034-.047.042-.076.09-.09.14l-.008.034c-.004.017.004.055.012.093.02.06.08.112.165.133l4.836 1.225c1.543.463 2.472 2.07 2.068 3.665-.413 1.628-2.05 2.604-3.678 2.19L336.1 1007zM342.2 1019c-.088.077-.08.1.002.133.065.027.143.02.205.01l1.918-.384c.247-.05.398-.14.478-.334.126-.308-.062-.31-.123-.39-.06-.083-.22-.016-.358.04l-1.72.637c-.267.098-.27.153-.402.288zm-8.947-4.608c-.546 1.327-.288 2.815.485 3.927.07.104.213.125.295.064.095-.093.14-.207.07-.31-.724-1-.938-2.318-.445-3.515.8-1.904 3.037-2.782 4.98-1.983l.047.02-2.903 7.056c-.04.097.024.218.114.274l.017.01.032.013.016.01c2.116.7 4.39-.275 5.223-2.298.873-2.12-.192-4.545-2.38-5.483-2.182-.86-4.645.112-5.55 2.22zm7.51 3.09c-.713 1.732-2.656 2.636-4.507 2.12l2.81-6.83c1.677.936 2.42 2.945 1.696 4.71zM330.5 1021c-.122-.068-.25-.018-.3.073-.07.122-.026.226.096.294l3.505 1.943s.15.163.42.472c.364.462.926 1.254 1.24 2.128.287.82.348 1.793-.178 2.742-.068.122-.018.25.09.31.106.058.24.033.308-.09.797-1.44.352-2.946-.198-4.01-.196-.37-.417-.692-.625-.967l2.54 1.408c.108.06.234.05.302-.073.05-.092.01-.235-.098-.294l-3.505-1.942c-.038-.04-.053-.05-.092-.05L330.5 1021zM324.8 1029c-.835 1.167-.924 2.674-.427 3.934.045.118.18.17.273.13.114-.07.185-.168.14-.286-.477-1.138-.384-2.47.37-3.523 1.216-1.67 3.592-2.013 5.3-.79l.042.03-4.44 6.205c-.062.085-.027.218.048.293l.014.01.03.02.013.01c1.9 1.165 4.337.737 5.61-1.042 1.334-1.863.852-4.468-1.063-5.88-1.927-1.337-4.548-.953-5.91.89zm6.603 4.726c-1.09 1.523-3.188 1.958-4.87 1.033l4.297-6.007c1.42 1.295 1.683 3.42.573 4.972zM311.4 1044l2.598 2.865.14.156.12.13 5.042 5.562c.082.09.24.136.345.042.077-.07.06-.245-.02-.335l-3.88-4.28c1.446.58 3.13.352 4.322-.73 1.71-1.552 1.792-4.224.217-5.96-1.587-1.75-4.266-1.944-5.977-.392-1.193 1.082-1.583 2.735-1.16 4.218l-1.422-1.57c-.082-.09-.23-.097-.31-.026-.102.094-.097.23-.014.32zm3.063 2.727c-1.434-1.582-1.353-3.994.137-5.345 1.517-1.375 3.925-1.22 5.36.36 1.42 1.57 1.33 3.97-.188 5.344-1.452 1.317-3.777 1.228-5.204-.242l-.105-.117zM305.5 1048c-1.19.8-1.8 2.182-1.775 3.536 0 .126.108.223.21.217.13-.024.232-.092.232-.22-.05-1.232.503-2.447 1.578-3.17 1.723-1.14 4.07-.63 5.242 1.112l.03.044-6.33 4.26c-.088.058-.102.194-.058.29l.01.015.02.03.008.013c1.372 1.756 3.805 2.206 5.62.984 1.902-1.28 2.36-3.888 1.06-5.882-1.337-1.926-3.927-2.482-5.848-1.23zm4.534 6.736c-1.553 1.046-3.67.72-4.925-.736l6.126-4.122c.876 1.71.38 3.794-1.202 4.86zM294.6 1055c-.046-.114-.183-.172-.296-.126-.114.046-.155.177-.11.29l1.957 4.834-3.13 1.268c-1.735.703-2.597 2.676-1.888 4.428.71 1.752 2.708 2.585 4.444 1.882l3.293-1.333.03-.013c.115-.046.172-.182.126-.296l-4.426-10.93zm1.722 5.42l2.22 5.483-3.13 1.268c-1.51.612-3.24-.122-3.86-1.647-.616-1.525.13-3.224 1.64-3.835l3.13-1.267zM285.2 1058c-.037-.135-.16-.192-.262-.164-.136.037-.18.14-.143.274l1.052 3.867s-.013.22-.047.63c-.077.583-.252 1.537-.66 2.373-.387.777-1.043 1.5-2.09 1.784-.135.037-.192.16-.16.28s.145.196.28.16c1.587-.432 2.357-1.803 2.737-2.94.128-.397.205-.78.257-1.122l.763 2.803c.032.12.127.202.262.165.1-.028.174-.157.142-.275l-1.052-3.867c.003-.055 0-.072-.028-.1L285.2 1058zM277.7 1060c-.022-.12-.127-.208-.265-.183-.103.02-.187.142-.165.262l1.472 8.002c.025.138.14.188.244.17.138-.026.21-.11.186-.25L277.7 1060zm1.894 10.29c-.02-.103-.124-.19-.262-.165-.103.02-.187.14-.168.244l.076.412c.025.138.144.205.247.186.138-.025.208-.127.183-.265l-.076-.413zM266.4 1061c-.01-.122-.088-.22-.227-.21-.122.01-.22.122-.21.245l.385 4.866c.152 1.92 1.826 3.333 3.71 3.184 1.29-.102 2.368-.906 2.877-2.018l.124 1.57c.01.14.103.203.225.193.122-.01.222-.09.21-.228l-.245-3.105-.01-.14-.385-4.867-.003-.035c-.003-.035-.023-.068-.042-.084 0-.017 0-.017-.02-.033s-.038-.032-.056-.03c-.018-.017-.036-.016-.055-.032h-.07c-.07.01-.12.044-.15.1-.033.038-.046.09-.042.144l.385 4.866c.133 1.692-1.14 3.127-2.78 3.257-1.64.13-3.105-1.09-3.24-2.78l-.384-4.868zM262.5 1065c.127-2.342-1.743-4.37-4.17-4.52-1.015-.055-1.995.242-2.777.778-.092.083-.1.205-.035.314.066.09.204.116.295.07.71-.49 1.584-.774 2.493-.725 2.22.12 3.873 1.945 3.758 4.06-.115 2.114-1.956 3.75-4.175 3.63-.91-.05-1.75-.41-2.402-.972-.1-.076-.224-.082-.298 0-.076.1-.084.24 0 .333.718.635 1.66 1.02 2.675 1.074 2.43.132 4.508-1.683 4.636-4.042zM249 1060c-1.41-.27-2.815.283-3.75 1.263-.088.09-.08.234-.004.302.11.074.23.097.32.01.832-.91 2.08-1.385 3.352-1.142 2.025.404 3.334 2.417 2.94 4.48l-.01.052-7.494-1.428c-.103-.02-.208.067-.245.167l-.004.017-.007.035-.004.017c-.262 2.213 1.15 4.246 3.3 4.655 2.25.43 4.413-1.1 4.893-3.432.403-2.31-1.044-4.528-3.29-4.99zm-1.52 7.976c-1.84-.35-3.115-2.072-2.98-3.988l7.253 1.382c-.58 1.83-2.4 2.963-4.273 2.606z"/></g><g fill="#003f42"><path d="M200.2 942.9c.963-1.473 1.352-3.13 1.22-4.72-.055-.61-.614-1.07-1.23-1.044-.62.072-1.09.648-1.058 1.22.11 1.146-.162 2.258-.84 3.296-.755 1.155-1.924 1.92-3.175 2.226-1.23.272-2.573.063-3.712-.68-1.14-.745-1.837-1.87-2.115-3.127-.223-1.267.01-2.645.763-3.8.678-1.038 1.598-1.75 2.682-2.094.553-.188.89-.852.69-1.46-.22-.575-.85-.89-1.448-.708-1.51.52-2.87 1.54-3.833 3.014-2.17 3.36-1.29 7.9 2.013 10.08 3.343 2.16 7.854 1.142 10.04-2.207zM204.6 923.8c-.434-.414-1.113-.398-1.513.022-.36.376-.36.928-.08 1.36-.916.178-1.783.594-2.473 1.318-.938.984-1.333 2.24-1.26 3.496.058 1.243.61 2.46 1.61 3.413.985.937 2.227 1.43 3.486 1.443 1.245-.002 2.464-.47 3.403-1.454.69-.725 1.08-1.597 1.213-2.52.43.244.982.217 1.34-.16.4-.42.384-1.097-.036-1.498l-2.837-2.705-2.852-2.718zm2.342 6.24c.03.69-.236 1.377-.72 1.884-.496.52-1.168.82-1.847.808-.707-.01-1.422-.305-2.015-.87-.608-.58-.936-1.28-.966-1.972-.074-.706.193-1.39.69-1.912.482-.507 1.154-.806 1.876-.78.693-.003 1.42.277 2.03.856.593.566.907 1.28.952 1.986zM210.4 917.5l-.39.315-1.824-2.254c-.39-.48-1.065-.552-1.547-.162s-.57 1.078-.18 1.56l1.826 2.254-.45.365c-.482.39-.553 1.065-.163 1.547.378.466 1.065.553 1.547.163l.45-.365 3.513 4.336c.768.948 2.174 1.096 3.122.328.482-.39.553-1.065.162-1.547-.39-.483-1.078-.57-1.56-.18l-3.512-4.335.39-.315c.465-.378.555-1.093.177-1.56-.39-.482-1.096-.527-1.563-.15zM223.3 920.7c1.208-.746 1.992-1.723 2.353-3.004.17-.6-.314-1.005-.683-1.106-.39-.136-1.12.244-1.245.84-.226.585-.863 1.19-1.507 1.517-.627.317-1.497.43-2.107.243-.484-.1-.944-.428-1.27-.767l5.41-3.34c.478-.295.667-.788.466-1.228-.004-.044-.056-.13-.077-.163l-.054-.085c-1.554-2.214-4.326-2.782-6.54-1.417-2.33 1.44-2.937 4.493-1.525 6.818 1.447 2.304 4.438 3.114 6.78 1.692zm-4.254-6.893c1.554-.795 3.042-.326 3.632.25l-4.816 2.972c-.295-.783-.22-2.262 1.184-3.223zM236.7 908.8l-1.495-3.69c-.218-.537-.824-.81-1.38-.583-.482.195-.755.694-.667 1.177-.863-.212-1.835-.163-2.8.228-1.222.495-2.135 1.49-2.594 2.648-.444 1.194-.48 2.546.04 3.825.525 1.298 1.49 2.244 2.618 2.737 1.15.548 2.5.627 3.722.132.91-.368 1.648-.992 2.128-1.725.217 1.227-.42 2.478-1.625 2.966-.39.157-.78.207-1.162.168-.61-.012-1.11.406-1.147 1.004-.056.606.414 1.127.986 1.154.695.064 1.448-.047 2.134-.325 2.465-1 3.63-3.823 2.646-6.25l-1.397-3.45-.008-.018zm-1.914 2.998c-.28.696-.75 1.188-1.453 1.473-.65.264-1.366.252-2.013-.068-.618-.246-1.2-.83-1.515-1.61-.3-.74-.29-1.565-.025-2.19.235-.7.734-1.225 1.382-1.488.705-.285 1.392-.24 2.084.084.588.28 1.17.863 1.47 1.605.316.778.305 1.603.07 2.195zM246.9 911.3c1.29-.284 2.336-1.11 2.935-2.203.69-1.053.91-2.372.61-3.74-.293-1.327-1.035-2.372-2.12-3.116-1.003-.74-2.3-1.05-3.59-.765-1.347.297-2.355 1.113-3.03 2.224-.634 1.122-.888 2.386-.596 3.714.3 1.367 1.075 2.466 2.104 3.14 1.08.726 2.34 1.042 3.686.746zm-3.407-6.54c.394-.537.97-.992 1.712-1.155.684-.15 1.377.024 1.96.346.605.42 1.033 1.064 1.21 1.864.184.84.06 1.584-.307 2.238-.385.577-.954.968-1.638 1.12-.742.163-1.443.05-2.034-.31-.57-.448-.974-1.076-1.16-1.915-.175-.8-.076-1.56.257-2.186zM258.8 899.5c-1 .06-1.827.485-2.45.976-.133.11-.28.283-.388.432l-.01-.14c-.047-.578-.582-.997-1.18-.95-.578.046-1.02.542-.975 1.12l.62 7.856c.047.578.563 1.02 1.14.973.6-.047 1.06-.565 1.014-1.143l-.298-3.788c.077-.287.257-1.064.685-1.74.21-.396.48-.76.84-1.03.32-.285.71-.436 1.167-.472.598-.047 1.017-.582.973-1.14-.045-.578-.54-1-1.14-.953zM270.3 899.7c-.6-.033-1.064.402-1.097 1l-.26 4.714c-.063 1.158-1.03 1.986-2.168 1.924-1.138-.063-2.03-.993-1.965-2.15l.26-4.714c.032-.6-.382-1.083-1-1.117-.54-.03-1.065.402-1.098 1l-.26 4.714c-.125 2.298 1.648 4.298 3.944 4.424.66.036 1.347-.086 1.923-.375-.378 1.02-1.418 1.724-2.597 1.68-.4-.023-.773-.144-1.143-.344-.465-.286-1.156-.104-1.442.36-.27.547-.105 1.177.44 1.447.584.333 1.312.573 2.03.612 2.656.146 4.888-1.834 5.035-4.51l.156-2.836.258-4.714c.033-.6-.44-1.086-1.02-1.118z"/></g><circle stroke-linejoin="bevel" stroke-width=".663" stroke-linecap="round" stroke="#003f42" cy="985.3" cx="263.1" r="73.85" fill="none"/></g></svg>