<svg xmlns="http://www.w3.org/2000/svg" height="70mm" width="110mm" viewBox="0 0 389.76378 248.03148"><g transform="translate(32.224 -833.25)"><path stroke-linejoin="bevel" d="M27.926 1047.05c-.653-.786-1.768-1.49-2.606-1.648-1.22-.23-1.696-.043-2.852 1.113l-1.387 1.387v-1.334c0-.85.237-1.334.652-1.334 1.007 0 2.543-2.255 2.543-3.733 0-1.307-1.72-3.568-2.718-3.568-.268 0-.477-1-.477-2.282s.21-2.282.477-2.282c1.085 0 2.717-2.262 2.703-3.745-.016-1.685-.635-2.69-2.153-3.5-.804-.428-1.027-.944-1.027-2.386 0-1.512.285-2.11 1.597-3.347 1.982-1.87 2.153-3.852.478-5.527-.617-.616-1.335-1.12-1.597-1.12-.27 0-.478-1-.478-2.282 0-1.672.174-2.28.652-2.28.983 0 2.543-2.24 2.543-3.652s-1.56-3.65-2.543-3.65c-.478 0-.652-.61-.652-2.283 0-1.283.21-2.282.478-2.282 1.085 0 2.717-2.262 2.703-3.745-.016-1.685-.635-2.69-2.152-3.5-.805-.428-1.027-.944-1.027-2.386 0-1.512.286-2.11 1.598-3.347 1.982-1.87 2.153-3.852.477-5.527-.616-.616-1.335-1.12-1.597-1.12-.27 0-.477-1-.477-2.282 0-1.673.175-2.282.652-2.282.983 0 2.543-2.24 2.543-3.65s-1.56-3.652-2.543-3.652c-.477 0-.65-.61-.65-2.282 0-1.286.207-2.282.477-2.282.926 0 2.716-2.424 2.716-3.68 0-1.892-.428-2.67-1.88-3.422-1.12-.578-1.315-.953-1.315-2.524 0-1.517.285-2.112 1.598-3.35 1.982-1.87 2.153-3.853.477-5.528-.616-.616-1.335-1.12-1.597-1.12-.268 0-.477-1-.477-2.282s.21-2.282.478-2.282c.996 0 2.718-2.26 2.718-3.57 0-1.478-1.536-3.732-2.543-3.732-.478 0-.652-.61-.652-2.282 0-1.255.18-2.282.396-2.282.915 0 2.8-2.474 2.8-3.676 0-1.897-.427-2.675-1.88-3.427-1.12-.577-1.314-.952-1.314-2.523 0-1.517.283-2.112 1.597-3.35 1.98-1.87 2.152-3.853.476-5.528-.616-.617-1.335-1.12-1.597-1.12-.27 0-.478-1-.478-2.283s.208-2.282.477-2.282c.995 0 2.717-2.26 2.717-3.57 0-1.478-1.536-3.732-2.543-3.732-.478 0-.652-.61-.652-2.282 0-1.254.178-2.28.394-2.28.916 0 2.8-2.475 2.8-3.677 0-1.897-.426-2.675-1.88-3.427-1.12-.578-1.314-.953-1.314-2.524 0-1.517.284-2.112 1.597-3.35 1.98-1.87 2.152-3.853.476-5.528-.616-.616-1.335-1.12-1.597-1.12-.263 0-.478-.628-.478-1.395 0-1.35.033-1.373 1.014-.686 1.716 1.202 4.193.915 5.677-.658 1.084-1.148 1.643-1.37 3.462-1.37 1.193 0 2.17.206 2.17.457 0 1.047 1.876 2.282 3.467 2.282 1.236 0 1.96-.338 2.92-1.37 1.026-1.096 1.657-1.368 3.18-1.368 1.55 0 2.112.252 3.052 1.37 1.63 1.935 4.164 1.935 5.793 0 .94-1.12 1.5-1.37 3.052-1.37 1.522 0 2.153.272 3.178 1.37 1.787 1.912 4.17 1.912 5.848 0 1.02-1.164 1.53-1.37 3.382-1.37 1.2 0 2.18.206 2.18.457 0 1.047 1.877 2.282 3.468 2.282 1.236 0 1.96-.34 2.922-1.37 1.822-1.95 4.59-1.95 6.23 0 1.63 1.937 4.165 1.937 5.794 0 1.642-1.95 4.41-1.95 6.23 0 1.784 1.91 4.152 1.91 5.934 0 1.063-1.136 1.634-1.368 3.378-1.368 1.154 0 2.1.205 2.1.456 0 1.047 1.876 2.282 3.467 2.282 1.237 0 1.96-.338 2.923-1.37 1.025-1.096 1.656-1.368 3.18-1.368 1.55 0 2.11.252 3.05 1.37.91 1.08 1.52 1.368 2.898 1.368s1.987-.288 2.898-1.37c.94-1.117 1.5-1.368 3.052-1.368 1.523 0 2.154.272 3.18 1.37.974 1.043 1.68 1.368 2.966 1.368s1.99-.325 2.967-1.37c1.063-1.136 1.634-1.368 3.378-1.368 1.155 0 2.1.205 2.1.456 0 1.047 1.877 2.282 3.468 2.282 1.236 0 1.96-.338 2.922-1.37 1.047-1.12 1.644-1.368 3.292-1.368 1.708 0 2.167.208 3.025 1.37 1.442 1.95 4.066 1.95 5.707 0 .94-1.12 1.5-1.37 3.052-1.37 1.523 0 2.154.272 3.18 1.37 1.782 1.907 4.15 1.907 5.932 0 1.063-1.138 1.634-1.37 3.378-1.37 1.154 0 2.1.206 2.1.457 0 1.043 1.876 2.282 3.457 2.282 1.205 0 1.99-.358 3.002-1.37 1.09-1.09 1.763-1.368 3.302-1.368 1.618 0 2.098.222 2.945 1.368 1.442 1.95 4.066 1.95 5.707 0 .94-1.118 1.5-1.37 3.05-1.37 1.524 0 2.155.273 3.18 1.37.975 1.044 1.68 1.37 2.967 1.37s1.99-.327 2.967-1.37c1.063-1.137 1.634-1.37 3.378-1.37 1.154 0 2.1.206 2.1.457 0 1.043 1.876 2.282 3.457 2.282 1.204 0 1.99-.358 3-1.37 1.09-1.09 1.764-1.368 3.303-1.368 1.618 0 2.098.222 2.945 1.368 1.442 1.95 4.066 1.95 5.707 0 .94-1.118 1.5-1.37 3.052-1.37 1.523 0 2.154.273 3.18 1.37 1.782 1.908 4.15 1.908 5.932 0 1.062-1.137 1.633-1.37 3.377-1.37 1.154 0 2.1.207 2.1.458 0 1.043 1.876 2.282 3.457 2.282 1.205 0 1.99-.36 3.002-1.37 1.09-1.09 1.763-1.368 3.302-1.368 1.618 0 2.098.222 2.945 1.37.815 1.1 1.35 1.368 2.738 1.368 1.67 0 3.725-1.27 3.725-2.3 0-.242 1.13-.44 2.51-.44 1.883 0 2.51.165 2.51.66 0 1.004 1.846 2.08 3.57 2.08 1.124 0 1.887-.37 2.82-1.37 1.063-1.136 1.634-1.368 3.378-1.368 1.154 0 2.1.205 2.1.456 0 1.043 1.876 2.282 3.457 2.282 1.205 0 1.99-.358 3.002-1.37 1.09-1.09 1.763-1.368 3.302-1.368 1.635 0 2.095.22 2.985 1.423.96 1.3 1.223 1.403 3.05 1.197 1.638-.184 2-.09 2 .517-.002.41-.618 1.092-1.37 1.52-1.197.68-1.366 1.03-1.366 2.812 0 1.7.225 2.223 1.37 3.186 1.152.97 1.368 1.48 1.368 3.235 0 1.147-.166 2.084-.37 2.084-1.098 0-2.368 1.968-2.368 3.67 0 1.754 1.18 3.632 2.282 3.632.25 0 .456.988.456 2.196 0 1.91-.177 2.328-1.37 3.208-1.13.836-1.368 1.335-1.368 2.87 0 1.474.282 2.12 1.37 3.135 1.116 1.043 1.368 1.645 1.365 3.264-.003 1.725-.182 2.085-1.37 2.76-1.197.682-1.366 1.03-1.366 2.813 0 1.7.225 2.224 1.37 3.187 1.152.97 1.368 1.48 1.368 3.235 0 1.146-.166 2.083-.37 2.083-1.098 0-2.368 1.968-2.368 3.67 0 1.754 1.18 3.632 2.282 3.632.25 0 .457.988.457 2.196 0 1.91-.178 2.328-1.37 3.208-1.13.836-1.368 1.335-1.368 2.87 0 1.474.28 2.12 1.37 3.135 1.116 1.042 1.368 1.644 1.365 3.263-.002 1.726-.182 2.086-1.37 2.762-1.196.68-1.365 1.03-1.365 2.812 0 1.7.225 2.224 1.37 3.187 1.152.97 1.368 1.48 1.368 3.235 0 1.145-.167 2.082-.37 2.082-1.1 0-2.37 1.968-2.37 3.67 0 1.754 1.18 3.632 2.283 3.632.25 0 .457.988.457 2.196 0 1.91-.178 2.328-1.37 3.208-1.13.836-1.368 1.335-1.368 2.87 0 1.474.28 2.12 1.37 3.135 1.136 1.063 1.368 1.634 1.368 3.378 0 1.155-.206 2.1-.457 2.1-1.095 0-2.282 1.88-2.282 3.61 0 1.424.278 2.02 1.37 2.938 1.113.938 1.368 1.503 1.368 3.037s-.255 2.1-1.37 3.037c-1.09.92-1.368 1.514-1.368 2.937 0 1.73 1.187 3.61 2.282 3.61.25 0 .457.988.457 2.196 0 1.91-.178 2.328-1.37 3.208-1.163.86-1.368 1.316-1.368 3.04 0 1.72.205 2.177 1.37 3.038 1.19.88 1.368 1.297 1.368 3.208 0 1.208-.206 2.196-.457 2.196-1.095 0-2.282 1.88-2.282 3.61 0 1.424.278 2.02 1.37 2.938 1.113.938 1.368 1.503 1.368 3.037s-.255 2.1-1.37 3.038c-1.09.92-1.368 1.514-1.368 2.937 0 1.732 1.187 3.61 2.282 3.61.25 0 .457.99.457 2.197 0 1.91-.178 2.328-1.37 3.208-1.163.86-1.368 1.316-1.368 3.04 0 1.72.205 2.177 1.37 3.038 1.736 1.284 1.742 1.805.015 1.46-1.965-.393-3.414.108-4.118 1.422-.516.965-.944 1.153-2.623 1.153-1.653 0-2.203-.233-3.117-1.32-1.94-2.305-5.124-2.218-6.212.17-.446.983-.824 1.15-2.584 1.15-1.76 0-2.24-.213-3.28-1.46-.98-1.173-1.562-1.46-2.956-1.46s-1.975.288-2.955 1.46c-1.005 1.203-1.546 1.46-3.073 1.46-1.442 0-2.01-.238-2.556-1.07-.386-.59-1.334-1.334-2.106-1.654-1.752-.726-3.735-.034-4.615 1.612-.49.92-.942 1.11-2.6 1.11-1.653 0-2.203-.232-3.117-1.318-1.94-2.306-5.124-2.22-6.212.17-.447.982-.825 1.15-2.585 1.15s-2.238-.213-3.28-1.46c-1.73-2.07-4.18-2.07-5.91 0-1.045 1.25-1.517 1.46-3.3 1.46-1.687 0-2.127-.17-2.317-.898-.13-.494-.96-1.244-1.846-1.666-1.342-.64-1.835-.676-2.952-.213-.737.305-1.608 1.055-1.935 1.666-.49.918-.942 1.11-2.6 1.11-1.653 0-2.203-.232-3.117-1.318-1.94-2.306-5.124-2.22-6.212.17-.446.98-.824 1.15-2.584 1.15-1.76 0-2.24-.214-3.28-1.46-.98-1.174-1.562-1.46-2.956-1.46s-1.975.286-2.955 1.46c-1.048 1.254-1.515 1.46-3.323 1.46-1.722 0-2.158-.17-2.402-.94-.163-.516-1-1.273-1.856-1.682-1.44-.687-1.677-.687-3.117 0-.857.41-1.692 1.166-1.856 1.682-.24.764-.678.94-2.35.94-1.702 0-2.24-.226-3.162-1.32-1.94-2.306-5.124-2.22-6.212.17-.447.98-.825 1.15-2.585 1.15s-2.238-.214-3.28-1.46c-.98-1.174-1.56-1.46-2.955-1.46s-1.975.286-2.955 1.46c-1.048 1.254-1.515 1.46-3.323 1.46-1.722 0-2.158-.17-2.402-.94-.163-.516-1-1.273-1.856-1.682-1.44-.686-1.678-.686-3.118 0-.857.41-1.692 1.166-1.856 1.682-.24.762-.68.94-2.327.94-1.708 0-2.238-.233-3.335-1.46-1.008-1.13-1.677-1.46-2.937-1.46-1.688 0-3.504 1.195-3.504 2.306 0 .428-.65.615-2.135.615-1.81 0-2.315-.21-3.31-1.372-.663-.776-1.822-1.495-2.663-1.656-1.296-.246-1.69-.07-3.05 1.372-1.345 1.425-1.845 1.655-3.615 1.655-1.672 0-2.11-.175-2.352-.94-.163-.515-1-1.272-1.856-1.68-1.44-.687-1.677-.687-3.117 0-.857.408-1.692 1.165-1.856 1.68-.24.763-.68.94-2.326.94-1.707 0-2.237-.232-3.334-1.46-1.008-1.128-1.677-1.46-2.937-1.46-1.688 0-3.504 1.196-3.504 2.307 0 .427-.65.614-2.136.614-1.808 0-2.314-.21-3.31-1.372-.662-.776-1.82-1.495-2.662-1.656-1.296-.247-1.69-.07-3.05 1.372-1.345 1.426-1.845 1.656-3.615 1.656-1.672 0-2.11-.175-2.352-.94-.163-.515-1-1.272-1.856-1.68-1.44-.688-1.678-.688-3.118 0-.857.408-1.692 1.165-1.856 1.68-.24.763-.68.94-2.327.94-1.708 0-2.238-.232-3.335-1.46-1.008-1.128-1.677-1.46-2.937-1.46-1.688 0-3.504 1.196-3.504 2.307 0 .427-.65.614-2.135.614-1.81 0-2.315-.21-3.31-1.372-.663-.776-1.822-1.495-2.663-1.656-1.296-.248-1.69-.07-3.05 1.37-1.345 1.427-1.845 1.657-3.615 1.657-1.672 0-2.11-.175-2.352-.94-.163-.515-1-1.272-1.856-1.68-1.44-.688-1.677-.688-3.117 0-.857.408-1.692 1.165-1.856 1.68-.24.763-.68.94-2.326.94-1.707 0-2.237-.232-3.334-1.46-1.008-1.128-1.677-1.46-2.937-1.46-1.688 0-3.504 1.196-3.504 2.307 0 .428-.656.613-2.17.612-1.852 0-2.332-.2-3.308-1.376z" stroke="#eaffc1" stroke-linecap="round" stroke-width=".5" fill="#f6ffe5"/><path stroke="#f36b67" stroke-linecap="round" stroke-width=".743" fill="none" d="M38.82 879.3h247.3v155.2H38.82z"/><g fill="#333" color="#000"><path opacity=".98" d="M55.347 929.908c1.3-1.505 2.855-2.76 4.28-4.144 1.38-1.38 2.802-2.783 3.756-4.504.32-.98-.055-.656.175-.015.106.155.272.393.287.397 1.405-.01 2.2-.644 2.57-2.086.13-.506-.22-1.33-.03-.863-.025-.07-.145-.24-.078-.208.028.014.876 1.458.952 1.575.867 1.404 1.472 2.943 2.204 4.418 1.233 2.376 2.584 4.692 3.944 6.998 1.78 2.848 3.498 5.737 5.123 8.676 1.656 2.918 2.903 6.03 3.895 9.227.444 1.84 1.204 4.863-.522 6.34-.522.445-1.23.614-1.843.922-.598-.06-1.212-.038-1.796-.185-1.494-.378-3.01-1.965-3.746-3.264-.204-.36-.347-.753-.52-1.13-.247-1.16-.445-1.538-.22-2.744.09-.484.304-.935.456-1.402 1.347-3.386 6.137-1.48 4.79 1.906-.134.058-.23.088-.278.237.115.414.306.727.58 1.06.224.273.354.343.3.366-.212.086-.45.08-.673.122-.312.242-.683.422-.936.724-.16.19-.2.46-.257.7-.01.047.05.174.064.13.21-.727-.283-1.556-.325-2.26-.88-2.865-2.002-5.646-3.483-8.257-1.6-2.9-3.298-5.743-5.05-8.55-1.423-2.415-2.838-4.84-4.124-7.33-.646-1.308-1.193-2.667-1.93-3.93-.472-.743-.932-1.495-1.334-2.278-.877-2.303.523-4.257 2.97-4.018 1.23.203 2.343.686 3.167 1.665.174.28.382.542.52.84.737 1.59.328 3.3-.394 4.8-1.248 2.103-2.865 3.937-4.632 5.624-1.295 1.25-2.695 2.402-3.904 3.738-2.333 2.8-6.293-.5-3.96-3.3z"/><path opacity=".98" d="M77.547 925.578c-.05 1.382.382 2.67.898 3.93.49.91 1.187 2.545 2.336 2.787.072-.08-.075-.136-.055-.203.012-.037 1.253-1.17 1.308-1.226.653-.83 1.44-1.79 1.414-2.904-.152-.387-.46-.712-.695-1.055.29.066-.856-.876-.5-.68.61.336-.8 1.603 1.47.87 1.128-.365 1.94-1.36 2.91-2.04.21.276-.07-.643.05-.517.09.097.088.25.142.37.06.133.13.262.2.39.36.67.257.484.698 1.104 1.15 1.52 2.698 2.562 4.346 3.466 1 .532 2.078.896 3.195 1.07.295.037.593.032.89.023 3.642-.112 3.8 5.04.158 5.152-.63.02-1.263.006-1.888-.09-1.696-.287-3.337-.825-4.853-1.647-2.387-1.333-4.462-2.83-6.1-5.06-1.01-1.51-2.026-3.15-1.933-5.036.982-.76 1.776-1.866 2.947-2.284 1.007-.36 2.025 1.337 2.52 1.992.963 1.407 1.666 2.71 1.572 4.49-.048.364-.068.733-.145 1.092-.405 1.902-1.52 3.555-2.797 4.982-1.566 1.5-3.33 2.922-5.65 2.73-.47-.038-.918-.21-1.377-.316-.374-.194-.768-.355-1.125-.582-1.806-1.153-2.94-3.072-3.82-4.964-.816-2.076-1.43-4.226-1.227-6.484.453-3.617 5.567-2.977 5.115.64zM101.547 924.128c-.506-.08-1.242-.335-1.694.038-.213.146-.457.332-.614.538-.015.018 0 .065.022.06.05-.007.1-.044.13-.086.064-.09.097-.198.145-.296.366-.075-.137-.536.04-.673.065-.05.157.046.23.08.823.36 1.62.66 2.477.935 2.57.68 5.21 1.016 7.818 1.5 2.212.51 4.435 1.075 4.213 4.047-.043.576-.538 1.023-.807 1.534-1.474 1.374-3.413 1.873-5.336 2.26-.873.147-.46.082-1.24.196-3.606.522-4.344-4.58-.737-5.1.618-.09.292-.04.98-.153.6-.117 1.19-.236 1.77-.43.06-.022.68-.266.697-.255.05.033-.05.107-.075.16-.445 1.276-.644 1.202.257 2.776.137.24.455.31.687.455.03.018-.04-.056-.073-.068-.325-.124-.968-.276-1.276-.354-2.83-.528-5.7-.88-8.478-1.668-2.21-.732-4.936-1.59-5.956-3.936-.205-.473-.226-1.004-.34-1.506.062-.445.062-.903.186-1.334.486-1.69 1.995-2.805 3.5-3.52.344-.112.68-.25 1.033-.334 1.413-.337 2.886-.108 4.252.305 3.413 1.28 1.603 6.107-1.81 4.827zM117.147 908.108c.696 2.327 1.866 4.492 2.932 6.665 1.736 3.376 3.628 6.676 5.87 9.74.375.364.716 1.158 1.267 1.367 2.946 2.146-.088 6.312-3.035 4.166-.92-.728-1.748-1.5-2.396-2.495-2.41-3.314-4.474-6.857-6.335-10.51-1.312-2.675-2.792-5.358-3.42-8.295-.45-3.617 4.663-4.256 5.116-.64z"/><path opacity=".98" d="M116.547 918.268c1.066-.912 2.288-1.617 3.495-2.323 3.15-1.836 5.745 2.617 2.596 4.453-.94.546-1.9 1.084-2.737 1.784-2.766 2.372-6.12-1.542-3.353-3.913zM131.847 917.028c1-1.038 2.164-1.905 3.11-2.994.024-.053.11-.202.07-.16-.638.663-.275 1.73.192 2.355.26.35.567.447.922.594-.418.343-1.552.73-1.518 1.377.324-.02.185-.627.344-.724.067-.04.157.02.23.045 1.742.58-1.024-.23 1.343.44 2.436.596 4.942.305 7.384-.085 3.6-.566 4.4 4.526.8 5.092-3.24.502-6.547.79-9.754-.1-1.16-.394-1.897-.552-2.917-1.264-1.435-1-2.423-2.433-2.36-4.248.018-.52.236-1.016.355-1.524.24-.403.436-.835.716-1.21 1.204-1.614 3.172-2.58 5.105-2.942 1.16.056 1.886-.092 2.864.78 1.676 1.497 1.272 3.447.076 5.003-1.035 1.148-2.212 2.137-3.316 3.213-2.577 2.577-6.222-1.067-3.645-3.645zM175.547 908.798c.18 1.086.76 2.038 1.352 2.945.576.86 1.306 1.625 2.23 2.11.153.065.307.122.452.008.024-.017.024-.06.05-.073 1.023-.51-.18.215.734-.36 1.292-.81 2.505-1.772 3.477-2.952.184-.302.46-.617.53-.98.003-.016-.035.012-.047.002-.016-.014-.004-.075-.02-.062-.03.024-.025.072-.037.11l.015.246c-.017-.026-.048-.112-.05-.08-.003.02.045.132.042.172.582.58 2.202.63 2.696.052.43-.503.694-1.126 1.04-1.69.072-.564-.11-.825.21-.134.25.54.152.343.44.84.788 1.236 1.776 2.317 2.784 3.374.77.777 1.588 1.598 2.612 2.03 3.295 1.554 1.096 6.216-2.2 4.66-1.573-.77-2.957-1.846-4.146-3.136-1.304-1.37-2.567-2.79-3.55-4.414-.654-1.19-1.327-2.428-1.268-3.827.355-.628.608-1.325 1.064-1.884.194-.238.518-.36.818-.423 1.098-.233 1.957-.083 2.806.597.928.804 1.573 1.794 1.805 3.018.017.3.06.598.054.897-.028 1.502-.804 2.83-1.687 3.99-1.442 1.645-3.11 3.08-5.016 4.17-.36.177-.712.377-1.085.528-1.684.682-3.478.625-5.092-.206-1.608-.956-2.985-2.207-4-3.793-.995-1.566-1.88-3.223-2.13-5.092-.453-3.617 4.66-4.256 5.114-.64zM204.747 904.688c-.012 1.78.246 3.556.556 5.306.23 1.533.628 3.03 1.154 4.486.05.134.094.272.152.403.016.036-.004-.084-.025-.118-.108-.17-.185-.38-.357-.482-.49-.286-1.01-.708-1.575-.648-1.513.16-1.7.487-2.212 1.216.154-.898.183-1.81.215-2.72.036-1.326.035-2.652.035-3.978.044-1.715.526-3.005 1.61-4.324 1.378-1.353 3.186-1.632 5.032-1.67 2.222.073 4.255.986 6.244 1.888 1.783.838 3.394 1.97 4.84 3.3.96.913 1.787 1.942 2.615 2.97.722.847 1.318 1.792 1.936 2.714.456.698.964 1.354 1.58 1.918.03.026.5.363.338.17 3.562.774 2.467 5.812-1.094 5.038-1.04-.27-1.965-.697-2.76-1.438-.895-.844-1.677-1.785-2.346-2.82-.533-.797-1.042-1.617-1.666-2.347-.676-.838-1.343-1.685-2.12-2.436-1.01-.974-2.195-1.752-3.453-2.374-1.312-.597-2.643-1.27-4.093-1.427-.476-.018-.313-.03-.805.027-.14.017-.292.103-.424.05-.052-.022.122-.18.052-.163-.02.01-.05.054-.063.033-.02-.036.035-.158.014-.122-.18.305-.265.665-.282 1.014 0 1.388 0 2.776-.038 4.164-.054 1.474-.097 2.973-.555 4.388-.548 1.193-.632 1.754-2.622 2.086-1.596.266-2.592-1.372-3.02-2.56-.624-1.736-1.1-3.52-1.38-5.343-.358-2.045-.652-4.117-.635-6.198 0-3.646 5.154-3.646 5.154 0zM72.447 984.518c1.58 1.99 3.03 4.078 4.507 6.145 2.183 2.937 4.2 5.988 6.157 9.078.994 1.534 1.778 3.21 2.92 4.643 2.235 2.88-1.836 6.04-4.07 3.16-1.214-1.585-2.17-3.336-3.202-5.043-1.908-3.01-3.87-5.982-6-8.842-1.45-2.034-2.877-4.09-4.434-6.047-2.187-2.915 1.937-6.007 4.123-3.092z"/><path opacity=".98" d="M66.247 988.118c-.305-1.94.176-3.874 1.37-5.444.284-.37.627-.692.94-1.038 2.03-1.78 4.617-2.767 7.328-2.755.617.004 1.228.103 1.843.154 2.933.544 5.58 1.97 7.567 4.212.333.375.613.795.92 1.192 1.188 2.02 1.837 4.463.22 6.495-.298.374-.708.643-1.06.965-1.038.688-2.172.778-3.37.825-3.643.08-3.755-5.074-.11-5.153.237.005.514-.094.42.18-.063.125-.303.516-.07.656.252.152-.155-1.115-.166-.893-1.178-1.702-2.833-2.893-4.87-3.35-.336-.046-.67-.12-1.008-.137-1.396-.074-2.797.34-3.916 1.17-.533.485-.92.965-1.037 1.673.883 3.535-4.117 4.785-5 1.25zM89.947 979.018c1.535-.18 2.946-.864 4.225-1.7.5-.503 1.667-1.108 1.86-1.854.01-.038-.09.008-.11.043-.076.135-.107.29-.16.437.093.692 0 .658.302 1.144.047.074.15.12.164.205.008.043-.075.045-.116.06-.26.09-.527.16-.788.244-.943.456-2.133 1.086-2.436 2.187-.038.14-.03.287-.045.43.647 1.374 1.898 2.117 3.186 2.804 2.292 1.072 4.462 1.245 6.938.992l.953-.203c3.576-.71 4.58 4.345 1.005 5.056l-1.477.28c-1.307.114-1.766.197-3.1.135-2.384-.11-4.694-.72-6.84-1.763-.54-.313-1.106-.586-1.622-.937-2.015-1.37-3.768-3.432-4.062-5.94-.07-.61.04-1.225.062-1.837.176-.524.292-1.072.527-1.573 1.08-2.305 3.3-3.77 5.613-4.617.428-.1.848-.24 1.283-.303 1.77-.258 3.963.117 4.992 1.78.304.492.406 1.082.61 1.622-.038.488-.003.988-.113 1.466-.464 2-2.367 3.318-3.87 4.497-2 1.238-4.1 2.23-6.47 2.474-3.626.363-4.138-4.766-.512-5.13zM111.947 973.218c.29 1.59.918 3.02 1.86 4.325.914 1.055 1.95 2.16 3.39 2.362.882-.18 1.485-1.034 2.017-1.698.78-1.116 1.38-2.414 1.366-3.797-.02-.103-.038-.207-.06-.31-.023-.1-.04-.205-.077-.302-.013-.034-.05-.016-.073-.024.056.095.074.228.17.285.56.336 1.168.58 1.753.87.814-.527 1.708-.948 2.44-1.584.173-.15.095-.447.156-.667.005-.026.027-.085.043-.065.076.096.106.22.164.328.273.497.325.55.66 1.05.857 1.198 2 2 3.37 2.494.805.15.403.103 1.21.145 3.628.334 3.155 5.467-.474 5.133-1.748-.194-.876-.037-2.615-.48-.4-.163-.813-.303-1.204-.49-1.867-.896-3.398-2.318-4.604-3.984-.684-1.06-1.61-2.438-1.69-3.742-.03-.46-.188-1.016.1-1.374.67-.828 1.703-1.277 2.553-1.916.668.292 1.382.497 2.006.877.224.137.334.41.475.633.63 1 .79 2.195.844 3.348-.025.378-.024.758-.074 1.133-.28 2.107-1.247 4.068-2.5 5.76-1.577 1.82-3.18 3.334-5.74 3.472-.463.025-.927-.05-1.392-.077-.43-.113-.87-.19-1.288-.34-2.122-.765-3.78-2.39-5.168-4.108-.262-.39-.545-.765-.787-1.166-.924-1.533-1.49-3.232-1.867-4.974-.79-3.558 4.24-4.676 5.032-1.118zM151.147 973.318c-.47.32-.41.973-.093.345.015-.05.005-.114.043-.15.138-.12.836.092 1.116.11.95.058.824.025 1.786-.11 1.676-.394 3.407-1.062 4.673-2.28.152-.145.262-.33.392-.495.028-.105.11-.21.083-.314-.014-.05-.117.006-.153.044-.116.12-.077.402-.24.44-.096.02-.19-.055-.28-.095-.21-.09-.413-.195-.618-.292-1.883-.67-3.507-.492-5.393-.002-.592.18-1.108.47-1.593.845-2.994 2.077-5.93-2.16-2.936-4.236 1.03-.684 2.074-1.296 3.288-1.612 1.17-.28 1.66-.444 2.886-.547 2.136-.18 4.247.173 6.212 1.025 1.042.6 1.852.943 2.633 1.922 1.167 1.464 1.448 3.205.74 4.94-.196.48-.533.89-.8 1.334-.354.372-.68.775-1.063 1.12-2.02 1.812-4.666 2.82-7.29 3.33-.573.05-1.144.142-1.72.15-2.047.03-4.324-.508-5.762-2.072-.34-.37-.556-.837-.835-1.255-.132-.478-.337-.942-.398-1.434-.247-1.984.856-3.71 2.325-4.906 2.966-2.118 5.962 2.076 2.996 4.194zM155.747 946.918c1.296 1.973 2.598 3.942 3.927 5.893 1.945 2.92 3.872 5.848 5.798 8.778 1.244 1.904 2.458 3.832 3.816 5.66.128.16.25.326.382.482.237.28.518.528.793.77.21.182.232.238.177.13-.024-.04-.058-.048-.1-.068 3.427 1.24 1.672 6.087-1.755 4.846-.347-.135-.688-.28-1-.487-1.012-.72-1.898-1.6-2.636-2.602-1.413-1.908-2.692-3.91-3.984-5.9-1.91-2.905-3.822-5.81-5.75-8.705-1.34-1.966-2.65-3.948-3.957-5.936-2.023-3.033 2.266-5.892 4.288-2.86z"/><path opacity=".98" d="M169.847 964.318c1.38-.296 2.556-.974 3.664-1.824.656-.557.73-.578 1.285-1.203.238-.266.648-.758.812-1.106.14-.3.038-.23-.083-.19-.256.043.09.69-.158.696-.094.002-.18-.05-.273-.065-.363-.06-.498-.047-.89-.055-.727.075-2.17.084-2.43.95-.33.96.22 1.682.768 2.42 1.368 1.554 3.12 2.393 5.106 2.863 1.992.32 3.948-.05 5.838-.672 3.47-1.114 5.046 3.794 1.576 4.908-2.93.926-5.643 1.336-8.707.754-.523-.142-1.056-.254-1.57-.428-2.576-.87-4.845-2.442-6.534-4.57-.72-1.135-1.095-1.548-1.458-2.88-.536-1.97-.11-3.954.975-5.642.318-.352.598-.744.955-1.058 1.62-1.424 3.835-1.78 5.913-1.782.442.05.89.06 1.327.145 1.85.365 3.725 1.442 4.416 3.302.185.5.185 1.048.278 1.572-.075.458-.094.93-.225 1.374-.59 2.008-2.313 3.497-3.84 4.8-1.673 1.223-3.45 2.24-5.495 2.69-3.536.885-4.786-4.115-1.25-5zM200.847 952.018c1.147 1.36 2.41 2.61 3.692 3.844 1.477 1.34 2.84 2.81 4.34 4.125.48.155-.675-.563-.992-.4-1.09.565-1.902 1.557-2.784 2.41-.07.068.08.32-.016.295-.124-.034-.11-.232-.17-.346-.103-.204-.21-.406-.316-.61-1.136-1.88-2.204-3.788-3.055-5.817-.684-1.86-.76-3.862.283-5.613.192-.323.45-.604.673-.905 1.25-1.214 2.78-2.18 4.473-2.643.38-.106.773-.163 1.16-.244 2.465-.33 4.635.417 6.87 1.352 2.263.973 4.332 2.312 6.304 3.776 1.333 1.06 2.533 2.272 3.703 3.507.084.09.165.183.25.27.025.025-.035-.064-.065-.08-.348-.19-.686-.665-1.06-.538-1.122.377-2.117 1.113-2.997 1.903-.35.315.13 1.138-.095.733-.602-1.426-1.247-2.832-1.822-4.27-.52-1.585-.963-3.323-.344-4.955.14-.373.372-.704.56-1.056 1.112-1.508 2.73-2.52 4.51-3.074.436-.136.887-.22 1.33-.332 2.36-.454 4.84-.27 7.042.738.448.205.862.475 1.293.713 2.11 1.348 3.025 3.222 4.022 5.398.165.42.403.86.632 1.224 2.125 2.96-2.063 5.967-4.188 3.006-.443-.66-.83-1.348-1.13-2.085-.508-1.108-.914-2.33-1.925-3.086-1.37-.89-2.966-1.198-4.576-.887-.94.19-1.9.474-2.64 1.12-.006-.092.024-.313-.054-.268-.18.102.19 1.46.254 1.633.596 1.495 1.283 2.95 1.886 4.44.153.463.61 1.65.3 2.018-2.035 2.396-3.178 2.875-4.927.98-.966-1.02-1.952-2.026-3.04-2.918-1.63-1.22-3.345-2.34-5.22-3.157-1.257-.53-2.527-1.103-3.925-1.038-.958.125-1.77.55-2.577 1.066-.557.353-.382.65-.202 1.29.787 1.908 1.846 3.665 2.883 5.445.2.4 1.312 2.52 1.07 2.905-1.86 2.943-2.536 3.605-4.787 1.965-1.548-1.375-2.985-2.872-4.507-4.276-1.416-1.364-2.81-2.75-4.077-4.257-2.334-2.8 1.625-6.1 3.96-3.3zM245.747 946.018c-1.065.148-1.89.71-2.59 1.492-.262.576-.625 1.207.07 1.585 1.065.45 2.23.244 3.322.035 2.015-.497 3.804-1.587 5.18-3.134-.02.016.374-.545.186-.692-.087-.068-.208.11-.316.09-.21-.035-.394-.155-.588-.24-1.517-.578-3.203-.29-4.736.086-.564.26-.32.12-.74.396-3.178 1.785-5.703-2.708-2.526-4.494 1.28-.68.586-.363 2.094-.922 2.99-.673 6.07-.872 8.836.693 1.106.843 1.665 1.087 2.355 2.356.87 1.596.834 3.372.04 4.982-.227.457-.566.848-.848 1.27-.353.365-.683.752-1.058 1.094-1.976 1.8-4.434 2.998-7.024 3.596-.527.082-1.05.2-1.58.245-2.044.18-4.223-.167-5.87-1.478-.39-.31-.697-.71-1.045-1.067-.25-.437-.56-.845-.75-1.312-.958-2.354-.168-4.8 1.325-6.71.31-.3.6-.626.933-.906 1.504-1.272 3.374-1.984 5.328-2.12 3.645 0 3.645 5.153 0 5.153zM263.947 942.818c-.493.46-.565.965-.54 1.603.16.773.688 1.236 1.39 1.52 1.22.44 2.445-.01 3.61-.415.947-.432.485-.202 1.386-.69 3.22-1.704 5.632 2.852 2.41 4.557-1.372.717-.655.374-2.15 1.018-2.725.898-5.018 1.287-7.734.05-.385-.23-.793-.42-1.155-.684-1.83-1.336-2.81-3.39-2.904-5.626.035-.407.03-.82.1-1.22.333-1.914 1.433-3.51 3.03-4.587 3.164-1.808 5.722 2.667 2.557 4.475zM262.247 931.458c-.26.193-.55.35-.747.615-.047.063-.154.265-.095.214.05-.043.074-.107.11-.16.443-1.402-.54-2.687-1.983-2.75-.618.042-.654.653-.73 1.15.1 1 .772 1.817 1.792 1.83.69-.116 1.066-.686 1.113-1.38.017-.246-.06-.487-.09-.73-.555-.932-.23-.588-.88-1.12 3.39 1.343 1.49 6.135-1.897 4.793-1.564-.86-.878-.28-2.017-1.778-.09-.394-.256-.778-.27-1.182-.06-1.76 1.23-3.034 2.766-3.598.296-.053.588-.143.89-.16 1.38-.086 2.71.55 3.392 1.79.185.337.226.734.338 1.1-.018.372.01.748-.056 1.113-.264 1.468-1.483 2.527-2.782 3.084-.702.177-1.253.396-2.01.216-1.498-.356-2.447-1.358-2.597-2.905-.035-.363.086-.725.128-1.09.11-.27.196-.554.33-.816.593-1.176 1.646-2.023 2.738-2.71 3.165-1.808 5.723 2.667 2.558 4.475zM222.747 1021.618c-.965-.037-1.924.053-2.888.058-.913-.016-1.824-.017-2.733-.105-1.05-.1-2.063-.387-3.083-.636-1.295-.36-2.557-.827-3.757-1.43-.967-.507-1.837-1.16-2.726-1.785-.832-.57-1.59-1.233-2.33-1.917-.807-.754-1.496-1.623-2.23-2.447-.733-.826-1.26-1.8-1.86-2.717-.7-1.028-1.214-2.16-1.642-3.32-.41-1.22-.698-2.468-.863-3.744-.19-1.248-.025-2.5.08-3.745.17-1.186.335-2.373.547-3.554.292-1.19.662-2.37 1.106-3.512.356-1.093 1.012-2.022 1.66-2.954.622-.974 1.445-1.77 2.29-2.547 1.04-.963 2.188-1.8 3.323-2.645 1.126-.865 2.37-1.537 3.622-2.19.98-.58 2.014-1.046 3.103-1.372 1.05-.338 2.143-.493 3.227-.677 1.42-.185 2.844-.32 4.267-.465 1.572-.154 3.152-.188 4.73-.21 1.58-.007 3.163.13 4.733.293 1.645.167 3.27.486 4.88.86 1.42.285 2.767.81 4.1 1.36 1.45.607 2.76 1.485 4.004 2.438 1.337 1.022 2.4 2.317 3.386 3.667.927 1.242 1.605 2.622 2.166 4.06.49 1.43.89 2.892 1.195 4.374.24 1.378.47 2.753.603 4.146.13 1.69-.416 3.27-1.115 4.78-.643 1.426-1.585 2.648-2.713 3.718-.842.762-1.76 1.427-2.73 2.015l.138-.078c-2.818 2.312-6.087-1.673-3.27-3.985l.47-.35c.677-.405 1.313-.866 1.9-1.392.683-.587 1.18-1.342 1.557-2.156.33-.64.623-1.343.63-2.072-.11-1.21-.32-2.403-.52-3.6-.24-1.197-.576-2.37-.95-3.53-.395-1.025-.86-2.01-1.526-2.892-.697-.956-1.42-1.896-2.37-2.622-.88-.683-1.804-1.322-2.833-1.76-1.07-.448-2.153-.877-3.297-1.1-1.4-.33-2.817-.607-4.25-.754-1.364-.148-2.742-.262-4.115-.265-1.428.02-2.858.046-4.28.183-1.31.134-2.622.262-3.93.418-.904.154-1.82.273-2.696.558-.76.166-1.43.63-2.113.978-1.01.528-2.023 1.052-2.928 1.756-.995.74-2.005 1.47-2.917 2.308-.57.523-1.143 1.03-1.548 1.7-.424.605-.883 1.177-1.095 1.9-.336.82-.567 1.68-.825 2.525-.183 1.023-.32 2.05-.483 3.077-.076.89-.228 1.782-.102 2.675.106.902.322 1.775.6 2.64.27.795.64 1.555 1.11 2.252.456.703.86 1.443 1.39 2.097.623.7 1.21 1.44 1.883 2.094.573.534 1.16 1.056 1.81 1.494.685.49 1.352.998 2.094 1.4.834.444 1.738.734 2.638 1.014.81.2 1.615.442 2.45.523.688.14 1.426-.005 2.122.072.967 0 1.93-.1 2.9-.058 3.645 0 3.645 5.154 0 5.154z"/><path opacity=".98" d="M223.747 1001.418c1.17.127 2.343.203 3.518.25.972.036 1.944.038 2.916.04l2.8-.002c.98-.02 1.947.162 2.918.262.688.056 1.38.072 2.07.08.604.005 1.208.003 1.813.002h.88c3.646-.025 3.678 5.13.034 5.153h-.905c-.63.002-1.257.004-1.885 0-.847-.012-1.694-.033-2.538-.11-.794-.082-1.586-.233-2.384-.233-.937 0-1.874.002-2.81 0-1.04 0-2.08-.003-3.12-.042-1.293-.053-2.587-.136-3.875-.277-3.622-.402-3.053-5.524.57-5.122zM211.847 1000.018c-.396.714-.077.48-.06.044.014-.306.003-.624-.093-.916-.087-.263-.294-.47-.44-.705.08-.23-.327-.157-.36-.313-.008-.03.05-.037.08-.048.314-.108.61-.194.915-.333.1-.067.77-.406.72-.463-.028-.034-.08.04-.114.068-.05.043-.115.082-.136.145-.166.476-.28.97-.42 1.453.366 1.067.17 1.036.847 1.635.08.07.19.102.27.172.018.016-.03.006-.283-.012l-.335-.022c-.296.102-.95.01-1.174.246-.032.017-.132.07-.097.055.632-.258 1.02-1.02 1.08-1.666.04-.448-.166-.883-.25-1.324 1.808 3.165-2.668 5.72-4.475 2.555-.138-.537-.43-1.058-.415-1.614.037-1.355 1.055-2.25 2.164-2.76 1.136-.44 2.32-.664 3.543-.634 1.224.096 2.827.25 3.596 1.377.31.452.44 1.002.66 1.504-.128.61-.19 1.238-.384 1.832-.07.208-.243.366-.387.53-.665.766-1.55 1.258-2.45 1.687-1.515.596-3.207 1.063-4.813.472-.367-.135-.693-.365-1.04-.548-.33-.385-.764-.702-.995-1.156-.832-1.632-.07-3.238.885-4.563 2.333-2.8 6.293.5 3.96 3.3zM230.347 994.118c-.046.04-.734.625-.758.648-.224.214-.498.99.078-.324.045-.866.133-.82-.506-1.823-.49-.77-.336-.232-.684-.52-.02-.018.05-.026.065-.05.623-.092 1.304-.182 1.868-.48.04-.018.498-.225.555-.257.055-.03-.133.025-.174.073-.206.234-.44.45-.6.72-.114.19-.14.425-.21.638-.05.736.092 1.146.54 1.702.126.157.237.167.175.18-.053.014-.11-.014-.163-.022-.285-.027-.572-.083-.86-.078-.088.002-.46.082.018.03-.242.254.546-.378.585-.42-1.98 3.06-6.307.258-4.326-2.802.527-.74 1.154-1.36 2.04-1.645 1.28-.36 2.336-.387 3.64-.122 1.417.337 2.925 1.004 3.346 2.568.1.37.088.76.132 1.14-.084.34-.098.704-.25 1.018-.512 1.052-1.402 1.592-2.427 2.017-1.197.483-2.453.828-3.75.893-1.963-.026-3.344-.427-4.067-2.542-.11-.32-.024-.677-.036-1.015.122-.39.21-.792.366-1.168.406-.97 1.356-1.64 2.105-2.32 2.8-2.332 6.1 1.627 3.3 3.96z"/></g><circle stroke-linejoin="bevel" stroke-width="1.7" cx="258" cy="985.3" transform="translate(5.256 -.252)" stroke="#003f42" stroke-linecap="round" r="91.71" fill="none"/><circle cx="258" cy="985.3" transform="translate(5.256 -.252)" r="75.8" fill="none"/><g font-size="40" font-family="Quicksand" fill="#003f42" letter-spacing="0" word-spacing="0"><path d="M345.456 986.948c-3.417-.302-6.44 2.295-6.765 5.78-.13 1.5.272 2.905.994 4.076.078.112.214.16.31.08.112-.078.124-.217.063-.328-.695-1.08-1.036-2.393-.912-3.787.284-3.226 3.08-5.65 6.27-5.368 3.156.28 5.485 3.155 5.2 6.38-.125 1.412-.69 2.645-1.564 3.586-.094.08-.09.22.006.334.08.078.224.055.32-.042.913-.99 1.56-2.34 1.692-3.84.308-3.485-2.23-6.573-5.612-6.872M336.356 1006.748c-.118-.03-.242.03-.276.165-.026.1.05.23.17.26l4.715 1.194c1.866.473 3.754-.637 4.227-2.503.322-1.272-.11-2.555-1-3.394l5.09 1.29c.118.03.24-.03.272-.148.03-.118-.046-.246-.165-.276l-6.583-1.668-.136-.034-4.715-1.195-.034-.01c-.05-.013-.11.008-.152.033-.046.043-.076.09-.09.14l-.008.034c-.004.017.004.055.013.094.02.06.08.11.165.133l4.835 1.225c1.543.463 2.472 2.07 2.068 3.665-.412 1.63-2.05 2.604-3.677 2.19l-4.716-1.194M342.456 1018.748c-.088.077-.08.1.002.133.065.028.143.022.205.01l1.918-.384c.248-.05.4-.14.48-.334.125-.307-.063-.31-.124-.39-.06-.083-.22-.016-.358.04l-1.72.638c-.266.098-.27.153-.402.288m-8.947-4.608c-.547 1.327-.288 2.815.484 3.927.07.105.213.126.295.065.094-.094.14-.207.07-.312-.724-.998-.94-2.317-.446-3.514.802-1.903 3.037-2.78 4.98-1.982l.047.02-2.902 7.056c-.04.098.024.218.115.275l.016.006.03.014.018.007c2.115.7 4.39-.274 5.222-2.297.872-2.12-.193-4.545-2.38-5.483-2.182-.86-4.645.114-5.55 2.22m7.51 3.09c-.714 1.732-2.656 2.636-4.507 2.12l2.81-6.83c1.677.936 2.42 2.945 1.696 4.71M330.656 1020.748c-.122-.068-.25-.018-.3.073-.068.124-.026.228.097.295l3.505 1.943s.15.163.418.473c.364.463.926 1.254 1.24 2.13.288.818.348 1.792-.178 2.74-.068.123-.018.25.09.31.106.06.24.034.308-.09.798-1.438.352-2.945-.198-4.01-.196-.368-.417-.69-.625-.966l2.54 1.408c.11.06.234.05.302-.074.05-.092.01-.234-.097-.294l-3.505-1.943c-.037-.04-.053-.048-.092-.05l-3.504-1.943M325.056 1028.748c-.835 1.167-.924 2.674-.427 3.934.044.118.178.17.272.13.114-.07.185-.168.14-.286-.476-1.138-.384-2.47.37-3.523 1.216-1.67 3.592-2.013 5.3-.79l.043.03-4.44 6.205c-.062.085-.028.217.047.293l.014.01.03.02.013.012c1.898 1.165 4.336.736 5.61-1.043 1.333-1.865.852-4.47-1.064-5.883-1.927-1.336-4.548-.953-5.91.89m6.602 4.727c-1.09 1.523-3.188 1.958-4.87 1.033l4.297-6.005c1.42 1.295 1.683 3.42.573 4.972M311.556 1043.748l2.598 2.865.14.156.12.128 5.042 5.562c.082.09.24.136.345.042.08-.07.062-.245-.02-.336l-3.88-4.278c1.447.58 3.13.352 4.323-.73 1.71-1.552 1.792-4.224.217-5.96-1.587-1.75-4.266-1.944-5.977-.392-1.193 1.08-1.583 2.735-1.16 4.218l-1.422-1.57c-.08-.09-.23-.097-.307-.027-.104.094-.098.23-.016.322m3.063 2.726c-1.434-1.582-1.353-3.994.138-5.345 1.517-1.374 3.925-1.22 5.36.362 1.42 1.57 1.33 3.968-.188 5.343-1.452 1.317-3.777 1.228-5.204-.242l-.106-.117M305.656 1047.748c-1.19.8-1.8 2.182-1.775 3.536.002.126.11.223.21.218.132-.025.234-.094.233-.22-.05-1.233.504-2.448 1.578-3.172 1.724-1.138 4.07-.63 5.243 1.113l.03.044-6.33 4.26c-.088.058-.102.194-.058.29l.01.016.02.03.01.013c1.37 1.756 3.804 2.206 5.62.985 1.9-1.28 2.36-3.887 1.06-5.88-1.338-1.927-3.928-2.483-5.85-1.232m4.535 6.736c-1.553 1.046-3.67.72-4.925-.735l6.127-4.124c.877 1.71.38 3.794-1.202 4.86M294.856 1054.748c-.046-.113-.182-.17-.296-.125-.113.046-.155.176-.11.29l1.958 4.833-3.13 1.267c-1.737.703-2.6 2.676-1.89 4.427.71 1.752 2.708 2.585 4.444 1.883l3.293-1.333.032-.013c.114-.046.172-.183.126-.296l-4.426-10.93m1.722 5.42l2.22 5.484-3.132 1.267c-1.51.612-3.24-.122-3.858-1.647-.618-1.525.13-3.224 1.638-3.835l3.13-1.267M285.456 1057.748c-.036-.135-.16-.192-.262-.164-.135.036-.18.14-.143.274l1.053 3.867s-.012.22-.046.63c-.078.583-.253 1.538-.66 2.374-.387.775-1.043 1.498-2.09 1.783-.135.036-.192.16-.16.28.032.117.144.195.28.16 1.586-.433 2.356-1.803 2.736-2.94.128-.398.205-.78.257-1.122l.763 2.804c.032.118.127.2.262.164.102-.027.175-.156.143-.275l-1.052-3.867c.003-.055 0-.072-.027-.1l-1.053-3.868M277.956 1059.748c-.022-.12-.127-.208-.265-.183-.102.02-.186.142-.164.262l1.472 8.003c.025.138.14.188.244.17.138-.027.212-.11.186-.25l-1.472-8.002m1.894 10.29c-.02-.103-.124-.19-.262-.165-.103.02-.187.14-.168.244l.076.413c.025.138.144.205.248.186.137-.025.208-.127.182-.265l-.076-.412M266.656 1060.748c-.01-.122-.087-.22-.227-.21-.123.01-.22.122-.21.245l.385 4.867c.15 1.92 1.826 3.332 3.71 3.183 1.29-.102 2.368-.907 2.877-2.018l.124 1.57c.01.14.104.202.226.192.122-.01.22-.087.21-.227l-.245-3.105-.01-.14-.386-4.867-.002-.034c-.003-.035-.023-.07-.042-.085 0-.018 0-.018-.02-.034-.02-.016-.038-.033-.055-.03-.018-.017-.035-.016-.054-.032l-.035.003-.034.003c-.07.005-.12.044-.15.1-.032.037-.045.09-.04.143l.383 4.867c.133 1.692-1.14 3.127-2.78 3.257-1.64.13-3.106-1.09-3.24-2.78l-.384-4.868M262.756 1064.748c.127-2.342-1.743-4.37-4.17-4.52-1.015-.055-1.995.242-2.777.778-.093.083-.1.205-.035.314.065.09.204.116.294.068.71-.487 1.583-.772 2.492-.723 2.22.12 3.873 1.945 3.758 4.06-.115 2.114-1.956 3.75-4.175 3.63-.91-.05-1.748-.41-2.4-.973-.102-.075-.224-.082-.3.002-.075.1-.082.24 0 .333.72.635 1.662 1.02 2.676 1.074 2.43.133 4.51-1.682 4.637-4.04M249.156 1059.748c-1.41-.27-2.815.283-3.75 1.263-.088.09-.08.235-.004.303.11.075.23.098.32.008.832-.91 2.08-1.384 3.352-1.142 2.025.403 3.334 2.417 2.94 4.48l-.008.05-7.495-1.427c-.102-.02-.208.068-.245.168l-.003.017-.007.035-.003.017c-.26 2.213 1.15 4.245 3.3 4.655 2.25.43 4.413-1.1 4.893-3.432.405-2.31-1.043-4.528-3.29-4.99m-1.52 7.975c-1.838-.35-3.114-2.072-2.98-3.99l7.254 1.383c-.582 1.83-2.4 2.963-4.274 2.606"/></g><circle stroke-linejoin="bevel" stroke-width=".663" cx="258" cy="985.3" transform="translate(5.256 -.252)" stroke="#003f42" stroke-linecap="round" r="73.85" fill="none"/><g font-weight="bold" font-size="20" font-family="Quicksand" fill="#003f42" letter-spacing="0" word-spacing="0"><path d="M191.056 931.448l-.01.017c-.2.3-.245.654-.118 1.004l2.384 6.373-6.8.248c-.36 0-.694.212-.872.478l-.033.05c-.333.5-.194 1.193.305 1.525l9.817 6.548c.498.334 1.192.195 1.524-.304.344-.516.205-1.21-.294-1.542l-7.005-4.672 4.915-.16c.372-.016.694-.21.893-.51l.012-.017.01-.016c.2-.3.245-.656.117-1.005l-1.73-4.615 7.005 4.672c.5.333 1.18.21 1.525-.305.333-.5.206-1.21-.293-1.542l-9.818-6.548c-.5-.333-1.187-.167-1.537.32M209.356 931.848c.998-1.01 1.528-2.145 1.576-3.475.025-.622-.543-.902-.925-.913-.41-.04-1.03.5-1.01 1.11-.082.62-.558 1.36-1.107 1.83-.534.456-1.353.772-1.99.733-.494.018-1.018-.19-1.416-.443l4.47-4.525c.393-.4.46-.922.16-1.302-.014-.043-.085-.113-.113-.14-.028-.03-.056-.057-.07-.07-2.034-1.784-4.86-1.682-6.688.168-1.925 1.95-1.793 5.06.128 6.987 1.95 1.897 5.047 1.977 6.987.04m-5.763-5.69c1.322-1.14 2.88-1.036 3.588-.616l-3.977 4.028c-.47-.69-.75-2.145.39-3.41M214.056 925.548c1.024.028 2.416-.12 3.672-1.045.782-.59 1.32-1.373 1.592-2.206.26-.85.198-1.83-.393-2.61-.278-.368-.667-.65-1.1-.825-.608-.242-1.268-.22-1.843-.085-.632.126-1.235.356-1.834.658l-.016.013-.028-.004c-.615.314-1.138.484-1.454.497-.16.022-.256-.006-.296-.026-.068-.024-.08-.04-.13-.103-.06-.08-.12-.26-.02-.56.086-.316.34-.71.74-1.01.51-.386 1.15-.47 1.914-.52.603-.03 1.046-.54 1.012-1.115-.063-.58-.572-1.022-1.148-.988-.776.035-1.956.1-3.057.93-.734.556-1.247 1.27-1.516 2.075-.225.797-.17 1.733.386 2.467.277.366.638.645 1.03.8.613.213 1.214.21 1.8.093.56-.122 1.136-.356 1.703-.634l.015-.013c.658-.323 1.27-.51 1.614-.518.186-.018.3-.002.35.033.07.024.11.044.17.124.095.127.152.335.074.695-.135.353-.426.798-.856 1.123-.61.487-1.606.662-2.286.625-.58-.038-1.102.432-1.1 1.032-.022.568.436 1.074 1.004 1.096M228.156 911.548c-.465-1.085 0-2.345 1.068-2.847 1.103-.472 2.372.01 2.855 1.087l1.85 4.124c.253.567.887.808 1.453.554.566-.253.807-.888.554-1.454l-1.85-4.124c-.983-2.19-3.563-3.202-5.77-2.21-.713.32-1.27.832-1.716 1.404l-1.424-3.175c-.254-.565-.907-.8-1.472-.545-.548.246-.808.888-.554 1.454l4.83 10.77c.042.092.1.175.152.24.316.362.847.518 1.303.314.566-.254.826-.897.572-1.462l-1.85-4.124M237.856 903.148c-.572.18-.893.76-.702 1.372l2.327 7.445c.18.573.78.888 1.354.71.59-.186.887-.782.708-1.354l-2.327-7.444c-.19-.61-.767-.913-1.36-.728m.155-3.128c-.18-.573-.76-.894-1.353-.71-.573.18-.888.782-.71 1.354l.127.4c.18.574.786.908 1.36.73.59-.186.88-.8.7-1.373l-.124-.4M244.556 910.148c.91.47 2.23.94 3.762.652.96-.193 1.784-.664 2.392-1.296.604-.65.972-1.562.78-2.523-.092-.45-.32-.873-.634-1.218-.443-.482-1.048-.748-1.625-.877-.622-.16-1.266-.215-1.937-.203l-.02.004-.023-.015c-.69.017-1.236-.057-1.526-.183-.153-.05-.227-.117-.255-.152-.052-.05-.056-.07-.072-.15-.02-.097.004-.286.224-.513.215-.248.615-.49 1.106-.59.627-.126 1.24.078 1.95.364.557.235 1.177-.033 1.396-.566.195-.55-.072-1.17-.605-1.388-.716-.306-1.806-.76-3.16-.488-.9.18-1.673.6-2.265 1.21-.55.62-.905 1.487-.724 2.39.09.45.296.858.582 1.167.46.46 1 .718 1.58.867.558.132 1.178.17 1.81.167l.02-.004c.732-.005 1.364.093 1.678.234.176.067.27.13.302.184.05.05.08.086.098.184.032.157-.007.37-.235.66-.274.26-.73.534-1.26.64-.76.173-1.733-.1-2.33-.43-.505-.286-1.18-.09-1.438.452-.266.503-.073 1.157.43 1.423M257.756 899.448l-.498.04-.233-2.89c-.05-.62-.567-1.06-1.185-1.01-.618.05-1.078.57-1.028 1.187l.233 2.89-.578.048c-.618.05-1.058.567-1.008 1.185.047.598.566 1.058 1.184 1.008l.578-.047.448 5.56c.098 1.217 1.175 2.134 2.39 2.036.62-.05 1.06-.567 1.01-1.185-.05-.617-.57-1.077-1.187-1.027l-.448-5.562.498-.04c.598-.047 1.076-.587 1.028-1.185-.05-.618-.605-1.055-1.204-1.006M267.156 909.448c1.318.068 2.546-.45 3.413-1.347.943-.832 1.505-2.045 1.577-3.443.07-1.358-.37-2.562-1.22-3.567-.77-.98-1.94-1.62-3.257-1.69-1.378-.07-2.566.45-3.513 1.343-.908.915-1.488 2.067-1.557 3.425-.07 1.398.385 2.663 1.198 3.586.85.985 1.98 1.623 3.358 1.694m-1.554-7.21c.522-.413 1.197-.7 1.956-.66.7.036 1.322.388 1.8.853.47.566.714 1.3.672 2.118-.044.86-.36 1.544-.887 2.077-.524.454-1.176.68-1.875.645-.76-.04-1.405-.332-1.88-.837-.43-.583-.655-1.295-.61-2.154.04-.82.337-1.526.824-2.04M278.056 900.548c-.59-.102-1.142.27-1.25.9l-1.322 7.688c-.1.592.29 1.146.882 1.247.61.105 1.146-.29 1.247-.88l1.32-7.688c.11-.63-.266-1.162-.877-1.267m1.562-2.715c.1-.592-.27-1.142-.882-1.247-.59-.102-1.146.29-1.247.88l-.072.415c-.102.592.287 1.166.878 1.268.61.105 1.15-.31 1.25-.9l.072-.415M288.256 902.948c-.96-.275-1.885-.148-2.636.11-.16.06-.356.173-.508.278l.036-.136c.148-.56-.217-1.133-.797-1.287-.56-.148-1.14.173-1.29.734l-2.02 7.617c-.148.56.193 1.148.754 1.296.58.154 1.186-.182 1.335-.743l.972-3.673c.17-.245.595-.918 1.223-1.414.33-.306.707-.557 1.135-.692.396-.164.813-.178 1.257-.06.58.154 1.153-.212 1.296-.753.15-.56-.178-1.123-.758-1.277M292.156 914.948c1.312.542 2.563.604 3.813.147.585-.213.63-.844.496-1.202-.12-.395-.854-.764-1.41-.517-.607.16-1.47-.002-2.112-.332-.625-.323-1.226-.96-1.43-1.565-.204-.453-.21-1.017-.126-1.48l5.878 2.427c.518.213 1.028.078 1.267-.343.034-.03.072-.122.087-.158l.038-.093c.883-2.557-.28-5.136-2.684-6.13-2.533-1.045-5.362.253-6.42 2.76-1.02 2.52.078 5.42 2.603 6.483m3.092-7.487c1.554.793 2.046 2.273 1.926 3.088l-5.23-2.16c.46-.698 1.702-1.505 3.304-.93M299.856 916.948c.36.96 1.022 2.192 2.35 3.008.843.502 1.77.705 2.644.644.885-.078 1.768-.506 2.27-1.348.236-.395.35-.862.35-1.328-.006-.655-.275-1.258-.616-1.74-.355-.538-.795-1.01-1.3-1.452l-.018-.01-.007-.027c-.524-.452-.878-.873-1.01-1.16-.078-.14-.09-.24-.086-.285-.003-.072.007-.09.048-.158.05-.086.195-.21.51-.23.326-.04.786.048 1.215.304.55.328.867.89 1.202 1.578.255.548.893.766 1.414.517.514-.274.732-.913.483-1.434-.324-.705-.828-1.774-2.014-2.48-.79-.472-1.645-.678-2.492-.624-.822.09-1.668.495-2.14 1.286-.234.395-.356.834-.352 1.256.033.648.26 1.203.592 1.703.323.472.757.917 1.228 1.338l.017.01c.547.49.95.985 1.088 1.3.086.168.114.277.1.34.004.07 0 .116-.05.202-.082.137-.254.268-.617.33-.377.01-.9-.093-1.363-.37-.68-.38-1.218-1.237-1.44-1.88-.182-.553-.814-.86-1.37-.632-.533.194-.83.81-.636 1.343"/></g></g></svg>