<svg xmlns="http://www.w3.org/2000/svg" height="70mm" width="110mm" viewBox="0 0 389.76378 248.03148"><g transform="translate(32.224 -833.25)"><path stroke-linejoin="bevel" d="M27.926 1047.05c-.653-.786-1.768-1.49-2.606-1.648-1.22-.23-1.696-.043-2.852 1.113l-1.387 1.387v-1.334c0-.85.237-1.334.652-1.334 1.007 0 2.543-2.255 2.543-3.733 0-1.307-1.72-3.568-2.718-3.568-.268 0-.477-1-.477-2.282s.21-2.282.477-2.282c1.085 0 2.717-2.262 2.703-3.745-.016-1.685-.635-2.69-2.153-3.5-.804-.428-1.027-.944-1.027-2.386 0-1.512.285-2.11 1.597-3.347 1.982-1.87 2.153-3.852.478-5.527-.617-.616-1.335-1.12-1.597-1.12-.27 0-.478-1-.478-2.282 0-1.672.174-2.28.652-2.28.983 0 2.543-2.24 2.543-3.652s-1.56-3.65-2.543-3.65c-.478 0-.652-.61-.652-2.283 0-1.283.21-2.282.478-2.282 1.085 0 2.717-2.262 2.703-3.745-.016-1.685-.635-2.69-2.152-3.5-.805-.428-1.027-.944-1.027-2.386 0-1.512.286-2.11 1.598-3.347 1.982-1.87 2.153-3.852.477-5.527-.616-.616-1.335-1.12-1.597-1.12-.27 0-.477-1-.477-2.282 0-1.673.175-2.282.652-2.282.983 0 2.543-2.24 2.543-3.65s-1.56-3.652-2.543-3.652c-.477 0-.65-.61-.65-2.282 0-1.286.207-2.282.477-2.282.926 0 2.716-2.424 2.716-3.68 0-1.892-.428-2.67-1.88-3.422-1.12-.578-1.315-.953-1.315-2.524 0-1.517.285-2.112 1.598-3.35 1.982-1.87 2.153-3.853.477-5.528-.616-.616-1.335-1.12-1.597-1.12-.268 0-.477-1-.477-2.282s.21-2.282.478-2.282c.996 0 2.718-2.26 2.718-3.57 0-1.478-1.536-3.732-2.543-3.732-.478 0-.652-.61-.652-2.282 0-1.255.18-2.282.396-2.282.915 0 2.8-2.474 2.8-3.676 0-1.897-.427-2.675-1.88-3.427-1.12-.577-1.314-.952-1.314-2.523 0-1.517.283-2.112 1.597-3.35 1.98-1.87 2.152-3.853.476-5.528-.616-.617-1.335-1.12-1.597-1.12-.27 0-.478-1-.478-2.283s.208-2.282.477-2.282c.995 0 2.717-2.26 2.717-3.57 0-1.478-1.536-3.732-2.543-3.732-.478 0-.652-.61-.652-2.282 0-1.254.178-2.28.394-2.28.916 0 2.8-2.475 2.8-3.677 0-1.897-.426-2.675-1.88-3.427-1.12-.578-1.314-.953-1.314-2.524 0-1.517.284-2.112 1.597-3.35 1.98-1.87 2.152-3.853.476-5.528-.616-.616-1.335-1.12-1.597-1.12-.263 0-.478-.628-.478-1.395 0-1.35.033-1.373 1.014-.686 1.716 1.202 4.193.915 5.677-.658 1.084-1.148 1.643-1.37 3.462-1.37 1.193 0 2.17.206 2.17.457 0 1.047 1.876 2.282 3.467 2.282 1.236 0 1.96-.338 2.92-1.37 1.026-1.096 1.657-1.368 3.18-1.368 1.55 0 2.112.252 3.052 1.37 1.63 1.935 4.164 1.935 5.793 0 .94-1.12 1.5-1.37 3.052-1.37 1.522 0 2.153.272 3.178 1.37 1.787 1.912 4.17 1.912 5.848 0 1.02-1.164 1.53-1.37 3.382-1.37 1.2 0 2.18.206 2.18.457 0 1.047 1.877 2.282 3.468 2.282 1.236 0 1.96-.34 2.922-1.37 1.822-1.95 4.59-1.95 6.23 0 1.63 1.937 4.165 1.937 5.794 0 1.642-1.95 4.41-1.95 6.23 0 1.784 1.91 4.152 1.91 5.934 0 1.063-1.136 1.634-1.368 3.378-1.368 1.154 0 2.1.205 2.1.456 0 1.047 1.876 2.282 3.467 2.282 1.237 0 1.96-.338 2.923-1.37 1.025-1.096 1.656-1.368 3.18-1.368 1.55 0 2.11.252 3.05 1.37.91 1.08 1.52 1.368 2.898 1.368s1.987-.288 2.898-1.37c.94-1.117 1.5-1.368 3.052-1.368 1.523 0 2.154.272 3.18 1.37.974 1.043 1.68 1.368 2.966 1.368s1.99-.325 2.967-1.37c1.063-1.136 1.634-1.368 3.378-1.368 1.155 0 2.1.205 2.1.456 0 1.047 1.877 2.282 3.468 2.282 1.236 0 1.96-.338 2.922-1.37 1.047-1.12 1.644-1.368 3.292-1.368 1.708 0 2.167.208 3.025 1.37 1.442 1.95 4.066 1.95 5.707 0 .94-1.12 1.5-1.37 3.052-1.37 1.523 0 2.154.272 3.18 1.37 1.782 1.907 4.15 1.907 5.932 0 1.063-1.138 1.634-1.37 3.378-1.37 1.154 0 2.1.206 2.1.457 0 1.043 1.876 2.282 3.457 2.282 1.205 0 1.99-.358 3.002-1.37 1.09-1.09 1.763-1.368 3.302-1.368 1.618 0 2.098.222 2.945 1.368 1.442 1.95 4.066 1.95 5.707 0 .94-1.118 1.5-1.37 3.05-1.37 1.524 0 2.155.273 3.18 1.37.975 1.044 1.68 1.37 2.967 1.37s1.99-.327 2.967-1.37c1.063-1.137 1.634-1.37 3.378-1.37 1.154 0 2.1.206 2.1.457 0 1.043 1.876 2.282 3.457 2.282 1.204 0 1.99-.358 3-1.37 1.09-1.09 1.764-1.368 3.303-1.368 1.618 0 2.098.222 2.945 1.368 1.442 1.95 4.066 1.95 5.707 0 .94-1.118 1.5-1.37 3.052-1.37 1.523 0 2.154.273 3.18 1.37 1.782 1.908 4.15 1.908 5.932 0 1.062-1.137 1.633-1.37 3.377-1.37 1.154 0 2.1.207 2.1.458 0 1.043 1.876 2.282 3.457 2.282 1.205 0 1.99-.36 3.002-1.37 1.09-1.09 1.763-1.368 3.302-1.368 1.618 0 2.098.222 2.945 1.37.815 1.1 1.35 1.368 2.738 1.368 1.67 0 3.725-1.27 3.725-2.3 0-.242 1.13-.44 2.51-.44 1.883 0 2.51.165 2.51.66 0 1.004 1.846 2.08 3.57 2.08 1.124 0 1.887-.37 2.82-1.37 1.063-1.136 1.634-1.368 3.378-1.368 1.154 0 2.1.205 2.1.456 0 1.043 1.876 2.282 3.457 2.282 1.205 0 1.99-.358 3.002-1.37 1.09-1.09 1.763-1.368 3.302-1.368 1.635 0 2.095.22 2.985 1.423.96 1.3 1.223 1.403 3.05 1.197 1.638-.184 2-.09 2 .517-.002.41-.618 1.092-1.37 1.52-1.197.68-1.366 1.03-1.366 2.812 0 1.7.225 2.223 1.37 3.186 1.152.97 1.368 1.48 1.368 3.235 0 1.147-.166 2.084-.37 2.084-1.098 0-2.368 1.968-2.368 3.67 0 1.754 1.18 3.632 2.282 3.632.25 0 .456.988.456 2.196 0 1.91-.177 2.328-1.37 3.208-1.13.836-1.368 1.335-1.368 2.87 0 1.474.282 2.12 1.37 3.135 1.116 1.043 1.368 1.645 1.365 3.264-.003 1.725-.182 2.085-1.37 2.76-1.197.682-1.366 1.03-1.366 2.813 0 1.7.225 2.224 1.37 3.187 1.152.97 1.368 1.48 1.368 3.235 0 1.146-.166 2.083-.37 2.083-1.098 0-2.368 1.968-2.368 3.67 0 1.754 1.18 3.632 2.282 3.632.25 0 .457.988.457 2.196 0 1.91-.178 2.328-1.37 3.208-1.13.836-1.368 1.335-1.368 2.87 0 1.474.28 2.12 1.37 3.135 1.116 1.042 1.368 1.644 1.365 3.263-.002 1.726-.182 2.086-1.37 2.762-1.196.68-1.365 1.03-1.365 2.812 0 1.7.225 2.224 1.37 3.187 1.152.97 1.368 1.48 1.368 3.235 0 1.145-.167 2.082-.37 2.082-1.1 0-2.37 1.968-2.37 3.67 0 1.754 1.18 3.632 2.283 3.632.25 0 .457.988.457 2.196 0 1.91-.178 2.328-1.37 3.208-1.13.836-1.368 1.335-1.368 2.87 0 1.474.28 2.12 1.37 3.135 1.136 1.063 1.368 1.634 1.368 3.378 0 1.155-.206 2.1-.457 2.1-1.095 0-2.282 1.88-2.282 3.61 0 1.424.278 2.02 1.37 2.938 1.113.938 1.368 1.503 1.368 3.037s-.255 2.1-1.37 3.037c-1.09.92-1.368 1.514-1.368 2.937 0 1.73 1.187 3.61 2.282 3.61.25 0 .457.988.457 2.196 0 1.91-.178 2.328-1.37 3.208-1.163.86-1.368 1.316-1.368 3.04 0 1.72.205 2.177 1.37 3.038 1.19.88 1.368 1.297 1.368 3.208 0 1.208-.206 2.196-.457 2.196-1.095 0-2.282 1.88-2.282 3.61 0 1.424.278 2.02 1.37 2.938 1.113.938 1.368 1.503 1.368 3.037s-.255 2.1-1.37 3.038c-1.09.92-1.368 1.514-1.368 2.937 0 1.732 1.187 3.61 2.282 3.61.25 0 .457.99.457 2.197 0 1.91-.178 2.328-1.37 3.208-1.163.86-1.368 1.316-1.368 3.04 0 1.72.205 2.177 1.37 3.038 1.736 1.284 1.742 1.805.015 1.46-1.965-.393-3.414.108-4.118 1.422-.516.965-.944 1.153-2.623 1.153-1.653 0-2.203-.233-3.117-1.32-1.94-2.305-5.124-2.218-6.212.17-.446.983-.824 1.15-2.584 1.15-1.76 0-2.24-.213-3.28-1.46-.98-1.173-1.562-1.46-2.956-1.46s-1.975.288-2.955 1.46c-1.005 1.203-1.546 1.46-3.073 1.46-1.442 0-2.01-.238-2.556-1.07-.386-.59-1.334-1.334-2.106-1.654-1.752-.726-3.735-.034-4.615 1.612-.49.92-.942 1.11-2.6 1.11-1.653 0-2.203-.232-3.117-1.318-1.94-2.306-5.124-2.22-6.212.17-.447.982-.825 1.15-2.585 1.15s-2.238-.213-3.28-1.46c-1.73-2.07-4.18-2.07-5.91 0-1.045 1.25-1.517 1.46-3.3 1.46-1.687 0-2.127-.17-2.317-.898-.13-.494-.96-1.244-1.846-1.666-1.342-.64-1.835-.676-2.952-.213-.737.305-1.608 1.055-1.935 1.666-.49.918-.942 1.11-2.6 1.11-1.653 0-2.203-.232-3.117-1.318-1.94-2.306-5.124-2.22-6.212.17-.446.98-.824 1.15-2.584 1.15-1.76 0-2.24-.214-3.28-1.46-.98-1.174-1.562-1.46-2.956-1.46s-1.975.286-2.955 1.46c-1.048 1.254-1.515 1.46-3.323 1.46-1.722 0-2.158-.17-2.402-.94-.163-.516-1-1.273-1.856-1.682-1.44-.687-1.677-.687-3.117 0-.857.41-1.692 1.166-1.856 1.682-.24.764-.678.94-2.35.94-1.702 0-2.24-.226-3.162-1.32-1.94-2.306-5.124-2.22-6.212.17-.447.98-.825 1.15-2.585 1.15s-2.238-.214-3.28-1.46c-.98-1.174-1.56-1.46-2.955-1.46s-1.975.286-2.955 1.46c-1.048 1.254-1.515 1.46-3.323 1.46-1.722 0-2.158-.17-2.402-.94-.163-.516-1-1.273-1.856-1.682-1.44-.686-1.678-.686-3.118 0-.857.41-1.692 1.166-1.856 1.682-.24.762-.68.94-2.327.94-1.708 0-2.238-.233-3.335-1.46-1.008-1.13-1.677-1.46-2.937-1.46-1.688 0-3.504 1.195-3.504 2.306 0 .428-.65.615-2.135.615-1.81 0-2.315-.21-3.31-1.372-.663-.776-1.822-1.495-2.663-1.656-1.296-.246-1.69-.07-3.05 1.372-1.345 1.425-1.845 1.655-3.615 1.655-1.672 0-2.11-.175-2.352-.94-.163-.515-1-1.272-1.856-1.68-1.44-.687-1.677-.687-3.117 0-.857.408-1.692 1.165-1.856 1.68-.24.763-.68.94-2.326.94-1.707 0-2.237-.232-3.334-1.46-1.008-1.128-1.677-1.46-2.937-1.46-1.688 0-3.504 1.196-3.504 2.307 0 .427-.65.614-2.136.614-1.808 0-2.314-.21-3.31-1.372-.662-.776-1.82-1.495-2.662-1.656-1.296-.247-1.69-.07-3.05 1.372-1.345 1.426-1.845 1.656-3.615 1.656-1.672 0-2.11-.175-2.352-.94-.163-.515-1-1.272-1.856-1.68-1.44-.688-1.678-.688-3.118 0-.857.408-1.692 1.165-1.856 1.68-.24.763-.68.94-2.327.94-1.708 0-2.238-.232-3.335-1.46-1.008-1.128-1.677-1.46-2.937-1.46-1.688 0-3.504 1.196-3.504 2.307 0 .427-.65.614-2.135.614-1.81 0-2.315-.21-3.31-1.372-.663-.776-1.822-1.495-2.663-1.656-1.296-.248-1.69-.07-3.05 1.37-1.345 1.427-1.845 1.657-3.615 1.657-1.672 0-2.11-.175-2.352-.94-.163-.515-1-1.272-1.856-1.68-1.44-.688-1.677-.688-3.117 0-.857.408-1.692 1.165-1.856 1.68-.24.763-.68.94-2.326.94-1.707 0-2.237-.232-3.334-1.46-1.008-1.128-1.677-1.46-2.937-1.46-1.688 0-3.504 1.196-3.504 2.307 0 .428-.656.613-2.17.612-1.852 0-2.332-.2-3.308-1.376z" stroke="#eaffc1" stroke-linecap="round" stroke-width=".5" fill="#f6ffe5"/><path stroke="#f36b67" stroke-linecap="round" stroke-width=".743" fill="none" d="M38.82 879.3h247.3v155.2H38.82z"/><g fill="#9cf"><path d="M191.634 1008.15c33.915 5.03 82.92 2.047 83.19 12.673.273 10.63-37.76 9.107-47.56 9.285-9.8.177-72.365-1.376-81.663-1.44-9.297-.065-35.434.443-52.892.457-17.46.015-44.3 1.103-43.528-16.03.775-17.133 30.672-13.215 51.57-13.29 20.897-.075 56.977 3.317 90.858 8.348zM253.027 986.165c11.082-.147 25.687 2.77 24.498 11.716-1.185 8.95-8.083 10.67-19.343 10.788-14.14.147-109.286-5.74-109.116-9.565.157-3.824 90.01-12.752 103.936-12.938z"/><path d="M48.722 981.578c-.323-12.13-7.373-14.808 47.96-15.44 44.75-.515 128.56 13.428 128.476 16.532-.053 6.11-88.31 12.305-108.097 13.33-33.65 1.748-67.803 6.266-68.355-14.422z"/><path d="M51.27 963.19c-.613-1.29 31.58-2.606 47.356-3.957 11.506-.983 33.915-3.98 52.198-.875 21.483 3.65 40.7 4.156 74.895 4.385 43.17.29 46.99 4.36 46.82 5.65-.192 1.435-.243.95-5.634.987-6.018.044-32.166-3.57-45.557-3.414-21.485.248-30.8 3.993-38.875 4.076-4.86.05-47.357-7.327-68.883-7.022-17.883.253-41.906 2.153-51.63 1.998-3.796-.06-10.18-.74-10.698-1.83z"/><path d="M195.54 971.812c.502-3.244 23.487-3.757 27.35-3.662 3.093.076 51.442 1.47 52.198 10.012.268 2.998-2.48 5.247-11.43 5.397-9 .15-35.307-5.046-41.37-6.798-4.136-1.194-27.122-2.553-26.748-4.95zM50.42 956.746c.134-5.78 17.306-6.544 45.14-7.34 15.175-.433 33.322 2.532 33.49 4.323.152 1.57-20.455 2.213-26.815 2.873-14.588 1.514-34.373 3.6-42.135 3.67-10.062.088-9.73-1.525-9.688-3.527zM128.457 949.47c.05-2.243 35.528-.376 53.564-.175 21.748.243 62.465-5.504 72.493-5.373 24.09.313 21.187 8.133 21.238 10.23.188 7.425-1.362 7.65-4.59 7.722-1.964.04-13.9-1.644-23.3-1.792-4.893-.076-33.967.964-37.04.924-27.82-.37-82.436-8.478-82.368-11.535z"/></g><path d="M51.744 887.133c-12.38 16.13-3.428 59.03-.486 60.99 4.555 3.035 23.1-2.943 47.14-2.916 22.17.026 68.95 2.174 91.12 1.7 22.42-.478 49-5.4 66.58-4.86 11.7.36 17.58 4.874 19.2 2.212 2.577-4.237 7.206-51.37 1.694-56.15-4.328-3.757-220.2-7.57-225.2-.973z" fill="#fca0a0"/><path d="M51.744 887.133c-12.38 16.13-3.428 59.03-.486 60.99 4.555 3.035 23.1-2.943 47.14-2.916 22.17.026 68.95 2.174 91.12 1.7 22.42-.478 49-5.4 66.58-4.86 11.7.36 17.58 4.874 19.2 2.212 2.577-4.237 7.206-51.37 1.694-56.15-4.328-3.757-220.2-7.57-225.2-.973z" fill="#fca0a0"/><path fill="#5c4040" d="M141.714 912.467l-4.25 3.188-5.47 4.594-1.437 6.187-5.2 7.78-9.72 11.28c19.96.47 45.79 1.384 63.97 1.47l-2.624-4.44-5.125-9.718-5.47-8.313s-8.5-3.364-8.5-3.188c0 .175-4.25-7.407-4.25-7.407h-6.53l-5.47-1.438z"/><circle stroke-linejoin="bevel" cx="258" stroke-linecap="round" stroke="#003f42" transform="translate(5.202 -.257)" cy="985.3" r="91.71" stroke-width="1.7" fill="none"/><circle cx="258" transform="translate(5.202 -.257)" cy="985.3" r="75.8" fill="none"/><g font-size="40" font-family="Quicksand" fill="#003f42" letter-spacing="0" word-spacing="0"><path d="M345.402 986.943c-3.417-.302-6.44 2.295-6.765 5.78-.132 1.5.27 2.905.993 4.076.078.11.214.16.31.08.11-.08.124-.218.063-.33-.695-1.08-1.036-2.392-.913-3.786.285-3.225 3.08-5.648 6.27-5.367 3.156.28 5.485 3.155 5.2 6.38-.124 1.412-.69 2.645-1.564 3.586-.095.08-.09.22.006.334.08.078.223.055.32-.042.913-.99 1.56-2.34 1.692-3.84.308-3.485-2.23-6.573-5.612-6.872M336.302 1006.743c-.12-.03-.242.03-.276.165-.026.102.05.23.168.26l4.716 1.194c1.866.473 3.754-.637 4.227-2.503.323-1.273-.11-2.556-1-3.395l5.09 1.29c.12.03.242-.03.272-.148.03-.118-.047-.246-.165-.276l-6.582-1.667-.136-.034-4.716-1.196-.033-.01c-.05-.012-.11.01-.153.035-.047.04-.077.087-.09.138l-.008.034c-.004.017.004.055.012.094.02.06.08.11.165.132l4.835 1.225c1.543.463 2.472 2.07 2.068 3.665-.412 1.63-2.05 2.604-3.678 2.19l-4.716-1.194M342.402 1018.743c-.09.077-.08.1.002.133.065.027.143.02.205.01l1.917-.385c.247-.05.397-.138.477-.332.127-.308-.062-.31-.123-.392-.06-.08-.22-.015-.356.042l-1.72.637c-.267.098-.27.153-.402.288m-8.947-4.608c-.546 1.327-.288 2.815.485 3.927.07.105.213.126.295.065.095-.093.14-.207.07-.31-.724-1-.938-2.318-.445-3.515.8-1.903 3.037-2.78 4.98-1.982l.047.02-2.903 7.055c-.04.098.024.218.114.275l.017.006.032.014.016.006c2.115.7 4.39-.275 5.222-2.298.872-2.12-.192-4.545-2.38-5.483-2.182-.86-4.645.114-5.55 2.22m7.51 3.09c-.713 1.732-2.656 2.636-4.507 2.12l2.81-6.83c1.677.936 2.42 2.945 1.696 4.71M330.602 1020.743c-.123-.068-.25-.018-.3.074-.07.122-.026.226.096.294l3.505 1.944s.15.163.42.472c.363.462.925 1.253 1.24 2.128.286.82.347 1.793-.18 2.742-.067.122-.018.25.09.31.107.058.24.033.31-.09.796-1.44.35-2.946-.2-4.01-.195-.37-.416-.692-.624-.967l2.54 1.407c.107.06.233.05.3-.074.052-.09.01-.234-.096-.294l-3.505-1.944c-.04-.04-.054-.05-.093-.05l-3.505-1.944M325.002 1028.743c-.835 1.167-.924 2.674-.427 3.934.045.118.18.17.273.13.114-.068.185-.168.14-.286-.477-1.137-.384-2.47.37-3.522 1.216-1.67 3.592-2.013 5.3-.79l.042.03-4.44 6.205c-.062.085-.027.218.048.293l.014.01.03.02.013.01c1.9 1.166 4.337.737 5.61-1.042 1.334-1.864.852-4.47-1.063-5.882-1.927-1.336-4.548-.953-5.91.89m6.602 4.727c-1.09 1.522-3.188 1.957-4.87 1.032l4.297-6.005c1.42 1.295 1.684 3.42.574 4.972M311.502 1043.743l2.598 2.865.14.156.12.13 5.042 5.56c.082.092.24.137.345.043.077-.07.06-.245-.02-.335l-3.88-4.278c1.446.578 3.13.35 4.322-.73 1.71-1.553 1.79-4.225.216-5.962-1.587-1.75-4.266-1.943-5.977-.39-1.194 1.08-1.584 2.734-1.16 4.217l-1.423-1.57c-.082-.09-.23-.098-.31-.028-.102.094-.097.23-.014.322m3.063 2.727c-1.434-1.58-1.353-3.993.137-5.344 1.517-1.375 3.925-1.22 5.36.36 1.42 1.57 1.33 3.97-.188 5.344-1.452 1.317-3.777 1.228-5.204-.242l-.105-.117M305.602 1047.743c-1.19.8-1.8 2.182-1.775 3.536 0 .125.108.222.21.217.13-.025.232-.094.232-.22-.05-1.233.502-2.448 1.577-3.172 1.723-1.138 4.07-.63 5.242 1.113l.028.044-6.33 4.26c-.087.058-.1.194-.057.29l.01.016.02.03.01.013c1.372 1.757 3.805 2.207 5.62.986 1.902-1.28 2.36-3.888 1.06-5.882-1.337-1.926-3.927-2.482-5.848-1.23m4.534 6.735c-1.553 1.045-3.67.72-4.925-.736l6.128-4.123c.876 1.71.38 3.795-1.202 4.86M294.802 1054.743c-.046-.113-.183-.17-.296-.125-.114.046-.156.176-.11.29l1.957 4.833-3.13 1.268c-1.737.703-2.6 2.676-1.89 4.427.71 1.752 2.708 2.585 4.444 1.883l3.293-1.333.033-.013c.113-.046.17-.182.125-.296l-4.426-10.93m1.722 5.42l2.22 5.483-3.13 1.266c-1.51.61-3.24-.123-3.86-1.648-.616-1.525.13-3.224 1.64-3.835l3.13-1.267M285.402 1057.743c-.037-.135-.16-.192-.262-.164-.136.036-.18.138-.143.273l1.052 3.867s-.014.22-.048.63c-.077.583-.252 1.538-.66 2.374-.387.776-1.043 1.5-2.09 1.784-.135.037-.192.16-.16.28.033.117.145.195.28.16 1.587-.433 2.357-1.803 2.737-2.94.126-.398.203-.78.256-1.122l.763 2.803c.03.117.126.2.26.163.102-.027.176-.156.144-.275l-1.052-3.867c.003-.054-.002-.07-.028-.1l-1.052-3.867M277.902 1059.743c-.022-.12-.127-.208-.265-.182-.103.02-.187.142-.165.262l1.472 8.003c.025.138.14.188.244.17.138-.027.21-.11.186-.25l-1.472-8.002m1.894 10.29c-.02-.103-.124-.19-.262-.165-.103.02-.187.14-.168.244l.076.413c.025.138.144.205.247.186.137-.024.207-.126.182-.264l-.076-.413M266.602 1060.743c-.01-.122-.088-.22-.227-.21-.122.01-.22.123-.21.245l.385 4.867c.152 1.92 1.826 3.332 3.71 3.183 1.29-.102 2.368-.907 2.877-2.018l.125 1.57c.01.14.103.202.225.192.123-.01.222-.087.21-.227l-.245-3.105-.01-.14-.385-4.866-.003-.035c-.003-.036-.023-.07-.042-.086 0-.017 0-.017-.02-.033-.02-.015-.038-.03-.055-.03-.02-.016-.037-.015-.055-.03l-.035.002-.035.003c-.07.005-.12.044-.15.1-.032.037-.046.09-.042.143l.385 4.867c.134 1.692-1.14 3.127-2.78 3.257-1.64.13-3.105-1.09-3.24-2.78l-.384-4.868M262.702 1064.743c.127-2.342-1.743-4.37-4.17-4.52-1.015-.055-1.995.242-2.777.778-.092.084-.1.206-.035.315.066.09.204.116.295.068.71-.487 1.584-.772 2.493-.723 2.22.12 3.873 1.945 3.758 4.06-.115 2.114-1.956 3.75-4.175 3.63-.908-.05-1.747-.41-2.4-.973-.102-.075-.224-.082-.298.002-.076.1-.084.24 0 .332.718.635 1.66 1.02 2.675 1.074 2.43.132 4.508-1.683 4.636-4.042M249.102 1059.743c-1.41-.268-2.815.283-3.75 1.263-.088.09-.08.234-.004.302.11.075.23.098.32.008.832-.91 2.08-1.385 3.352-1.143 2.025.403 3.334 2.417 2.94 4.48l-.01.05-7.494-1.427c-.103-.02-.21.067-.245.167l-.003.017-.006.035-.002.017c-.262 2.213 1.15 4.245 3.3 4.655 2.25.43 4.413-1.1 4.893-3.432.405-2.31-1.042-4.528-3.288-4.99m-1.52 7.975c-1.84-.35-3.115-2.072-2.98-3.99l7.253 1.383c-.58 1.83-2.4 2.963-4.273 2.606"/></g><g font-size="20" font-family="sans-serif" fill="#003f42" letter-spacing="0" word-spacing="0"><path d="M187.502 978.443c.045-.056.112-.13.135-.17l.002-.018s0-.02.02-.02c.004-.038.03-.116.055-.154l.003-.04c.026-.057.033-.137.038-.197.005-.06.01-.12-.002-.2l.003-.04c-.014-.062-.03-.104-.025-.163-.018-.022-.018-.022-.017-.042-.014-.062-.07-.127-.085-.168l-.016-.042c-.037-.043-.053-.085-.09-.128-.018-.022-.018-.022-.056-.045-.038-.024-.072-.087-.11-.11 0-.02 0-.02-.018-.022-.037-.044-.115-.07-.153-.094l-11.2-5.956c-.518-.267-1.2-.067-1.468.472-.288.516-.087 1.197.45 1.486l8.877 4.705-9.57 3.064c-.578.19-.893.805-.702 1.364.168.597.802.914 1.36.723l12.07-3.846c.044-.035.128-.068.17-.084.02 0 .02-.018.02-.018.042-.017.086-.053.13-.09.04.004.04-.016.06-.014.046-.056.07-.094.113-.13l.002-.02M182.502 959.143c-.58-.157-1.168.18-1.32.74-.136.502.126.988.577 1.234-.72.592-1.285 1.372-1.547 2.337-.357 1.313-.106 2.603.557 3.674.643 1.066 1.71 1.873 3.04 2.235 1.314.357 2.64.2 3.754-.39 1.094-.594 1.943-1.586 2.3-2.9.262-.964.19-1.916-.133-2.79.495.01.967-.278 1.103-.78.15-.56-.186-1.15-.746-1.3l-3.783-1.028-3.802-1.032m5.03 4.37c.358.595.45 1.324.267 2-.19.694-.638 1.277-1.24 1.59-.63.327-1.397.41-2.188.194-.81-.22-1.432-.68-1.79-1.273-.4-.585-.492-1.315-.303-2.01.182-.675.63-1.258 1.278-1.58.608-.332 1.382-.433 2.192-.213.79.216 1.408.694 1.784 1.293M191.902 946.943l-3.602-1.694c-.525-.248-1.155-.036-1.41.507-.22.47-.083 1.022.31 1.317-.778.43-1.46 1.127-1.902 2.068-.562 1.194-.556 2.545-.108 3.707.485 1.177 1.377 2.194 2.626 2.78 1.267.597 2.62.636 3.78.232 1.218-.378 2.262-1.235 2.823-2.43.416-.886.536-1.847.39-2.71.994.754 1.375 2.104.822 3.28-.18.382-.43.683-.74.914-.454.404-.537 1.05-.16 1.516.37.483 1.07.547 1.508.178.553-.425 1.03-1.018 1.346-1.688 1.132-2.407.07-5.27-2.3-6.386l-3.367-1.583-.02-.008m.63 3.5c.268.7.258 1.382-.066 2.07-.298.632-.832 1.11-1.525 1.315-.62.238-1.445.205-2.206-.153-.724-.34-1.275-.953-1.506-1.592-.302-.673-.293-1.398.005-2.03.323-.69.86-1.122 1.587-1.354.622-.193 1.446-.16 2.17.182.76.357 1.31.97 1.54 1.564M196.002 933.243c-.492-.343-1.16-.223-1.492.252-.297.427-.214.973.127 1.356-.877.316-1.67.86-2.243 1.68-.777 1.116-.976 2.416-.713 3.647.248 1.22.98 2.34 2.112 3.128 1.116.778 2.42 1.076 3.666.897 1.23-.19 2.364-.84 3.142-1.955.572-.82.824-1.742.815-2.674.463.176 1.003.065 1.3-.362.332-.475.213-1.143-.263-1.475l-3.216-2.24-3.233-2.253m3.265 5.81c.135.68-.024 1.398-.424 1.972-.41.59-1.03.99-1.703 1.08-.7.097-1.45-.085-2.124-.554-.69-.48-1.12-1.122-1.256-1.8-.18-.687-.02-1.405.39-1.996.4-.574 1.02-.972 1.737-1.057.684-.108 1.447.058 2.136.538.673.47 1.092 1.127 1.244 1.818M205.102 934.543c.414.407 1.107.415 1.527-.013.377-.386.4-.95.128-1.36.904-.177 1.82-.624 2.52-1.337 1.892-1.926 1.78-5.065-.146-6.957-1.955-1.92-5.095-1.977-6.987-.052-.687.7-1.13 1.608-1.28 2.5l-2.68-2.635c-.415-.407-1.108-.415-1.542.027-.42.428-.4 1.12.013 1.527l5.65 5.55.015.015 2.783 2.732m-2.134-6.275c-.022-.72.213-1.388.73-1.916.506-.512 1.182-.773 1.903-.765.707-.007 1.43.284 2.002.845.542.532.846 1.25.852 1.958.02.72-.228 1.402-.733 1.916-.518.528-1.18.774-1.902.766-.707.006-1.43-.284-1.973-.817-.57-.56-.875-1.28-.88-1.986M218.902 923.643c1.07-.773 1.703-1.946 1.818-3.188.214-1.24-.106-2.538-.926-3.673-.797-1.102-1.893-1.766-3.184-2.017-1.215-.282-2.528-.05-3.598.724-1.12.807-1.72 1.956-1.9 3.245-.134 1.282.135 2.543.93 3.645.82 1.135 1.968 1.836 3.18 2.045 1.28.235 2.56.026 3.68-.782m-5.725-4.648c.148-.65.496-1.295 1.11-1.74.57-.41 1.275-.526 1.938-.462.722.145 1.37.565 1.85 1.23.504.696.687 1.428.61 2.174-.125.682-.49 1.267-1.06 1.677-.615.445-1.302.62-1.99.525-.7-.186-1.32-.6-1.824-1.298-.48-.665-.69-1.4-.633-2.108M224.902 908.243c-.697.35-1.25.896-1.617 1.504-.33-.26-.78-.303-1.154-.115-.535.27-.732.904-.472 1.423l1.39 2.77 2.14 4.274c.26.518.888.74 1.424.472.465-.233.688-.77.563-1.244 0-.09-.027-.143-.054-.197l-2.14-4.272c-.503-1-.12-2.2.88-2.702 1.02-.51 2.264-.128 2.766.873l2.142 4.272c.26.52.922.724 1.423.473.52-.26.716-.895.456-1.414l-2.142-4.272c-1.013-2.02-3.527-2.885-5.6-1.845M243.602 906.543l-.006-.02-2.328-7.57c-.17-.553-.776-.89-1.35-.714-.593.18-.904.8-.734 1.355l1.105 3.594c-.86-.28-1.873-.304-2.81-.016-2.58.793-3.975 3.608-3.17 6.227.794 2.582 3.528 4.126 6.11 3.333.955-.294 1.773-.9 2.346-1.62.237.428.75.668 1.266.51.574-.177.885-.796.715-1.35l-1.146-3.73m-3.44-1.054c.624.33 1.122.93 1.357 1.695.223.727.148 1.503-.183 2.128-.325.644-.85 1.12-1.556 1.336-.688.21-1.407.118-2.038-.232-.625-.33-1.123-.93-1.347-1.657-.235-.764-.16-1.54.17-2.165.326-.644.87-1.125 1.557-1.336.707-.218 1.407-.12 2.038.23M256.402 900.543c-.074-.595-.61-1.012-1.186-.94-.516.064-.866.49-.923 1.002-.82-.442-1.756-.668-2.748-.544-1.35.17-2.45.89-3.188 1.91-.742 1-1.085 2.292-.914 3.66.168 1.35.818 2.52 1.785 3.326.965.786 2.205 1.196 3.555 1.028.992-.124 1.846-.553 2.533-1.183.18.462.623.79 1.138.725.576-.07.992-.607.92-1.183l-.485-3.89-.488-3.91m-2.135 6.313c-.415.556-1.055.918-1.75 1.004-.714.09-1.423-.105-1.94-.544-.542-.457-.91-1.136-1.01-1.95-.104-.834.084-1.583.5-2.138.388-.593 1.03-.955 1.743-1.044.694-.087 1.404.107 1.947.583.538.437.925 1.114 1.03 1.948.1.814-.108 1.565-.52 2.14M271.302 904.643l.19-3.975c.027-.58-.41-1.08-1.01-1.11-.518-.024-.975.315-1.098.79-.694-.554-1.598-.917-2.637-.967-1.32-.06-2.565.46-3.467 1.318-.903.898-1.502 2.11-1.568 3.49-.066 1.397.414 2.662 1.23 3.582.816.98 2.006 1.617 3.325 1.68.98.047 1.912-.21 2.655-.674-.317 1.206-1.42 2.075-2.72 2.013-.418-.02-.793-.14-1.124-.335-.548-.267-1.177-.096-1.462.43-.305.527-.097 1.198.41 1.462.605.35 1.336.564 2.075.6 2.658.126 4.9-1.95 5.024-4.567l.177-3.716.002-.02m-2.995 1.92c-.545.515-1.178.765-1.937.73-.7-.034-1.345-.346-1.8-.908-.457-.482-.74-1.257-.7-2.096.038-.8.394-1.543.896-2 .506-.536 1.18-.805 1.88-.77.758.035 1.363.364 1.856.948.417.5.7 1.275.662 2.074-.04.84-.396 1.583-.857 2.022M279.402 910.943c1.387.303 2.63.144 3.78-.527.538-.312.47-.94.276-1.27-.186-.368-.974-.6-1.478-.26-.57.264-1.448.257-2.14.045-.67-.207-1.375-.73-1.683-1.287-.28-.41-.383-.964-.383-1.435l6.214 1.355c.547.12 1.026-.104 1.187-.56.028-.035.05-.133.058-.172.008-.038.017-.077.02-.097.42-2.672-1.18-5.006-3.72-5.56-2.677-.584-5.234 1.192-5.833 3.845-.56 2.662 1.03 5.322 3.703 5.925m1.726-7.914c1.67.507 2.414 1.877 2.44 2.7l-5.53-1.205c.33-.767 1.41-1.78 3.09-1.496M287.302 911.643c.522.882 1.39 1.98 2.843 2.55.917.345 1.865.383 2.715.17.857-.233 1.652-.81 1.998-1.726.162-.43.194-.91.11-1.37-.12-.643-.49-1.19-.91-1.605-.445-.467-.96-.854-1.536-1.2l-.02-.007-.01-.026c-.594-.353-1.017-.705-1.196-.965-.103-.125-.13-.22-.135-.265-.016-.07-.01-.09.02-.164.035-.094.155-.24.462-.317.313-.097.782-.09 1.25.086.598.226 1.01.723 1.46 1.342.347.495 1.015.597 1.483.26.457-.36.56-1.028.223-1.497-.443-.637-1.127-1.6-2.418-2.088-.86-.325-1.738-.38-2.563-.177-.794.235-1.556.78-1.88 1.64-.163.43-.207.885-.128 1.3.145.632.467 1.14.88 1.573.402.408.907.77 1.444 1.1l.02.008c.623.385 1.107.803 1.298 1.09.114.15.16.252.158.315.017.072.02.116-.014.21-.057.15-.202.308-.55.434-.37.074-.9.066-1.406-.125-.737-.258-1.416-1.006-1.747-1.6-.277-.512-.953-.703-1.46-.38-.492.283-.676.94-.392 1.433"/></g><circle stroke-linejoin="bevel" stroke-width=".663" stroke-linecap="round" stroke="#003f42" transform="translate(5.202 -.257)" cy="985.3" cx="258" r="73.85" fill="none"/></g></svg>