<svg xmlns="http://www.w3.org/2000/svg" viewBox="0 0 600 600"><path d="M377.87 596.1c-24-1.7-45.4-3.6-47.6-4-9-1.7 47.4-1 77 1.2 17.6 1.2 32.2 1.6 32.6 1 .4-.7 2.5-.8 4.7-.3 3.4 1 3.5 1.2.8 2.7-5 3-22.2 2.8-67.4-.6zm214 2c.6-1 1.5-1.8 2-1.8.4 0 .7.8.7 2s-.8 1.7-2 1.7c-1 0-1.3-.8-.7-1.8zm5.5 0c-.5-1-.2-1.8 1-1.8 1 0 1.8.8 1.8 2s-.3 1.7-.8 1.7-1.3-.8-2-1.8zm-30-.7c0-3.6 4-10.3 5.4-9.4 1 .6 1.4 2 1 2.7-.7 1-.3 2 .8 2.8 3.4 2.2 2 4.7-2.8 4.7-2.5 0-4.5-.4-4.5-.8zm45.3-.6c1.4-.5 3-.5 3.5 0 .7.8-.4 1.2-2.4 1-2 0-2.5-.4-1-1zm-304-6.2c-2.2-1.5-2-2.4 1.8-5.4 3-2.6 5-3 6.7-2 1.2 1.2 3 1.4 3.8.6 1-.7.5 0-1 2-2 2.7-2 3 1 3 5 0 1.7 2.3-4.2 3-2.8.3-6.4-.2-8-1.2zm-23.7-2.4c0-.4 1.3-1.2 2.8-1.8 1.5-.6 2.7-.3 2.7.7s-1 1.8-2.6 1.8-2.8-.3-2.8-.7zm9.2-1c0-.8 1.2-2.6 2.7-3.8 2.3-2 2.8-1.8 2.8.5 0 1.6 1.4 3.3 3.2 3.7 1.8.5.5 1-2.8 1-3.2.2-6-.4-6-1.3zm-33-3.2c-2.3-1.7-3.7-2-3-1 1 1.6-.5 2.2-4.7 2.2-5.8 0-37-3.6-62.3-7.3-7-1-16.2-1.8-20.8-1.8-5.7 0-8-.7-7-2 .7-1.5-.5-1.7-4-1-3.3.8-12.7-.6-23.7-3.3-10-2.4-22-5-26.6-5.6-4.5-.6-17-2.7-27.5-4.7-10.6-2-32.4-5-48.6-7.2-146.4-30-181.5-27.3-41.6-25.6 2.6 0 4.8 1.5 5.8 4 1.2 3 1.7 3.3 1.8 1.2.2-4.2 7-5.7 9-2 1 1.8 1.2 4.2.8 5.5-.5 1 0 2.2 1.2 2.2s2-1.7 2-3.7c0-2.6 1.2-3.7 4-3.6 4.4 0 11.6 3.4 7.4 3.5-1.3 0-2.3 1-2.3 2 0 1.4 1.5 1 3.5-1 2.6-2.3 5-2.8 10-1.8 5.7 1 6.3 1.6 4 3.4-3.4 2.4-2 8.5 1.8 8.5 3 0 4.8-4.6 3.4-8.2-.6-1.6-.2-2.8 1-2.8 4.7 0 20.3 4 20.3 5.4 0 .7 5.7 1 12.6.4 9.2-.6 14.2 0 18.3 2 3.2 1.5 6 2.2 6.6 1.4 1-2 12.3-.2 15.5 2.4 1.4 1 6 2 10 2.2 18.4.4 41.6 4.7 50.6 9.3 2.7 1.4 5 1.6 5.5.6.6-1 2.3 0 3.7 2 2.5 3.4 7.5 5 7 2.2-.4-3.4.5-6 2-6 1.2 0 2 1.3 2 3 0 2.3.5 2.5 2.6.8 1.7-1.3 5.3-1.8 8.8-1.2 3.4.7 9.8 1.7 14.3 2.2 4.7.6 9.6 1.6 11 2 1.7.7 4.3 1 6 .8 1.6-.2 3.5.5 4.2 1.6.6 1 3 2 5.3 2s5 .7 5.8 1.7c1 1 4 2 6.4 2.4 3.6.6 4.6 2 5 6.7 1 8-1.4 10-6.8 6.2zm-211.9-45.9c.6-1 .2-2-.8-2s-2 1-2 2 .4 1.7.8 1.7 1.4-.8 2-1.8zm222.7 45.7c-2.4-1.5-2.3-1.8.4-1.8 2 0 3.3.8 3.3 1.8 0 2.2-.2 2.2-3.6 0zm225.1-54.7c-2-.3-3.2-2.3-3.2-5 0-2.3-1-4.8-2.2-5.6-3.5-2.2 4-4 14-3.4 10.2.7 9.5.3 11.2 7 1.2 5 1 5.3-2.6 4.4-2.7-.7-4-.2-4 1.4 0 2.4-6 3-13.3 1.3zm-69.9-15.2c1.8-6.4 4.5-8.5 4.5-3.8v5.4c0 .8-1.2 1.7-2.8 2-2.4.5-2.8-.2-1.8-3.6zm-36-2.7c-1.3-1.5.5-2 6.5-2 4.6.2 8.3 1 8.3 1.6 0 .7 1.5 1.6 3.2 2 1.8.6-1 .8-6.5.7-5.3 0-10.5-1-11.5-2.3zm107.8 0c-9.6-1.7-5-4.4 7.3-4.4 8 0 11.6.6 10.4 1.8-2.3 2.4-11.2 3.6-17.7 2.6zm-174-5.7c3.2-.4 8.2-.4 11 0 2.7.4 0 .8-6 .7-6 0-8.4-.3-5-.7zm174-6c-1.6-2-3.2-5.3-3.6-7.7-.5-2.8-2-4.4-4.8-4.8-9-1.3-1.3-4 11.6-4 13 0 17.7 2.2 10.7 5-2 .7-2.5 2.3-1.7 5.5 2 8.6-6 12.7-12.2 6zm-288.3-3.8c-.6-1 .6-1.7 2.7-1.7 4.3 0 4.8 1 1 2.5-1.5.5-3.2.2-3.8-.8zm-17.4-1.8c-2-1.2-2-1.7-.4-1.7 1.5 0 2-1.7 1.5-4.6-.5-2.5-.2-4.5.6-4.5 1.8 0 3.6 10.8 2 12-.7.2-2.4-.2-3.8-1zm410.2-40c-1.3-3.5-2-4-3.8-2.2-1.8 2-1.6 3 .7 4.6 3 2.2 6.4 10.4 4.3 10.4-.6 0-3-2.3-5.6-5l-4.4-5-.2 4.5c0 4.2-.2 4.3-1.6 1-1-2-1.7-2.7-1.8-1.5 0 1.3-2.3 2.3-5 2.2-5 0-5-.2-1-1.8 2.2-1 4.2-2.3 4.2-3 0-.8.4-3 .8-4.7.5-2.6 0-2.8-3-1.2-2 1-3 2.6-2.5 3.5 1.4 2-5.3 5.8-7.2 4-.8-.7-.8.7 0 3 1 3.4.4 4.5-2.5 5.2-2 .6-4 2.4-4.6 4-.6 2.4-1 2-2-1.2-1.3-3.6-2.3-4-6.3-3-2.6.7-10 1.5-16.3 1.6-11 .3-11.5.2-10.5-3.6.8-3.4.2-4-3.8-4-2.6 0-5.4-1-6.2-2.4-1-1.7-1.6-1-2 2-.4 2.3-1.7 4.5-3 5-1.7.5-2.3-2.6-2.3-11.7 0-15.6-3-13.7-4.2 2.4-.5 6.4-2 12.7-3 14-1 1.4-1.8 3.7-1.6 5 .3 1.4-.5 2.4-1.7 2.3l-7-.4c-4-.3-4.5-.8-2.8-3 1.5-1.8 1.5-2.8 0-3.8-1.2-.7-1.7-2.8-1.2-4.7.5-2 0-3.5-1.3-3.5s-2.3 2.8-2.4 6.6c-.2 8.8-2.3 10.6-10.8 9-4-1-6-2-4.8-2.3 2.7-1 3.2-6 .6-6-1 0-2.8-.5-4-1-1.5-.5-4.2.4-6.2 2-3.5 2.7-3.3 2.8 2.8 2 3.5-.5 5.3-.5 4 0-1.2.5-1.7 1.8-1 2.8.6 1-3 1.5-10 1-12.2-1-17.5-4.2-14.8-9.2 1.5-2.7 1-3-4.3-2-3.3.7-6.5 2-7.2 3-.6 1-1.6 1-2.4-.3-.8-1-2-1.6-3-1-1 .6-1.8-.7-1.8-2.7s-.7-3.8-1.6-3.8c-1 0-3-.5-4.6-1-2-1-3 0-3 2.8 0 3.2.8 3.7 4 2.7 2.6-.8 3.5-.6 2.6.8-.7 1-3.3 2-5.7 2-3.3 0-4.6-1-4.6-3.5 0-4.4-3.3-6.8-4.6-3.4-1.4 3.4-7.7 3.5-9 0-1.5-3.8 0-5.2 3-2.7 2 1.6 3 1 4.4-3 2-5 1.8-5-7-5.5-6.6-.4-9 .2-10 2.4-.5 1.5-2.4 2.8-4 2.8-2.4 0-2.5-.4-.6-1.6 1.8-1 1-1.8-3-2.4-3-.5-5.2-.2-4.7.7.4.8-.8 1.5-3 1.5s-4-.8-4.6-1.8c-1.4-2.3-10.5 1.7-9.6 4.3.3 1-.6 3.3-2.2 5-2 2.5-3 2.8-4 1.2-1-1.3-.2-3.7 1.3-5.4 1.7-2 2-3.5.7-4.3-1-.6-2 0-2 1.7 0 1.5-1 2.8-2.5 2.8s-3 1-3.4 2.3c-.4 1.3-1.5 2-2.2 1.2-.7-.7-.4-3 .8-5 1.3-2.6 1.4-4 0-4-1 0-1.8 1-1.8 2.2 0 1.2-1.2 1.5-2.7 1-1.7-.6-3-.4-3 .5 0 1.4-7.4 4-12.7 4.4-1.5 0-2.6 1.2-2.3 2.4.2 1.3-1.4 2.8-3.7 3.3-3.7 1-4 2-3.5 11.2.4 6.3 0 10-1.4 10-1 0-2-3.3-2-7.3 0-5-1-8-3.2-9.2-2.3-1.4-2.6-2.3-1-3.4 1.3-.8 2-4 1.6-7-1-7.5-1-7.7-3-3-1.5 4-2.2 4.2-15 3-11.8-1-13.7-.7-17.7 2.7-2.3 2.3-5 4-5.7 4-.8 0-1.7 1.8-2 4-.5 4-1.4 4.2-13.4 4-9.6 0-11.4.2-7 1.2 12.2 2.8 8.3 4-8.5 3-9.5-.7-20-1.2-23.4-1.2-3.3 0-6-1-6-2s.8-1.4 1.8-.8c1 .7 2-1 2-3.7 0-4.2-.6-4.6-3-2.6-2.2 1.7-3.3 1.6-6-.8-4.3-4-5.2-3.8-6.3.3-1.2 4.6-17.8 5.2-18 .6 0-2.7 0-2.7-2.2 0-1.6 2-4.6 3-9.6 2.6-4-.3-7.7-.7-8.2-1-.5-.2-1.6-.2-2.5 0-1 0-2.8-1.3-4.3-3-1.5-2-2-2.2-1.4-.6.7 1.5-1 .3-3.7-2.8-3.3-3.5-5.4-4.6-6-3.2-.4 1.3-1.5 2-2.4 1.3-1-.6-1.7 0-1.7 1s.8 2 1.8 2 1.4 1 1 2.2c-.7 1.5-4.2 2-11 1.6-9.3-.5-10-1-10-5 0-3-1-4.3-3.8-4.3-2 0-3.6-1-3.6-2s1-1.6 2.6-1c3 1 7.5-5.3 4.8-7-1-.6-9-1.5-18-2-8.6-.7-18.3-1.7-21.3-2.7-3-1-10-1.6-15.2-1.8-9-.5-10 0-16 6.3-5.5 6-6.4 6.5-7.5 3.6-1-2.8-1.5-3-3.2-.8-3.3 4.2-8 4-9.2-.6-.8-2.6-1.7-3.3-2.2-2-.7 1.7-2 1.8-4.8.3-3-1.7-4.3-1.4-6.8 2-2.7 3.5-4 3.8-12.5 2.7l-9.6-1.3.7 6.2 1 7.6c0 .8 1 1 1.8.4 1-.5 2 .7 2.6 2.7.8 3.3 0 3.6-10.4 3.6-100.8-115.7-157-421.4-8.7-460.8C.77-90.5 9.97-14-9.03-7.5l-.5 11.6-.5 11.7 5-1 12-3c4-1 7-1 7-.2 0 2-25 8-27.3 6.7-1-.7-3.6.5-5.6 2.5-13.3 23.1 11.6 18.3 19.2 16.1 18.6-5.5 21.4-7 19-10-1.6-1.8-1.3-2.7 1-3.5 3-1.3 4-6.4 1.2-6.4-1 0-1.7-2.4-1.6-5.3 0-3.5 1-5 2.4-4.4 3.5 1.2 5-8.6 2.8-18-16.3-34 86.6-37.8 59.4.3-2.2 2.4-2.6 5.3-1.6 12.5 1.4 10.8 1.4 10.7 18.2 5.8 4-1.2 9-2.4 11-2.6 10.8-1.4 18.4-4.7 18.7-8.3 0-2-.5-3.7-1.4-3.7-1 0-1.7 1.4-1.7 3 0 2.4-.5 2.7-2 1.2-1.2-1-3.2-1.6-4.6-1-1.4.4-2.5 0-2.5-1s2.8-2.5 6.2-3.2c-351.5-148.8-180.957-195.335 409.643-120.935C1323.66-12.698 667.88 617.197 603.47 453.9zm-339.2 8.1c-.6-3.8-1.8-4.4-9.8-5-10.7-.6-23.5 2.7-22.4 5.8.8 2.5 29 6.8 31.3 4.8 1-.7 1.3-3.2 1-5.6zm282.5 2c0-1-2-1.6-4.2-1.5-3 0-3.3.3-1 1 2 .4 2.8 1.7 2.2 2.8-.8 1-.4 1.4.8.6 1.2-.7 2.2-2 2.2-3zm-109 0c.6-1-.2-2.2-1.8-3-3.6-1.2-5.5.3-3.8 3 1.4 2.5 4 2.5 5.5 0zm50.4.3c0-1-1.8-1.2-3.8-.7-2 .5-3.7 1.3-3.7 1.7 0 .3 1.7.7 3.7.7s3.7-.8 3.7-1.7zm-274.9-6.8c0-2.3-4.8-3.2-16.5-3l-31.7-2.2c-17-1.2-31.7-1.6-32.8-1-1.2.8 4 1.8 11.5 2.4 14.6 1 65.8 6 68 6.4.8 0 1.5-1 1.5-2.5zm232.8 1c0-2-3.6-4.3-5-3-1.4 1.3 1 5 3.2 5 1 0 1.8-1 1.8-2zm101.3-4c.5-2.4 1.6-5.8 2.4-7.7 1-2.5.8-3.2-1-2.6-1.6.5-2.7 2-2.7 3.5s-1.2 3.5-2.6 4.6c-1.4 1.1-2 3-1.2 4 2 3.4 4.3 2.6 5.3-2zm9 0c-1.8-2-2-1.7-1 1 .6 1.7 1.7 2.7 2.2 2.2.6-.6 0-2-1.2-3.3zm16.2 1.3c0-1.5-.8-2.8-1.8-2.8s-1.8 1.3-1.8 2.8c0 1.5.8 2.7 1.8 2.7s1.8-1.2 1.8-2.7zM-4.83 453c0-1-.8-2-1.8-2s-1.8 1-1.8 2 .8 1.8 1.8 1.8 1.8-.8 1.8-1.8zm564.4-5.6c0-1-.8-1.8-1.8-1.8s-1.8 1.2-1.8 2.8c0 1.6.8 2.4 1.8 1.7s1.8-2 1.8-2.8zm49.4-3.7c0-1-.7-1.7-1.8-1.7s-1.5.8-1 1.8c.7 1 1.6 1.8 2 1.8.5 0 .8-.7.8-1.7zm-599.6-4c.7-3-.5-3.4-10.8-3-14.6.5-16.8 1.7-8.8 4.7 9 3.2 19 2.3 19.8-2zm42.2 2c-.8-2.4-18-3.6-18-1.3 0 .7 4 1.6 8.8 2 4.8.4 9 1 9.3 1 .3.2.3-.6 0-1.8zm-23-2.7c-1.3-.5-3.7-.5-5.5 0-1.8.4-.8.8 2.2.8s4.5-.3 3.3-.8zm19.7-6.2c0-1-1-1.8-2-1.8s-1.5.8-1 1.8c.8 1 1.6 2 2 2 .5 0 1-1 1-2zm468-5.3c-1-3 .3-3.6 10.6-4.6 163.995-2.437 221.727-23.957 69.2-15.8-19.7 1.2-43.8 2-53.7 1.6-9.8-.3-17.8 0-17.8.8 0 3-9 1.2-9.8-2-.4-1.6-1 3-1 10.2 0 7.3.5 13.3 1.4 13.3 1 0 1.4-1.6 1-3.5zm-.7-8.6c0-2.6 6.4-5.2 9-3.6.8.5 17.5.2 37-.8 72.084-4.427 89.742-1.518 20.6 1.8-25.4 1.2-50.8 2.8-56.4 3.5-7.8 1-10.3 1-10.3-1zm-21.3 1.5c.7-1-10.6-2.2-25.4-3-16-.8-26.6-2-26.6-3.2 0-1.3 9-1.5 27.5-.6 23.8 1 27.3.8 26.4-1.5-1-2.2-6-2.7-26-3-13.7 0-25.8-.8-27-1.7-3.4-2.8-119.2-6.7-121-4-1.4 2.4 13 3.6 69.3 5.6 43 1.6 51 2.3 48.7 4.5-.4.2-14.8 0-32-1-78-3.5-87.8-3.8-85.4-2 1.4 1 10.5 2 20.2 2 9.7.2 21.8.7 26.8 1 5 .6 24.4 1.8 43 3l52.3 3.4c27.5 2 28 2 29 .3zm-281-13.9c-1.5-1.4-20.7-2.8-52.3-3.8-16-.5-27.2-.2-24.7.6s12.4 1.6 22 1.8c9.5.3 17.5.7 17.8 1 .3.2 9 .6 19.3 1 10.4 0 18.4 0 18-.6zm-89.8-4.3c-2-2-55.4-6-75-5.5l-14.7.2 18.5 1.6c15.2 1.3 51.2 4 68.5 5 2.6 0 3.8-.4 2.7-1.3zm183.8.4c-.6-.5-2.2-.5-3.5 0-1.4.6-1 1 1 1 2 .2 3-.3 2.5-1zm136.3-18c-.3-10-.7-20.4-1-23l-.7-11.8c-.2-5-.8-6.5-2-4.8-1 1.7-1.7 0-2.2-5-.4-4.3 0-7.2 1.2-7 2.7.4 3.5-46 .7-49.4-3-3.6-5.3-3-5.3 1 0 2 .6 3.8 1.4 3.8.7 0 1.5 2 1.6 4.6.2 2.5-.4 4.5-1.3 4.5-1 0-1.7-1.8-1.7-3.8 0-2-.7-3.4-1.5-3-.8.7-1.4-1.8-1.3-5.3 0-3.5-.7-6.4-1.7-6.4s-1.8 3.2-1.8 7c.2 6.5-.2 7-4.5 7-4.4-.2-4.8.4-5.3 9-.4 5-1.5 10-2.4 10.8-3 3-2 5.3 1.2 2.7 2.5-2 2.8-1.8 2.3 1-.4 2.6.7 3.6 4 4 2.5 0 5.3-.7 6-1.8 1-1.2 1.3 0 .7 2.5-.6 2.4-.2 5.4.7 6.6 1 1 2.2 8.6 2.7 16.5s1.6 16.8 2 19.5c.8 3.7.2 5.4-2.7 7-3.7 1.8-3.8 1.5-4-11.4 0-10-.4-12.4-1.7-9.4-3 8-5.2 4.2-4.8-8.7.2-7 0-13-.6-13l-4-.8c-3-.5-3.4 1-3.6 13.4 0 7.8-.3 16-.4 18 0 3-1.5 4.3-5 5-3 .6-5.6 2.6-6.2 4.7-.7 2.3-2.8 3.8-5 3.8-3.3 0-2.3-1.6 5.8-9.3l9.7-9.4-1-12c-.7-6.6-2.3-12.7-3.6-13.6-2.5-1.6-21-.7-23 1-.6.7.3 2.7 2 4.5 2 2.5 2.4 4 1 5.4-1 1-1.7 6-1.4 11.3.7 10 .5 10.3-12.2 9.4-6.5-.4-14.3 6.6-13.4 12 .4 2-.3 3.3-1.5 3-1-.2-2 .7-2 2 .4 11-.5 13.6-5 13.6-5.2 0-6.4-5-2-8.6 3-2.6 5-9 2.8-10.3-2-1-7 4-11.4 11.6-4.3 7.4-4.2 10.2.3 8.7 2-.6 5-.3 7 .8 2.4 1.5.4 2-8.4 2-14.6 0-13.5 2.8 1.8 4.7 9.4 1.2 74 3.6 95.7 3.6h5.4zm-52-19c1-3.6 5.7-6.7 7.5-5 1 1.2-5 8.4-7 8.4-.8 0-1-1.6-.5-3.5zm28.5 1.3c1-3 5-3.4 5-.6.2 1-1 2-2.8 2.4-2 .5-2.8-.2-2.2-1.7zm7.7-57.7c0-2.7 1-5.3 2.4-5.7 2.4-1 2.7.3 1 6.3-1.5 5.7-3.6 5.2-3.5-.7zm-215.3 90.9c0-1-1.4-2-3-2l-10.7-.8c-28.7-2-68.6-2.5-69.6-1-.8 1.2 2 2 6.7 2.2 4.3 0 17.3.8 29 1.5 33.8 2 47.6 2 47.6 0zm282.3-1.6c0-1-1.8-2.2-4-2.8-6.7-1.7-38-1.3-38 .6 0 2.3 6.6 3.2 26 3.5 8.8.2 16-.4 16-1.3zm106-1.3c2.4-.5 3.6-1.7 3-3-1-1.3-7.5-1.6-20.8-.8-10.7.5-26 1-33.7 1-11.5 0-14.2.6-14.2 3s3.8 2.6 30.7 1.6c17-.6 32.6-1.5 35-2zm-478.2-.7c0-1-2.7-2-6-2-6.5 0-21.8-1.3-34-2.7-10.2-1-13.6-3-7.6-4.6 4.3-1 4.4-1.5 4.2-14.7-.2-7.5-.4-36.6-.5-64.5l-.2-51-6.8 1c-3.8.5-15 1.4-24.8 2-12.8.8-19 2-21 4-2.4 2.5-2.7 7.7-2 36 .4 23.6 1.2 33 2.8 33.7 1.2.4 2.2 1.4 2.2 2.3 0 1-1.3 1-3 .5-2.3-1-2.6 0-1.6 5 .7 3.5 1.2 14.3 1.3 24v17.7l7.6 1.2c4.5.6 7.8.3 8.2-.7.4-1 3.5-.8 8 .8 4 1.6 10.3 2.7 13.7 2.7 3.4 0 6.2 1 6.2 2 0 1.6-6.6 1.8-24 1-14.4-1-23.7-.8-23.7.3 0 1 12.2 2.3 27 3 15 1 35.3 2.2 45.4 3l23.5 1.4c2.7.2 5-.5 5-1.5zm-80.3-19.6c.6-1.3 2.2-2 3.7-1.4 3.4 1.4 3.2 2-1 3-2.4.7-3.2.2-2.6-1.5zm-5.7-8c-.6-1-.3-2 .7-2s2.4 1 3 2c.6 1 .3 1.7-.7 1.7s-2.3-.8-3-1.8zm6.5-5.2c0-.8 1.8-1.6 4-1.8 3.3-.2 3.6 0 1.4 1.4-3.3 2-5.4 2.2-5.4.3zm-1-6c-2-1-2.6-1.6-1.4-1.6 2.5-.2 1-5.8-2-8-1.4-.8-1.3-1.3.2-1.3 1.3 0 3.3 1.6 4.6 3.6 1.3 2 3 3.7 3.8 3.7.8 0 2.8 1.2 4.3 2.7 2.4 2.5 2.4 2.8-.2 2.8-1.4 0-2.8-1-2.8-2.3 0-1.7-.4-1.8-1.3-.3-1 1.2-3 1.4-5.2.5zm5-14c-.3-4.4.5-8 1.5-8s1.7 1.8 1.7 3.8c0 2 .7 3.7 1.5 4.2.7.4.4.5-.8.2-1.2-.3-2.6 1.3-3 3.5-.4 2-1 .4-1-3.8zm-15.5 51.4c-.6-.6-2.2-.6-3.5 0-1.5.5-1 1 1 1s3-.3 2.5-1zm278-.5c1.2-1.8-26.6-3.6-32.8-2-3 .6-2.7 1 1.8 2 8.5 2 30 2 31 0zm-98-28.5c0-27 0-28.4-4-31-5.4-4-6.7-3.7-8.7 1l-1.6 4.4v-4.2c-.2-4-1-4.2-8.5-3.7-4.5.4-8.2 1.3-8.2 2 0 1-1.4 1.3-3 1-2.2-.4-3 1-3.3 4.4-.2 2.7.5 4.7 1.4 4.5 1-.2 2 2 2.4 4.7.5 3.2 0 5-1.6 5-1.7 0-1.6.6.4 1.8 3.8 2.4.5 5-7.3 6-5 .3-6.5 1.3-6.5 4-.2 5-6 14-9.2 14-3.5 0-5.4 3.7-2.7 5.3 1.3 1-.5 2-4.7 2.7-3.7.7-6.2 1.8-5.5 2.5 1.2 1.3 28.3 3 56.4 3.7l14.2.3v-28.3zm-29.8-6c-.4-.8 0-3 .7-5 1.2-3.2 1.5-3.3 1.6-.5 0 1.7 1 3.2 2 3.2s1.8-1.5 1.8-3.2c0-3 .2-3 2 0 1 2 1.7 3.7 1.4 4-2 1.7-8.7 2.8-9.5 1.5zm82 32.5c-.5-1-6.8-1.8-13.8-1.8-8 0-12.4.6-11.7 1.8.6 1 7 1.8 14 1.8 8 0 12.3-.7 11.6-1.8zm249.4-12.4c-.5-1.8-1-.4-1 3.2s.5 5 1 3.2c.5-1.8.4-4.7 0-6.4zm-417.6 3.3c0-1-2.4-1.8-5.5-1.8s-5.5.8-5.5 1.8 2.5 1.8 5.5 1.8 5.5-.8 5.5-1.8zm21 0c-.5-1-3-1.8-5.4-1.8-2.4 0-5 .8-5.6 1.8-.7 1 1.6 1.8 5.5 1.8s6-.7 5.4-1.8zm37.7-8.5c6-7.6.6-8-5.7-.4-3 3.5-5.2 7-5.2 7.7 0 2.5 7-2.2 11-7.3zM5.77 361.5c0-17.8-.4-20.6-3.6-24-2.2-2-3.7-5-3.7-6.8 0-2 1-1.4 2.5 2 2 4.4 2.5 4.8 3.5 2.2 2-5.2 1.4-11.5-1.5-14.4-1.5-1.5-2.7-4.3-2.6-6 0-2 .5-2.5 1-1.2s1.9 2.2 2.9 2.2 1.4-10.5 1-26l-.4-26-7.7-.7c-4.4-.3-9.6.4-11.7 1.5-3.7 2-3.8 3-3.4 50 .2 26.5.7 52.4 1 57.7l1 9.6h21.6zm491 7.4c0-1-.7-2.2-1.7-2.8-1-.6-1.8 0-1.8 1.7 0 1.6.8 3 1.8 3s1.8-1 1.8-2zm18.4-4.2c0-3.3-.7-6.8-1.5-7.8-1.8-2.4-9.5-3.2-9.5-1 0 1-1.7 2-3.7 2s-3.7-1-3.7-2.4c0-1.5-.6-1.3-1.8.5-3 4.6-2.2 5.3 7.3 5.8 5.2.4 9 1.4 8.8 2.4-.2 1-1.3 2-2.3 2-1 .3-2.6.5-3.6.6-3 .4 3 3.8 6.7 3.8 2.4 0 3.2-1.3 3.2-5.8zm-260.3-4.8c0-1-2-1.2-4.6-.7-2.4.5-4.4 1.2-4.4 1.6 0 .4 2 .7 4.5.7s4.7-.7 4.7-1.6zm-6.4-15c.6-1 0-1.7-1.7-1.7-1.6 0-3 .8-3 1.8s1 1.8 1.8 1.8c1 0 2.3-.8 3-1.8zm266.3-2.3c-.5-3-1.6-3.8-6-3.5-3 .2-5.8 1.3-6.2 2.3-.4 1.4-1.4 1.3-3.2 0-2-1.8-3.2-1.7-5.3 0-4.4 3.5-2.3 4.6 10 5 10.6.4 11.2.2 10.6-3.7zm-88.2-1.5c-.6-1.5-1-1-1 1-.2 2 .2 3 1 2.5.5-.6.5-2.2 0-3.5zm86.2-13.5c-1-3.5-2.4-5.7-3-5-.6 1-2.6 2.2-4.4 3-1.8.6-2.8 2-2.2 3 .7 1 0 1.8-1.5 1.8s-3-.8-3.4-1.8c-.2-1-1.5-.2-2.8 1.8-2.2 3.5-1.8 3.7 8.6 3.7h10.8zm-302-16.6c0-5.5-.7-10-1.7-10s-2 5-2 11.2c0 7 .7 10.6 2 10 1-.7 1.7-5.7 1.7-11.2zm-7.2.2c0-8-.6-10-3-10-1.7 0-2.6 1.4-2.4 4v7c-.2 2.4-.4 2.4-2 0-1-1.6-1.3-4.3-.8-6 .6-2 0-3.3-1.4-3.3-1.7 0-2.2 2.5-1.8 8.8.6 8.4 1 9 6 9.3 5.3.4 5.3.4 5.3-9.7zm205.3-5.8v-15.5l-10.5.6c-7.7.3-10.3 1-10 3 .4 1.5-.4 2-2 1.5-2-.8-3 1-3.6 6.5-1.2 9 1.2 15.4 3.2 9 .7-2.2 2-3.6 2.8-3 2.3 1.3-2.3 10-5.4 10.2-5.7.5 8.6 3 17 3h8.6zm-224 4.4c-.5-2.2-1-.8-1 3.2s.4 6 1 4.2c.6-1.8.4-5 0-7.4zm59-3.2c0-1-.3-1.8-.7-1.8-.4 0-1.4.8-2 1.8-.6 1-.3 1.8.8 1.8 1 0 2-.8 2-1.8zm.1-12.9c0-1-.3-1.8-.8-1.8s-1.3 1-2 2-.2 1.7 1 1.7c1 0 1.8-1 1.8-2zm196-26c0-1.8-1-3-2.2-2.8-1.2.3-2-1-1.7-2.7.3-1.8-.3-3.3-1.4-3.3-1 0-.2-1.7 2-3.8 2.5-2.5 3.4-5.2 2.7-7.8-.6-2.2-1-5-1-6.3 0-1.3-1-2-2-1.2-1.2.8-1.8 0-1.4-2 .4-2.4-.5-3.4-2.7-3.2-1.8 0-3.3-.5-3.3-1.4 0-1-1-1.6-2-1.6-1.4 0-1.3 1 .3 2.8 1.4 1.8 1.7 3.4.7 4.2-1 .6-1.7 9-1.7 18.6v17.4l5-.3c3.6-.3 5 .5 5.2 2.7.3 3.6 3-4.3 3.3-9.2zm-7.5-22.8c1.4-.6 3-.5 3.6 0 .6.7-.5 1-2.4 1-2.2 0-2.6-.5-1-1zm-191.1 8.6c.7-1 .3-2-.8-2-1 0-2 1-2 2s.4 1.8 1 1.8 1.2-.8 1.8-1.8zm267.4-35.5c-.4-4.2-.7-.2-.7 8.8s.4 12.6.7 7.8c.4-4.7.4-12.2 0-16.4zm-22.5 12.5c9.3-1 11-2.7 2.6-2.7-14.5 0-40 2.4-40 4 0 1.3 21 .6 37.4-1.3zm114.7-.5c0-1.7-35-4-59.4-4-14 0-15 3-1 4 21.2 1.5 60.4 1.5 60.4 0zm-174.7-6.2c-.6-1.5-1-1-1 1-.2 2 .3 3 1 2.5.5-.6.6-2.2 0-3.6zm1.8-7.4c-.6-1.5-1-1-1 1-.2 2 .2 3 .8 2.4.7-.6.7-2.2.2-3.5zm40-1.4c-.5-1-2.6-1.2-4.6-.7-5 1.2-4.6 2.3 1 2.3 2.6 0 4.2-.8 3.7-1.7zm25.6-1c1-.4-3-.8-8.7-1-5.8 0-10.5.7-10.5 1.6 0 1.4 14.5 1 19.2-.7zm104 .6c-1.7-1.8-64-5.6-66.2-4-.4.3 0 1.2.6 2 1.2 1 15 2 58.7 3.7 6.7.2 8.6-.3 7-1.8zm-161.6-8.1c0-2.4 1-4.4 2-4.4s1.3-1 .7-2c-1-1.4-1.7-1.3-2.8.4-.8 1.3-2 1.8-2.8 1-.7-.6-.3-2.2.8-3.6 1-1.3 1.5-4.2 1-6.4-.7-2.4-.3-4 1-4 1 0 2-1.3 2-2.8 0-1.5-1-2.8-2-2.8s-1.7-3.7-1.7-8.2c0-5.6.6-8 2.2-7.8 1.7.4 2.4-5.7 2.8-24.3.3-13.5 0-28-.5-32.4-1.2-8.2-4.3-10.3-6-4-.4 2-2.4 3.5-4.3 3.5-3.2 0-3.5 2-3.6 21.7v28.1c.4 7 3.4 19 3.6 14.6 0-1.3 1-2 2-1.3 1 .6.8 3.7-.3 7.8-1.5 5-1.4 7 0 7.6 1.2.3 2 2.7 2 5.3 0 3.6-.4 4-2.4 2.5-3.3-2.8-5-.8-5 6.3 0 9 1.6 11.4 6.6 10.4 3.3-.6 4.5-2 4.5-5.2zm1.2-36c-.6-1.4-1-1-1 1.2-.2 2 .3 3 1 2.4.7-.6.6-2.2 0-3.5zm-256.5-7.7c5.6-1.4 5.8-1.8 6.8-13.6.7-6.7 2.4-17 3.8-22.7 1.6-5.8 2.8-11 2.8-11.6 0-1.6-19 1-21 3-1 1-1.5 4.6-1.3 8 .4 5.8-.2 6.7-5.7 9s-6.4 3.6-7.4 11.3c-2 15.2-1.7 18 2.4 17 2-.7 4-.4 4.7.5 1 1.6 5.4 1.3 15-1zm105.5-11l12.3-.7c4-.2 7.3-1 7.3-1.8s-5.6-1.2-12.4-1c-13.6.7-11.4-1.6 4-3.8 4.7-.7 8.3-1.7 7.8-2.2-1.2-1.2-45.5 4.5-47 6-.5.6 4.2.5 10.5-.2 14-1.6 15.4 1.4 1.8 4l-9.6 2 10-1 15.2-1.3zm-35-2.2c-1.2-.4-3.3-.4-4.5 0-1.2.4-.2 1 2.3 1s3.5-.4 2.3-1zm-84.5-24.7c.7-1 .3-2-.7-2.8-1-.6-1.8.2-1.8 1.7 0 3.2 1 3.7 2.6 1.2zm-185-5.2c4.8 4.5 11.3 3.8 10.5-1.2-.4-2-1.4-4.5-2.4-5.5-1.2-1.2-1.4 0-.6 3.2 1.6 6.4-.4 6.3-7.8-.5-40.8-25.6-1.7 2.2.2 4zm20-4.4l-9.5-10.6c-3-3.5-5.8-7-5.8-7.8 0-.7-.8-1.3-1.8-1.3-3 0-2 3.3 2.3 8 2.3 2.5 6.2 7 8.7 10.2 2.5 3 5.7 5.6 7.2 5.6 2 0 1.6-1-1-4zm9.7-4c-3-3.5-6-6-6.4-5.6-.5.5.5 2.4 2.2 4.2 1.7 1.8 3 4.3 3 5.5 0 1 1.6 2 3.5 2 3 0 2.5-1-2.3-6.3zm496.4-.2c-.5-9.3-2.7-10.2-2.7-1.2 0 4.2.6 7.7 1.5 7.7.8 0 1.3-3 1-6.4zm-483.8-.4c-2.6-2.8-6.4-8.6-8.5-12.8-2-4.3-4.5-7.8-5.4-7.8-2.5 0-2.4.3 4.6 12 3.5 5.7 6 11.2 5.4 12-.6 1 1 1.6 3.8 1.6h4.7zm10-3c-2.5-2.5-6.6-5-9-5.7-4-1-3.8-.7 1.3 2.6 3.4 2 6 4.7 6 5.7s1.5 2 3.2 2c2.6 0 2.4-1-1.4-4.5zm10.3-2.8c-2.4-4-5.6-10-7.2-13.7-2-4.8-3.5-6.3-5.7-5.5-2.5 1-2.5 1.6.6 5 2 2.2 6 8 8.8 12.6 3 4.8 6 8.7 6.8 8.7.8 0-.6-3-3-7zm13.7-2c-2-2.8-3.7-6-3.7-7.2 0-1.2-.6-2-1.5-2-.8 0-2.7-2.6-4.2-5.8-1.5-3.2-3.3-5-4-4-1.4 2.4 13.3 26.6 15.6 25.2 1-.5 0-3.3-2-6.2zm-54.6-3.7c-1-3.7-3.7-6.5-5-5-1 .7 4.2 8.7 5.4 8.7.3 0 .2-1.7-.4-3.7zm22.8-6.4c-.7-1.5-2.6-2.7-4.4-2.7-3 0-3 .2 0 2 1.7 1 3.2 3.2 3.3 5 0 2 .3 2.2 1 .7.5-1.3.4-3.6 0-5zm80-.3c-2-3-5-8.3-7-12-3.6-7-6.5-9-6.4-4.6 0 2.8 3.5 8.5 3.6 6 0-1 2.6 2.5 5.7 7.8s6 9.3 6.5 8.8-.6-3.2-2.6-6zm-48-1c-1.3-1.5-2.2-1.6-2.2-.4 0 1 .6 2.4 1.3 3 .7.8 1.7 1 2.2.4.6-.5 0-2-1.2-3zm59 .3c-.7-2-1.8-3.2-2.6-2.7-1.8 1-.2 6.3 2 6.3.8 0 1-1.7.5-3.7zm8.6-3.6c-4-8-7.4-11-7.4-6.7 0 1.5.8 3.2 2 4 1 .6 2.6 3 3.5 5.5 1 2.4 2.6 4.4 3.6 4.4s.3-3.3-1.7-7.3zm10-1.7c-2.2-4-4.4-6.8-4.8-6.4-1.2 1.2 5.5 13.6 7.3 13.6 1 0-.3-3.3-2.4-7.2zm373.7-.4c-1.7-2.4-3-6.7-3.2-9.8 0-5.3 0-5.2-2 1.6-1.7 6.5-1.4 7.4 2.5 10.4 5.5 4 6.6 3.2 2.8-2.3zM95.97 88c0-1-1-1.8-2.3-1.8-1.2 0-4-2.5-6-5.5s-4.7-5.5-6-5.5c-2 0-2 1 .8 4 7.6 9 13.5 12.7 13.5 8.8zm60.3-.8c0-2-8-14-8.7-13.2-1.3 1.3 5 14 7 14 1 0 1.6-.4 1.6-.8zm339-3.3c0-3.4-.4-3.6-2-1.4-2.2 3.7-2.2 5.6 0 5.6 1 0 2-2 2-4zm-323.3-8.1c-2.4-5-3.5-6-3.5-3.4 0 3.7 5 12.7 6.5 11.3.4-.3-1-4-3-8zm-60.4 3.7c0-1.4-.8-2.2-1.8-1.6-1 .7-1.4 2-.8 3 1.5 2.4 2.6 2 2.6-1.3zm84.3-4.3c-4.8-9.5-6-9.5-2 0 1.6 4 3.6 7.3 4.4 7.3.8 0-.3-3.3-2.4-7.3zm162.6 2.5c-.6-.6-2.2-.7-3.5 0-1.5.5-1 1 1 1s3-.4 2.5-1zm18.8-2.4c0-.7-2-1-4.5-.6-2.5.5-4.6 1.2-4.6 1.6 0 .4 2 .7 4.5.7s4.6-.7 4.6-1.6zm-148-11.8c-4.2-6.4-7.6-13.5-7.8-15.6 0-2-.4-3.8-.6-3.8l-3 1c-2 .8-1 4.2 5.5 15.6 4.7 8 9.5 14.6 10.8 14.6 1.5 0-.3-4.5-5-11.8zm-50.2 5c-3.2-3.2-3.2-3-1 .7 1.4 2.2 3 3.7 3.4 3.2.5-.5-.6-2.3-2.4-4zm65.4-4.3c-5-4.7-5.7-6.2-4.8-12 1-5.8.5-6.7-4-8.4-6.3-2.4-8.2-1-2.7 2 3.2 1.6 3.8 3.2 3 7.8-.6 4.5.2 7 4 10.8 2.5 2.8 6 5 7.4 5 2 0 1-1.8-3-5.3zm13.8-10.7c-4-7.6-7.5-14.8-8-16-.2-1-1.2-1.2-2-.5-2 1.7 12.2 30.5 15 30.6 1 .2-1.2-6-5-14zm-71.6 5c-2-4.2-4.2-7.2-4.6-6.8-1 1 6.3 14.2 7.7 14.2.4 0-1-3.4-3-7.5zm87.6-13.2c-5.5-5.8-11-10.6-12.2-10.6-1.2 0 3 5.4 9 12s11.4 13 11.5 14.2c.2 1.2.6.6 1-1.4.5-2.5-2.4-7-9.3-14.2zm30.6 0c-3.6-7.3-6.6-14.3-6.6-15.6 0-1.3-1.4-2.3-3-2.3-2.8 0-2 2.5 4.3 15.4 4 8.5 8.5 15.5 9.7 15.6 1.3 0-.5-5.5-4.4-13.2zm17.6-5.3c-8-16.8-8.2-17-9.8-15.5-1.6 1.6 12.6 30.6 15 30.6 1 0-1.3-6.8-5.2-15zm22.5 9.5c0-2-1-3.5-2-3.5s-1.7 1.5-1.7 3.5.8 3.8 1.8 3.8 2-1.6 2-3.7zm16.6-1.5c0-1.5-12.8-31-14.3-33-.4-.5-1.6 0-2.7 1.2-1.5 1.5-1 3.4 1.5 7.2 2 2.7 5.6 9.8 8 15.6 4 9.4 7.3 13.4 7.3 9zm19.9-3.5c0-.8-2.8-4.2-6.3-7.5-5.3-5-6.2-7-5.4-12 1-6.2-1-8.8-8.5-11-4.3-1.5-4.3-1.4.8 3 4 3.4 5 5.4 4 8.5-.8 2.2-2 4-2.7 4-.7 0 2 3.7 6 8.2 7 7.6 12.2 10.5 12.2 6.8zm18.3-1.9c0-1-2.8-8.4-6.4-16.4-3.4-8-6.3-15.5-6.3-16.6 0-1-1.2-2-2.7-2-3.7 0-3.5 2.4 1 11 2 4 3.5 10.5 3.5 14.6 0 5.3.8 7.4 2.8 7.4 1.5 0 2.7.8 2.7 1.8s1.3 2 2.8 2c1.5 0 2.7-1 2.7-2zm100-15.1c-1-8.7-1.7-9.6-8.8-12.7-4-2-8-3-8.4-2.6-1.3 1.4 6 6.3 8.3 5.5 3.7-1.3 7 2 5 4.8-1.6 1.8-1.6 5-.3 11.5 1.6 7.2 2.3 8.3 3.7 5.8 1-1.8 1.3-7.3.5-12.4zm-81.5 9.7c0-1.8-.8-4.5-1.8-6-1.5-2.3-1.8-2.3-1.8.3 0 1.8-.5 4.5-1 6-1 2-.2 3 1.7 3 1.7 0 3-1.4 3-3.2zm-86.4-.5c-.4-1.2-1.4-2-2.4-2s-2 .8-2.4 2c-.4 1 .7 2 2.4 2s2.8-1 2.4-2zm-47.3-4.8c0-1.5-.8-2.3-1.8-1.7-1 .6-1.4 2-.8 2.8 1.6 2.5 2.7 2 2.7-1.2zm322.4-3.4c.5-3 .2-3-1.8-1.3-2 2-16.4 3.5-16.3 1.8l6.4-17.5c5-14 5.6-17.3 3.5-18-1.5-.7-3-.8-3-.4-1.2 1.8-11.4 34-11.4 35.5 0 2 11.7 4.4 18.4 4 2-.2 4-1.8 4.3-4zm-583.1-1c0-1-.8-1.8-1.7-1.8-1 0-2.4.8-3 1.8-.6 1 .2 2 1.7 2 1.6 0 3-1 3-2zm412.4 0c0-2-3.6-4.3-5-3-1.4 1.3 1 5 3.3 5 1 0 1.7-1 1.7-2zm11-5c0-6.2-3-9.7-8.2-9.5-3.5 0-3.5.2.4 1.8 3 1.2 4 3 4 7.2 0 3 1 5.5 2 5.5s1.8-2.3 1.8-5zm12.8 1.8c0-.7-1.4-7-3-13.7-2-7.7-4.2-12.3-5.8-12.3-1.8 0-2 1-1.2 3.2.8 1.7 2.7 8 4.3 13.7 1.7 5.8 3.6 10.5 4.4 10.5.8 0 1.4-.6 1.4-1.4zM331.77 22c0-1-.8-1.8-2-1.8-1 0-1.3.8-.7 1.8.6 1 1.5 2 2 2 .4 0 .7-1 .7-2zm73 0c-.4-1.2-1.4-2-2.4-2s-2 .8-2.3 2c-.4 1 .7 2 2.4 2s3-1 2.5-2zm136.3-14.1c2-7 4.2-13.5 4.7-14.8.5-1.2-.3-2.3-2-2.3-1.5 0-3 1.5-3 3.2 0 1.7-1.5 7.8-3.4 13.3-3 8.8-3.3 13-1 13 .5 0 2.6-5.7 4.7-12.5zM53.97-.2c.5-8.7.3-9.4-2-6.3-1.3 2-2.4 5-2.4 6.8 0 1.8-.7 3.4-1.6 3.4-.8 0-1.2-2.7-1-6 .6-4.8.4-5.3-1-2.3-2.3 5.1-2.2 13.4.3 16.1 3.8 4 7-1 7.7-12zm455.6 13.7c0-2.6-6-10-7.6-9-1 .6-1.2 1.7-.7 2.6.6.8-.3 2-2 2.6-2.2 1-2.7.3-2-2.6 1-3 .6-3.4-1.5-1.7-4 3.4-11.5.6-13-4.6-1-4.2-4.3-6.5-4.3-3 0 5.3 5.2 10.8 12.7 13.4 8.4 3 18.4 4.2 18.4 2.4zm-104.3-6.2c0-2.5-1.2-3.6-4-3.6-3.8 0-3.8 0-.6 3.6 1.8 2 3.6 3.7 4 3.7.3 0 .6-1.6.6-3.7zM41.67 3.5c0-3-1-5-1.7-4.5-2 1.3-2 10 0 10 1 0 1.8-2.5 1.7-5.5zm528.2 4.6c0-2-3.5-2.7-4.6-1-.6 1 .2 1.8 1.7 1.8 1.6 0 3-.4 3-.8zm-128.4-6c1.6-1.4-1.3-2-6.8-1-3.3.5-6 1.6-6 2.5 0 1.4 10.8.2 12.7-1.4zM36.97-8.3c.6-1.5.3-2.8-.7-2.8s-1.8 1.3-1.8 2.8c0 1.5.3 2.7.7 2.7.3 0 1-1.3 1.7-2.8zm12.3-3.2c-3.5-5.4-5 .7-2 .8 1 0 2-.4 2-.8zm251 502.7c0-2.3 3.7-2.3 7.3 0 2 1.4 1.6 1.8-2.3 1.8-2.8 0-5-.8-5-1.8zm-91-2.3c.3-1.2-.6-3.7-2-5.5-3.2-3.6-1.4-4.2 6.4-2 4.7 1 5.5 4.2 1 4.2-1.7 0-2.4 1-1.7 2.8.6 1.7 0 2.7-1.8 2.7-1.7 0-2.6-1-2-2.3zm307.3-.4c0-1.5.8-2.8 1.8-2.8s2 1.3 2 2.8c0 1.5-1 2.7-2 2.7s-1.7-1.2-1.7-2.7zm-69-2.4c-.6-2-2.4-4.3-4-4.8-3.2-1 26.5.6 32.2 1.7l4 .8c.6 0-.2 1-1.7 2-2.5 1.6-12.5 1-20.4-1.2-1.7-.4-4.4.6-6 2.3-3 3-3.2 2.8-4.2-.7zm-364.9-4.6c.5-1.2 2.8-2 5.2-1.6 2.4.4 7.5.8 11.3 1 11.7.4 7.4 3-5.3 3-9 0-11.8-.6-11.3-2.3zm201.5.8c-1.4-.8 2.3-1.2 8.2-.7 14.5 1 16.4 2 4.2 2.2-5.6 0-11.2-.6-12.5-1.4zm-22-3.4c1.8-.4 4.7-.4 6.4 0 1.7.4.4 1-3.2 1s-5-.5-3.2-1zm18-2c0-1-2.3-2.2-5-2.5-2.7-.4-5.2-1.8-5.7-3-.6-1.8 1.8-2 10-1.3 22.7 2.2 26.5 3 25.8 5-.7 2.5-9 2.7-15.6.6-2.5-.8-5.2-.5-6.8.8-1.7 1.5-2.7 1.6-2.7.4zm-276.3-7c-.7-3-2.6-6-4.2-7.3-3.4-2.4-1.5-5 2.5-3.5 3 1 8.4 12 7 14.5-1.5 3-4 1-5.3-3.7zm9.4 3c-.5-1 .2-1.7 1.7-1.7s3.3.8 4 1.8c.7 1-.2 1.8-1.7 1.8s-3.3-.8-4-1.8zm78.5-6.6c-5-.7-6-1.7-6-5.3 0-2.5-.6-4.5-1.4-4.5-.8 0-1.3-1.6-1.3-3.5 0-3 1-3.4 9.2-2.7 12.2 1 13.6 1.7 13.2 6-.2 3.3-1.2 3.6-9 2.7-7.5-.8-8.6-.5-7.7 2 .7 1.7 3.4 2.8 7 3 3 0 7 .7 8.4 1.7 2.8 2-.2 2-12.5.5zm264.8 0c1.3-.5 3.3-.5 4.6 0 1.2.5 0 1-2.4 1s-3.5-.5-2.3-1zm246-2.5c0-1 1-1.8 2-1.8s1.4.8.8 1.8c-.5 1-1.4 2-2 2-.3 0-.7-1-.7-2zm-555.3-7.3c0-1 1-1.7 2-1.7s1.4.8.8 1.8c-.6 1-1.5 2-2 2-.4 0-.8-1-.8-2zm24 .4c0-.8 1-1.5 2.6-1.5s2.8.6 2.8 1.4c0 .8-1.3 1.5-2.8 1.5-1.5 0-2.7-.8-2.7-1.6zm-.1-5.6c0-1-1.7-1.2-3.6-.7-2 .6-4 0-4.7-1-1.5-2.4 8-2.7 11.5-.4 2 1.3 2 1.8-.4 2.7-1.6.6-3 .4-3-.5z" fill="#d45500"/><path d="M223.47 470.5l11.7-10.8 12.4-17.5 2.7-33.5 6.7-20 3.5-1.5-7-16.3 7.8-34 13.6-13.2 20.7-7 30.4 5 19.5 15.3 6.2 27-2.7 21-9.4 10.4 12 27.6 13 42.4 10-11.3 13 19-22.3 23.5-12-16.4 7.7-11.3-14-12-4-9.8v16.8l-24.4 24-43.6 6-38.2-7.4-13.3-16" fill="#f9f9f9" stroke="#000"/><path d="M283.07 518.5c-.7-1-1.5-3.5-1.4-4.8 0-1.4-1.4-4-3-5.3-2.3-2-3.4-5.3-2-5.6.5 0 1.5.6 2.5 1.5 2 1.8 2.5 1.7 2.2-.4 0-.8-.3-3-.3-5.2l-.2-4h-1c-.6-.3-5-.6-12.4-1-5.5-.2-8.8-.7-11-1.4-1.3-.4-3-.8-4-.8-7 0-15.4-2.8-21-7-1-.8-2.6-1.8-3.2-2-.6-.5-2.2-2-3.5-3.5l-3-3.6c-3.5-3.7-3.6-5-.7-6 3-1 12-9.8 15.3-15.2 1.2-2 2.8-4.4 3.6-5.4 4.6-6 6-9.8 6.3-17.8 0-2 .2-4.7.3-5.7.2-1.2.4-5.2.6-9 0-4 .4-7.6.7-8.4.3-1.6 1.5-5 2-5.8.2-.4 1-2.7 1.7-5.2 1.4-4.6 3.8-9.3 5-10l.7-.4-1-2.2c-1.3-2.4-3-8.4-3.8-13.4l-.6-3 .4-3.4c.4-4 1-7 1.4-9.3 0-1 .6-3.4 1-5.3.3-2.4 1-4.3 1.7-6l2.5-5.5c1.3-2.7 6.7-10.7 7.3-10.7 4.8-5 20.4-14.7 38.5-13.8 18 1 27.2 9.7 28.5 10.4l3.2 2 1.6 1.6c2 1.5 8 9 8 9.6 0 .2.3.8.7 1.3 2 2.6 3.8 8.3 5.4 17.5.8 3.7 1 15.3.2 16.4l-.3.8 1.3.2c1.5 0 7-.5 8-1 0 0 .8 0 1.4.5.7.3 1.5.6 2 .6 1.4 0 .8 1-1 1.5-1 .5-3 1-4.5 1-3.6.5-8.5 1.4-8.7 1.6 0 0 0 .6.2 1 1 2 .2 4.7-2.2 8-2 2.6-2 2.7 3.2 4 2.3.4 5.3 1 6.8 1.5 1.4.5 3.2.8 4 1 .6 0 2 .4 2.8.8l1.7.7-1 1c-.4.5-1 .8-1.8.8-2 0-14.4-2-19.2-3-1.4-.3-2.7-.5-3-.3 0 0-.5 0-.7-.2-.5-.4-4.5-1.2-8.4-1.7-1.7 0-5.2-1-8-1.5l-8-2-5-1c-1.2 0-2-.3-2.2-.5-.2-.2-.2-.8-.3-1.2 0-.5-.6-1-1-1.3-1.3-.5-1.2-1.7.3-3.3l1.3-1.3 3-.3 4.8-.2c1 0 3-.2 4.4-.5l2.3-.6-1-3.7c-1.6-4.6-2.2-8.4-2.6-14-.4-5.4-.4-6 .7-9.3 1.6-5 2.2-7.8 2.4-10.6.3-2.4 1.3-3.2 4.6-3.5 1-.2 2 0 2 0l2 1c2.7 1.4 3.4 2 5.6 6.2 2.8 5.5 4 10.8 3.2 16.8-.8 6.8-2 11-3.8 14-.5.8-.8 1.5-.7 1.5.2.3 6-.5 7.6-1 .8-.3 2.2-.6 3.2-.7 2 0 2.2-.2 1.5-1.2-.7-1-.8-3-.2-5.6.5-2.2 0-10-.6-12.3l-1-4s-1-3.6-1.3-4.6l-1.3-3.7c-.4-1-1-2-1.2-2.2-.3-.3-1.3-1.8-2-3.2-3-5-8.5-10-11-10-.3 0-.6-.3-.6-.5 0-.7-10.5-5-13.2-5.4l-1.6-.3-5.6-1.2-6.7-1h-2.6c-5.5-.3-2-.4-5.5-.3-3 .2-5.3.5-6.7 1l-2.3.6-1.7.7c-1.2-.5-10.7 5-11.2 6.4 0 .5-.6 1-1 1.2-.5.2-1 .6-1 1l-1 .8c-2 .7-8 9.3-8 11.4 0 .2-.4 1.3-1 2.3-1.8 3-3 6.8-3.3 11l-.7 4c-2 8.3.2 22.2 3.8 25.7 1.7 1.6 2 2.3 1.6 3.2l-.4.7 1 2.8 2.2 5c1.3 2.6 3 6.8 3 7.2 0 .7 2.2 6 3 7.8.6 1 1 2 1 2.2 0 1 1.5 4.2 5.2 10.8 2.5 4.5 3.2 5.4 5.7 7l1.2 1 4.8-.3c2.6 0 6.6-.3 9-.5h4.5c.2.2 1 .2 1.5 0 1.2-.2 1.7-1 2-4l.3-1.8 1-.4c.5-.3 1.6-.3 3.6 0l4.8.2h2.2l1-2c.6-1.2 1.7-2.8 2.4-3.6l3.6-4.5 3.7-4.6c.8-1 2-3 2.7-4.4 1.7-3.4 5-9.5 6-10.3.2-.4.5-1 .5-1.3 0-.7 1-1.3 2-1.3h1l1.4 2.7c.7 1.3 1.7 3.5 2 4.7l1.8 4.3c1 2 2.7 6 4 9.2l1 3c0 .7.8 2.8 1.4 4.6l1.5 5 1 3c1 3 2.5 8 3.3 11.2 2 8.3 3 11.8 5 16.2l1.5 3.6c0 1.6 3-1 6-5 2.3-3.4 3-4 4.3-2.5l7 8.8c3 4.8 5 8 5.8 8.6 1.5 1.4.8 2.6-4.8 8.6-1.2 1.3-2.2 2.5-2.2 2.7 0 .2-.5.6-1 1-.6.2-2.3 2-4 3.8-1.5 2-4 4.8-5.7 6.5-1.5 1.7-2.8 3.2-2.8 3.4 0 .2-.8.8-2 1.2-3.8-3.8-1.5-1.3-3.8-3.8-1-1.2-1.8-1.8-1.7-1.5l.4 1.6.3.8-.5-.7c-.4-.2-.6-.7-.6-1 0-.2-.4-.8-1-1.4l-.8-1.5c0-.4-1-2-4.3-6.8-2-2.8-2-3.2 0-5.8 1-1.2 2.2-3 3-4.4.6-1.2 1.6-2.7 2-3.3.5-.7.8-1.3.8-1.5 0-.4-2.3-2.5-2.8-2.5-.8 0-7.3-4.6-8.4-6-1.4-1.5-1.7-1.6-1.7-.7 0 1.7-2.4 7.2-4 9-5.6 7-7.8 9.4-10 10.7-2.7 1.6-7 4.6-8.2 6-3 2.7-9.7 6-15.4 7.2-1.5.2-2.8.7-3 .8-.6.6-.8 7-.2 8.2.4 1 .5 2 .4 3.4-.2 2.5-.3 2.5 3.3 2.2 3.3-.4 4.3 0 4.6 1.2.3 1-.6 2.2-1.7 2.2-1.3 0-1.4.5-.7 1.7l.6 1-.6.6c-.3.3-1 .6-1.7.6h-1.2v1.2l.2 1.3h-1l-.8.2-1.2-1.7c-.7-1-1-2.2-1-3 0-1-.2-1.3-.5-1.3s-.7-.2-1-.5c-.7-1-2.2-1.5-4-1.7-1 0-2-.5-2.4-1l-1.2-.6c-.8 0-1-.8-.2-2.2 1-1.7 2-2 3-1 .8.7 2.6 1.4 2.8 1 0 0 .2-2.7.2-5.8l.2-5.6h-2.2l-7.5.8-6 .6h-1.5v4.3c.2 2.5.4 5.3.7 6.4l.5 2.5c0 .5 1 1 2.3 1 .8 0 2.6 1.6 2.6 2.3 0 .8-1 1.6-2 1.3l-1-.2-.2 1.3c0 .7-.2 1.4 0 1.5.3.6-.3 1.5-1 1.5s-1 .2-1.3.8c-.4 1-1 1.2-1.7.4zm84-27.4c1.4-1 1.4-1.2-.2-2l-1.8-1c-.3 0-.6-.5-.7-1-.3-1.6-1.6-3.6-4-6.2l-2.3-2.5-.8.7c-1.2 1-1.2 2-.2 3 .4.3 2 2.4 3.7 4.7 1.7 2.3 3.2 4.2 3.6 4.3.5 0 .8.3.8.5 0 .6.7.4 2-.6zm-78-.2c1 0 9-.7 12.6-1.2.8 0 1.8-.2 2.3-.3.5 0 2-.5 3.3-1l4.2-1c2-.5 6.3-2.6 6.6-3 0-.3.5-.5 1-.5.4 0 5-3.6 8-6.6.7-.6 1.6-1.2 2.2-1.5 1.8-.7 9-8.2 10.4-11 2.2-4.4 3.7-10.2 3-12.2-.6-2-1-5.4-.7-6.3.8-2 3.3-.4 3.2 2 0 .8.2 1.6.8 2.4l.8 1.5c0 1 5.5 7.8 6.5 7.8l1.4.8c.6.5 1.8 1.2 2.7 1.6l3 1.8c1 1 2.2 1.3 2 .6l-1-3-2-6c-1.5-4-3-9.4-4.2-14.4l-2.2-7.7c-.8-2-1.5-4.7-1.7-5.6l-2-6-1.7-5c-1-3.5-3-8-4-9-.5-.4-1-1-1-1.5 0-.4-.2-1.4-.5-2l-1.5-3.8c-.8-2.4-1.2-2.8-1.6-1.7 0 .3-.7 1.4-1.3 2.4-.7 1-1.8 3-2.5 4.3-2.4 4.6-3 5.6-4 7-.8.7-2 2.2-2.8 3.3-.8 1.2-2.4 3.2-3.6 4.5-1.2 1.4-2.6 3.5-3.2 4.7-.5 1.3-1.2 2.6-1.5 3-.4.2-.7 1.3-.8 2.3 0 1-.3 2-.4 2.4l-.3 7c0 3.7-.3 7.6-.4 8.6l-.2 2-2.5.2c-1.4 0-3.8.6-5.4 1-8.3 2-20.5 2.5-28.8 1l-1.4-.2v-9.8c0-10.5-.2-10.7-1.8-11.3-.5-.2-.8-.6-.8-1 0-.7-3.8-7.7-5-9.2-.8-1-2-3.6-4.4-10.5-1-2.7-3.2-8-5.2-12.2-1-2.2-2-4.7-2.3-5.8l-1-2.4-.7-.6-.5.7c-.8 1.2-2.5 5-3.5 8.4-.5 1.6-1.4 4-2 5.3-1.5 4-2 6.2-2 11.7 0 3-.3 6.8-.5 8.7-.2 2-.4 8-.4 13.3 0 8.3-.7 22-1.2 24.4v1.7l.4 1.2.7-1.3c.5-.8 1.3-2 2-2.6 1.7-2.3 6-11.3 6.6-14.2.6-2 2.2-3 3.3-1.7l.6.7-.4 1.8c-.7 3.4-4.8 12-7.3 15.2-1.8 2.4-1.4 2.5 2.4 1 .8-.5 2-1 3-1.4 1.5-.7 2-.5 2 .6 0 2.2-1.3 3.2-7.5 5.3-1.7.5-3.2 1-3.4 1.2-.4.3-7.2 2.3-9 2.7l-9.3 1.8c-.2 0-.6-.4-1-1-1-1.6.4-2.8 4-3 2-.2 8.5-1.8 9-2.3l.4-4c0-2 .2-4.7.4-6 .5-4.2.8-12.2.5-11.8-.3.2-1.3 1.5-2.4 3-1 1.4-2.3 3-2.7 3.2-.5.4-1.4 1.7-2 3-2.7 4.7-9 11.7-13.4 14.8-2 1.4-2 1.5 1 4.6 8.8 9.4 12.5 11.3 24 12.5 2.6.3 6.3 1 8 1.3 2.3.4 6 .8 10.6 1l10.8.7c2 0 4.5.2 5.6 0h3zm84-6.4l3.2-3.7c.3-.4.6-.6.8-.6.2 0 .8-.5 1.4-1l1-1-1-1.2-1.7-3c-.6-1.2-1.8-3.3-2.8-4.8l-2.5-4c-1-2-1.2-2.2-2-1.6-1 1-.8 1.5.7 2.2 1.3.6 2.4 2.3 3.5 5.3.2.6 1 2 2 3 1.5 2 1.8 3.3 1 4-.3.3-.6.8-.6 1 0 .4-.6 0-1.6-1-1.5-1.3-2-1.4-2-.3 0 .3-.3 1.2-.7 2-.4.7-.6 1.6-.5 2 .3.7-.5.8-1.3 0-.7-.4-2.3-3-2.6-4 0-.3-.5-.7-1-.8-.3-.2-1.6-1-3-2.2-2.2-2-2.6-2-3.2-.8l-.3.7.8.6c.6.2 1.2 1 1.4 1.4.3.7.7 1 1.5 1 1 0 1.8.7 1.8 2 0 .5.2 1 .5 1.4.3.2.5.8.5 1.2 0 .4.3 1.2.7 1.7.4.4.7 1 .7 1.2 0 .5 1.7 3 2 2.8l3-3.3zm-1.8-10.2c0-.2-.3-.6-.7-1-.3-.3-.7-1-.7-1.4 0-1.5-3-4.7-3.8-4-.6.3.5 2.3 2.6 4.5 2 2 2.6 2.4 2.6 1.8zm-69.4-23.8c.4-.2 1.3-.3 2-.3 2.8 0 10-2 11-3 .4-.6 1-10 .7-11.6l-.2-1h-4.6l-11.6.5c-9 .2-15.4.5-15.7.7v4c.2 4.6.2 7.3 0 9v1.3l3.6.6c4 .7 13.8.6 15 0zm-7.3-1.3c-2-1-2.5-2.2-2.4-5.5v-3l1-1.2c1.5-1.8 3.7-3 6.7-3.2l2.4-.4 1.5 1c3.8 2.7 4.4 3.8 3.5 7-.5 1.4-1 2.3-2.5 3.7l-1.8 2h-2.4c-3.6.4-4.7.3-6-.3zm8.3-9.4c-.6-.7-1.7-.6-1.7.2 0 1 .2 1 1.2.7.6-.3.7-.5.4-1zm13-10c0-.3-.3-.4-1.4-.5-1.5 0-2.2.7-.8 1 1 .4 2.3.2 2.3-.4zm27.8-43c.3-.8 1-2 1.5-2.6l1.3-2.4c.2-.6 1-1.6 1.6-2.2 1.3-1 1.2-1.5-.5-1-.6.3-1.5.5-2 .5-.3 0-2 .4-3.7 1-3.5 1.2-9 2.5-13.4 3.2-5 .7-5 1-.3 1.7 2 .2 4 .6 4.6 1l3.5 1c1.4.2 3.2.7 4.2 1 2.3.6 2.6.5 3.2-1zm-11.6-10c1.6 0 2.3-.3 2.3-1.2 0-.4.4-1.4.7-2 1.2-2.4 2.8-7.5 3-9.5 0-1 .4-3 .6-4.5l.4-2.5-1-3.7c-1-4.4-3.2-9-4.7-10.6l-1-1h-3l-.8 1.3c-.4.7-1.2 2.5-1.7 4l-1.6 4.7-1 1.6.2 5.4c0 7.4 1 12 3 14.8.5.7.7 1.6.7 2.4v1.4l1.5-.2c1-.2 2-.3 2.3-.2zm-3.3-17.6c-2.8-1.5-2.4-6.4 1-10.4l1-1.5h1.4c2.5 0 4.6 2.4 4.6 5.8v1.5l-1.6 1.7c-1.6 1.8-4 3.6-4.8 3.6l-1.7-.6zm-34.5 22.6c-1.3-.4-5-3.4-5.5-4.6-.8-1.6-1.6-5.2-1.8-8.2 0-1.5-.3-3.4-.4-4.2-.5-2-.6-9.2 0-10.3l.6-4.2c1-7.7 3-12.3 5.6-13.2 3-1 7.6 0 8 1.7.2.4 1 1.2 1.5 1.7.8.6 1.3 1.3 1.3 1.4l1 2c1.7 3 2 4 2.2 11.3l.3 7.2-.7 3.7c-1.3 7.6-2.4 10-5.8 12.8-3.2 2.7-4.5 3.3-6.3 2.8zm2.3-4.2c2-1 4.2-3.5 4.4-4.6 0-.6.5-1.6.7-2 1-2.5 2-8.4 1.8-11.5l-.2-5.7c0-4-1.2-8.3-2.3-8.3-.2 0-.5-.5-.7-1-.4-2-4-4.4-4.8-3.3 0 .2-.7.4-1.3.5-1.7.4-2.5 2.4-3.6 8.8l-1 5.6.2 6.3c.2 10 1 13 3.4 14.6 2 1.4 1.8 1.3 3.3.5zm-3-18.4l-1-1v-2.8l-.2-2.7 1.3-2c.8-1.8 1.5-2.6 2.4-3l1.3-.8 1.7.5 1.8.5c.4.5 1.2 4.6 1.2 6.3v2l-1 1.3c-2.4 3-5.5 3.6-7.3 1.8z"/><path d="M377.07 509.5c0-.6.5-1 1-.5 1.5 1 1.5 1.7 0 1.7-.5 0-1-.6-1-1.2z" fill="#fff"/><path d="M377.07 509.5c0-.6.5-1 1-.5 1.5 1 1.5 1.7 0 1.7-.5 0-1-.6-1-1.2z" fill="#fff"/></svg>